<svg width="328" height="21" viewBox="0 0 328 21" fill="none" xmlns="http://www.w3.org/2000/svg">
<path fill-rule="evenodd" clip-rule="evenodd" d="M52.2753 16.7891H47.1386L53.9026 3.22998H59.2753L61.9368 16.7891H56.7877L56.6045 15.0982H52.9336L52.2753 16.7891ZM56.297 11.8863L56.0579 9.40182C56.002 8.81613 56.0268 7.93443 56.0392 7.30465H55.8405L54.1759 11.8863H56.2597H56.297Z" fill="white"/>
<path fill-rule="evenodd" clip-rule="evenodd" d="M39.8684 14.2352L43.7162 10.3369L46.9585 16.789H41.151L39.8684 14.2352Z" fill="white"/>
<path fill-rule="evenodd" clip-rule="evenodd" d="M31.5454 16.789H37.3529L43.7162 10.3369H37.9088L31.5454 16.789Z" fill="#F59300"/>
<path fill-rule="evenodd" clip-rule="evenodd" d="M35.3125 3.22996L41.1169 3.22681L44.3622 9.68205H38.5547L35.3125 3.22996Z" fill="white"/>
<path fill-rule="evenodd" clip-rule="evenodd" d="M44.9212 3.22998L42.4025 5.78374L44.3622 9.68207L50.7255 3.22998H44.9212Z" fill="#F59300"/>
<path fill-rule="evenodd" clip-rule="evenodd" d="M28.62 3.22998H33.4771L31.356 16.7891H26.4988L28.62 3.22998Z" fill="white"/>
<path fill-rule="evenodd" clip-rule="evenodd" d="M15.9585 16.7891H10.8218L17.5827 3.22998H22.9554L25.6169 16.7891H20.4709L20.2877 15.0982H16.6138L15.9585 16.7891ZM19.9802 11.8863L19.7411 9.40182C19.6852 8.81613 19.71 7.93443 19.7225 7.30465H19.5237L17.8591 11.8863H19.943H19.9802Z" fill="white"/>
<path fill-rule="evenodd" clip-rule="evenodd" d="M11.5703 8.72155C10.9119 7.991 10.0299 7.35807 8.93363 7.35807C7.47711 7.35807 6.11065 8.52632 5.87462 10C5.64792 11.4957 6.72556 12.6419 8.17897 12.6419C9.29699 12.6419 10.2566 12.1633 11.1603 11.3887L10.2225 16.4647C9.38084 16.8363 7.55164 17 6.67897 17C2.86841 16.9969 0.359093 13.9928 0.961578 10.1291C1.57649 6.16779 5.14171 3 9.06096 3C10.1603 3 11.269 3.20783 12.2349 3.55735L11.5703 8.72155Z" fill="white"/>
<rect x="72.7788" width="2.99091" height="21" fill="#F59300"/>
<path d="M90.16 5.536C91.408 4.29867 92.896 3.68 94.624 3.68C96.352 3.68 97.8347 4.29867 99.072 5.536C100.32 6.76267 100.944 8.24 100.944 9.968C100.944 11.7493 100.331 13.2427 99.104 14.448C97.8773 15.6533 96.384 16.256 94.624 16.256C92.864 16.256 91.3707 15.6533 90.144 14.448C88.9173 13.2427 88.304 11.7493 88.304 9.968C88.304 8.24 88.9227 6.76267 90.16 5.536ZM91.232 13.44C92.1813 14.3787 93.312 14.848 94.624 14.848C95.936 14.848 97.0667 14.3787 98.016 13.44C98.9653 12.4907 99.44 11.3333 99.44 9.968C99.44 8.61333 98.9813 7.46133 98.064 6.512C97.1573 5.56267 96.0107 5.088 94.624 5.088C93.2373 5.088 92.0853 5.56267 91.168 6.512C90.2613 7.46133 89.808 8.61333 89.808 9.968C89.808 11.3333 90.2827 12.4907 91.232 13.44ZM110.983 14.976C111.74 14.976 112.332 14.7147 112.759 14.192C113.196 13.6693 113.415 13.024 113.415 12.256C113.415 11.4987 113.196 10.864 112.759 10.352C112.322 9.82933 111.73 9.568 110.983 9.568C110.268 9.568 109.692 9.83467 109.255 10.368C108.828 10.8907 108.615 11.52 108.615 12.256C108.615 13.0027 108.828 13.6427 109.255 14.176C109.682 14.7093 110.258 14.976 110.983 14.976ZM107.255 16V2.112H108.695V9.76H108.727C109.378 8.77867 110.247 8.288 111.335 8.288C112.38 8.288 113.228 8.67733 113.879 9.456C114.53 10.224 114.855 11.1413 114.855 12.208C114.855 13.3387 114.535 14.2987 113.895 15.088C113.255 15.8667 112.38 16.256 111.271 16.256C110.759 16.256 110.279 16.128 109.831 15.872C109.394 15.616 109.026 15.2693 108.727 14.832H108.695V16H107.255ZM119.74 14.976C120.497 14.976 121.089 14.7147 121.516 14.192C121.953 13.6693 122.172 13.024 122.172 12.256C122.172 11.4987 121.953 10.864 121.516 10.352C121.078 9.82933 120.486 9.568 119.74 9.568C119.025 9.568 118.449 9.83467 118.012 10.368C117.585 10.8907 117.372 11.52 117.372 12.256C117.372 13.0027 117.585 13.6427 118.012 14.176C118.438 14.7093 119.014 14.976 119.74 14.976ZM123.532 8.512V16H122.092V14.832H122.06C121.42 15.7813 120.572 16.256 119.516 16.256C118.417 16.256 117.542 15.8667 116.892 15.088C116.252 14.2987 115.932 13.3387 115.932 12.208C115.932 11.1413 116.257 10.224 116.908 9.456C117.558 8.67733 118.412 8.288 119.468 8.288C120.545 8.288 121.409 8.77867 122.06 9.76H122.092V8.512H123.532ZM127.088 8.512V9.52H127.12C127.334 9.12533 127.643 8.82133 128.048 8.608C128.464 8.39467 128.907 8.288 129.376 8.288C130.358 8.288 131.046 8.576 131.44 9.152C131.835 9.728 132.032 10.5227 132.032 11.536V16H130.592V11.712C130.592 10.976 130.486 10.4373 130.272 10.096C130.07 9.744 129.627 9.568 128.944 9.568C128.646 9.568 128.384 9.60533 128.16 9.68C127.936 9.75467 127.76 9.87733 127.632 10.048C127.504 10.2187 127.398 10.384 127.312 10.544C127.238 10.6933 127.184 10.912 127.152 11.2C127.12 11.4773 127.099 11.696 127.088 11.856C127.088 12.016 127.088 12.2507 127.088 12.56V16H125.648V8.512H127.088ZM139.777 8.784V10.64C139.191 9.968 138.476 9.632 137.633 9.632C136.94 9.632 136.348 9.89333 135.857 10.416C135.377 10.9387 135.137 11.552 135.137 12.256C135.137 13.024 135.377 13.6587 135.857 14.16C136.348 14.6613 136.972 14.912 137.729 14.912C138.508 14.912 139.191 14.5813 139.777 13.92V15.76C139.159 16.0907 138.471 16.256 137.713 16.256C136.604 16.256 135.655 15.8773 134.865 15.12C134.087 14.3627 133.697 13.4293 133.697 12.32C133.697 11.168 134.087 10.208 134.865 9.44C135.655 8.672 136.631 8.288 137.793 8.288C138.551 8.288 139.212 8.45333 139.777 8.784ZM142.066 9.44C142.844 8.672 143.794 8.288 144.914 8.288C146.034 8.288 146.978 8.672 147.746 9.44C148.524 10.208 148.914 11.152 148.914 12.272C148.914 13.392 148.524 14.336 147.746 15.104C146.978 15.872 146.034 16.256 144.914 16.256C143.794 16.256 142.844 15.872 142.066 15.104C141.298 14.336 140.914 13.392 140.914 12.272C140.914 11.152 141.298 10.208 142.066 9.44ZM146.722 10.432C146.22 9.92 145.618 9.664 144.914 9.664C144.21 9.664 143.607 9.92 143.106 10.432C142.604 10.944 142.354 11.5573 142.354 12.272C142.354 12.976 142.604 13.5893 143.106 14.112C143.607 14.624 144.21 14.88 144.914 14.88C145.618 14.88 146.22 14.624 146.722 14.112C147.223 13.5893 147.474 12.976 147.474 12.272C147.474 11.5573 147.223 10.944 146.722 10.432ZM158.583 14.976C159.341 14.976 159.933 14.7147 160.359 14.192C160.797 13.6693 161.015 13.024 161.015 12.256C161.015 11.4987 160.797 10.864 160.359 10.352C159.922 9.82933 159.33 9.568 158.583 9.568C157.869 9.568 157.293 9.83467 156.855 10.368C156.429 10.8907 156.215 11.52 156.215 12.256C156.215 13.0027 156.429 13.6427 156.855 14.176C157.282 14.7093 157.858 14.976 158.583 14.976ZM160.935 16V14.832H160.903C160.605 15.2693 160.231 15.616 159.783 15.872C159.346 16.128 158.871 16.256 158.359 16.256C157.25 16.256 156.375 15.8667 155.735 15.088C155.095 14.2987 154.775 13.3387 154.775 12.208C154.775 11.1413 155.101 10.224 155.751 9.456C156.402 8.67733 157.25 8.288 158.295 8.288C159.383 8.288 160.253 8.77867 160.903 9.76H160.935V2.112H162.375V16H160.935ZM171.068 12.496H165.356C165.367 13.168 165.58 13.7493 165.996 14.24C166.412 14.7307 166.951 14.976 167.612 14.976C168.135 14.976 168.561 14.8587 168.892 14.624C169.233 14.3787 169.553 14.0107 169.852 13.52L171.068 14.208C170.716 14.848 170.231 15.3493 169.612 15.712C169.004 16.0747 168.332 16.256 167.596 16.256C166.476 16.256 165.58 15.8827 164.908 15.136C164.247 14.3893 163.916 13.4507 163.916 12.32C163.916 11.1253 164.231 10.1547 164.86 9.408C165.489 8.66133 166.391 8.288 167.564 8.288C168.705 8.288 169.575 8.66133 170.172 9.408C170.769 10.144 171.068 11.0987 171.068 12.272V12.496ZM165.436 11.408H169.628C169.543 10.832 169.319 10.3787 168.956 10.048C168.593 9.70667 168.129 9.536 167.564 9.536C167.009 9.536 166.535 9.712 166.14 10.064C165.756 10.416 165.521 10.864 165.436 11.408ZM179.078 9.856V16H177.638V9.856H176.854V8.512H177.638V5.648H179.078V8.512H180.486V9.856H179.078ZM182.003 9.44C182.782 8.672 183.731 8.288 184.851 8.288C185.971 8.288 186.915 8.672 187.683 9.44C188.462 10.208 188.851 11.152 188.851 12.272C188.851 13.392 188.462 14.336 187.683 15.104C186.915 15.872 185.971 16.256 184.851 16.256C183.731 16.256 182.782 15.872 182.003 15.104C181.235 14.336 180.851 13.392 180.851 12.272C180.851 11.152 181.235 10.208 182.003 9.44ZM186.659 10.432C186.158 9.92 185.555 9.664 184.851 9.664C184.147 9.664 183.545 9.92 183.043 10.432C182.542 10.944 182.291 11.5573 182.291 12.272C182.291 12.976 182.542 13.5893 183.043 14.112C183.545 14.624 184.147 14.88 184.851 14.88C185.555 14.88 186.158 14.624 186.659 14.112C187.161 13.5893 187.411 12.976 187.411 12.272C187.411 11.5573 187.161 10.944 186.659 10.432ZM193.646 14.976C194.403 14.976 194.995 14.7147 195.422 14.192C195.859 13.6693 196.078 13.024 196.078 12.256C196.078 11.4987 195.859 10.864 195.422 10.352C194.985 9.82933 194.393 9.568 193.646 9.568C192.931 9.568 192.355 9.83467 191.918 10.368C191.491 10.8907 191.278 11.52 191.278 12.256C191.278 13.0027 191.491 13.6427 191.918 14.176C192.345 14.7093 192.921 14.976 193.646 14.976ZM195.998 16V14.832H195.966C195.667 15.2693 195.294 15.616 194.846 15.872C194.409 16.128 193.934 16.256 193.422 16.256C192.313 16.256 191.438 15.8667 190.798 15.088C190.158 14.2987 189.838 13.3387 189.838 12.208C189.838 11.1413 190.163 10.224 190.814 9.456C191.465 8.67733 192.313 8.288 193.358 8.288C194.446 8.288 195.315 8.77867 195.966 9.76H195.998V2.112H197.438V16H195.998ZM200.035 9.44C200.813 8.672 201.763 8.288 202.883 8.288C204.003 8.288 204.947 8.672 205.715 9.44C206.493 10.208 206.883 11.152 206.883 12.272C206.883 13.392 206.493 14.336 205.715 15.104C204.947 15.872 204.003 16.256 202.883 16.256C201.763 16.256 200.813 15.872 200.035 15.104C199.267 14.336 198.883 13.392 198.883 12.272C198.883 11.152 199.267 10.208 200.035 9.44ZM204.691 10.432C204.189 9.92 203.587 9.664 202.883 9.664C202.179 9.664 201.576 9.92 201.075 10.432C200.573 10.944 200.323 11.5573 200.323 12.272C200.323 12.976 200.573 13.5893 201.075 14.112C201.576 14.624 202.179 14.88 202.883 14.88C203.587 14.88 204.189 14.624 204.691 14.112C205.192 13.5893 205.443 12.976 205.443 12.272C205.443 11.5573 205.192 10.944 204.691 10.432ZM212.621 9.6L211.453 10.224C211.24 9.78667 210.92 9.568 210.493 9.568C210.29 9.568 210.109 9.64267 209.949 9.792C209.789 9.93067 209.709 10.1013 209.709 10.304C209.709 10.4 209.72 10.4907 209.741 10.576C209.773 10.6507 209.826 10.7253 209.901 10.8C209.986 10.864 210.056 10.9227 210.109 10.976C210.173 11.0293 210.269 11.0933 210.397 11.168C210.536 11.232 210.642 11.2853 210.717 11.328C210.792 11.36 210.914 11.4133 211.085 11.488C211.266 11.5627 211.389 11.616 211.453 11.648C211.986 11.8933 212.408 12.176 212.717 12.496C213.026 12.816 213.181 13.2427 213.181 13.776C213.181 14.48 212.925 15.072 212.413 15.552C211.912 16.0213 211.309 16.256 210.605 16.256C210.04 16.256 209.512 16.1067 209.021 15.808C208.541 15.4987 208.205 15.088 208.013 14.576L209.245 14.016C209.597 14.656 210.05 14.976 210.605 14.976C210.914 14.976 211.181 14.88 211.405 14.688C211.629 14.4853 211.741 14.2293 211.741 13.92C211.741 13.6107 211.565 13.3387 211.213 13.104L209.805 12.352C209.314 12.0853 208.952 11.824 208.717 11.568C208.482 11.3013 208.365 10.9333 208.365 10.464C208.365 9.856 208.578 9.344 209.005 8.928C209.442 8.50133 209.965 8.288 210.573 8.288C211.512 8.288 212.194 8.72533 212.621 9.6ZM220.191 9.44C220.969 8.672 221.919 8.288 223.039 8.288C224.159 8.288 225.103 8.672 225.871 9.44C226.649 10.208 227.039 11.152 227.039 12.272C227.039 13.392 226.649 14.336 225.871 15.104C225.103 15.872 224.159 16.256 223.039 16.256C221.919 16.256 220.969 15.872 220.191 15.104C219.423 14.336 219.039 13.392 219.039 12.272C219.039 11.152 219.423 10.208 220.191 9.44ZM224.847 10.432C224.345 9.92 223.743 9.664 223.039 9.664C222.335 9.664 221.732 9.92 221.231 10.432C220.729 10.944 220.479 11.5573 220.479 12.272C220.479 12.976 220.729 13.5893 221.231 14.112C221.732 14.624 222.335 14.88 223.039 14.88C223.743 14.88 224.345 14.624 224.847 14.112C225.348 13.5893 225.599 12.976 225.599 12.272C225.599 11.5573 225.348 10.944 224.847 10.432ZM232.777 9.6L231.609 10.224C231.396 9.78667 231.076 9.568 230.649 9.568C230.447 9.568 230.265 9.64267 230.105 9.792C229.945 9.93067 229.865 10.1013 229.865 10.304C229.865 10.4 229.876 10.4907 229.897 10.576C229.929 10.6507 229.983 10.7253 230.057 10.8C230.143 10.864 230.212 10.9227 230.265 10.976C230.329 11.0293 230.425 11.0933 230.553 11.168C230.692 11.232 230.799 11.2853 230.873 11.328C230.948 11.36 231.071 11.4133 231.241 11.488C231.423 11.5627 231.545 11.616 231.609 11.648C232.143 11.8933 232.564 12.176 232.873 12.496C233.183 12.816 233.337 13.2427 233.337 13.776C233.337 14.48 233.081 15.072 232.569 15.552C232.068 16.0213 231.465 16.256 230.761 16.256C230.196 16.256 229.668 16.1067 229.177 15.808C228.697 15.4987 228.361 15.088 228.169 14.576L229.401 14.016C229.753 14.656 230.207 14.976 230.761 14.976C231.071 14.976 231.337 14.88 231.561 14.688C231.785 14.4853 231.897 14.2293 231.897 13.92C231.897 13.6107 231.721 13.3387 231.369 13.104L229.961 12.352C229.471 12.0853 229.108 11.824 228.873 11.568C228.639 11.3013 228.521 10.9333 228.521 10.464C228.521 9.856 228.735 9.344 229.161 8.928C229.599 8.50133 230.121 8.288 230.729 8.288C231.668 8.288 232.351 8.72533 232.777 9.6ZM243.483 14.976C244.24 14.976 244.832 14.7147 245.259 14.192C245.696 13.6693 245.915 13.024 245.915 12.256C245.915 11.4987 245.696 10.864 245.259 10.352C244.822 9.82933 244.23 9.568 243.483 9.568C242.768 9.568 242.192 9.83467 241.755 10.368C241.328 10.8907 241.115 11.52 241.115 12.256C241.115 13.0027 241.328 13.6427 241.755 14.176C242.182 14.7093 242.758 14.976 243.483 14.976ZM239.755 16V2.112H241.195V9.76H241.227C241.878 8.77867 242.747 8.288 243.835 8.288C244.88 8.288 245.728 8.67733 246.379 9.456C247.03 10.224 247.355 11.1413 247.355 12.208C247.355 13.3387 247.035 14.2987 246.395 15.088C245.755 15.8667 244.88 16.256 243.771 16.256C243.259 16.256 242.779 16.128 242.331 15.872C241.894 15.616 241.526 15.2693 241.227 14.832H241.195V16H239.755ZM250.544 8.512V9.728H250.592C250.773 9.28 251.04 8.928 251.392 8.672C251.754 8.416 252.17 8.288 252.64 8.288C253.045 8.288 253.44 8.41067 253.824 8.656L253.168 9.968C252.933 9.76533 252.64 9.664 252.288 9.664C251.914 9.664 251.605 9.744 251.36 9.904C251.114 10.0533 250.933 10.272 250.816 10.56C250.709 10.8373 250.634 11.1147 250.592 11.392C250.56 11.6587 250.544 11.968 250.544 12.32V16H249.104V8.512H250.544ZM258.099 14.976C258.856 14.976 259.448 14.7147 259.875 14.192C260.312 13.6693 260.531 13.024 260.531 12.256C260.531 11.4987 260.312 10.864 259.875 10.352C259.438 9.82933 258.846 9.568 258.099 9.568C257.384 9.568 256.808 9.83467 256.371 10.368C255.944 10.8907 255.731 11.52 255.731 12.256C255.731 13.0027 255.944 13.6427 256.371 14.176C256.798 14.7093 257.374 14.976 258.099 14.976ZM261.891 8.512V16H260.451V14.832H260.419C259.779 15.7813 258.931 16.256 257.875 16.256C256.776 16.256 255.902 15.8667 255.251 15.088C254.611 14.2987 254.291 13.3387 254.291 12.208C254.291 11.1413 254.616 10.224 255.267 9.456C255.918 8.67733 256.771 8.288 257.827 8.288C258.904 8.288 259.768 8.77867 260.419 9.76H260.451V8.512H261.891ZM268.184 9.6L267.016 10.224C266.802 9.78667 266.482 9.568 266.056 9.568C265.853 9.568 265.672 9.64267 265.512 9.792C265.352 9.93067 265.272 10.1013 265.272 10.304C265.272 10.4 265.282 10.4907 265.304 10.576C265.336 10.6507 265.389 10.7253 265.464 10.8C265.549 10.864 265.618 10.9227 265.672 10.976C265.736 11.0293 265.832 11.0933 265.96 11.168C266.098 11.232 266.205 11.2853 266.28 11.328C266.354 11.36 266.477 11.4133 266.648 11.488C266.829 11.5627 266.952 11.616 267.016 11.648C267.549 11.8933 267.97 12.176 268.28 12.496C268.589 12.816 268.744 13.2427 268.744 13.776C268.744 14.48 268.488 15.072 267.976 15.552C267.474 16.0213 266.872 16.256 266.168 16.256C265.602 16.256 265.074 16.1067 264.584 15.808C264.104 15.4987 263.768 15.088 263.576 14.576L264.808 14.016C265.16 14.656 265.613 14.976 266.168 14.976C266.477 14.976 266.744 14.88 266.968 14.688C267.192 14.4853 267.304 14.2293 267.304 13.92C267.304 13.6107 267.128 13.3387 266.776 13.104L265.368 12.352C264.877 12.0853 264.514 11.824 264.28 11.568C264.045 11.3013 263.928 10.9333 263.928 10.464C263.928 9.856 264.141 9.344 264.568 8.928C265.005 8.50133 265.528 8.288 266.136 8.288C267.074 8.288 267.757 8.72533 268.184 9.6ZM272.158 8.512V16H270.718V8.512H272.158ZM270.734 4.384C270.926 4.18133 271.161 4.08 271.438 4.08C271.716 4.08 271.95 4.18133 272.142 4.384C272.334 4.576 272.43 4.81067 272.43 5.088C272.43 5.35467 272.334 5.584 272.142 5.776C271.95 5.968 271.716 6.064 271.438 6.064C271.161 6.064 270.926 5.968 270.734 5.776C270.542 5.584 270.446 5.35467 270.446 5.088C270.446 4.81067 270.542 4.576 270.734 4.384ZM276.215 2.112V16H274.775V2.112H276.215ZM285.084 12.496H279.372C279.382 13.168 279.596 13.7493 280.012 14.24C280.428 14.7307 280.966 14.976 281.628 14.976C282.15 14.976 282.577 14.8587 282.908 14.624C283.249 14.3787 283.569 14.0107 283.868 13.52L285.084 14.208C284.732 14.848 284.246 15.3493 283.628 15.712C283.02 16.0747 282.348 16.256 281.612 16.256C280.492 16.256 279.596 15.8827 278.924 15.136C278.262 14.3893 277.932 13.4507 277.932 12.32C277.932 11.1253 278.246 10.1547 278.876 9.408C279.505 8.66133 280.406 8.288 281.58 8.288C282.721 8.288 283.59 8.66133 284.188 9.408C284.785 10.144 285.084 11.0987 285.084 12.272V12.496ZM279.452 11.408H283.644C283.558 10.832 283.334 10.3787 282.972 10.048C282.609 9.70667 282.145 9.536 281.58 9.536C281.025 9.536 280.55 9.712 280.156 10.064C279.772 10.416 279.537 10.864 279.452 11.408ZM288.33 8.512V16H286.89V8.512H288.33ZM286.906 4.384C287.098 4.18133 287.333 4.08 287.61 4.08C287.887 4.08 288.122 4.18133 288.314 4.384C288.506 4.576 288.602 4.81067 288.602 5.088C288.602 5.35467 288.506 5.584 288.314 5.776C288.122 5.968 287.887 6.064 287.61 6.064C287.333 6.064 287.098 5.968 286.906 5.776C286.714 5.584 286.618 5.35467 286.618 5.088C286.618 4.81067 286.714 4.576 286.906 4.384ZM292.419 8.512V9.728H292.467C292.648 9.28 292.915 8.928 293.267 8.672C293.629 8.416 294.045 8.288 294.515 8.288C294.92 8.288 295.315 8.41067 295.699 8.656L295.043 9.968C294.808 9.76533 294.515 9.664 294.163 9.664C293.789 9.664 293.48 9.744 293.235 9.904C292.989 10.0533 292.808 10.272 292.691 10.56C292.584 10.8373 292.509 11.1147 292.467 11.392C292.435 11.6587 292.419 11.968 292.419 12.32V16H290.979V8.512H292.419ZM297.222 9.44C298.001 8.672 298.95 8.288 300.07 8.288C301.19 8.288 302.134 8.672 302.902 9.44C303.681 10.208 304.07 11.152 304.07 12.272C304.07 13.392 303.681 14.336 302.902 15.104C302.134 15.872 301.19 16.256 300.07 16.256C298.95 16.256 298.001 15.872 297.222 15.104C296.454 14.336 296.07 13.392 296.07 12.272C296.07 11.152 296.454 10.208 297.222 9.44ZM301.878 10.432C301.377 9.92 300.774 9.664 300.07 9.664C299.366 9.664 298.763 9.92 298.262 10.432C297.761 10.944 297.51 11.5573 297.51 12.272C297.51 12.976 297.761 13.5893 298.262 14.112C298.763 14.624 299.366 14.88 300.07 14.88C300.774 14.88 301.377 14.624 301.878 14.112C302.379 13.5893 302.63 12.976 302.63 12.272C302.63 11.5573 302.379 10.944 301.878 10.432ZM309.809 9.6L308.641 10.224C308.427 9.78667 308.107 9.568 307.681 9.568C307.478 9.568 307.297 9.64267 307.137 9.792C306.977 9.93067 306.897 10.1013 306.897 10.304C306.897 10.4 306.907 10.4907 306.929 10.576C306.961 10.6507 307.014 10.7253 307.089 10.8C307.174 10.864 307.243 10.9227 307.297 10.976C307.361 11.0293 307.457 11.0933 307.585 11.168C307.723 11.232 307.83 11.2853 307.905 11.328C307.979 11.36 308.102 11.4133 308.273 11.488C308.454 11.5627 308.577 11.616 308.641 11.648C309.174 11.8933 309.595 12.176 309.905 12.496C310.214 12.816 310.369 13.2427 310.369 13.776C310.369 14.48 310.113 15.072 309.601 15.552C309.099 16.0213 308.497 16.256 307.793 16.256C307.227 16.256 306.699 16.1067 306.209 15.808C305.729 15.4987 305.393 15.088 305.201 14.576L306.433 14.016C306.785 14.656 307.238 14.976 307.793 14.976C308.102 14.976 308.369 14.88 308.593 14.688C308.817 14.4853 308.929 14.2293 308.929 13.92C308.929 13.6107 308.753 13.3387 308.401 13.104L306.993 12.352C306.502 12.0853 306.139 11.824 305.905 11.568C305.67 11.3013 305.553 10.9333 305.553 10.464C305.553 9.856 305.766 9.344 306.193 8.928C306.63 8.50133 307.153 8.288 307.761 8.288C308.699 8.288 309.382 8.72533 309.809 9.6Z" fill="white"/>
</svg>
