<?xml version="1.0" standalone="no"?>
<!DOCTYPE svg PUBLIC "-//W3C//DTD SVG 1.1//EN" "http://www.w3.org/Graphics/SVG/1.1/DTD/svg11.dtd" >
<svg xmlns="http://www.w3.org/2000/svg" xmlns:xlink="http://www.w3.org/1999/xlink" version="1.1">
<metadata>
Created by FontForge 20170731 at Tue Oct  9 23:07:51 2001
 By Aleksey,,,
Copyright (c) 1987, 1991, 1992, 1993 Adobe Systems Incorporated. All Rights Reserved.Futura is a registered trademark of Fundicion Tipografica Neufville S.A.
</metadata>
<defs>
<font id="FuturaLT-CondensedOblique" horiz-adv-x="411" >
  <font-face 
    font-family="Futura LT Condensed"
    font-weight="500"
    font-style="oblique"
    font-stretch="normal"
    units-per-em="1000"
    panose-1="2 0 6 6 5 0 0 2 0 3"
    ascent="800"
    descent="-200"
    x-height="505"
    cap-height="754"
    bbox="-157 -216 916 969"
    underline-thickness="50"
    underline-position="-175"
    slope="-9"
    unicode-range="U+0020-FB02"
  />
<missing-glyph horiz-adv-x="205" 
 />
    <glyph glyph-name=".notdef" horiz-adv-x="205" 
 />
    <glyph glyph-name=".null" horiz-adv-x="0" 
 />
    <glyph glyph-name="nonmarkingreturn" horiz-adv-x="333" 
 />
    <glyph glyph-name="space" unicode=" " horiz-adv-x="205" 
 />
    <glyph glyph-name="space" unicode="&#xa0;" horiz-adv-x="205" 
 />
    <glyph glyph-name="exclam" unicode="!" horiz-adv-x="252" 
d="M124 -8q-22 0 -36.5 14.5t-14.5 35.5q0 6 1 10q4 25 24 42.5t45 17.5q23 0 37.5 -14.5t14.5 -36.5q0 -2 -0.5 -4.5t-0.5 -4.5q-5 -25 -25 -42.5t-45 -17.5zM294 754l-89 -573h-100l89 573h100z" />
    <glyph glyph-name="quotedbl" unicode="&#x22;" horiz-adv-x="250" 
d="M265 754h86l-47 -226h-62zM134 754h86l-47 -226h-62z" />
    <glyph glyph-name="numbersign" unicode="#" 
d="M278 317l57 124h-88l-56 -124h87zM108 258h-107l26 59h108l57 124h-109l27 59h109l118 254h55l-117 -254h88l116 254h56l-117 -254h111l-27 -59h-112l-57 -124h112l-24 -59h-115l-119 -258h-55l119 258h-87l-121 -258h-55z" />
    <glyph glyph-name="dollar" unicode="$" 
d="M355 819l-11 -65q55 -4 89 -31t40 -80l-84 -46q-1 32 -22 52.5t-55 20.5q-46 0 -68.5 -28.5t-28.5 -69.5q-1 -7 -1.5 -13t-0.5 -12q0 -24 8 -41.5t21.5 -31.5t31 -26.5t37.5 -26.5q27 -18 47 -34t33.5 -34t20.5 -39.5t7 -50.5q0 -11 -1 -24t-3 -28q-6 -40 -19 -76
t-35 -64.5t-55 -47t-79 -23.5l-11 -67h-45l11 67q-59 5 -89 32t-41 82l90 40q4 -33 21.5 -51.5t52.5 -18.5q24 0 41.5 9t29.5 25t19 36t10 43q3 18 3 32q0 22 -6.5 36.5t-17.5 26.5t-26.5 22.5t-33.5 23.5q-29 20 -51.5 38t-38 38t-23.5 44.5t-8 57.5q0 11 1 24t3 27
q6 36 20 68.5t36.5 57.5t54 41t70.5 20l11 65h45z" />
    <glyph glyph-name="percent" unicode="%" horiz-adv-x="553" 
d="M221 465q17 0 27.5 15t17 35t9.5 39.5t5 29.5q2 9 4.5 27.5t2.5 38.5q0 21 -6 37t-23 16t-27.5 -15t-17 -35t-9.5 -40t-4 -29q-2 -10 -5 -29t-3 -39t6 -35.5t23 -15.5zM448 289q-17 0 -27.5 -15t-17 -34.5t-10 -39.5t-4.5 -29q-2 -10 -5 -29.5t-3 -39.5t6 -35.5t23 -15.5
t27.5 15t17 35t9.5 40t5 30q2 9 5 28.5t3 39.5t-6 35t-23 15zM611 754l-491 -754h-62l491 754h62zM457 349q26 0 42.5 -9t26.5 -23.5t13.5 -34t3.5 -40.5q0 -18 -2 -36.5t-5 -35.5q-4 -27 -12 -58.5t-23 -58t-39 -44.5t-61 -18q-26 0 -42.5 9t-26 24t-13 34.5t-3.5 40.5
q0 18 2 36t4 35q4 27 12 58.5t23 58.5t39 44.5t61 17.5zM268 763q26 0 42.5 -9t26 -23.5t13 -34t3.5 -40.5q0 -18 -2 -36.5t-4 -35.5q-4 -27 -12 -58.5t-23 -58t-39 -44.5t-61 -18q-26 0 -42.5 9t-26 24t-13 34.5t-3.5 40.5q0 18 2 36t4 35q4 27 11.5 58.5t22.5 58.5
t39.5 44.5t61.5 17.5z" />
    <glyph glyph-name="ampersand" unicode="&#x26;" horiz-adv-x="494" 
d="M272 441q15 13 30 26.5t28 28.5t22 32t12 37q1 4 1 12q0 21 -11.5 34.5t-35.5 13.5q-26 0 -45.5 -21t-23.5 -45q-1 -5 -1.5 -10t-0.5 -10q0 -26 8.5 -50.5t16.5 -47.5zM225 302q-30 -27 -50 -54.5t-26 -65.5q-1 -5 -1.5 -10t-0.5 -10q0 -35 18 -60.5t52 -25.5
q26 0 47 14.5t38 37.5zM333 59q-29 -33 -66 -51t-75 -18q-33 0 -59 12.5t-44.5 34t-28.5 50t-10 60.5v15q0 8 2 16q10 61 49.5 111t87.5 91q-15 30 -25 66t-10 74q0 19 3 37q5 31 19.5 57.5t36.5 45.5t50 30t60 11q57 0 91 -28t34 -82q0 -6 -0.5 -12.5t-1.5 -13.5
q-5 -31 -19 -58.5t-33.5 -52t-43 -46.5t-47.5 -42l73 -164l76 88l56 -52l-98 -112l61 -126h-111z" />
    <glyph glyph-name="quotesingle" unicode="'" horiz-adv-x="250" 
d="M199 754h86l-47 -226h-62z" />
    <glyph glyph-name="parenleft" unicode="(" horiz-adv-x="276" 
d="M338 741q-51 -95 -92.5 -199t-57.5 -204q-6 -38 -8.5 -76t-2.5 -76q0 -71 8.5 -140t23.5 -135l-97 -24q-33 130 -33 273q0 43 3 86t10 86q17 111 57 220t100 212z" />
    <glyph glyph-name="parenright" unicode=")" horiz-adv-x="276" 
d="M286 332q-17 -113 -57.5 -226t-100.5 -219l-89 24q55 101 95.5 210t57.5 217q5 32 7.5 64.5t2.5 64.5q0 71 -9.5 140t-24.5 134l97 23q17 -63 25.5 -128.5t8.5 -132.5q0 -43 -3 -85.5t-10 -85.5z" />
    <glyph glyph-name="asterisk" unicode="*" horiz-adv-x="357" 
d="M313 754l-20 -133l122 70l15 -34l-126 -66l106 -64l-26 -34l-101 67l-16 -129h-43l25 132l-120 -70l-18 34l123 64l-104 60l25 36l103 -66l16 133h39z" />
    <glyph glyph-name="plus" unicode="+" horiz-adv-x="500" 
d="M294 507h70l-34 -216h172l-11 -70h-172l-34 -219h-70l34 219h-171l11 70h171z" />
    <glyph glyph-name="comma" unicode="," horiz-adv-x="205" 
d="M169 81l-138 -265l-48 14l109 276z" />
    <glyph glyph-name="hyphen" unicode="-" horiz-adv-x="242" 
d="M256 297l-12 -76h-178l12 76h178z" />
    <glyph glyph-name="hyphen" unicode="&#xad;" horiz-adv-x="242" 
d="M256 297l-12 -76h-178l12 76h178z" />
    <glyph glyph-name="period" unicode="." horiz-adv-x="205" 
d="M101 -8q-22 0 -36.5 14t-14.5 36q0 7 1 11q4 24 24 41.5t45 17.5q23 0 37.5 -14.5t14.5 -35.5q0 -2 -0.5 -4.5t-0.5 -4.5q-5 -26 -25 -43.5t-45 -17.5z" />
    <glyph glyph-name="slash" unicode="/" horiz-adv-x="407" 
d="M566 830l-531 -933h-80l532 933h79z" />
    <glyph glyph-name="zero" unicode="0" 
d="M337 377q9 57 16 107.5t7 91.5q0 45 -11 71t-38 26q-26 0 -44.5 -24t-32.5 -65t-24 -94.5t-19 -112.5q-9 -56 -15.5 -107t-6.5 -91q0 -45 11 -71.5t38 -26.5q26 0 44.5 24t32 65t23.5 94.5t19 112.5zM325 763q39 0 64.5 -16t40.5 -42t20.5 -60.5t5.5 -71.5
q0 -54 -7.5 -106t-13.5 -90q-4 -30 -10.5 -70t-17.5 -83t-27 -84.5t-40 -74.5t-57.5 -53.5t-78.5 -20.5q-39 0 -64.5 16t-40.5 42t-21 60.5t-6 72.5q0 54 8 106t13 89q5 30 11.5 70t17 83t27 84.5t40.5 74.5t57.5 53.5t78.5 20.5z" />
    <glyph glyph-name="one" unicode="1" 
d="M372 754l-117 -754h-98l104 667h-74l13 87h172z" />
    <glyph glyph-name="two" unicode="2" 
d="M130 536q7 45 18 86t32.5 72.5t56.5 50t90 18.5q78 0 111 -34.5t33 -97.5q0 -13 -1.5 -26.5t-3.5 -27.5q-7 -42 -27.5 -91t-47.5 -98t-57 -95.5t-56 -83.5l-83 -122h187l-13 -87h-332l243 387q28 46 52.5 95.5t32.5 100.5q1 6 1.5 12t0.5 12q0 26 -11.5 46t-43.5 20
q-26 0 -41 -18t-23 -42t-11.5 -48t-5.5 -36l-3 -20h-102z" />
    <glyph glyph-name="three" unicode="3" 
d="M207 347l14 90h12q32 0 53 6t34.5 20t21 35.5t12.5 53.5q2 11 4 26.5t2 30.5q0 25 -9 44.5t-36 19.5q-20 0 -33 -9.5t-21.5 -24.5t-13 -32t-7.5 -32l-3 -23h-96l1 7q7 43 17.5 80t30.5 64.5t52.5 43.5t83.5 16q37 0 62.5 -10t41 -27.5t22 -41.5t6.5 -53q0 -15 -2 -30.5
t-4 -32.5q-4 -26 -10.5 -54t-18.5 -52.5t-31.5 -43.5t-50.5 -28l-1 -2q43 -11 57.5 -41t14.5 -68q0 -32 -6 -65q-7 -45 -21 -85.5t-38.5 -71t-61 -48.5t-87.5 -18q-72 0 -104 32.5t-32 93.5q0 11 1 23.5t3 25.5l4 23h96l-4 -24q-1 -5 -1.5 -11t-0.5 -11q0 -26 11.5 -44
t40.5 -18q27 0 43.5 15t26.5 36.5t15 46t8 43.5q2 12 3 24t1 23q0 32 -14 55t-54 23h-5h-29z" />
    <glyph glyph-name="four" unicode="4" 
d="M326 601h-2l-173 -320h124zM373 281h48l-11 -74h-48l-32 -207h-98l32 207h-203l13 86l275 461h98z" />
    <glyph glyph-name="five" unicode="5" 
d="M478 754l-13 -87h-163l-54 -190h11q82 0 119.5 -43.5t37.5 -115.5q0 -13 -1 -26t-3 -27q-8 -52 -26.5 -101t-49.5 -87.5t-75 -62t-104 -23.5q-33 0 -59 8.5t-53 22.5l40 89q20 -12 38.5 -21t44.5 -9q33 0 57.5 17t41.5 42t26.5 54.5t13.5 54.5q3 21 3 40q0 49 -25 78.5
t-85 29.5q-15 0 -31 -2.5t-32 -6.5l101 366h240z" />
    <glyph glyph-name="six" unicode="6" 
d="M301 226q2 15 5 35.5t3 41.5q0 28 -9 49.5t-35 21.5h-3q-6 0 -16.5 -3t-22 -17t-23 -43.5t-20.5 -83.5q-2 -13 -4.5 -31t-2.5 -38q0 -15 2 -28.5t7.5 -24.5t14 -17.5t22.5 -6.5q21 0 35.5 16.5t24 40t14.5 48t8 40.5zM421 754l-197 -322l2 -2q19 15 38.5 24.5t43.5 9.5
q31 0 51.5 -11.5t32 -30.5t16 -43.5t4.5 -51.5q0 -26 -2.5 -51.5t-6.5 -48.5q-7 -44 -18 -86t-33 -75.5t-57.5 -54t-90.5 -20.5q-40 0 -65.5 12.5t-40.5 33.5t-20.5 49t-5.5 59q0 25 2.5 50.5t6.5 50.5q12 77 33.5 140.5t51.5 123t67 118.5t80 126h108z" />
    <glyph glyph-name="seven" unicode="7" 
d="M492 754l-346 -754h-108l314 667h-210l13 87h337z" />
    <glyph glyph-name="eight" unicode="8" 
d="M276 453q18 0 31 13t22 31.5t13.5 38t6.5 32.5q2 9 3 20t1 22q0 23 -8 43t-34 20q-19 0 -32 -11.5t-21.5 -27.5t-13 -34.5t-6.5 -31.5q-3 -17 -3 -44q0 -13 1.5 -25.5t6 -22.5t12.5 -16.5t21 -6.5zM217 81q22 0 36.5 13.5t24 33t14 41.5t7.5 38q2 14 5 34t3 40
q0 29 -9.5 51.5t-37.5 22.5q-24 0 -39 -17t-24 -40.5t-13 -49t-7 -41.5q-2 -12 -3.5 -27t-1.5 -30q0 -27 9 -48t36 -21zM196 410q-37 12 -49.5 42.5t-12.5 66.5q0 15 1.5 30t3.5 29q6 39 18 73t33 58.5t52.5 39t75.5 14.5q77 0 108 -31.5t31 -92.5q0 -14 -1.5 -29t-3.5 -32
q-4 -24 -11 -50.5t-19.5 -49.5t-31.5 -41.5t-47 -27.5v-1q40 -11 53.5 -42.5t13.5 -70.5q0 -17 -2 -34.5t-4 -34.5q-7 -43 -19 -85t-34.5 -75.5t-58 -54t-88.5 -20.5q-39 0 -65 11.5t-41.5 31.5t-22 47t-6.5 57q0 18 2 36.5t5 37.5q4 28 10.5 59t19.5 58.5t34 49t55 29.5z
" />
    <glyph glyph-name="nine" unicode="9" 
d="M263 377q24 0 39.5 17.5t24.5 41.5t13.5 49.5t7.5 41.5q2 13 4.5 31.5t2.5 38.5q0 29 -9 52.5t-36 23.5q-23 0 -37.5 -17.5t-24 -42t-14 -50.5t-7.5 -42q-2 -14 -5 -34t-3 -40q0 -28 9 -49t35 -21zM102 0l199 315l-2 2q-19 -16 -37.5 -23t-43.5 -7q-31 0 -51 11
t-31.5 29.5t-16 42.5t-4.5 50q0 22 2.5 44t5.5 42q7 44 17.5 89.5t32.5 83t58 61t93 23.5q40 0 66 -12t41 -32t20.5 -47.5t5.5 -57.5q0 -26 -3 -53.5t-7 -53.5q-10 -62 -26 -114.5t-38.5 -101.5t-51 -97.5t-62.5 -103.5l-58 -90h-109z" />
    <glyph glyph-name="colon" unicode=":" horiz-adv-x="205" 
d="M164 392q-23 0 -37.5 14.5t-14.5 37.5q0 2 0.5 4.5t0.5 4.5q4 24 24.5 41.5t45.5 17.5q23 0 37 -14.5t14 -35.5q0 -2 -0.5 -4.5t-0.5 -4.5q-4 -26 -24 -43.5t-45 -17.5zM101 -8q-22 0 -36.5 14t-14.5 36q0 7 1 11q4 24 24 41.5t45 17.5q23 0 37.5 -14.5t14.5 -35.5
q0 -2 -0.5 -4.5t-0.5 -4.5q-5 -26 -25 -43.5t-45 -17.5z" />
    <glyph glyph-name="semicolon" unicode=";" horiz-adv-x="205" 
d="M164 392q-23 0 -37.5 14.5t-14.5 37.5q0 2 0.5 4.5t0.5 4.5q4 24 24.5 41.5t45.5 17.5q23 0 37 -14.5t14 -35.5q0 -2 -0.5 -4.5t-0.5 -4.5q-4 -26 -24 -43.5t-45 -17.5zM170 81l-137 -265l-49 14l109 276z" />
    <glyph glyph-name="less" unicode="&#x3c;" horiz-adv-x="500" 
d="M88 286l450 232l-12 -73l-365 -191l305 -191l-11 -73l-377 232z" />
    <glyph glyph-name="equal" unicode="=" horiz-adv-x="500" 
d="M476 124h-413l11 70h413zM506 314h-413l11 70h413z" />
    <glyph glyph-name="greater" unicode="&#x3e;" horiz-adv-x="500" 
d="M491 222l-449 -232l11 73l365 191l-305 191l12 73l376 -232z" />
    <glyph glyph-name="question" unicode="?" horiz-adv-x="341" 
d="M164 -8q-22 0 -36.5 14.5t-14.5 35.5q0 6 1 10q4 25 24 42.5t45 17.5q23 0 37.5 -14.5t14.5 -36.5q0 -2 -0.5 -4.5t-0.5 -4.5q-5 -25 -25 -42.5t-45 -17.5zM150 178l36 227l23 -1q27 0 43.5 10.5t26.5 28t14.5 39.5t8.5 45q2 14 6.5 39t4.5 50t-7.5 43.5t-28.5 18.5
q-18 0 -28.5 -9.5t-16.5 -24t-8.5 -30.5t-4.5 -28l-3 -18h-94l2 12q6 37 15 70.5t26.5 58.5t46 40t74.5 15q37 0 61 -9.5t38 -26.5t19.5 -40.5t5.5 -50.5q0 -23 -3 -48t-7 -51q-5 -28 -12 -62.5t-21.5 -65t-39 -51.5t-62.5 -21h-2l-25 -160h-88z" />
    <glyph glyph-name="at" unicode="@" horiz-adv-x="800" 
d="M367 211q38 0 73 30t63 72t46.5 87t23.5 74q1 3 1 6v7q0 25 -15 40.5t-44 15.5q-40 0 -75.5 -24.5t-63.5 -60.5t-46 -77.5t-24 -76.5q-1 -6 -1.5 -11.5t-0.5 -10.5q0 -29 15 -50t48 -21zM651 588h69l-152 -309q-5 -11 -12 -26t-9 -26v-5q0 -11 7 -18t18 -7
q22 0 53.5 16.5t62 48.5t55 78t33.5 105q3 22 3 43q0 51 -20 91t-54.5 67.5t-81 41.5t-98.5 14q-71 0 -134 -26t-113.5 -70.5t-84 -104.5t-43.5 -128q-4 -23 -4 -51q0 -59 20.5 -108.5t57.5 -85.5t88.5 -56t113.5 -20q39 0 79 8t77.5 24.5t71 40.5t60.5 56h63
q-32 -44 -73.5 -79.5t-88.5 -60.5t-98 -38t-101 -13q-74 0 -136 24.5t-106 68t-68.5 102.5t-24.5 128q0 33 6 68q12 79 54 149t103.5 122t137 82t156.5 30q63 0 119 -20t97 -56t65 -86.5t24 -111.5q0 -26 -4 -49q-7 -46 -33 -98t-65 -96.5t-88 -73.5t-103 -29
q-26 0 -50.5 12.5t-29.5 40.5q-27 -24 -62 -37.5t-67 -13.5q-58 0 -89 36t-31 89v13q0 7 2 15q8 51 35 105.5t67.5 100t91.5 74.5t108 29q36 0 64.5 -17t39.5 -51z" />
    <glyph glyph-name="A" unicode="A" horiz-adv-x="414" 
d="M297 334l5 274h-2l-120 -383h120zM364 754l45 -754h-101l-6 147h-150l-50 -147h-98l281 754h79z" />
    <glyph glyph-name="B" unicode="B" horiz-adv-x="418" 
d="M348 556q3 18 3 34q0 33 -15.5 56t-56.5 23h-2h-17l-38 -247h9q32 0 52.5 10t33.5 28t19.5 42.5t11.5 53.5zM169 85h10q58 0 83.5 32t34.5 92q2 14 3.5 27t1.5 24q0 38 -18.5 60t-69.5 22h-5zM61 0l117 754h125q82 0 115.5 -36t33.5 -100q0 -30 -6 -66
q-5 -28 -12.5 -54.5t-21.5 -49t-35 -39t-52 -24.5l-1 -2q48 -16 66 -47.5t18 -75.5q0 -13 -1.5 -26.5t-3.5 -27.5q-8 -52 -24.5 -91t-43 -64.5t-64.5 -38t-90 -12.5h-120z" />
    <glyph glyph-name="C" unicode="C" horiz-adv-x="369" 
d="M454 651q-14 8 -29 13.5t-32 5.5q-35 0 -61.5 -15.5t-46 -41t-33 -57.5t-23 -65t-15 -64.5t-8.5 -54.5q-5 -26 -8.5 -58.5t-3.5 -65.5q0 -32 5 -61.5t17.5 -52t34 -36.5t55.5 -14q17 0 31.5 3.5t30.5 11.5l-14 -88q-20 -12 -40.5 -16.5t-42.5 -4.5q-55 0 -91 19.5t-57 52
t-29 75t-8 88.5q0 35 4 71t9 69q6 38 15 82t24 88.5t36 85.5t51 73t69.5 51t90.5 19q26 0 45 -4.5t39 -17.5z" />
    <glyph glyph-name="D" unicode="D" horiz-adv-x="466" 
d="M375 364q6 35 12.5 76.5t6.5 82.5q0 30 -5 56.5t-18.5 46.5t-36 31.5t-57.5 11.5h-12l-91 -584h8q39 0 67.5 12t48 32.5t32.5 48t21 58.5t13.5 63.5t10.5 64.5zM290 754q37 0 73.5 -4.5t66 -26t48 -67t18.5 -127.5q0 -68 -15 -165q-14 -87 -32.5 -148t-42.5 -101
t-53.5 -63.5t-64 -34.5t-74 -14t-84.5 -3h-69l117 754h112z" />
    <glyph glyph-name="E" unicode="E" horiz-adv-x="347" 
d="M447 754l-13 -87h-169l-37 -237h151l-14 -87h-151l-40 -256h169l-13 -87h-269l117 754h269z" />
    <glyph glyph-name="F" unicode="F" horiz-adv-x="342" 
d="M449 754l-13 -87h-171l-37 -237h154l-14 -87h-154l-53 -343h-100l117 754h271z" />
    <glyph glyph-name="G" unicode="G" horiz-adv-x="460" 
d="M484 398l-2 -12q-6 -36 -12 -79.5t-16 -87.5t-26 -85t-41 -73t-61 -51.5t-86 -19.5q-46 0 -76.5 14.5t-48.5 40.5t-25.5 62.5t-7.5 81.5q0 42 5 88.5t13 97.5q12 79 28.5 149.5t44.5 124t71 84.5t108 31q40 0 68.5 -10t47.5 -29.5t29.5 -48.5t14.5 -66l-101 -39
q-1 19 -3.5 36.5t-9.5 31.5t-21 22.5t-37 8.5q-31 0 -51.5 -20.5t-35.5 -58.5t-25.5 -92.5t-21.5 -122.5q-9 -58 -13 -101t-4 -75q0 -38 5 -61t13.5 -35t19 -16t22.5 -4q15 0 31 3.5t31 21.5t28.5 55.5t24.5 105.5l6 41h-84l14 87h184z" />
    <glyph glyph-name="H" unicode="H" horiz-adv-x="473" 
d="M278 754l-46 -294h151l46 294h100l-117 -754h-100l58 373h-151l-58 -373h-100l117 754h100z" />
    <glyph glyph-name="I" unicode="I" horiz-adv-x="222" 
d="M161 0h-100l117 754h100z" />
    <glyph glyph-name="J" unicode="J" horiz-adv-x="303" 
d="M271 187q-6 -40 -16.5 -76t-30 -63t-51.5 -42.5t-81 -15.5q-21 0 -43.5 4.5t-39.5 15.5l16 102q14 -9 29 -17.5t33 -8.5q25 0 40.5 9.5t24.5 24.5t13 34t7 38l87 562h100z" />
    <glyph glyph-name="K" unicode="K" horiz-adv-x="424" 
d="M280 754l-56 -362l197 362h103l-205 -365l100 -389h-115l-82 382l-59 -382h-102l117 754h102z" />
    <glyph glyph-name="L" unicode="L" horiz-adv-x="331" 
d="M278 754l-104 -667h168l-13 -87h-268l117 754h100z" />
    <glyph glyph-name="M" unicode="M" horiz-adv-x="561" 
d="M289 754l22 -544h2l8 31l59 181l116 332h88l-47 -754h-98l25 281l16 140l14 99h-2l-34 -108l-142 -412h-69l-16 520h-2l-110 -520h-95l179 754h86z" />
    <glyph glyph-name="N" unicode="N" horiz-adv-x="472" 
d="M228 530l-24 -253l-43 -277h-100l117 754h96l87 -573l2 2l23 302l42 269h100l-117 -754h-93l-86 581l-2 -2z" />
    <glyph glyph-name="O" unicode="O" horiz-adv-x="476" 
d="M342 670q-30 0 -51 -23.5t-37 -63t-27 -93t-21 -113.5q-8 -49 -13 -93.5t-5 -81.5q0 -54 14 -86t49 -32q30 0 51 23.5t36.5 63t27 93t20.5 113.5q8 50 13.5 94.5t5.5 81.5q0 54 -14 85.5t-49 31.5zM357 764q46 0 75.5 -17.5t47 -46.5t24 -67t6.5 -78q0 -48 -6 -94
t-12 -84q-5 -34 -12.5 -76t-20 -85t-30.5 -83.5t-45 -72.5t-63.5 -51t-84.5 -19q-46 0 -75.5 17.5t-47 47t-24 67.5t-6.5 79q0 47 5.5 93t11.5 83q5 34 13 76t20.5 85t30.5 83.5t45 72.5t63 51t85 19z" />
    <glyph glyph-name="P" unicode="P" horiz-adv-x="388" 
d="M265 669l-39 -250q4 0 7 -0.5t7 -0.5q56 0 81 33t35 93q3 19 3 39q0 38 -17 62t-63 24h-14zM61 0l117 754h120q28 0 58.5 -3t55 -17t40.5 -42.5t16 -79.5q0 -14 -1.5 -28.5t-3.5 -31.5q-17 -110 -71 -164t-161 -54h-18l-52 -334h-100z" />
    <glyph glyph-name="Q" unicode="Q" horiz-adv-x="479" 
d="M342 670q-30 0 -51 -23.5t-37 -63t-27 -93t-21 -113.5q-8 -49 -13 -93.5t-5 -81.5q0 -54 14 -86t49 -32q26 0 43 16l-49 91l69 48l29 -54h2q12 46 22.5 94t18.5 98t13.5 94.5t5.5 81.5q0 54 -14 85.5t-49 31.5zM382 -58l-40 79q-24 -17 -50 -24t-56 -7q-46 0 -75.5 17.5
t-47 47t-24 67.5t-6.5 79q0 47 5.5 93t11.5 83q5 34 13 76t20.5 85t30.5 83.5t45 72.5t63 51t85 19q46 0 75.5 -17.5t47 -46.5t24 -67t6.5 -78q0 -48 -6 -94t-12 -84q-5 -32 -12 -70.5t-17.5 -77.5t-25.5 -77t-36 -70l54 -94z" />
    <glyph glyph-name="R" unicode="R" horiz-adv-x="416" 
d="M236 420q51 0 76.5 32.5t33.5 86.5q2 15 3.5 29t1.5 27q0 33 -13.5 53.5t-52.5 20.5h-4h-16l-39 -249h10zM178 754h120q24 0 52.5 -2.5t53 -15.5t40.5 -40.5t16 -77.5q0 -13 -1.5 -27t-3.5 -30q-4 -27 -13.5 -58.5t-25.5 -59.5t-39.5 -49t-55.5 -27l82 -367h-104l-79 369
h-2l-57 -369h-100z" />
    <glyph glyph-name="S" unicode="S" horiz-adv-x="354" 
d="M392 638q-17 14 -35.5 23t-44.5 9q-21 0 -38.5 -8t-31 -21t-22.5 -31t-12 -37q-1 -7 -1.5 -12.5t-0.5 -11.5q0 -31 17 -58l63 -83q18 -21 32.5 -40.5t24 -39.5t15 -42t5.5 -49q0 -11 -1 -23.5t-3 -26.5q-6 -40 -24 -75.5t-45 -62.5t-62 -43t-77 -16q-29 0 -56.5 8.5
t-47.5 27.5l15 101q20 -17 42 -28t51 -11q47 0 72.5 31.5t32.5 73.5q1 6 1.5 12t0.5 11q0 30 -11.5 54.5t-29 47t-38 44t-38 47t-29 55t-11.5 68.5q0 18 3 39q6 40 22 75t41 61t59.5 41.5t76.5 15.5q29 0 54.5 -5.5t47.5 -19.5z" />
    <glyph glyph-name="T" unicode="T" horiz-adv-x="323" 
d="M444 754l-13 -87h-113l-104 -667h-100l104 667h-118l13 87h331z" />
    <glyph glyph-name="U" unicode="U" horiz-adv-x="467" 
d="M278 754l-86 -553q-2 -14 -3 -26t-1 -22q0 -42 15.5 -55.5t40.5 -13.5q26 0 42 8t26 22t15 33.5t9 42.5l88 564h100l-83 -535q-6 -37 -15 -77.5t-30.5 -74t-60 -55.5t-103.5 -22q-43 0 -71 10t-44.5 28.5t-23 44t-6.5 56.5q0 24 2.5 50t7.5 55l81 520h100z" />
    <glyph glyph-name="V" unicode="V" horiz-adv-x="387" 
d="M224 754l-2 -567h2l12 47l80 254l87 266h95l-265 -754h-80l-29 754h100z" />
    <glyph glyph-name="W" unicode="W" horiz-adv-x="592" 
d="M217 754l-8 -511l-5 -56h2l69 253l101 314h78l-5 -562h2l64 242l96 320h97l-249 -754h-80l-3 351l7 190l2 19h-2l-54 -203l-115 -357h-82l-13 754h98z" />
    <glyph glyph-name="X" unicode="X" horiz-adv-x="427" 
d="M249 754l27 -134q7 -34 12.5 -68.5t6.5 -69.5h2l43 104l79 168h102l-197 -371l80 -383h-102l-26 132q-6 32 -12 65t-6 67q0 5 0.5 9t0.5 9h-2q-5 -23 -14 -44.5t-19 -42.5l-92 -195h-108l202 383l-76 371h99z" />
    <glyph glyph-name="Y" unicode="Y" horiz-adv-x="392" 
d="M227 754l38 -349h2l31 97l103 252h107l-207 -429l-50 -325h-100l50 325l-82 429h108z" />
    <glyph glyph-name="Z" unicode="Z" horiz-adv-x="393" 
d="M492 754l-331 -667h215l-13 -87h-348l333 667h-202l13 87h333z" />
    <glyph glyph-name="bracketleft" unicode="[" horiz-adv-x="300" 
d="M374 754l-10 -68h-133l-113 -721h133l-11 -68h-219l134 857h219z" />
    <glyph glyph-name="backslash" unicode="\" horiz-adv-x="250" 
d="M100 830l241 -933h-81l-239 933h79z" />
    <glyph glyph-name="bracketright" unicode="]" horiz-adv-x="300" 
d="M379 754l-134 -857h-219l11 68h133l113 721h-133l10 68h219z" />
    <glyph glyph-name="asciicircum" unicode="^" horiz-adv-x="500" 
d="M391 754l118 -417h-67l-90 324l-190 -324h-66l246 417h49z" />
    <glyph glyph-name="underscore" unicode="_" horiz-adv-x="500" 
d="M488 -75l-8 -50h-499l8 50h499z" />
    <glyph glyph-name="grave" unicode="`" horiz-adv-x="280" 
d="M249 746l59 -149l-55 -29l-78 135z" />
    <glyph glyph-name="a" unicode="a" horiz-adv-x="380" 
d="M198 76q24 0 39.5 22t25.5 51.5t15 59t7 44.5l6 42t4 57q0 31 -8 54t-33 23q-26 0 -42.5 -21.5t-26.5 -51t-14.5 -59t-6.5 -44.5t-7 -43.5t-5 -57.5q0 -30 9.5 -53t36.5 -23zM253 65h-2q-20 -33 -42 -53t-63 -20q-27 0 -44.5 12t-27 32t-13.5 45.5t-4 52.5q0 35 4 68
t8 57q5 31 14 75t27 83.5t47 67.5t74 28q33 0 52.5 -18t27.5 -46h2l8 56h94l-78 -505h-94z" />
    <glyph glyph-name="b" unicode="b" horiz-adv-x="380" 
d="M204 76q27 0 43.5 22t26 51.5t14 59t6.5 44.5t7 43t5 57q0 30 -9.5 53t-36.5 23q-24 0 -39.5 -22t-25.5 -51t-15 -58.5t-7 -44.5q-2 -14 -6 -41.5t-4 -56.5q0 -31 8.5 -54.5t32.5 -24.5zM172 830h94l-59 -381h2q19 29 41.5 46.5t58.5 17.5q28 0 46 -11.5t28.5 -31
t14.5 -44t4 -51.5q0 -32 -3.5 -62.5t-7.5 -53.5q-5 -31 -14.5 -76.5t-27.5 -88t-46.5 -72.5t-72.5 -30q-20 0 -33.5 5t-22.5 15t-15 23t-10 30h-2l-10 -65h-94z" />
    <glyph glyph-name="c" unicode="c" horiz-adv-x="278" 
d="M316 401h-2q-11 23 -40 24q-30 0 -50 -19t-32 -45t-18 -55t-9 -49q-2 -15 -5 -36t-3 -44q0 -18 2.5 -35.5t9.5 -31t19 -22t30 -8.5q16 0 27 5.5t24 13.5l-14 -87q-37 -20 -79 -20q-35 0 -58 13.5t-36 36t-18 51.5t-5 59q0 25 2.5 49.5t5.5 46.5q6 39 17.5 85.5t33 86
t55.5 66.5t86 27q21 0 38 -4t34 -13z" />
    <glyph glyph-name="d" unicode="d" horiz-adv-x="380" 
d="M198 76q24 0 39.5 22t25.5 51.5t15 59t7 44.5l6 42t4 57q0 31 -8 54t-33 23q-26 0 -42.5 -21.5t-26.5 -51t-14.5 -59t-6.5 -44.5t-7 -43.5t-5 -57.5q0 -30 9.5 -53t36.5 -23zM253 65h-2q-20 -33 -42.5 -53t-62.5 -20q-27 0 -44.5 12t-27 32t-13.5 45.5t-4 52.5q0 35 4 68
t8 57q5 31 14 75t27 83.5t47 67.5t74 28q36 0 53 -17.5t27 -46.5h2l59 381h94l-129 -830h-94z" />
    <glyph glyph-name="e" unicode="e" horiz-adv-x="361" 
d="M284 301q2 11 4 27.5t2 33.5q0 13 -2 25t-7 21.5t-13 15t-21 5.5q-22 0 -35.5 -14.5t-21.5 -35t-12 -42t-6 -36.5h112zM161 234q-2 -14 -5 -37.5t-3 -46.5q0 -29 8 -51.5t34 -22.5q19 0 32 9t21.5 23t13.5 30.5t7 31.5h87q-5 -35 -18 -67t-35 -57t-52 -39.5t-70 -14.5
q-37 0 -61 13t-37.5 34.5t-19 49.5t-5.5 58q0 26 2.5 52t6.5 50q6 39 17.5 85t33 85.5t56 66.5t86.5 27q36 0 59 -13.5t36.5 -36t19 -52t5.5 -60.5q0 -26 -2.5 -52.5t-6.5 -49.5l-2 -15h-208z" />
    <glyph glyph-name="f" unicode="f" horiz-adv-x="249" 
d="M146 505l26 163q5 32 12.5 62.5t22.5 54.5t40.5 38.5t65.5 14.5q18 0 32 -3.5t28 -10.5l-15 -98q-9 5 -17.5 8.5t-19.5 3.5q-18 0 -28.5 -8t-16 -20t-8 -26t-4.5 -27l-24 -152h78l-11 -74h-78l-67 -431h-94l67 431h-47l11 74h47z" />
    <glyph glyph-name="g" unicode="g" horiz-adv-x="382" 
d="M284 250q2 14 5.5 40t3.5 54q0 33 -8.5 59t-33.5 26q-24 0 -40 -22t-25.5 -51.5t-14.5 -58.5t-7 -42q-2 -14 -6.5 -42t-4.5 -57q0 -32 9.5 -56t35.5 -24q25 0 41 21.5t25 50t13 58t7 44.5zM338 -4q-11 -68 -27 -109t-39.5 -64t-53.5 -30.5t-67 -7.5q-60 0 -94.5 29.5
t-34.5 85.5q0 14 3 31l2 14h91q-3 -12 -3 -23q0 -21 11.5 -37t39.5 -16q24 0 37.5 10t20.5 26t10 35t6 36l13 84h-2q-14 -30 -39 -49t-58 -19h-4q-29 0 -47 11.5t-28.5 31t-14.5 45t-4 52.5q0 32 3.5 62.5t7.5 54.5q3 20 8 47.5t13 57t19.5 58t28.5 51t40 36.5t54 14
q38 0 54 -19t27 -49l2 2l9 58h95z" />
    <glyph glyph-name="h" unicode="h" horiz-adv-x="388" 
d="M267 830l-60 -383h2q21 31 48 48.5t65 17.5q25 0 41.5 -7t26.5 -19t13.5 -28.5t3.5 -35.5q0 -18 -2.5 -37.5t-5.5 -38.5l-54 -347h-94l54 349q3 13 3 29q0 20 -9 35.5t-37 15.5q-23 0 -37 -12t-21.5 -29t-10.5 -37t-6 -36l-49 -315h-94l129 830h94z" />
    <glyph glyph-name="i" unicode="i" horiz-adv-x="180" 
d="M184 595q-24 0 -39.5 15.5t-15.5 38.5q0 2 0.5 4.5t0.5 4.5q5 26 26 44t47 18q23 0 38 -15t15 -37q0 -7 -1 -10q-4 -26 -25 -44.5t-46 -18.5zM137 0h-94l78 505h94z" />
    <glyph glyph-name="j" unicode="j" horiz-adv-x="180" 
d="M184 595q-24 0 -39.5 15.5t-15.5 38.5q0 2 0.5 4.5t0.5 4.5q5 26 26 44t47 18q23 -1 38 -16t15 -37q0 -7 -1 -10q-4 -26 -24.5 -44t-44.5 -18h-2v0zM104 -207h-94l111 712h94z" />
    <glyph glyph-name="k" unicode="k" horiz-adv-x="395" 
d="M267 830l-86 -549h2l152 224h105l-164 -224l103 -281h-109l-89 268h-2l-41 -268h-94l129 830h94z" />
    <glyph glyph-name="l" unicode="l" horiz-adv-x="180" 
d="M137 0h-94l129 830h94z" />
    <glyph glyph-name="m" unicode="m" horiz-adv-x="590" 
d="M207 443h2q19 32 46.5 51t63.5 19q34 0 56 -18.5t24 -51.5h2q20 33 48.5 51.5t66.5 18.5q55 0 75 -24.5t20 -62.5q0 -17 -3 -35l-61 -391h-94l55 354q3 15 3 30q0 19 -8.5 32t-33.5 13t-39.5 -10.5t-22 -26.5t-10 -35t-5.5 -36l-50 -321h-94l53 343q2 11 3 21t1 20
q0 19 -8.5 32t-35.5 13q-22 0 -35.5 -11t-21 -27t-11 -35t-6.5 -35l-50 -321h-94l78 505h95z" />
    <glyph glyph-name="n" unicode="n" horiz-adv-x="388" 
d="M207 447h2q21 31 48 48.5t65 17.5q25 0 41.5 -7t26.5 -19.5t13.5 -29t3.5 -35.5q0 -18 -2.5 -37t-5.5 -38l-54 -347h-94l54 349q3 13 3 29q0 20 -9 35.5t-37 15.5q-23 0 -37 -12t-21.5 -29t-10.5 -37t-6 -36l-49 -315h-94l78 505h94z" />
    <glyph glyph-name="o" unicode="o" horiz-adv-x="375" 
d="M200 78q27 0 43.5 22t26 51t14 57.5t6.5 42.5t6.5 41.5t4.5 56.5q0 31 -9.5 54.5t-37.5 23.5q-27 0 -43.5 -22t-26 -51t-14 -58.5t-6.5 -44.5q-2 -13 -6.5 -39.5t-4.5 -55.5q0 -31 9.5 -54.5t37.5 -23.5zM186 -8q-38 0 -63 13.5t-39 35.5t-19.5 50.5t-5.5 59.5
q0 26 2.5 51.5t6.5 48.5q6 41 18 87t34.5 85t58 64.5t89.5 25.5q38 0 62.5 -13t39 -35.5t20 -51.5t5.5 -60q0 -26 -2.5 -52t-6.5 -50q-6 -40 -18 -85.5t-34.5 -84t-58 -64t-89.5 -25.5z" />
    <glyph glyph-name="p" unicode="p" horiz-adv-x="380" 
d="M204 76q22 0 37 15.5t25 41t16.5 56.5t11.5 63q2 15 7 43.5t5 57.5q0 30 -9.5 53t-36.5 23q-24 0 -39.5 -22t-25.5 -51t-15 -59t-7 -45l-6 -42t-4 -57q0 -31 8 -54t33 -23zM205 440h2q19 32 42.5 52.5t62.5 20.5q27 0 44.5 -12t27 -31.5t13.5 -45t4 -52.5q0 -35 -4 -68
t-8 -57q-3 -21 -8 -48.5t-13 -55.5t-20 -55.5t-29 -48.5t-39.5 -34t-52.5 -13q-37 0 -53.5 17t-26.5 48h-2l-41 -264h-94l111 712h94z" />
    <glyph glyph-name="q" unicode="q" horiz-adv-x="380" 
d="M198 76q24 0 39.5 22t25.5 51t15 58.5t7 44.5t6 42.5t4 56.5q0 31 -8 54.5t-33 23.5q-26 0 -42.5 -22t-26.5 -51t-14.5 -58.5t-6.5 -45.5q-2 -15 -7 -43t-5 -57q0 -30 9.5 -53t36.5 -23zM304 -207h-94l41 264h-2q-19 -31 -41 -48t-59 -17q-28 0 -46 11.5t-28.5 31
t-14.5 44t-4 51.5q0 32 3.5 62.5t7.5 54.5q3 20 8 48t13.5 57.5t20 58.5t28.5 51.5t39.5 36.5t51.5 14q39 0 56 -20t25 -53h2l10 65h94z" />
    <glyph glyph-name="r" unicode="r" horiz-adv-x="269" 
d="M207 443h2q22 33 50.5 51.5t67.5 18.5l-15 -93l-16 1q-53 0 -76.5 -27.5t-31.5 -75.5l-49 -318h-95l78 505h94z" />
    <glyph glyph-name="s" unicode="s" horiz-adv-x="276" 
d="M296 402q-11 12 -29.5 19.5t-35.5 7.5q-26 0 -47.5 -14t-25.5 -40q0 -2 -0.5 -4t-0.5 -4q0 -27 19.5 -45.5t43 -38t43 -45.5t19.5 -69q0 -6 -0.5 -12.5t-1.5 -14.5q-11 -67 -56 -108.5t-113 -41.5q-25 0 -42 5.5t-36 18.5l14 92q16 -14 32.5 -23t40.5 -9q31 0 49.5 17.5
t23.5 46.5q1 4 1 11q0 27 -19.5 46t-42.5 39t-42.5 46t-19.5 67q0 6 0.5 12.5t1.5 13.5q5 30 19 55.5t34.5 43.5t47 28.5t56.5 10.5q24 0 43.5 -5t37.5 -17z" />
    <glyph glyph-name="t" unicode="t" horiz-adv-x="221" 
d="M258 648l-23 -143h50l-11 -74h-50l-67 -431h-94l67 431h-51l11 74h51l23 143h94z" />
    <glyph glyph-name="u" unicode="u" horiz-adv-x="389" 
d="M216 505l-49 -316q-2 -14 -4.5 -29t-2.5 -29q0 -22 9.5 -37.5t38.5 -15.5q24 0 37 10t20 26t9.5 34.5t5.5 35.5l50 321h94l-53 -341q-6 -39 -17.5 -71t-32 -54.5t-50.5 -34.5t-73 -12q-39 0 -64.5 8t-41 23t-21.5 36.5t-6 48.5q0 17 2 36t5 40l50 321h94z" />
    <glyph glyph-name="v" unicode="v" horiz-adv-x="358" 
d="M191 505l9 -382h2l7 30l69 204l54 148h91l-211 -505h-62l-59 505h100z" />
    <glyph glyph-name="w" unicode="w" horiz-adv-x="487" 
d="M174 505l-1 -352l-1 -10h2l46 157l71 205h67l2 -352l-1 -10h2l55 188l60 174h92l-197 -505h-64l-11 259l8 112h-2l-51 -181l-66 -190h-65l-45 505h99z" />
    <glyph glyph-name="x" unicode="x" horiz-adv-x="395" 
d="M202 505l44 -173l36 75l56 98h98l-151 -238l97 -267h-111l-33 109q-7 23 -12.5 45.5t-5.5 45.5v5h-2q-8 -29 -22 -56.5t-30 -54.5l-54 -94h-98l167 267l-89 238h110z" />
    <glyph glyph-name="y" unicode="y" horiz-adv-x="373" 
d="M187 505l19 -352h2l140 352h95l-317 -712h-99l117 248l-62 464h105z" />
    <glyph glyph-name="z" unicode="z" horiz-adv-x="335" 
d="M399 505l-234 -421h160l-13 -84h-298l240 421h-162l13 84h294z" />
    <glyph glyph-name="braceleft" unicode="{" horiz-adv-x="258" 
d="M57 353q16 2 32.5 6t30.5 13t24.5 24t14.5 38l30 188q6 39 19.5 64.5t33 40.5t45 21t54.5 6h31l-8 -57q-44 -4 -65.5 -22t-27.5 -65l-25 -159q-4 -24 -11 -44t-19.5 -35.5t-32.5 -26.5t-50 -17l-1 -2q45 -10 61.5 -31t16.5 -54q0 -17 -3 -38l-25 -159q-3 -17 -3 -28
q0 -30 17 -43t52 -16l-9 -57h-31q-26 0 -47 4.5t-36 15.5t-23 29t-8 46q0 16 3 37l29 188q1 4 1 7v7q0 19 -7 31t-18 19.5t-25 11t-28 5.5z" />
    <glyph glyph-name="bar" unicode="|" horiz-adv-x="250" 
d="M282 786l-156 -1000h-70l156 1000h70z" />
    <glyph glyph-name="braceright" unicode="}" horiz-adv-x="258" 
d="M-3 -43q43 4 64.5 22t26.5 65l25 159q4 24 10.5 44t19.5 35.5t33 26.5t50 17l1 2q-45 10 -61.5 31t-16.5 54q0 17 3 38l25 159q3 16 3 30q0 29 -16.5 41.5t-51.5 15.5l8 57h31q51 0 83 -20t32 -76q0 -17 -3 -36l-30 -188q0 -3 -0.5 -6.5t-0.5 -6.5q0 -19 7 -31.5t18 -20
t25.5 -11t28.5 -5.5l-8 -52q-16 -2 -32.5 -6t-30.5 -13t-25 -24t-15 -38l-29 -188q-6 -39 -20 -64.5t-33.5 -40.5t-45 -21t-54.5 -6h-30z" />
    <glyph glyph-name="asciitilde" unicode="~" horiz-adv-x="500" 
d="M212 331q22 0 45.5 -10.5t45.5 -24.5q23 -13 43 -24t36 -11q14 0 27.5 8t25.5 20t22.5 26.5t18.5 28.5l27 -47q-12 -20 -26.5 -40t-31.5 -36t-35.5 -25.5t-39.5 -9.5q-11 0 -25.5 5t-28.5 12t-27.5 14.5t-23.5 12.5q-14 8 -30.5 16.5t-34.5 8.5q-16 0 -29.5 -8.5
t-25.5 -21.5t-22.5 -29t-19.5 -31l-26 48q13 21 27.5 42t31 38t35.5 27.5t41 10.5z" />
    <glyph glyph-name="Euro" 
d="M489 658q-14 6 -29.5 10.5t-32.5 4.5q-47 0 -80 -20.5t-56.5 -52t-37.5 -70t-23 -74.5h205l-14 -50h-201l-5 -34q-2 -11 -3.5 -23t-3.5 -25h191l-14 -50h-181v-11q0 -33 5.5 -66t20.5 -59t41 -42t68 -16q31 0 62 11l-14 -85q-19 -9 -38.5 -12.5t-40.5 -3.5
q-61 0 -100.5 20.5t-62 54.5t-31.5 78.5t-9 91.5v19q0 10 1 20h-44l14 50h34l13 82h-40l14 50h37q13 53 34 107.5t55 99t82.5 72.5t116.5 28q28 0 48.5 -4.5t41.5 -17.5z" />
    <glyph glyph-name="Euro" unicode="&#x20ac;" 
d="M489 658q-14 6 -29.5 10.5t-32.5 4.5q-47 0 -80 -20.5t-56.5 -52t-37.5 -70t-23 -74.5h205l-14 -50h-201l-5 -34q-2 -11 -3.5 -23t-3.5 -25h191l-14 -50h-181v-11q0 -33 5.5 -66t20.5 -59t41 -42t68 -16q31 0 62 11l-14 -85q-19 -9 -38.5 -12.5t-40.5 -3.5
q-61 0 -100.5 20.5t-62 54.5t-31.5 78.5t-9 91.5v19q0 10 1 20h-44l14 50h34l13 82h-40l14 50h37q13 53 34 107.5t55 99t82.5 72.5t116.5 28q28 0 48.5 -4.5t41.5 -17.5z" />
    <glyph glyph-name="exclamdown" unicode="&#xa1;" horiz-adv-x="252" 
d="M213 557q23 0 37 -14.5t14 -35.5q0 -2 -0.5 -4.5t-0.5 -4.5q-4 -26 -24 -43.5t-45 -17.5q-23 0 -37.5 14.5t-14.5 37.5q0 2 0.5 4.5t0.5 4.5q4 24 24.5 41.5t45.5 17.5zM134 368h100l-90 -573h-100z" />
    <glyph glyph-name="cent" unicode="&#xa2;" 
d="M237 114q-55 17 -74 55t-19 89q0 27 3.5 56t8.5 58q5 35 14.5 77t28 80.5t47.5 67.5t73 38l11 70h47l-11 -72l22 -4t22 -7l-14 -89q-8 8 -17 10.5t-20 2.5q-28 0 -46 -19.5t-29.5 -46.5t-17 -56t-8.5 -48q-2 -15 -5 -36.5t-3 -44.5q0 -18 2.5 -35t8.5 -30t17 -21t28 -8
q10 0 20 3.5t20 7.5l-13 -83q-11 -6 -22.5 -9t-27.5 -4l-11 -65h-45z" />
    <glyph glyph-name="sterling" unicode="&#xa3;" 
d="M148 124q12 17 20 35.5t11 38.5q3 16 3 31q0 14 -2.5 28t-6.5 30h-88l6 39h74q-14 48 -26.5 93.5t-12.5 95.5q0 12 1 24.5t3 25.5q14 90 70.5 144t148.5 54q64 0 98.5 -33t34.5 -92v-11t-1 -12l-84 -38q3 18 3 34q0 29 -14 49.5t-51 20.5q-44 0 -71.5 -27.5t-34.5 -69.5
q-2 -12 -3 -24t-1 -24q0 -54 13.5 -107t24.5 -103h97l-6 -39h-91q2 -9 3 -18t1 -19q0 -15 -3 -30q-9 -64 -43 -115q14 -8 31 -18t34 -10q15 0 24.5 10.5t16.5 23.5l78 -27q-19 -37 -48.5 -65t-73.5 -28q-24 0 -44 7.5t-37 16.5t-33 16.5t-31 7.5q-14 0 -24.5 -10.5
t-15.5 -23.5l-72 31q4 17 15 33t25.5 28.5t31.5 20t35 7.5z" />
    <glyph glyph-name="currency" unicode="&#xa4;" 
d="M281 481q-35 0 -65.5 -14t-54.5 -38t-40.5 -57t-22.5 -72q-3 -17 -3 -32q0 -31 9 -57.5t26 -46t40 -31t52 -11.5q34 0 64.5 14t55 38.5t41.5 57.5t23 71q3 16 3 33q0 30 -8.5 56.5t-24.5 46t-38.5 31t-50.5 11.5h-3h-3zM46 152q-11 26 -17 51t-6 53q0 21 3 44q8 45 23 80
t44 71l-32 43l55 53l32 -43q35 26 72 37.5t75 11.5q37 0 67 -13t56 -36l47 43l39 -53l-45 -43q22 -50 22 -105q0 -12 -1 -24.5t-3 -26.5q-7 -42 -23 -75t-42 -68l32 -42l-56 -53l-33 43q-68 -50 -147 -50q-38 0 -67.5 13.5t-55.5 36.5l-46 -43l-38 53z" />
    <glyph glyph-name="yen" unicode="&#xa5;" 
d="M168 0l41 264h-118l8 50h118l1 11l-15 71h-92l8 50h74l-65 308h108l44 -348h2l29 96l99 252h107l-143 -308h81l-8 -50h-96l-33 -71l-1 -11h118l-8 -50h-118l-41 -264h-100z" />
    <glyph glyph-name="brokenbar" unicode="&#xa6;" horiz-adv-x="250" 
d="M185 161l-39 -250h-70l39 250h70zM263 661l-39 -250h-70l39 250h70z" />
    <glyph glyph-name="section" unicode="&#xa7;" horiz-adv-x="415" 
d="M283 211q24 17 42.5 40t23.5 52q1 5 1.5 9.5t0.5 9.5q0 18 -7.5 31t-19.5 23.5t-27 18.5t-31 16l-22 12q-23 -17 -38 -37t-20 -48q-1 -5 -1 -15q0 -20 7.5 -35t19 -27t26.5 -22t30 -19zM361 598v16q0 12 -1.5 23.5t-6 20.5t-12.5 14.5t-22 5.5q-21 0 -34.5 -9.5
t-21 -22.5t-10.5 -27t-4 -22q-1 -6 -1.5 -11.5t-0.5 -10.5q0 -39 23.5 -58t60.5 -33q65 -28 91 -64.5t26 -84.5v-11q0 -5 -1 -10q-8 -45 -35 -89t-69 -70q21 -20 30.5 -43t9.5 -51q0 -15 -3 -33q-12 -76 -59 -121t-125 -45q-69 0 -106.5 32.5t-37.5 94.5q0 17 3 35l3 19h102
q-3 -17 -3 -34q0 -24 9.5 -42.5t38.5 -18.5q35 0 53.5 24t23.5 56q1 5 1 9v8q0 20 -7.5 35.5t-19.5 28t-27.5 22.5t-31.5 20q-23 15 -43.5 28t-35.5 28.5t-23.5 36.5t-8.5 52q0 7 0.5 14t1.5 15q8 46 32.5 82.5t69.5 59.5q-24 17 -33 41.5t-9 53.5q0 21 3 42q6 35 21.5 64.5
t38.5 50.5t53.5 33t66.5 12q69 0 101.5 -37.5t32.5 -98.5q0 -8 -0.5 -15t-1.5 -15h-102z" />
    <glyph glyph-name="dieresis" unicode="&#xa8;" horiz-adv-x="280" 
d="M155 604q-21 0 -35.5 13t-14.5 33q0 2 0.5 4.5t0.5 4.5q4 24 22.5 41t44.5 17q20 0 33.5 -13.5t13.5 -32.5q0 -2 -0.5 -4.5t-0.5 -4.5q-4 -23 -22.5 -40.5t-41.5 -17.5zM316 604q-21 0 -35.5 13t-14.5 33q0 2 0.5 4.5t0.5 4.5q4 24 22.5 41t44.5 17q20 0 33.5 -13.5
t13.5 -32.5q0 -2 -0.5 -4.5t-0.5 -4.5q-4 -23 -22 -40.5t-42 -17.5z" />
    <glyph glyph-name="copyright" unicode="&#xa9;" horiz-adv-x="800" 
d="M646 307q-9 -35 -29.5 -62.5t-48 -47.5t-60 -30.5t-66.5 -10.5q-44 0 -78 13.5t-57.5 38t-36 58t-12.5 73.5q0 21 3 42q7 48 28.5 88.5t53.5 70.5t74 47t92 17q70 0 114 -39t46 -108h-65v2q0 45 -29.5 68.5t-72.5 23.5q-38 0 -68 -13t-52 -35.5t-36 -53.5t-20 -67
q-3 -18 -3 -36q0 -58 31 -97.5t96 -39.5q44 0 81.5 25t49.5 73h65zM134 377q-2 -14 -3 -26.5t-1 -25.5q0 -59 20 -109t57 -86t87.5 -56.5t112.5 -20.5h2h2q69 0 131.5 25t112.5 68.5t83.5 103t44.5 127.5q2 14 3 27.5t1 26.5q0 58 -20 107.5t-56.5 85.5t-87.5 56.5
t-113 20.5q-69 0 -132 -25t-113.5 -69t-85 -103t-45.5 -127zM399 -10q-73 0 -134 25t-105 68.5t-68.5 103t-24.5 129.5q0 15 1.5 30.5t3.5 31.5q12 80 53.5 150.5t102 123t136 82.5t156.5 30q73 0 134 -25t105 -68.5t68.5 -103.5t24.5 -129q0 -14 -1.5 -29.5t-3.5 -30.5
q-13 -81 -54.5 -152t-102 -123.5t-136 -82.5t-155.5 -30z" />
    <glyph glyph-name="ordfeminine" unicode="&#xaa;" horiz-adv-x="172" 
d="M199 714q-17 0 -27 -13t-16 -30.5t-9 -35.5t-4 -27q-2 -9 -4.5 -25.5t-2.5 -33.5q0 -19 6 -33.5t24 -14.5q15 0 25.5 13.5t16.5 31t9 35.5t5 27q1 8 3 23t2 32q0 20 -5.5 35.5t-22.5 15.5zM304 759l-47 -303h-61l6 39h-2q-12 -20 -26.5 -32t-40.5 -12q-18 0 -29.5 7.5
t-18 19.5t-9 28t-2.5 33q0 20 2.5 39.5t4.5 33.5q3 19 8.5 45t17 50t30 40.5t47.5 16.5q22 0 34.5 -10.5t18.5 -27.5h1l5 33h61z" />
    <glyph glyph-name="guillemotleft" unicode="&#xab;" horiz-adv-x="357" 
d="M230 482l41 -27l-146 -195l73 -199l-48 -25l-84 224zM349 482l41 -27l-146 -195l73 -199l-48 -25l-84 224z" />
    <glyph glyph-name="logicalnot" unicode="&#xac;" horiz-adv-x="500" 
d="M436 314h-343l11 70h413l-42 -267h-70z" />
    <glyph glyph-name="registered" unicode="&#xae;" horiz-adv-x="800" 
d="M444 404h33q21 0 41.5 2t38 10t30 23t17.5 42q1 5 1 13q0 18 -8 29t-21.5 17t-31 7.5t-35.5 1.5h-117l-22 -145h74zM609 161h-70l-93 196h-84l-30 -196h-61l68 435h190q27 0 53.5 -3t47.5 -21q18 -11 27.5 -31t9.5 -43q0 -5 -0.5 -9.5t-1.5 -9.5q-5 -33 -19 -56
t-35 -37.5t-47.5 -21t-54.5 -7.5zM411 53q69 0 131.5 25t112.5 68.5t83.5 103t44.5 127.5q2 14 3 27.5t1 26.5q0 58 -20 107.5t-56.5 85.5t-87.5 56.5t-113 20.5q-69 0 -132 -25t-113.5 -69t-85 -103t-45.5 -127q-2 -14 -3 -26.5t-1 -25.5q0 -59 20 -109t57 -86t87.5 -56.5
t112.5 -20.5h2h2zM399 -10q-73 0 -134 25t-105 68.5t-68.5 103t-24.5 129.5q0 15 1.5 30.5t3.5 31.5q12 80 53.5 150.5t102 123t136 82.5t156.5 30q73 0 134 -25t105 -68.5t68.5 -103.5t24.5 -129q0 -14 -1.5 -29.5t-3.5 -30.5q-13 -81 -54.5 -152t-102 -123.5t-136 -82.5
t-155.5 -30z" />
    <glyph glyph-name="macron" unicode="&#xaf;" horiz-adv-x="280" 
d="M86 657l9 58h313l-9 -58h-313z" />
    <glyph glyph-name="macron" unicode="&#x2c9;" horiz-adv-x="280" 
d="M86 657l9 58h313l-9 -58h-313z" />
    <glyph glyph-name="degree" unicode="&#xb0;" horiz-adv-x="400" 
d="M308 692q-18 0 -35 -7t-31 -19t-23.5 -28t-12.5 -34q-1 -5 -1 -14q0 -32 21.5 -53t53.5 -21q18 0 35 7t31 19t23.5 28t12.5 34q1 3 1 6v7q0 32 -21 53.5t-54 21.5zM317 754q28 0 51.5 -10t40.5 -27t27 -40t10 -50q0 -5 -0.5 -11t-1.5 -12q-5 -31 -21 -58.5t-39.5 -47.5
t-52.5 -32t-60 -12q-28 0 -51.5 9.5t-41 27t-27 40.5t-9.5 50q0 6 0.5 11.5t1.5 11.5q5 31 21 58t39.5 47.5t52.5 32.5t60 12z" />
    <glyph glyph-name="plusminus" unicode="&#xb1;" horiz-adv-x="500" 
d="M55 72h413l-11 -70h-413zM294 507h70l-25 -156h172l-11 -70h-172l-24 -159h-70l24 159h-171l11 70h171z" />
    <glyph glyph-name="twosuperior" unicode="&#xb2;" horiz-adv-x="247" 
d="M245 763q54 0 76 -21.5t22 -59.5q0 -15 -3 -31q-4 -26 -17 -55t-30 -58.5t-36.5 -57.5t-35.5 -50l-53 -69h122l-9 -56h-219l12 23l140 209q17 28 32.5 57.5t20.5 60.5q1 5 1 14q0 15 -7 26.5t-25 11.5q-15 0 -24 -10.5t-14 -25t-7 -28.5l-3 -21l-2 -12h-73l3 17
q4 27 11 51.5t20.5 43.5t37 30t60.5 11z" />
    <glyph glyph-name="threesuperior" unicode="&#xb3;" horiz-adv-x="247" 
d="M255 537q29 -6 39.5 -24.5t10.5 -41.5q0 -9 -1 -18.5t-3 -18.5q-4 -28 -13 -52.5t-24.5 -43t-40 -29t-58.5 -10.5q-50 0 -71.5 19.5t-21.5 56.5q0 14 3 29l2 14h69l-2 -15q-1 -5 -1 -14q0 -14 7 -24t24 -10q16 0 25.5 9t15.5 22t9 27.5t5 25.5q1 7 1.5 13.5t0.5 12.5
q0 20 -9 34.5t-37 14.5h-2h-19l8 54h8q42 0 57 15.5t21 53.5q2 7 3 15.5t1 17.5q0 14 -5.5 25.5t-20.5 11.5q-12 0 -19.5 -5.5t-13 -14t-8.5 -18.5t-4 -19l-2 -13h-69l5 4q2 25 7.5 47.5t18.5 39t35 26t57 9.5q52 0 71 -23.5t19 -59.5q0 -16 -3 -34q-3 -16 -7 -32.5t-12 -31
t-21.5 -26t-34.5 -17.5v-2z" />
    <glyph glyph-name="acute" unicode="&#xb4;" horiz-adv-x="280" 
d="M204 568l-45 29l105 149l60 -43z" />
    <glyph glyph-name="mu" unicode="&#xb5;" horiz-adv-x="388" 
d="M423 505l-54 -347q-5 -29 -11.5 -58.5t-20 -53.5t-36.5 -39t-61 -15t-59 17.5t-32 48.5h-2l-41 -262h-94l110 709h94l-49 -315q-2 -13 -4.5 -29t-2.5 -31q0 -22 9 -38t37 -16q19 0 31 7.5t20 19.5t12 26t6 27l54 349h94z" />
    <glyph glyph-name="mu" unicode="&#x3bc;" horiz-adv-x="388" 
d="M423 505l-54 -347q-5 -29 -11.5 -58.5t-20 -53.5t-36.5 -39t-61 -15t-59 17.5t-32 48.5h-2l-41 -262h-94l110 709h94l-49 -315q-2 -13 -4.5 -29t-2.5 -31q0 -22 9 -38t37 -16q19 0 31 7.5t20 19.5t12 26t6 27l54 349h94z" />
    <glyph glyph-name="paragraph" unicode="&#xb6;" horiz-adv-x="440" 
d="M214 370h-1q-27 0 -51 12.5t-41 33.5t-27 49.5t-10 61.5q0 16 3 33q7 42 26.5 80.5t48.5 65.5q18 16 34.5 25.5t33 14.5t34 6.5t36.5 1.5h208l-135 -866h-79l125 799h-76l-125 -799h-79z" />
    <glyph glyph-name="periodcentered" unicode="&#xb7;" horiz-adv-x="205" 
d="M133 195q-22 0 -36.5 14t-14.5 36q0 7 1 11q4 24 24 41.5t45 17.5q23 0 37.5 -14.5t14.5 -35.5q0 -2 -0.5 -4.5t-0.5 -4.5q-5 -26 -25 -43.5t-45 -17.5z" />
    <glyph glyph-name="periodcentered" unicode="&#x2219;" horiz-adv-x="205" 
d="M133 195q-22 0 -36.5 14t-14.5 36q0 7 1 11q4 24 24 41.5t45 17.5q23 0 37.5 -14.5t14.5 -35.5q0 -2 -0.5 -4.5t-0.5 -4.5q-5 -26 -25 -43.5t-45 -17.5z" />
    <glyph glyph-name="cedilla" unicode="&#xb8;" horiz-adv-x="280" 
d="M191 -83l-106 -133l-40 23l85 142z" />
    <glyph glyph-name="onesuperior" unicode="&#xb9;" horiz-adv-x="247" 
d="M282 758l-71 -453h-72l63 399h-48l8 54h120z" />
    <glyph glyph-name="ordmasculine" unicode="&#xba;" horiz-adv-x="172" 
d="M198 712q-17 0 -27.5 -13t-16.5 -31t-9 -35.5t-4 -26.5q-1 -8 -3.5 -23.5t-2.5 -32.5q0 -19 6 -33t24 -14q16 0 26 13t16 30t8.5 34t3.5 26q2 9 5 26.5t3 34.5q0 18 -6 31.5t-23 13.5zM156 451q-25 0 -41.5 8t-26 22t-13 31.5t-3.5 37.5q0 14 1.5 28t3.5 28
q4 25 11.5 52.5t21.5 51t37 39t58 15.5q25 0 41.5 -8t26 -21.5t13 -31.5t3.5 -37q0 -15 -2 -30.5t-4 -29.5q-4 -25 -11.5 -52t-21.5 -50t-37 -38t-57 -15z" />
    <glyph glyph-name="guillemotright" unicode="&#xbb;" horiz-adv-x="357" 
d="M217 36l-40 25l135 199l-84 195l49 27l94 -222zM98 36l-40 25l135 199l-84 195l49 27l94 -222z" />
    <glyph glyph-name="onequarter" unicode="&#xbc;" horiz-adv-x="616" 
d="M547 360h-2l-109 -190h81zM282 758l-71 -453h-72l63 399h-48l8 54h120zM644 754l-491 -754h-62l491 754h62zM587 170h31l-7 -48h-31l-19 -122h-70l19 122h-140l8 54l175 277h78z" />
    <glyph glyph-name="onehalf" unicode="&#xbd;" horiz-adv-x="616" 
d="M270 758l-71 -453h-72l62 395h-48l9 58h120zM612 754l-491 -754h-62l491 754h62zM360 0l11 23l140 209q18 28 33 57.5t20 60.5q1 5 1 14q0 15 -7 26.5t-25 11.5q-15 0 -24 -10.5t-14 -25t-7 -28.5l-3 -21l-2 -12h-73l3 17q4 27 11 51.5t20.5 43.5t37 30t60.5 11
q54 0 76.5 -21.5t22.5 -60.5q0 -14 -3 -30q-4 -26 -17 -55t-30.5 -58.5t-37 -57.5t-35.5 -50l-53 -69h122l-8 -56h-219z" />
    <glyph glyph-name="threequarters" unicode="&#xbe;" horiz-adv-x="616" 
d="M543 360h-2l-109 -190h81zM664 754l-491 -754h-62l491 754h62zM253 763q52 0 71 -23.5t19 -59.5q0 -16 -3 -34q-3 -16 -7 -32.5t-12 -31t-21.5 -26t-34.5 -17.5v-2q29 -6 39.5 -24.5t10.5 -41.5q0 -9 -1 -18.5t-3 -18.5q-4 -28 -13 -52.5t-24.5 -43t-40 -29t-58.5 -10.5
q-50 0 -71.5 19.5t-21.5 56.5q0 14 3 29l2 14h69l-2 -15q-1 -5 -1 -14q0 -14 7 -24t24 -10q16 0 25.5 9t15.5 21.5t9 27t5 26.5q1 7 1.5 13.5t0.5 12.5q0 20 -9 34.5t-37 14.5h-2h-19l8 54h8q42 0 57 15.5t21 53.5q2 7 3 15.5t1 17.5q0 14 -5.5 25.5t-20.5 11.5
q-12 0 -19.5 -5.5t-13 -14t-8.5 -18.5t-4 -19l-2 -13h-69l5 4q2 25 7.5 47.5t18.5 39t35 26t57 9.5zM366 122l8 54l175 277h78l-44 -283h31l-7 -48h-31l-19 -122h-70l19 122h-140z" />
    <glyph glyph-name="questiondown" unicode="&#xbf;" horiz-adv-x="341" 
d="M270 557q23 0 37 -14.5t14 -35.5q0 -2 -0.5 -4.5t-0.5 -4.5q-4 -26 -24 -43.5t-45 -17.5q-23 0 -37.5 14.5t-14.5 37.5q0 2 0.5 4.5t0.5 4.5q4 24 24.5 41.5t45.5 17.5zM283 368l-35 -227l-22 1q-28 0 -45 -10t-26.5 -27t-14 -39t-7.5 -46q-2 -13 -6.5 -37.5t-4.5 -49.5
t7.5 -43.5t30.5 -18.5q17 0 27 10t16 24t8.5 30t4.5 28l3 18h94l-3 -14q-6 -36 -15 -69t-26.5 -58t-46 -40t-74.5 -15q-37 0 -60.5 9.5t-37.5 26t-19.5 39t-5.5 49.5q0 23 3 48.5t7 51.5q4 27 11 61.5t21 65t37.5 51.5t61.5 21h4l25 160h88z" />
    <glyph glyph-name="Agrave" unicode="&#xc0;" horiz-adv-x="414" 
d="M335 965l59 -149l-54 -29l-78 135zM297 334l5 274h-2l-120 -383h120zM364 754l45 -754h-101l-6 147h-150l-50 -147h-98l281 754h79z" />
    <glyph glyph-name="Aacute" unicode="&#xc1;" horiz-adv-x="414" 
d="M321 787l-46 29l105 149l61 -43zM297 334l5 274h-2l-120 -383h120zM364 754l45 -754h-101l-6 147h-150l-50 -147h-98l281 754h79z" />
    <glyph glyph-name="Acircumflex" unicode="&#xc2;" horiz-adv-x="414" 
d="M461 829l-53 -38l-65 83l-85 -83l-46 38l148 140zM297 334l5 274h-2l-120 -383h120zM364 754l45 -754h-101l-6 147h-150l-50 -147h-98l281 754h79z" />
    <glyph glyph-name="Atilde" unicode="&#xc3;" horiz-adv-x="414" 
d="M479 936q-3 -18 -9 -36t-17 -32t-27 -22.5t-37 -8.5q-14 0 -26 5t-22.5 11t-20.5 11t-20 5q-13 0 -18.5 -8t-7.5 -20h-61q3 18 10 35.5t18 32t26.5 23t36.5 8.5q17 0 30 -5t23.5 -11.5t20 -11.5t21.5 -5t17 10t7 19h56zM297 334l5 274h-2l-120 -383h120zM364 754l45 -754
h-101l-6 147h-150l-50 -147h-98l281 754h79z" />
    <glyph glyph-name="Adieresis" unicode="&#xc4;" horiz-adv-x="414" 
d="M256 823q-21 0 -35.5 13t-14.5 33q0 2 0.5 4.5t0.5 4.5q4 24 22.5 41t44.5 17q20 0 33.5 -13.5t13.5 -32.5q0 -2 -0.5 -4.5t-0.5 -4.5q-3 -23 -22 -40.5t-42 -17.5zM417 823q-21 0 -35.5 13t-14.5 33q0 2 0.5 4.5t0.5 4.5q4 24 22.5 41t44.5 17q20 0 33.5 -13.5
t13.5 -32.5q0 -2 -0.5 -4.5t-0.5 -4.5q-3 -23 -21.5 -40.5t-42.5 -17.5zM297 334l5 274h-2l-120 -383h120zM364 754l45 -754h-101l-6 147h-150l-50 -147h-98l281 754h79z" />
    <glyph glyph-name="Aring" unicode="&#xc5;" horiz-adv-x="414" 
d="M338 829q14 0 25 10t13 23q0 2 0.5 3.5t0.5 3.5q0 12 -8 20.5t-22 8.5q-16 0 -27 -11t-13 -25v-5q0 -13 9 -20.5t22 -7.5zM331 782q-30 0 -51 18.5t-21 48.5q0 8 1 12q5 35 32 59.5t62 24.5q32 0 51 -20.5t19 -50.5v-7q0 -3 -1 -6q-2 -16 -10.5 -30t-21.5 -25
t-28.5 -17.5t-31.5 -6.5zM297 334l5 274h-2l-120 -383h120zM364 754l45 -754h-101l-6 147h-150l-50 -147h-98l281 754h79z" />
    <glyph glyph-name="AE" unicode="&#xc6;" horiz-adv-x="566" 
d="M295 384l3 227h-2l-120 -386h127zM527 754l6 -87h-164l14 -239h149l6 -87h-149l18 -254h161l7 -87h-262l-8 147h-157l-50 -147h-98l277 754h250z" />
    <glyph glyph-name="Ccedilla" unicode="&#xc7;" horiz-adv-x="369" 
d="M266 -83l-106 -133l-40 23l85 142zM454 651q-14 8 -29 13.5t-32 5.5q-35 0 -61.5 -15.5t-46 -41t-33 -57.5t-23 -65t-15 -64.5t-8.5 -54.5q-5 -26 -8.5 -58.5t-3.5 -65.5q0 -32 5 -61.5t17.5 -52t34 -36.5t55.5 -14q17 0 31.5 3.5t30.5 11.5l-14 -88q-20 -12 -40.5 -16.5
t-42.5 -4.5q-55 0 -91 19.5t-57 52t-29 75t-8 88.5q0 35 4 71t9 69q6 38 15 82t24 88.5t36 85.5t51 73t69.5 51t90.5 19q26 0 45 -4.5t39 -17.5z" />
    <glyph glyph-name="Egrave" unicode="&#xc8;" horiz-adv-x="347" 
d="M317 965l59 -149l-54 -29l-78 135zM447 754l-13 -87h-169l-37 -237h151l-14 -87h-151l-40 -256h169l-13 -87h-269l117 754h269z" />
    <glyph glyph-name="Eacute" unicode="&#xc9;" horiz-adv-x="347" 
d="M318 787l-46 29l105 149l61 -43zM447 754l-13 -87h-169l-37 -237h151l-14 -87h-151l-40 -256h169l-13 -87h-269l117 754h269z" />
    <glyph glyph-name="Ecircumflex" unicode="&#xca;" horiz-adv-x="347" 
d="M440 829l-53 -38l-65 83l-85 -83l-46 38l148 140zM447 754l-13 -87h-169l-37 -237h151l-14 -87h-151l-40 -256h169l-13 -87h-269l117 754h269z" />
    <glyph glyph-name="Edieresis" unicode="&#xcb;" horiz-adv-x="347" 
d="M238 823q-21 0 -35.5 13t-14.5 33q0 2 0.5 4.5t0.5 4.5q4 24 22.5 41t44.5 17q20 0 33.5 -13.5t13.5 -32.5q0 -2 -0.5 -4.5t-0.5 -4.5q-3 -23 -22 -40.5t-42 -17.5zM399 823q-21 0 -35.5 13t-14.5 33q0 2 0.5 4.5t0.5 4.5q4 24 22.5 41t44.5 17q20 0 33.5 -13.5
t13.5 -32.5q0 -2 -0.5 -4.5t-0.5 -4.5q-3 -23 -21.5 -40.5t-42.5 -17.5zM447 754l-13 -87h-169l-37 -237h151l-14 -87h-151l-40 -256h169l-13 -87h-269l117 754h269z" />
    <glyph glyph-name="Igrave" unicode="&#xcc;" horiz-adv-x="222" 
d="M239 965l59 -149l-54 -29l-78 135zM161 0h-100l117 754h100z" />
    <glyph glyph-name="Iacute" unicode="&#xcd;" horiz-adv-x="222" 
d="M225 787l-46 29l105 149l61 -43zM161 0h-100l117 754h100z" />
    <glyph glyph-name="Icircumflex" unicode="&#xce;" horiz-adv-x="222" 
d="M365 829l-53 -38l-65 83l-85 -83l-46 38l148 140zM161 0h-100l117 754h100z" />
    <glyph glyph-name="Idieresis" unicode="&#xcf;" horiz-adv-x="222" 
d="M160 823q-21 0 -35.5 13t-14.5 33q0 2 0.5 4.5t0.5 4.5q4 24 22.5 41t44.5 17q20 0 33.5 -13.5t13.5 -32.5q0 -2 -0.5 -4.5t-0.5 -4.5q-3 -23 -22 -40.5t-42 -17.5zM321 823q-21 0 -35.5 13t-14.5 33q0 2 0.5 4.5t0.5 4.5q4 24 22.5 41t44.5 17q20 0 33.5 -13.5
t13.5 -32.5q0 -2 -0.5 -4.5t-0.5 -4.5q-3 -23 -21.5 -40.5t-42.5 -17.5zM161 0h-100l117 754h100z" />
    <glyph glyph-name="Eth" unicode="&#xd0;" horiz-adv-x="466" 
d="M228 430h70l-14 -87h-70l-40 -258h8q56 0 90 23.5t54.5 62.5t30.5 89t18 104q7 42 12.5 83t5.5 79q0 31 -5.5 57t-18.5 45t-35 30t-56 11h-13zM178 754h112q40 0 77.5 -5.5t66 -27.5t45.5 -66.5t17 -122.5q0 -68 -15 -168q-14 -88 -33.5 -149.5t-44.5 -102t-55.5 -63
t-64.5 -33.5t-72.5 -13.5t-80.5 -2.5h-69l53 343h-70l14 87h70z" />
    <glyph glyph-name="Ntilde" unicode="&#xd1;" horiz-adv-x="472" 
d="M508 936q-3 -18 -9 -36t-17 -32t-27 -22.5t-37 -8.5q-14 0 -26 5t-22.5 11t-20.5 11t-20 5q-13 0 -18.5 -8t-7.5 -20h-61q3 18 10 35.5t18 32t26.5 23t36.5 8.5q17 0 30 -5t23.5 -11.5t20 -11.5t21.5 -5t17 10t7 19h56zM228 530l-24 -253l-43 -277h-100l117 754h96
l87 -573l2 2l23 302l42 269h100l-117 -754h-93l-86 581l-2 -2z" />
    <glyph glyph-name="Ograve" unicode="&#xd2;" horiz-adv-x="476" 
d="M356 965l59 -149l-54 -29l-78 135zM342 670q-30 0 -51 -23.5t-37 -63t-27 -93t-21 -113.5q-8 -49 -13 -93.5t-5 -81.5q0 -54 14 -86t49 -32q30 0 51 23.5t36.5 63t27 93t20.5 113.5q8 50 13.5 94.5t5.5 81.5q0 54 -14 85.5t-49 31.5zM357 764q46 0 75.5 -17.5t47 -46.5
t24 -67t6.5 -78q0 -48 -6 -94t-12 -84q-5 -34 -12.5 -76t-20 -85t-30.5 -83.5t-45 -72.5t-63.5 -51t-84.5 -19q-46 0 -75.5 17.5t-47 47t-24 67.5t-6.5 79q0 47 5.5 93t11.5 83q5 34 13 76t20.5 85t30.5 83.5t45 72.5t63 51t85 19z" />
    <glyph glyph-name="Oacute" unicode="&#xd3;" horiz-adv-x="476" 
d="M362 787l-46 29l105 149l61 -43zM342 670q-30 0 -51 -23.5t-37 -63t-27 -93t-21 -113.5q-8 -49 -13 -93.5t-5 -81.5q0 -54 14 -86t49 -32q30 0 51 23.5t36.5 63t27 93t20.5 113.5q8 50 13.5 94.5t5.5 81.5q0 54 -14 85.5t-49 31.5zM357 764q46 0 75.5 -17.5t47 -46.5
t24 -67t6.5 -78q0 -48 -6 -94t-12 -84q-5 -34 -12.5 -76t-20 -85t-30.5 -83.5t-45 -72.5t-63.5 -51t-84.5 -19q-46 0 -75.5 17.5t-47 47t-24 67.5t-6.5 79q0 47 5.5 93t11.5 83q5 34 13 76t20.5 85t30.5 83.5t45 72.5t63 51t85 19z" />
    <glyph glyph-name="Ocircumflex" unicode="&#xd4;" horiz-adv-x="476" 
d="M492 829l-53 -38l-65 83l-85 -83l-46 38l148 140zM342 670q-30 0 -51 -23.5t-37 -63t-27 -93t-21 -113.5q-8 -49 -13 -93.5t-5 -81.5q0 -54 14 -86t49 -32q30 0 51 23.5t36.5 63t27 93t20.5 113.5q8 50 13.5 94.5t5.5 81.5q0 54 -14 85.5t-49 31.5zM357 764
q46 0 75.5 -17.5t47 -46.5t24 -67t6.5 -78q0 -48 -6 -94t-12 -84q-5 -34 -12.5 -76t-20 -85t-30.5 -83.5t-45 -72.5t-63.5 -51t-84.5 -19q-46 0 -75.5 17.5t-47 47t-24 67.5t-6.5 79q0 47 5.5 93t11.5 83q5 34 13 76t20.5 85t30.5 83.5t45 72.5t63 51t85 19z" />
    <glyph glyph-name="Otilde" unicode="&#xd5;" horiz-adv-x="476" 
d="M510 936q-3 -18 -9 -36t-17 -32t-27 -22.5t-37 -8.5q-14 0 -26 5t-22.5 11t-20.5 11t-20 5q-13 0 -18.5 -8t-7.5 -20h-61q3 18 10 35.5t18 32t26.5 23t36.5 8.5q17 0 30 -5t23.5 -11.5t20 -11.5t21.5 -5t17 10t7 19h56zM342 670q-30 0 -51 -23.5t-37 -63t-27 -93
t-21 -113.5q-8 -49 -13 -93.5t-5 -81.5q0 -54 14 -86t49 -32q30 0 51 23.5t36.5 63t27 93t20.5 113.5q8 50 13.5 94.5t5.5 81.5q0 54 -14 85.5t-49 31.5zM357 764q46 0 75.5 -17.5t47 -46.5t24 -67t6.5 -78q0 -48 -6 -94t-12 -84q-5 -34 -12.5 -76t-20 -85t-30.5 -83.5
t-45 -72.5t-63.5 -51t-84.5 -19q-46 0 -75.5 17.5t-47 47t-24 67.5t-6.5 79q0 47 5.5 93t11.5 83q5 34 13 76t20.5 85t30.5 83.5t45 72.5t63 51t85 19z" />
    <glyph glyph-name="Odieresis" unicode="&#xd6;" horiz-adv-x="476" 
d="M287 823q-21 0 -35.5 13t-14.5 33q0 2 0.5 4.5t0.5 4.5q4 24 22.5 41t44.5 17q20 0 33.5 -13.5t13.5 -32.5q0 -2 -0.5 -4.5t-0.5 -4.5q-3 -23 -22 -40.5t-42 -17.5zM448 823q-21 0 -35.5 13t-14.5 33q0 2 0.5 4.5t0.5 4.5q4 24 22.5 41t44.5 17q20 0 33.5 -13.5
t13.5 -32.5q0 -2 -0.5 -4.5t-0.5 -4.5q-3 -23 -21.5 -40.5t-42.5 -17.5zM342 670q-30 0 -51 -23.5t-37 -63t-27 -93t-21 -113.5q-8 -49 -13 -93.5t-5 -81.5q0 -54 14 -86t49 -32q30 0 51 23.5t36.5 63t27 93t20.5 113.5q8 50 13.5 94.5t5.5 81.5q0 54 -14 85.5t-49 31.5z
M357 764q46 0 75.5 -17.5t47 -46.5t24 -67t6.5 -78q0 -48 -6 -94t-12 -84q-5 -34 -12.5 -76t-20 -85t-30.5 -83.5t-45 -72.5t-63.5 -51t-84.5 -19q-46 0 -75.5 17.5t-47 47t-24 67.5t-6.5 79q0 47 5.5 93t11.5 83q5 34 13 76t20.5 85t30.5 83.5t45 72.5t63 51t85 19z" />
    <glyph glyph-name="multiply" unicode="&#xd7;" horiz-adv-x="500" 
d="M108 411l57 49l132 -157l183 158l41 -50l-182 -157l133 -157l-58 -49l-132 157l-183 -157l-40 49l181 157z" />
    <glyph glyph-name="Oslash" unicode="&#xd8;" horiz-adv-x="476" 
d="M191 162q4 -37 18 -57.5t42 -20.5q30 0 51 23.5t36.5 63t27 93t20.5 113.5q5 29 8.5 55.5t5.5 52.5zM403 585q-4 40 -18 62.5t-43 22.5q-30 0 -51 -23.5t-37 -63t-27 -93t-21 -113.5q-9 -63 -15 -117zM92 108q-5 21 -7 44t-2 47q0 48 6 94t11 84q5 34 13 76t20.5 85
t30.5 83.5t45 72.5t63 51t85 19q45 0 74.5 -17t46.5 -46l47 72l47 -23l-70 -109q5 -20 6.5 -41.5t1.5 -44.5q0 -48 -6 -94t-12 -84q-5 -34 -12.5 -76t-20 -85t-30.5 -83.5t-45 -72.5t-63.5 -51t-84.5 -19q-45 0 -73.5 16.5t-45.5 42.5l-50 -76l-47 23z" />
    <glyph glyph-name="Ugrave" unicode="&#xd9;" horiz-adv-x="467" 
d="M347 965l59 -149l-54 -29l-78 135zM278 754l-86 -553q-2 -14 -3 -26t-1 -22q0 -42 15.5 -55.5t40.5 -13.5q26 0 42 8t26 22t15 33.5t9 42.5l88 564h100l-83 -535q-6 -37 -15 -77.5t-30.5 -74t-60 -55.5t-103.5 -22q-43 0 -71 10t-44.5 28.5t-23 44t-6.5 56.5q0 24 2.5 50
t7.5 55l81 520h100z" />
    <glyph glyph-name="Uacute" unicode="&#xda;" horiz-adv-x="467" 
d="M363 787l-46 29l105 149l61 -43zM278 754l-86 -553q-2 -14 -3 -26t-1 -22q0 -42 15.5 -55.5t40.5 -13.5q26 0 42 8t26 22t15 33.5t9 42.5l88 564h100l-83 -535q-6 -37 -15 -77.5t-30.5 -74t-60 -55.5t-103.5 -22q-43 0 -71 10t-44.5 28.5t-23 44t-6.5 56.5q0 24 2.5 50
t7.5 55l81 520h100z" />
    <glyph glyph-name="Ucircumflex" unicode="&#xdb;" horiz-adv-x="467" 
d="M488 829l-53 -38l-65 83l-85 -83l-46 38l148 140zM278 754l-86 -553q-2 -14 -3 -26t-1 -22q0 -42 15.5 -55.5t40.5 -13.5q26 0 42 8t26 22t15 33.5t9 42.5l88 564h100l-83 -535q-6 -37 -15 -77.5t-30.5 -74t-60 -55.5t-103.5 -22q-43 0 -71 10t-44.5 28.5t-23 44
t-6.5 56.5q0 24 2.5 50t7.5 55l81 520h100z" />
    <glyph glyph-name="Udieresis" unicode="&#xdc;" horiz-adv-x="467" 
d="M283 823q-21 0 -35.5 13t-14.5 33q0 2 0.5 4.5t0.5 4.5q4 24 22.5 41t44.5 17q20 0 33.5 -13.5t13.5 -32.5q0 -2 -0.5 -4.5t-0.5 -4.5q-3 -23 -22 -40.5t-42 -17.5zM444 823q-21 0 -35.5 13t-14.5 33q0 2 0.5 4.5t0.5 4.5q4 24 22.5 41t44.5 17q20 0 33.5 -13.5
t13.5 -32.5q0 -2 -0.5 -4.5t-0.5 -4.5q-3 -23 -21.5 -40.5t-42.5 -17.5zM278 754l-86 -553q-2 -14 -3 -26t-1 -22q0 -42 15.5 -55.5t40.5 -13.5q26 0 42 8t26 22t15 33.5t9 42.5l88 564h100l-83 -535q-6 -37 -15 -77.5t-30.5 -74t-60 -55.5t-103.5 -22q-43 0 -71 10
t-44.5 28.5t-23 44t-6.5 56.5q0 24 2.5 50t7.5 55l81 520h100z" />
    <glyph glyph-name="Yacute" unicode="&#xdd;" horiz-adv-x="392" 
d="M335 787l-46 29l105 149l61 -43zM227 754l38 -349h2l31 97l103 252h107l-207 -429l-50 -325h-100l50 325l-82 429h108z" />
    <glyph glyph-name="Thorn" unicode="&#xde;" horiz-adv-x="396" 
d="M242 519l-39 -250q4 0 7 -0.5t7 -0.5q56 0 81 33t34 93q2 11 3 21t1 20q0 37 -17.5 60.5t-62.5 23.5h-14zM255 604q35 0 69 -3t60.5 -17t43 -42t16.5 -79q0 -14 -1 -29t-4 -32q-17 -110 -71 -164t-161 -54h-18l-28 -184h-100l117 754h100z" />
    <glyph glyph-name="germandbls" unicode="&#xdf;" horiz-adv-x="425" 
d="M165 647q6 41 17 76t31 60.5t51 40t79 14.5q75 0 106.5 -30.5t31.5 -90.5q0 -12 -1 -25t-3 -27q-3 -18 -9 -40.5t-16.5 -44t-27.5 -39t-42 -24.5v-2q38 -11 51 -44t13 -75q0 -30 -4.5 -61t-8.5 -58q-11 -69 -23 -121t-32.5 -86.5t-54.5 -52t-88 -17.5h-33l13 84h14
q30 0 47.5 12t28.5 35.5t17.5 58.5t13.5 81q4 23 8 50.5t4 53.5q0 19 -3.5 37t-12.5 31t-24 21t-39 8h-4l13 84h9q25 0 41.5 8t26.5 22t15.5 33t9.5 42q1 6 2 13.5t1 15.5q0 11 -2 22.5t-8 20.5t-15.5 15t-24.5 6q-24 0 -38 -13.5t-21.5 -32t-11 -38t-5.5 -32.5l-99 -638
h-94l67 431h-43l11 74h43z" />
    <glyph glyph-name="agrave" unicode="&#xe0;" horiz-adv-x="380" 
d="M279 746l59 -149l-55 -29l-78 135zM198 76q24 0 39.5 22t25.5 51.5t15 59t7 44.5l6 42t4 57q0 31 -8 54t-33 23q-26 0 -42.5 -21.5t-26.5 -51t-14.5 -59t-6.5 -44.5t-7 -43.5t-5 -57.5q0 -30 9.5 -53t36.5 -23zM253 65h-2q-20 -33 -42 -53t-63 -20q-27 0 -44.5 12t-27 32
t-13.5 45.5t-4 52.5q0 35 4 68t8 57q5 31 14 75t27 83.5t47 67.5t74 28q33 0 52.5 -18t27.5 -46h2l8 56h94l-78 -505h-94z" />
    <glyph glyph-name="aacute" unicode="&#xe1;" horiz-adv-x="380" 
d="M284 568l-45 29l105 149l60 -43zM198 76q24 0 39.5 22t25.5 51.5t15 59t7 44.5l6 42t4 57q0 31 -8 54t-33 23q-26 0 -42.5 -21.5t-26.5 -51t-14.5 -59t-6.5 -44.5t-7 -43.5t-5 -57.5q0 -30 9.5 -53t36.5 -23zM253 65h-2q-20 -33 -42 -53t-63 -20q-27 0 -44.5 12t-27 32
t-13.5 45.5t-4 52.5q0 35 4 68t8 57q5 31 14 75t27 83.5t47 67.5t74 28q33 0 52.5 -18t27.5 -46h2l8 56h94l-78 -505h-94z" />
    <glyph glyph-name="acircumflex" unicode="&#xe2;" horiz-adv-x="380" 
d="M410 610l-53 -38l-65 83l-85 -83l-46 38l148 140zM198 76q24 0 39.5 22t25.5 51.5t15 59t7 44.5l6 42t4 57q0 31 -8 54t-33 23q-26 0 -42.5 -21.5t-26.5 -51t-14.5 -59t-6.5 -44.5t-7 -43.5t-5 -57.5q0 -30 9.5 -53t36.5 -23zM253 65h-2q-20 -33 -42 -53t-63 -20
q-27 0 -44.5 12t-27 32t-13.5 45.5t-4 52.5q0 35 4 68t8 57q5 31 14 75t27 83.5t47 67.5t74 28q33 0 52.5 -18t27.5 -46h2l8 56h94l-78 -505h-94z" />
    <glyph glyph-name="atilde" unicode="&#xe3;" horiz-adv-x="380" 
d="M428 717q-3 -18 -9 -36t-17 -32t-27 -22.5t-37 -8.5q-14 0 -26 5t-22.5 11t-20.5 11t-20 5q-13 0 -19 -8t-7 -20h-61q3 18 9.5 35.5t17.5 32t26.5 23t36.5 8.5q17 0 30 -5t23.5 -11.5t20.5 -11.5t22 -5t17 10t7 19h56zM198 76q24 0 39.5 22t25.5 51.5t15 59t7 44.5l6 42
t4 57q0 31 -8 54t-33 23q-26 0 -42.5 -21.5t-26.5 -51t-14.5 -59t-6.5 -44.5t-7 -43.5t-5 -57.5q0 -30 9.5 -53t36.5 -23zM253 65h-2q-20 -33 -42 -53t-63 -20q-27 0 -44.5 12t-27 32t-13.5 45.5t-4 52.5q0 35 4 68t8 57q5 31 14 75t27 83.5t47 67.5t74 28q33 0 52.5 -18
t27.5 -46h2l8 56h94l-78 -505h-94z" />
    <glyph glyph-name="adieresis" unicode="&#xe4;" horiz-adv-x="380" 
d="M205 604q-21 0 -35.5 13t-14.5 33q0 2 0.5 4.5t0.5 4.5q4 24 22.5 41t44.5 17q20 0 33.5 -13.5t13.5 -32.5q0 -2 -0.5 -4.5t-0.5 -4.5q-4 -23 -22.5 -40.5t-41.5 -17.5zM366 604q-21 0 -35.5 13t-14.5 33q0 2 0.5 4.5t0.5 4.5q4 24 22.5 41t44.5 17q20 0 33.5 -13.5
t13.5 -32.5q0 -2 -0.5 -4.5t-0.5 -4.5q-4 -23 -22 -40.5t-42 -17.5zM198 76q24 0 39.5 22t25.5 51.5t15 59t7 44.5l6 42t4 57q0 31 -8 54t-33 23q-26 0 -42.5 -21.5t-26.5 -51t-14.5 -59t-6.5 -44.5t-7 -43.5t-5 -57.5q0 -30 9.5 -53t36.5 -23zM253 65h-2q-20 -33 -42 -53
t-63 -20q-27 0 -44.5 12t-27 32t-13.5 45.5t-4 52.5q0 35 4 68t8 57q5 31 14 75t27 83.5t47 67.5t74 28q33 0 52.5 -18t27.5 -46h2l8 56h94l-78 -505h-94z" />
    <glyph glyph-name="aring" unicode="&#xe5;" horiz-adv-x="380" 
d="M290 630q14 0 25 10t13 23q0 2 0.5 3.5t0.5 3.5q0 12 -8 20.5t-22 8.5q-16 0 -27 -11t-13 -25v-5q0 -13 9 -20.5t22 -7.5zM283 583q-30 0 -51 18.5t-21 48.5q0 8 1 12q5 35 32 59.5t62 24.5q32 0 51 -20.5t19 -50.5v-7q0 -3 -1 -6q-3 -16 -11.5 -30t-21 -25t-28 -17.5
t-31.5 -6.5zM198 76q24 0 39.5 22t25.5 51.5t15 59t7 44.5l6 42t4 57q0 31 -8 54t-33 23q-26 0 -42.5 -21.5t-26.5 -51t-14.5 -59t-6.5 -44.5t-7 -43.5t-5 -57.5q0 -30 9.5 -53t36.5 -23zM253 65h-2q-20 -33 -42 -53t-63 -20q-27 0 -44.5 12t-27 32t-13.5 45.5t-4 52.5
q0 35 4 68t8 57q5 31 14 75t27 83.5t47 67.5t74 28q33 0 52.5 -18t27.5 -46h2l8 56h94l-78 -505h-94z" />
    <glyph glyph-name="ae" unicode="&#xe6;" horiz-adv-x="561" 
d="M489 323q2 8 3 19t1 22q0 25 -9 47t-34 22q-20 0 -33 -12t-21.5 -29t-13.5 -36t-7 -33l-3 -22h114zM218 252q-18 0 -30 -8.5t-20.5 -21t-13 -28t-6.5 -30.5q-3 -18 -3 -37q0 -23 9 -41.5t36 -18.5q19 0 32 9t21.5 23t13 30.5t7.5 31.5q1 8 2 15.5t1 15.5q0 24 -10 42
t-39 18zM360 233q-2 -17 -5.5 -41.5t-3.5 -48.5q0 -29 9.5 -50t38.5 -21q16 0 28.5 8.5t20.5 21.5t12.5 27t6.5 26l3 18h89q-6 -35 -18.5 -68t-33 -58t-50.5 -40t-70 -15q-44 0 -73 18.5t-37 60.5q-20 -38 -50.5 -58.5t-73.5 -20.5q-29 0 -49 8.5t-32.5 24t-18 36t-5.5 44.5
q0 11 1 22t3 22q4 30 14 61.5t28 57t44 42t64 16.5q22 0 43 -7.5t31 -25.5l3 2l6 43q1 5 1 10v11q0 31 -14.5 47.5t-55.5 16.5q-28 0 -52 -7.5t-49 -21.5l15 93q27 14 52.5 20t54.5 6q38 0 67.5 -14.5t40.5 -50.5q43 65 117 65q36 0 59 -13t36.5 -35t19 -50.5t5.5 -58.5
q0 -23 -2.5 -46t-5.5 -44l-5 -33h-209z" />
    <glyph glyph-name="ccedilla" unicode="&#xe7;" horiz-adv-x="278" 
d="M205 -83l-106 -133l-40 23l85 142zM316 401h-2q-11 23 -40 24q-30 0 -50 -19t-32 -45t-18 -55t-9 -49q-2 -15 -5 -36t-3 -44q0 -18 2.5 -35.5t9.5 -31t19 -22t30 -8.5q16 0 27 5.5t24 13.5l-14 -87q-37 -20 -79 -20q-35 0 -58 13.5t-36 36t-18 51.5t-5 59q0 25 2.5 49.5
t5.5 46.5q6 39 17.5 85.5t33 86t55.5 66.5t86 27q21 0 38 -4t34 -13z" />
    <glyph glyph-name="egrave" unicode="&#xe8;" horiz-adv-x="361" 
d="M260 746l59 -149l-55 -29l-78 135zM284 301q2 11 4 27.5t2 33.5q0 13 -2 25t-7 21.5t-13 15t-21 5.5q-22 0 -35.5 -14.5t-21.5 -35t-12 -42t-6 -36.5h112zM161 234q-2 -14 -5 -37.5t-3 -46.5q0 -29 8 -51.5t34 -22.5q19 0 32 9t21.5 23t13.5 30.5t7 31.5h87
q-5 -35 -18 -67t-35 -57t-52 -39.5t-70 -14.5q-37 0 -61 13t-37.5 34.5t-19 49.5t-5.5 58q0 26 2.5 52t6.5 50q6 39 17.5 85t33 85.5t56 66.5t86.5 27q36 0 59 -13.5t36.5 -36t19 -52t5.5 -60.5q0 -26 -2.5 -52.5t-6.5 -49.5l-2 -15h-208z" />
    <glyph glyph-name="eacute" unicode="&#xe9;" horiz-adv-x="361" 
d="M275 568l-45 29l105 149l60 -43zM284 301q2 11 4 27.5t2 33.5q0 13 -2 25t-7 21.5t-13 15t-21 5.5q-22 0 -35.5 -14.5t-21.5 -35t-12 -42t-6 -36.5h112zM161 234q-2 -14 -5 -37.5t-3 -46.5q0 -29 8 -51.5t34 -22.5q19 0 32 9t21.5 23t13.5 30.5t7 31.5h87q-5 -35 -18 -67
t-35 -57t-52 -39.5t-70 -14.5q-37 0 -61 13t-37.5 34.5t-19 49.5t-5.5 58q0 26 2.5 52t6.5 50q6 39 17.5 85t33 85.5t56 66.5t86.5 27q36 0 59 -13.5t36.5 -36t19 -52t5.5 -60.5q0 -26 -2.5 -52.5t-6.5 -49.5l-2 -15h-208z" />
    <glyph glyph-name="ecircumflex" unicode="&#xea;" horiz-adv-x="361" 
d="M284 301q2 11 4 27.5t2 33.5q0 13 -2 25t-7 21.5t-13 15t-21 5.5q-22 0 -35.5 -14.5t-21.5 -35t-12 -42t-6 -36.5h112zM401 610l-53 -38l-65 83l-85 -83l-46 38l148 140zM161 234q-2 -14 -5 -37.5t-3 -46.5q0 -29 8 -51.5t34 -22.5q19 0 32 9t21.5 23t13.5 30.5t7 31.5
h87q-5 -35 -18 -67t-35 -57t-52 -39.5t-70 -14.5q-37 0 -61 13t-37.5 34.5t-19 49.5t-5.5 58q0 26 2.5 52t6.5 50q6 39 17.5 85t33 85.5t56 66.5t86.5 27q36 0 59 -13.5t36.5 -36t19 -52t5.5 -60.5q0 -26 -2.5 -52.5t-6.5 -49.5l-2 -15h-208z" />
    <glyph glyph-name="edieresis" unicode="&#xeb;" horiz-adv-x="361" 
d="M196 604q-21 0 -35.5 13t-14.5 33q0 2 0.5 4.5t0.5 4.5q4 24 22.5 41t44.5 17q20 0 33.5 -13.5t13.5 -32.5q0 -2 -0.5 -4.5t-0.5 -4.5q-4 -23 -22.5 -40.5t-41.5 -17.5zM357 604q-21 0 -35.5 13t-14.5 33q0 2 0.5 4.5t0.5 4.5q4 24 22.5 41t44.5 17q20 0 33.5 -13.5
t13.5 -32.5q0 -2 -0.5 -4.5t-0.5 -4.5q-4 -23 -22 -40.5t-42 -17.5zM284 301q2 11 4 27.5t2 33.5q0 13 -2 25t-7 21.5t-13 15t-21 5.5q-22 0 -35.5 -14.5t-21.5 -35t-12 -42t-6 -36.5h112zM161 234q-2 -14 -5 -37.5t-3 -46.5q0 -29 8 -51.5t34 -22.5q19 0 32 9t21.5 23
t13.5 30.5t7 31.5h87q-5 -35 -18 -67t-35 -57t-52 -39.5t-70 -14.5q-37 0 -61 13t-37.5 34.5t-19 49.5t-5.5 58q0 26 2.5 52t6.5 50q6 39 17.5 85t33 85.5t56 66.5t86.5 27q36 0 59 -13.5t36.5 -36t19 -52t5.5 -60.5q0 -26 -2.5 -52.5t-6.5 -49.5l-2 -15h-208z" />
    <glyph glyph-name="igrave" unicode="&#xec;" horiz-adv-x="180" 
d="M184 746l59 -149l-55 -29l-78 135zM215 505l-78 -505h-94l78 505h94z" />
    <glyph glyph-name="iacute" unicode="&#xed;" horiz-adv-x="180" 
d="M169 568l-45 29l105 149l60 -43zM215 505l-78 -505h-94l78 505h94z" />
    <glyph glyph-name="icircumflex" unicode="&#xee;" horiz-adv-x="180" 
d="M310 610l-53 -38l-65 83l-85 -83l-46 38l148 140zM215 505l-78 -505h-94l78 505h94z" />
    <glyph glyph-name="idieresis" unicode="&#xef;" horiz-adv-x="180" 
d="M105 604q-21 0 -35.5 13t-14.5 33q0 2 0.5 4.5t0.5 4.5q4 24 22.5 41t44.5 17q20 0 33.5 -13.5t13.5 -32.5q0 -2 -0.5 -4.5t-0.5 -4.5q-4 -23 -22.5 -40.5t-41.5 -17.5zM266 604q-21 0 -35.5 13t-14.5 33q0 2 0.5 4.5t0.5 4.5q4 24 22.5 41t44.5 17q20 0 33.5 -13.5
t13.5 -32.5q0 -2 -0.5 -4.5t-0.5 -4.5q-4 -23 -22 -40.5t-42 -17.5zM215 505l-78 -505h-94l78 505h94z" />
    <glyph glyph-name="eth" unicode="&#xf0;" horiz-adv-x="375" 
d="M164 251q-5 -29 -8 -54.5t-3 -46.5q0 -33 10.5 -52.5t36.5 -19.5q24 0 39 15.5t24.5 40t15.5 55.5t11 62q4 25 7.5 52t3.5 50q0 32 -10 53.5t-37 21.5q-23 0 -38 -16t-25 -41.5t-16 -57t-11 -62.5zM163 640l82 36q-20 42 -38.5 77t-32.5 57l80 28q22 -34 38 -64.5
t32 -61.5l79 38l24 -50l-82 -38q29 -61 41 -127.5t12 -135.5q0 -35 -3 -69t-8 -68q-8 -49 -20 -97t-34 -86.5t-57.5 -62.5t-89.5 -24q-38 0 -63 13t-39 34.5t-19.5 50t-5.5 59.5q0 26 2.5 52t6.5 50q6 38 17 81t33 79t56 60t87 24q13 0 24 -1.5t23 -9.5q-6 39 -16 71.5
t-27 70.5l-79 -36z" />
    <glyph glyph-name="ntilde" unicode="&#xf1;" horiz-adv-x="388" 
d="M426 717q-3 -18 -9 -36t-17 -32t-27 -22.5t-37 -8.5q-14 0 -26 5t-22.5 11t-20.5 11t-20 5q-13 0 -19 -8t-7 -20h-61q3 18 9.5 35.5t17.5 32t26.5 23t36.5 8.5q17 0 30 -5t23.5 -11.5t20.5 -11.5t22 -5t17 10t7 19h56zM207 447h2q21 31 48 48.5t65 17.5q25 0 41.5 -7
t26.5 -19.5t13.5 -29t3.5 -35.5q0 -18 -2.5 -37t-5.5 -38l-54 -347h-94l54 349q3 13 3 29q0 20 -9 35.5t-37 15.5q-23 0 -37 -12t-21.5 -29t-10.5 -37t-6 -36l-49 -315h-94l78 505h94z" />
    <glyph glyph-name="ograve" unicode="&#xf2;" horiz-adv-x="375" 
d="M282 746l59 -149l-55 -29l-78 135zM200 78q27 0 43.5 22t26 51t14 57.5t6.5 42.5t6.5 41.5t4.5 56.5q0 31 -9.5 54.5t-37.5 23.5q-27 0 -43.5 -22t-26 -51t-14 -58.5t-6.5 -44.5q-2 -13 -6.5 -39.5t-4.5 -55.5q0 -31 9.5 -54.5t37.5 -23.5zM186 -8q-38 0 -63 13.5
t-39 35.5t-19.5 50.5t-5.5 59.5q0 26 2.5 51.5t6.5 48.5q6 41 18 87t34.5 85t58 64.5t89.5 25.5q38 0 62.5 -13t39 -35.5t20 -51.5t5.5 -60q0 -26 -2.5 -52t-6.5 -50q-6 -40 -18 -85.5t-34.5 -84t-58 -64t-89.5 -25.5z" />
    <glyph glyph-name="oacute" unicode="&#xf3;" horiz-adv-x="375" 
d="M267 568l-45 29l105 149l60 -43zM200 78q27 0 43.5 22t26 51t14 57.5t6.5 42.5t6.5 41.5t4.5 56.5q0 31 -9.5 54.5t-37.5 23.5q-27 0 -43.5 -22t-26 -51t-14 -58.5t-6.5 -44.5q-2 -13 -6.5 -39.5t-4.5 -55.5q0 -31 9.5 -54.5t37.5 -23.5zM186 -8q-38 0 -63 13.5t-39 35.5
t-19.5 50.5t-5.5 59.5q0 26 2.5 51.5t6.5 48.5q6 41 18 87t34.5 85t58 64.5t89.5 25.5q38 0 62.5 -13t39 -35.5t20 -51.5t5.5 -60q0 -26 -2.5 -52t-6.5 -50q-6 -40 -18 -85.5t-34.5 -84t-58 -64t-89.5 -25.5z" />
    <glyph glyph-name="ocircumflex" unicode="&#xf4;" horiz-adv-x="375" 
d="M408 610l-53 -38l-65 83l-85 -83l-46 38l148 140zM200 78q27 0 43.5 22t26 51t14 57.5t6.5 42.5t6.5 41.5t4.5 56.5q0 31 -9.5 54.5t-37.5 23.5q-27 0 -43.5 -22t-26 -51t-14 -58.5t-6.5 -44.5q-2 -13 -6.5 -39.5t-4.5 -55.5q0 -31 9.5 -54.5t37.5 -23.5zM186 -8
q-38 0 -63 13.5t-39 35.5t-19.5 50.5t-5.5 59.5q0 26 2.5 51.5t6.5 48.5q6 41 18 87t34.5 85t58 64.5t89.5 25.5q38 0 62.5 -13t39 -35.5t20 -51.5t5.5 -60q0 -26 -2.5 -52t-6.5 -50q-6 -40 -18 -85.5t-34.5 -84t-58 -64t-89.5 -25.5z" />
    <glyph glyph-name="otilde" unicode="&#xf5;" horiz-adv-x="375" 
d="M426 717q-3 -18 -9 -36t-17 -32t-27 -22.5t-37 -8.5q-14 0 -26 5t-22.5 11t-20.5 11t-20 5q-13 0 -19 -8t-7 -20h-61q3 18 9.5 35.5t17.5 32t26.5 23t36.5 8.5q17 0 30 -5t23.5 -11.5t20.5 -11.5t22 -5t17 10t7 19h56zM200 78q27 0 43.5 22t26 51t14 57.5t6.5 42.5
t6.5 41.5t4.5 56.5q0 31 -9.5 54.5t-37.5 23.5q-27 0 -43.5 -22t-26 -51t-14 -58.5t-6.5 -44.5q-2 -13 -6.5 -39.5t-4.5 -55.5q0 -31 9.5 -54.5t37.5 -23.5zM186 -8q-38 0 -63 13.5t-39 35.5t-19.5 50.5t-5.5 59.5q0 26 2.5 51.5t6.5 48.5q6 41 18 87t34.5 85t58 64.5
t89.5 25.5q38 0 62.5 -13t39 -35.5t20 -51.5t5.5 -60q0 -26 -2.5 -52t-6.5 -50q-6 -40 -18 -85.5t-34.5 -84t-58 -64t-89.5 -25.5z" />
    <glyph glyph-name="odieresis" unicode="&#xf6;" horiz-adv-x="375" 
d="M203 604q-21 0 -35.5 13t-14.5 33q0 2 0.5 4.5t0.5 4.5q4 24 22.5 41t44.5 17q20 0 33.5 -13.5t13.5 -32.5q0 -2 -0.5 -4.5t-0.5 -4.5q-4 -23 -22.5 -40.5t-41.5 -17.5zM364 604q-21 0 -35.5 13t-14.5 33q0 2 0.5 4.5t0.5 4.5q4 24 22.5 41t44.5 17q20 0 33.5 -13.5
t13.5 -32.5q0 -2 -0.5 -4.5t-0.5 -4.5q-4 -23 -22 -40.5t-42 -17.5zM200 78q27 0 43.5 22t26 51t14 57.5t6.5 42.5t6.5 41.5t4.5 56.5q0 31 -9.5 54.5t-37.5 23.5q-27 0 -43.5 -22t-26 -51t-14 -58.5t-6.5 -44.5q-2 -13 -6.5 -39.5t-4.5 -55.5q0 -31 9.5 -54.5t37.5 -23.5z
M186 -8q-38 0 -63 13.5t-39 35.5t-19.5 50.5t-5.5 59.5q0 26 2.5 51.5t6.5 48.5q6 41 18 87t34.5 85t58 64.5t89.5 25.5q38 0 62.5 -13t39 -35.5t20 -51.5t5.5 -60q0 -26 -2.5 -52t-6.5 -50q-6 -40 -18 -85.5t-34.5 -84t-58 -64t-89.5 -25.5z" />
    <glyph glyph-name="divide" unicode="&#xf7;" horiz-adv-x="500" 
d="M273 407l16 100h79l-16 -100h-79zM210 5l16 100h79l-16 -100h-79zM89 291h413l-11 -70h-413z" />
    <glyph glyph-name="oslash" unicode="&#xf8;" horiz-adv-x="375" 
d="M158 119q3 -19 13 -32t31 -13q25 0 41 19.5t25 46.5t13 54.5t7 42.5l10 72h-2l-138 -190v0zM297 386q-4 21 -12 33t-31 12q-24 0 -40 -19t-25.5 -45t-14.5 -52t-7 -41l-9 -77h2l137 189v0zM56 -9l-35 25l49 62q-6 19 -8 39t-2 41q0 26 2.5 52t6.5 52q6 40 18 84.5
t34 81.5t57 61t87 24q32 0 57 -9t43 -32l40 51l37 -24l-56 -72q9 -36 9 -76q0 -28 -3 -55.5t-8 -54.5q-6 -41 -18 -85t-34.5 -80.5t-58 -60t-87.5 -23.5q-31 0 -55.5 9.5t-42.5 31.5z" />
    <glyph glyph-name="ugrave" unicode="&#xf9;" horiz-adv-x="389" 
d="M274 746l59 -149l-55 -29l-78 135zM216 505l-49 -316q-2 -14 -4.5 -29t-2.5 -29q0 -22 9.5 -37.5t38.5 -15.5q24 0 37 10t20 26t9.5 34.5t5.5 35.5l50 321h94l-53 -341q-6 -39 -17.5 -71t-32 -54.5t-50.5 -34.5t-73 -12q-39 0 -64.5 8t-41 23t-21.5 36.5t-6 48.5
q0 17 2 36t5 40l50 321h94z" />
    <glyph glyph-name="uacute" unicode="&#xfa;" horiz-adv-x="389" 
d="M289 568l-45 29l105 149l60 -43zM216 505l-49 -316q-2 -14 -4.5 -29t-2.5 -29q0 -22 9.5 -37.5t38.5 -15.5q24 0 37 10t20 26t9.5 34.5t5.5 35.5l50 321h94l-53 -341q-6 -39 -17.5 -71t-32 -54.5t-50.5 -34.5t-73 -12q-39 0 -64.5 8t-41 23t-21.5 36.5t-6 48.5q0 17 2 36
t5 40l50 321h94z" />
    <glyph glyph-name="ucircumflex" unicode="&#xfb;" horiz-adv-x="389" 
d="M415 610l-53 -38l-65 83l-85 -83l-46 38l148 140zM216 505l-49 -316q-2 -14 -4.5 -29t-2.5 -29q0 -22 9.5 -37.5t38.5 -15.5q24 0 37 10t20 26t9.5 34.5t5.5 35.5l50 321h94l-53 -341q-6 -39 -17.5 -71t-32 -54.5t-50.5 -34.5t-73 -12q-39 0 -64.5 8t-41 23t-21.5 36.5
t-6 48.5q0 17 2 36t5 40l50 321h94z" />
    <glyph glyph-name="udieresis" unicode="&#xfc;" horiz-adv-x="389" 
d="M210 604q-21 0 -35.5 13t-14.5 33q0 2 0.5 4.5t0.5 4.5q4 24 22.5 41t44.5 17q20 0 33.5 -13.5t13.5 -32.5q0 -2 -0.5 -4.5t-0.5 -4.5q-4 -23 -22.5 -40.5t-41.5 -17.5zM371 604q-21 0 -35.5 13t-14.5 33q0 2 0.5 4.5t0.5 4.5q4 24 22.5 41t44.5 17q20 0 33.5 -13.5
t13.5 -32.5q0 -2 -0.5 -4.5t-0.5 -4.5q-4 -23 -22 -40.5t-42 -17.5zM216 505l-49 -316q-2 -14 -4.5 -29t-2.5 -29q0 -22 9.5 -37.5t38.5 -15.5q24 0 37 10t20 26t9.5 34.5t5.5 35.5l50 321h94l-53 -341q-6 -39 -17.5 -71t-32 -54.5t-50.5 -34.5t-73 -12q-39 0 -64.5 8
t-41 23t-21.5 36.5t-6 48.5q0 17 2 36t5 40l50 321h94z" />
    <glyph glyph-name="yacute" unicode="&#xfd;" horiz-adv-x="373" 
d="M291 568l-45 29l105 149l60 -43zM187 505l19 -352h2l140 352h95l-317 -712h-99l117 248l-62 464h105z" />
    <glyph glyph-name="thorn" unicode="&#xfe;" horiz-adv-x="380" 
d="M204 76q22 0 37 15.5t25 41t16.5 56.5t11.5 63q2 15 7 43.5t5 57.5q0 30 -9.5 53t-36.5 23q-24 0 -39.5 -22t-25.5 -51t-15 -59t-7 -45l-6 -42t-4 -57q0 -31 8 -54t33 -23zM205 440h2q19 32 42.5 52.5t62.5 20.5q27 0 44.5 -12t27 -31.5t13.5 -45t4 -52.5q0 -35 -4 -68
t-8 -57q-3 -21 -8 -48.5t-13 -55.5t-20 -55.5t-29 -48.5t-39.5 -34t-52.5 -13q-37 0 -53.5 17t-26.5 48h-2l-41 -264h-94l141 902h94z" />
    <glyph glyph-name="ydieresis" unicode="&#xff;" horiz-adv-x="373" 
d="M202 604q-21 0 -35.5 13t-14.5 33q0 2 0.5 4.5t0.5 4.5q4 24 22.5 41t44.5 17q20 0 33.5 -13.5t13.5 -32.5q0 -2 -0.5 -4.5t-0.5 -4.5q-4 -23 -22.5 -40.5t-41.5 -17.5zM363 604q-21 0 -35.5 13t-14.5 33q0 2 0.5 4.5t0.5 4.5q4 24 22.5 41t44.5 17q20 0 33.5 -13.5
t13.5 -32.5q0 -2 -0.5 -4.5t-0.5 -4.5q-4 -23 -22 -40.5t-42 -17.5zM187 505l19 -352h2l140 352h95l-317 -712h-99l117 248l-62 464h105z" />
    <glyph glyph-name="dotlessi" unicode="&#x131;" horiz-adv-x="180" 
d="M215 505l-78 -505h-94l78 505h94z" />
    <glyph glyph-name="Lslash" unicode="&#x141;" horiz-adv-x="331" 
d="M178 754h100l-46 -296l102 60l-14 -88l-102 -60l-44 -283h168l-13 -87h-268l47 301l-80 -48l14 88l80 49z" />
    <glyph glyph-name="lslash" unicode="&#x142;" horiz-adv-x="180" 
d="M104 390l-78 -58l12 76l77 54l57 368h94l-45 -291l77 59l-12 -76l-77 -57l-72 -465h-94z" />
    <glyph glyph-name="OE" unicode="&#x152;" horiz-adv-x="598" 
d="M208 379q-2 -11 -5.5 -30t-6.5 -42t-5.5 -49.5t-2.5 -51.5q0 -24 3 -46t10 -38.5t19.5 -26.5t30.5 -10q37 0 60.5 28.5t37.5 72t22 95.5t15 98q2 13 6 33.5t8.5 45t7.5 51.5t3 53q0 22 -3 42.5t-11 35.5t-21 24t-33 9q-25 0 -44.5 -15t-35.5 -49.5t-29 -90.5t-26 -139z
M490 431h154l-14 -87h-154l-40 -257h172l-13 -87h-262l9 60h-2q-43 -70 -125 -70q-40 0 -65.5 17t-40.5 45t-20.5 64t-5.5 75q0 51 6.5 99t11.5 83q5 31 11.5 71.5t17.5 84t28 85.5t41.5 75.5t58 54t79.5 20.5q38 0 63.5 -17t33.5 -52h2l9 59h262l-13 -87h-167z" />
    <glyph glyph-name="oe" unicode="&#x153;" horiz-adv-x="581" 
d="M388 299h115q2 12 4.5 29t2.5 35q0 27 -9 48.5t-36 21.5q-23 0 -36.5 -14t-21.5 -34t-11.5 -41.5t-5.5 -36.5zM164 252q-2 -13 -5.5 -38t-3.5 -52q0 -16 2 -31t7 -27t13.5 -19t22.5 -7q24 0 40 22t26 51.5t15 58t7 42.5t6 40t4 54q0 32 -9 57t-35 25t-42.5 -22.5t-26 -52
t-14.5 -58.5t-7 -43zM376 234v-6q-2 -12 -3.5 -30.5t-1.5 -38.5q0 -15 2 -30t7 -26t14 -18t23 -7q19 0 32 9t21.5 22.5t13 30t7.5 31.5h86q-6 -36 -20 -68.5t-36 -57t-52.5 -39t-69.5 -14.5q-38 2 -61 22t-34 58q-23 -40 -52 -59t-71 -21q-37 0 -60.5 13t-37 35t-19 50.5
t-5.5 59.5q0 29 3.5 58t7.5 55q6 40 18.5 84.5t35 81t57 60.5t86.5 24q35 0 61.5 -20.5t33.5 -57.5h2q17 38 49.5 58t67.5 20q36 0 59 -13t36.5 -34.5t19 -50t5.5 -58.5q0 -28 -3 -55.5t-7 -52.5l-2 -15h-213z" />
    <glyph glyph-name="Scaron" unicode="&#x160;" horiz-adv-x="354" 
d="M198 930l58 39l59 -83l91 83l41 -39l-145 -139zM392 638q-17 14 -35.5 23t-44.5 9q-21 0 -38.5 -8t-31 -21t-22.5 -31t-12 -37q-1 -7 -1.5 -12.5t-0.5 -11.5q0 -31 17 -58l63 -83q18 -21 32.5 -40.5t24 -39.5t15 -42t5.5 -49q0 -11 -1 -23.5t-3 -26.5q-6 -40 -24 -75.5
t-45 -62.5t-62 -43t-77 -16q-29 0 -56.5 8.5t-47.5 27.5l15 101q20 -17 42 -28t51 -11q47 0 72.5 31.5t32.5 73.5q1 6 1.5 12t0.5 11q0 30 -11.5 54.5t-29 47t-38 44t-38 47t-29 55t-11.5 68.5q0 18 3 39q6 40 22 75t41 61t59.5 41.5t76.5 15.5q29 0 54.5 -5.5t47.5 -19.5z
" />
    <glyph glyph-name="scaron" unicode="&#x161;" horiz-adv-x="276" 
d="M125 711l58 39l59 -83l91 83l41 -39l-145 -139zM296 402q-11 12 -29.5 19.5t-35.5 7.5q-26 0 -47.5 -14t-25.5 -40q0 -2 -0.5 -4t-0.5 -4q0 -27 19.5 -45.5t43 -38t43 -45.5t19.5 -69q0 -6 -0.5 -12.5t-1.5 -14.5q-11 -67 -56 -108.5t-113 -41.5q-25 0 -42 5.5t-36 18.5
l14 92q16 -14 32.5 -23t40.5 -9q31 0 49.5 17.5t23.5 46.5q1 4 1 11q0 27 -19.5 46t-42.5 39t-42.5 46t-19.5 67q0 6 0.5 12.5t1.5 13.5q5 30 19 55.5t34.5 43.5t47 28.5t56.5 10.5q24 0 43.5 -5t37.5 -17z" />
    <glyph glyph-name="Ydieresis" unicode="&#x178;" horiz-adv-x="392" 
d="M245 823q-21 0 -35.5 13t-14.5 33q0 2 0.5 4.5t0.5 4.5q4 24 22.5 41t44.5 17q20 0 33.5 -13.5t13.5 -32.5q0 -2 -0.5 -4.5t-0.5 -4.5q-3 -23 -22 -40.5t-42 -17.5zM406 823q-21 0 -35.5 13t-14.5 33q0 2 0.5 4.5t0.5 4.5q4 24 22.5 41t44.5 17q20 0 33.5 -13.5
t13.5 -32.5q0 -2 -0.5 -4.5t-0.5 -4.5q-3 -23 -21.5 -40.5t-42.5 -17.5zM227 754l38 -349h2l31 97l103 252h107l-207 -429l-50 -325h-100l50 325l-82 429h108z" />
    <glyph glyph-name="Zcaron" unicode="&#x17d;" horiz-adv-x="393" 
d="M226 930l58 39l59 -83l91 83l41 -39l-145 -139zM492 754l-331 -667h215l-13 -87h-348l333 667h-202l13 87h333z" />
    <glyph glyph-name="zcaron" unicode="&#x17e;" horiz-adv-x="335" 
d="M155 711l58 39l59 -83l91 83l41 -39l-145 -139zM399 505l-234 -421h160l-13 -84h-298l240 421h-162l13 84h294z" />
    <glyph glyph-name="florin" unicode="&#x192;" 
d="M494 508l-21 -74h-131l-102 -300q-8 -23 -16.5 -49t-19 -52.5t-23.5 -51t-29 -43.5q-19 -23 -44 -39.5t-52 -27t-55.5 -15.5t-54.5 -5h-24l28 84h19q38 4 65 16t53 46q8 11 16.5 28t16.5 35.5t14.5 36.5t11.5 32l100 305h-65l21 74h70l40 121q14 44 32.5 82t45.5 65.5
t63.5 43.5t87.5 16q34 0 59 -7l-29 -84q-17 7 -40 7q-25 0 -45 -7.5t-37 -30.5q-15 -21 -26 -46.5t-19 -49.5l-39 -110h129z" />
    <glyph glyph-name="circumflex" unicode="&#x2c6;" horiz-adv-x="280" 
d="M360 610l-53 -38l-65 83l-85 -83l-46 38l148 140z" />
    <glyph glyph-name="caron" unicode="&#x2c7;" horiz-adv-x="280" 
d="M127 711l58 39l59 -83l91 83l41 -39l-145 -139z" />
    <glyph glyph-name="breve" unicode="&#x2d8;" horiz-adv-x="280" 
d="M154 765q3 -42 28 -59.5t66 -17.5q42 0 71 17t46 60h49q-14 -71 -63 -103.5t-116 -32.5q-56 0 -93.5 27.5t-37.5 86.5v10q0 6 1 12h49z" />
    <glyph glyph-name="dotaccent" unicode="&#x2d9;" horiz-adv-x="280" 
d="M237 604q-21 0 -36 12t-15 33q0 7 1 10q4 25 23 41.5t44 16.5q20 0 33.5 -13.5t13.5 -32.5q0 -2 -0.5 -4.5t-0.5 -4.5q-4 -23 -22 -40.5t-41 -17.5z" />
    <glyph glyph-name="ring" unicode="&#x2da;" horiz-adv-x="280" 
d="M240 630q14 0 25 10t13 23q0 2 0.5 3.5t0.5 3.5q0 12 -8 20.5t-22 8.5q-16 0 -27 -11t-13 -25v-5q0 -13 9 -20.5t22 -7.5zM233 583q-30 0 -51 18.5t-21 48.5q0 8 1 12q5 35 32 59.5t62 24.5q32 0 51 -20.5t19 -50.5v-7q0 -3 -1 -6q-3 -16 -11.5 -30t-21 -25t-28 -17.5
t-31.5 -6.5z" />
    <glyph glyph-name="ogonek" unicode="&#x2db;" horiz-adv-x="280" 
d="M143 13q-6 -8 -13 -18.5t-12.5 -22.5t-10 -23.5t-5.5 -20.5q0 -2 -0.5 -4.5t-0.5 -4.5q0 -20 13.5 -29.5t36.5 -9.5h9h7q28 0 42.5 9t28.5 19l-12 -79q-46 -20 -87 -20q-20 0 -40 5t-35.5 14.5t-25.5 24.5t-10 36q0 5 0.5 9t1.5 9q4 24 18 54t28 52h67z" />
    <glyph glyph-name="tilde" unicode="&#x2dc;" horiz-adv-x="280" 
d="M378 717q-3 -18 -9 -36t-17 -32t-27 -22.5t-37 -8.5q-14 0 -26 5t-22.5 11t-20.5 11t-20 5q-13 0 -19 -8t-7 -20h-61q3 18 9.5 35.5t17.5 32t26.5 23t36.5 8.5q17 0 30 -5t23.5 -11.5t20.5 -11.5t22 -5t17 10t7 19h56z" />
    <glyph glyph-name="hungarumlaut" unicode="&#x2dd;" horiz-adv-x="280" 
d="M399 703l-120 -135l-45 29l105 149zM249 703l-120 -135l-45 29l105 149z" />
    <glyph glyph-name="endash" unicode="&#x2013;" horiz-adv-x="500" 
d="M546 296l-12 -74h-500l12 74h500z" />
    <glyph glyph-name="emdash" unicode="&#x2014;" horiz-adv-x="1000" 
d="M916 296l-12 -74h-740l12 74h740z" />
    <glyph glyph-name="quoteleft" unicode="&#x2018;" horiz-adv-x="213" 
d="M104 498l138 266l50 -15l-110 -275z" />
    <glyph glyph-name="quoteright" unicode="&#x2019;" horiz-adv-x="213" 
d="M301 740l-138 -265l-49 14l110 275z" />
    <glyph glyph-name="quotesinglbase" unicode="&#x201a;" horiz-adv-x="213" 
d="M198 81l-138 -265l-49 14l110 276z" />
    <glyph glyph-name="quotedblleft" unicode="&#x201c;" horiz-adv-x="344" 
d="M98 498l138 266l50 -15l-110 -275zM235 498l138 266l50 -15l-110 -275z" />
    <glyph glyph-name="quotedblright" unicode="&#x201d;" horiz-adv-x="344" 
d="M438 740l-138 -265l-49 14l110 275zM301 740l-138 -265l-49 14l110 275z" />
    <glyph glyph-name="quotedblbase" unicode="&#x201e;" horiz-adv-x="344" 
d="M335 81l-138 -265l-49 14l110 276zM198 81l-138 -265l-49 14l110 276z" />
    <glyph glyph-name="dagger" unicode="&#x2020;" horiz-adv-x="359" 
d="M344 754l-39 -249h103l-12 -82h-103l-88 -560h-94l88 560h-104l12 82h104l39 249h94z" />
    <glyph glyph-name="daggerdbl" unicode="&#x2021;" horiz-adv-x="359" 
d="M344 754l-35 -229h103l-13 -82h-103l-29 -184h103l-13 -82h-103l-49 -314h-94l49 314h-104l13 82h104l29 184h-104l13 82h104l35 229h94z" />
    <glyph glyph-name="bullet" unicode="&#x2022;" horiz-adv-x="400" 
d="M70 377q6 39 26.5 73t49.5 60t65.5 41t75.5 15q36 0 65.5 -12.5t51.5 -34t34 -50.5t12 -62q0 -15 -3 -30q-6 -38 -26 -72.5t-49.5 -60t-66.5 -40.5t-77 -15q-35 0 -64.5 12.5t-50.5 34t-33 51t-12 62.5q0 7 0.5 14t1.5 14z" />
    <glyph glyph-name="ellipsis" unicode="&#x2026;" horiz-adv-x="1000" 
d="M498 -10q-23 0 -37.5 14.5t-14.5 37.5q0 2 0.5 4.5t0.5 4.5q4 24 24.5 41.5t45.5 17.5q23 0 37 -14.5t14 -35.5q0 -2 -0.5 -4.5t-0.5 -4.5q-4 -26 -24 -43.5t-45 -17.5zM831 -10q-23 0 -37.5 14.5t-14.5 37.5q0 2 0.5 4.5t0.5 4.5q4 24 24.5 41.5t45.5 17.5
q23 0 37 -14.5t14 -35.5q0 -2 -0.5 -4.5t-0.5 -4.5q-4 -26 -24 -43.5t-45 -17.5zM165 -10q-23 0 -37.5 14.5t-14.5 37.5q0 2 0.5 4.5t0.5 4.5q4 24 24.5 41.5t45.5 17.5q23 0 37 -14.5t14 -35.5q0 -2 -0.5 -4.5t-0.5 -4.5q-4 -26 -24 -43.5t-45 -17.5z" />
    <glyph glyph-name="perthousand" unicode="&#x2030;" horiz-adv-x="817" 
d="M674 51q17 0 27.5 15t17 35t9.5 39.5t5 29.5q2 9 5 28.5t3 39.5t-6 35.5t-23 15.5t-27.5 -15t-17 -35t-10 -40t-4.5 -29q-2 -10 -5 -29t-3 -39t6 -35.5t23 -15.5zM410 51q17 0 27.5 15t17 35t9.5 39.5t5 29.5q2 9 5 28.5t3 39.5t-6 35.5t-23 15.5t-27.5 -15t-17 -35
t-10 -40t-4.5 -29q-2 -10 -5 -29t-3 -39t6 -35.5t23 -15.5zM221 465q17 0 27.5 15t17 35t9.5 39.5t5 29.5q2 9 4.5 27.5t2.5 38.5q0 21 -6 37t-23 16t-27.5 -15t-17 -35t-9.5 -40t-4 -29q-2 -10 -5 -29t-3 -39t6 -35.5t23 -15.5zM611 754l-491 -754h-62l491 754h62zM721 349
q26 0 42.5 -9t26.5 -23.5t13.5 -34t3.5 -40.5q0 -18 -2 -36.5t-5 -35.5q-4 -27 -12 -58.5t-23 -58t-39 -44.5t-61 -18q-26 0 -42.5 9t-26 24t-13 34.5t-3.5 40.5q0 18 2 36t4 35q4 27 12 58.5t23 58.5t39 44.5t61 17.5zM457 349q26 0 42.5 -9t26.5 -23.5t13.5 -34t3.5 -40.5
q0 -18 -2 -36.5t-5 -35.5q-4 -27 -12 -58.5t-23 -58t-39 -44.5t-61 -18q-26 0 -42.5 9t-26 24t-13 34.5t-3.5 40.5q0 18 2 36t4 35q4 27 12 58.5t23 58.5t39 44.5t61 17.5zM212 405q-26 0 -42.5 9t-26 24t-13 34.5t-3.5 40.5q0 18 2 36t4 35q4 27 11.5 58.5t22.5 58.5
t39.5 44.5t61.5 17.5q26 0 42.5 -9t26 -23.5t13 -34t3.5 -40.5q0 -18 -2 -36.5t-4 -35.5q-4 -27 -12 -58.5t-23 -58t-39 -44.5t-61 -18z" />
    <glyph glyph-name="guilsinglleft" unicode="&#x2039;" horiz-adv-x="238" 
d="M230 482l41 -27l-146 -195l73 -199l-48 -25l-84 224z" />
    <glyph glyph-name="guilsinglright" unicode="&#x203a;" horiz-adv-x="238" 
d="M98 36l-40 25l135 199l-84 195l49 27l94 -222z" />
    <glyph glyph-name="fraction" unicode="&#x2044;" horiz-adv-x="122" 
d="M396 754l-491 -754h-62l491 754h62z" />
    <glyph glyph-name="fraction" unicode="&#x2215;" horiz-adv-x="122" 
d="M396 754l-491 -754h-62l491 754h62z" />
    <glyph glyph-name="trademark" unicode="&#x2122;" horiz-adv-x="750" 
d="M388 694h-109l-56 -361h-61l56 361h-110l9 60h280zM771 333h-55l56 361h-2l-174 -361h-32l-59 361h-2l-56 -361h-55l65 421h89l52 -297h2l148 297h88z" />
    <glyph glyph-name="minus" unicode="&#x2212;" horiz-adv-x="500" 
d="M89 291h413l-11 -70h-413z" />
    <glyph glyph-name="fi" unicode="&#xfb01;" horiz-adv-x="459" 
d="M445 595q-24 0 -39.5 15.5t-15.5 38.5q0 2 0.5 4.5t0.5 4.5q5 26 26 44t47 18q23 0 38 -15t15 -37q0 -7 -1 -10q-4 -26 -25 -44.5t-46 -18.5zM402 0h-94l78 505h94zM146 505l26 163q5 32 12.5 62.5t22.5 54.5t40.5 38.5t65.5 14.5q18 0 32 -3.5t28 -10.5l-15 -98
q-9 5 -17.5 8.5t-19.5 3.5q-18 0 -28.5 -8t-16 -20t-8 -26t-4.5 -27l-24 -152h78l-11 -74h-78l-67 -431h-94l67 431h-47l11 74h47z" />
    <glyph glyph-name="fl" unicode="&#xfb02;" horiz-adv-x="445" 
d="M402 0h-94l129 830h94zM146 505l26 163q5 32 12.5 62.5t22.5 54.5t40.5 38.5t65.5 14.5q18 0 32 -3.5t28 -10.5l-15 -98q-9 5 -17.5 8.5t-19.5 3.5q-18 0 -28.5 -8t-16 -20t-8 -26t-4.5 -27l-24 -152h78l-11 -74h-78l-67 -431h-94l67 431h-47l11 74h47z" />
    <glyph glyph-name="nonbreakingspace" horiz-adv-x="205" 
 />
    </font>
</defs>
</svg>
