<svg width="80" height="80" viewBox="0 0 80 80" fill="none" xmlns="http://www.w3.org/2000/svg">
<path d="M80 40C80 62.0914 62.0914 80 40 80C17.9085 80 0 62.0914 0 40C0 17.9085 17.9085 0 40 0C62.0914 0 80 17.9085 80 40ZM35.3732 61.1797L65.0506 31.5023C66.0584 30.4945 66.0584 28.8605 65.0506 27.8527L61.4011 24.2032C60.3934 23.1953 58.7593 23.1953 57.7514 24.2032L33.5484 48.4061L22.2485 37.1063C21.2408 36.0985 19.6068 36.0985 18.5989 37.1063L14.9494 40.7558C13.9416 41.7635 13.9416 43.3976 14.9494 44.4053L31.7235 61.1795C32.7315 62.1874 34.3653 62.1874 35.3732 61.1797Z" fill="#00B373"/>
</svg>
