<svg width="20" height="21" viewBox="0 0 20 21" fill="none" xmlns="http://www.w3.org/2000/svg">
<path d="M9 7.08495H11V5.06626H9V7.08495ZM10 18.1878C5.59 18.1878 2 14.5642 2 10.113C2 5.66177 5.59 2.03822 10 2.03822C14.41 2.03822 18 5.66177 18 10.113C18 14.5642 14.41 18.1878 10 18.1878ZM10 0.0195312C8.68678 0.0195312 7.38642 0.280606 6.17317 0.78785C4.95991 1.29509 3.85752 2.03857 2.92893 2.97584C1.05357 4.86873 0 7.43604 0 10.113C0 12.7899 1.05357 15.3573 2.92893 17.2501C3.85752 18.1874 4.95991 18.9309 6.17317 19.4381C7.38642 19.9454 8.68678 20.2064 10 20.2064C12.6522 20.2064 15.1957 19.143 17.0711 17.2501C18.9464 15.3573 20 12.7899 20 10.113C20 8.7875 19.7413 7.47498 19.2388 6.25039C18.7362 5.02579 17.9997 3.9131 17.0711 2.97584C16.1425 2.03857 15.0401 1.29509 13.8268 0.78785C12.6136 0.280606 11.3132 0.0195313 10 0.0195312ZM9 15.1597H11V9.10364H9V15.1597Z" fill="#F39200"/>
</svg>
