<svg width="24" height="18" viewBox="0 0 24 18" fill="none" xmlns="http://www.w3.org/2000/svg">
<path d="M23.855 8.1974C21.5954 3.5131 17.1221 0.34375 12 0.34375C6.87791 0.34375 2.40332 3.51531 0.144977 8.19784C0.0496614 8.39817 0 8.6195 0 8.84397C0 9.06844 0.0496614 9.28977 0.144977 9.4901C2.40457 14.1744 6.87791 17.3437 12 17.3437C17.1221 17.3437 21.5967 14.1722 23.855 9.48966C23.9503 9.28933 24 9.068 24 8.84353C24 8.61906 23.9503 8.39772 23.855 8.1974V8.1974ZM12 15.2187C10.8133 15.2187 9.65327 14.8449 8.66657 14.1444C7.67988 13.4439 6.91084 12.4482 6.45671 11.2834C6.00259 10.1185 5.88377 8.83668 6.11528 7.60005C6.34679 6.36342 6.91823 5.2275 7.75735 4.33594C8.59647 3.44438 9.66557 2.83722 10.8295 2.59124C11.9933 2.34526 13.1997 2.47151 14.2961 2.95402C15.3925 3.43653 16.3295 4.25363 16.9888 5.30199C17.6481 6.35035 18 7.58289 18 8.84375C18.0004 9.68104 17.8455 10.5102 17.5441 11.2838C17.2427 12.0575 16.8007 12.7604 16.2435 13.3525C15.6863 13.9445 15.0247 14.4141 14.2966 14.7343C13.5684 15.0545 12.788 15.2192 12 15.2187V15.2187ZM12 4.59375C11.643 4.59905 11.2882 4.65549 10.9454 4.76154C11.228 5.16957 11.3636 5.67169 11.3276 6.17685C11.2917 6.68201 11.0865 7.15674 10.7494 7.51496C10.4122 7.87318 9.96541 8.09116 9.48997 8.12938C9.01453 8.16759 8.54194 8.02351 8.15791 7.72326C7.93923 8.57927 7.9787 9.4866 8.27078 10.3175C8.56285 11.1485 9.09282 11.8611 9.78608 12.3553C10.4793 12.8494 11.301 13.1002 12.1354 13.0721C12.9698 13.0441 13.7749 12.7388 14.4375 12.1992C15.1 11.6595 15.5866 10.9127 15.8287 10.0638C16.0708 9.21499 16.0563 8.30682 15.7872 7.46718C15.5181 6.62754 15.008 5.89869 14.3286 5.38324C13.6492 4.86778 12.8348 4.59166 12 4.59375V4.59375Z" fill="#005CA9"/>
</svg>
