<svg width="7" height="7" viewBox="0 0 7 7" fill="none" xmlns="http://www.w3.org/2000/svg">
<path d="M1.18483 0.099719C0.670679 -0.243693 0.0575814 0.369404 0.400023 0.883553L1.01118 1.80029C1.2591 2.17199 1.39141 2.60879 1.39141 3.05559C1.39141 3.50239 1.2591 3.93918 1.01118 4.31088L0.400023 5.22762C0.0575814 5.74177 0.671649 6.35486 1.1858 6.01145L2.10156 5.4003C2.47327 5.15237 2.91006 5.02007 3.35686 5.02007C3.80366 5.02007 4.24045 5.15237 4.61216 5.4003L5.52889 6.01145C6.04304 6.35486 6.65614 5.74177 6.31273 5.22762L5.70157 4.31088C5.45365 3.93918 5.32134 3.50239 5.32134 3.05559C5.32134 2.60879 5.45365 2.17199 5.70157 1.80029L6.31273 0.883553C6.65614 0.369404 6.04304 -0.243693 5.52792 0.099719L4.61216 0.710876C4.24045 0.9588 3.80366 1.0911 3.35686 1.0911C2.91006 1.0911 2.47327 0.9588 2.10156 0.710876L1.18483 0.099719Z" fill="#0077DB"/>
</svg>
