<svg width="24" height="24" viewBox="0 0 24 24" fill="none" xmlns="http://www.w3.org/2000/svg">
<path d="M5.994 12C5.994 15.3132 8.6892 18.0084 12.0024 18.0084C15.3156 18.0084 18.0108 15.3132 18.0108 12C18.0108 8.6868 15.3156 5.9916 12.0024 5.9916C8.6892 5.9916 5.994 8.6868 5.994 12ZM10.8 20.4H13.2V24H10.8V20.4ZM10.8 0H13.2V3.6H10.8V0ZM0 10.8H3.6V13.2H0V10.8ZM20.4 10.8H24V13.2H20.4V10.8ZM4.3644 21.3336L2.6676 19.6368L5.2128 17.0916L6.9096 18.7884L4.3644 21.3336ZM17.0904 5.2128L19.6368 2.6664L21.3336 4.3632L18.7872 6.9096L17.0904 5.2128ZM5.2128 6.9108L2.6676 4.3644L4.3656 2.6676L6.9096 5.214L5.2128 6.9108ZM21.3336 19.6368L19.6368 21.3336L17.0904 18.7872L18.7872 17.0904L21.3336 19.6368Z" fill="#F39200"/>
</svg>