<svg width="73" height="43" viewBox="0 0 73 43" fill="none" xmlns="http://www.w3.org/2000/svg">
<g clip-path="url(#clip0_3570_96658)">
<g clip-path="url(#clip1_3570_96658)">
<path d="M42.0097 7.90641C40.1379 6.03328 37.6489 5.00114 34.997 5C29.5325 5 25.0854 9.44562 25.0832 14.9099C25.0826 16.6566 25.539 18.3616 26.4064 19.8646L25 25L30.2554 23.622C31.7034 24.4116 33.3337 24.8277 34.9928 24.8284H34.997H34.997C40.4607 24.8284 44.9084 20.382 44.9107 14.918C44.9116 12.2697 43.8813 9.77968 42.0097 7.90641V7.90641ZM34.997 23.1546H34.9938C33.515 23.1538 32.0648 22.7568 30.7999 22.0062L30.4989 21.8278L27.3802 22.6454L28.2129 19.6059L28.0167 19.2942C27.1919 17.9827 26.7564 16.4669 26.757 14.9106C26.7588 10.3688 30.455 6.67389 35.0001 6.67389C37.2011 6.6748 39.2698 7.53272 40.8256 9.08961C42.3813 10.6465 43.2374 12.7161 43.2368 14.9173C43.2349 19.4592 39.5385 23.1546 34.997 23.1546V23.1546Z" fill="#E0E0E0"/>
<path d="M25.4551 24.4302L26.7973 19.5294C25.9692 18.0951 25.5338 16.4678 25.5343 14.8013C25.5365 9.58666 29.7804 5.34424 34.9949 5.34424C37.5257 5.34538 39.9011 6.33032 41.687 8.11793C43.4733 9.90553 44.4565 12.2816 44.4555 14.8087C44.4533 20.0234 40.2091 24.2662 34.9953 24.2662V24.2662H34.9911C33.4078 24.2657 31.8521 23.8682 30.4703 23.1152L25.4551 24.4302Z" fill="url(#paint0_linear_3570_96658)"/>
<path fill-rule="evenodd" clip-rule="evenodd" d="M32.5479 10.7028C32.3645 10.295 32.1714 10.2868 31.9969 10.2797C31.8542 10.2736 31.6908 10.2739 31.5276 10.2739C31.3644 10.2739 31.0991 10.3353 30.8747 10.5803C30.6502 10.8253 30.0176 11.4177 30.0176 12.6224C30.0176 13.8272 30.8951 14.9914 31.0174 15.1549C31.1399 15.3181 32.7114 17.8694 35.2003 18.8509C37.2687 19.6665 37.6897 19.5043 38.1386 19.4635C38.5876 19.4227 39.5873 18.8713 39.7914 18.2995C39.9955 17.7278 39.9955 17.2377 39.9343 17.1353C39.8731 17.0333 39.7098 16.972 39.4649 16.8496C39.22 16.7272 38.0162 16.1347 37.7917 16.0531C37.5672 15.9714 37.404 15.9306 37.2407 16.1758C37.0774 16.4207 36.6084 16.972 36.4656 17.1353C36.3227 17.2989 36.1799 17.3194 35.935 17.1969C35.6901 17.0741 34.9014 16.8158 33.9659 15.9816C33.2379 15.3326 32.7465 14.5311 32.6036 14.286C32.4608 14.0411 32.5883 13.9084 32.7112 13.7864C32.8211 13.6767 32.9561 13.5005 33.0785 13.3575C33.2007 13.2145 33.2415 13.1125 33.3231 12.9492C33.4048 12.7857 33.3639 12.6427 33.3027 12.5203C33.2415 12.3979 32.7656 11.1869 32.5479 10.7028Z" fill="white"/>
<path d="M41.9297 7.87306C40.0793 6.02142 37.6189 5.00116 34.9975 5C29.5957 5 25.1997 9.39459 25.1975 14.7962C25.1969 16.5228 25.648 18.2083 26.5055 19.6939L25.1152 24.7704L30.3103 23.4082C31.7417 24.1888 33.3533 24.6001 34.9933 24.6008H34.9975H34.9975C40.3984 24.6008 44.7951 20.2054 44.7974 14.8041C44.7983 12.1863 43.7798 9.72482 41.9297 7.87306V7.87306ZM34.9975 22.9462H34.9943C33.5325 22.9454 32.0989 22.553 30.8486 21.811L30.551 21.6346L27.4681 22.4429L28.2912 19.4382L28.0973 19.1302C27.2819 17.8336 26.8514 16.3353 26.8521 14.7968C26.8539 10.3072 30.5076 6.65471 35.0006 6.65471C37.1763 6.6556 39.2212 7.50367 40.7592 9.04269C42.297 10.5817 43.1433 12.6276 43.1427 14.8035C43.1408 19.2932 39.4869 22.9462 34.9975 22.9462Z" fill="white"/>
</g>
<path d="M5.90277 27.952L7.47477 33.796H7.49877L9.39477 27.952H11.2668L13.0428 33.796H13.0668L14.7708 27.952H17.2188L14.3268 37H11.9268L10.3428 31.756H10.3188L8.54277 37H6.15477L3.45477 27.952H5.90277ZM17.761 27.04H19.945V31.624H19.969C20.465 30.968 21.121 30.64 21.937 30.64C22.697 30.64 23.273 30.872 23.665 31.336C24.057 31.8 24.253 32.432 24.253 33.232V37H22.069V33.844C22.069 33.396 22.001 33.04 21.865 32.776C21.737 32.512 21.477 32.38 21.085 32.38C20.685 32.38 20.393 32.52 20.209 32.8C20.033 33.08 19.945 33.428 19.945 33.844V37H17.761V27.04ZM29.9306 32.944C29.6826 32.672 29.3426 32.536 28.9106 32.536C28.4786 32.536 28.1346 32.672 27.8786 32.944C27.6306 33.208 27.5066 33.536 27.5066 33.928C27.5066 34.328 27.6306 34.66 27.8786 34.924C28.1346 35.18 28.4786 35.308 28.9106 35.308C29.3426 35.308 29.6826 35.18 29.9306 34.924C30.1866 34.66 30.3146 34.328 30.3146 33.928C30.3146 33.536 30.1866 33.208 29.9306 32.944ZM32.4266 30.844V37H30.2426V36.316H30.2186C30.0346 36.612 29.7746 36.836 29.4386 36.988C29.1026 37.132 28.7426 37.204 28.3586 37.204C27.4626 37.204 26.7186 36.884 26.1266 36.244C25.5426 35.596 25.2506 34.82 25.2506 33.916C25.2506 33.012 25.5386 32.24 26.1146 31.6C26.6986 30.96 27.4386 30.64 28.3346 30.64C29.1506 30.64 29.7866 30.908 30.2426 31.444V30.844H32.4266ZM36.2623 32.644V37H34.0783V32.644H33.3703V30.844H34.0783V28.996H36.2623V30.844H37.4983V32.644H36.2623ZM42.9985 31.036L42.2665 32.428C41.8905 32.228 41.4985 32.128 41.0905 32.128C40.9305 32.128 40.7745 32.164 40.6225 32.236C40.4785 32.308 40.4065 32.412 40.4065 32.548C40.4065 32.604 40.4185 32.656 40.4425 32.704C40.4665 32.752 40.5025 32.796 40.5505 32.836C40.5985 32.868 40.6465 32.896 40.6945 32.92C40.7425 32.944 40.8025 32.968 40.8745 32.992C40.9545 33.008 41.0145 33.02 41.0545 33.028C41.1025 33.036 41.1625 33.048 41.2345 33.064C41.3145 33.072 41.3665 33.08 41.3905 33.088C42.5825 33.328 43.1785 33.936 43.1785 34.912C43.1785 35.664 42.8905 36.236 42.3145 36.628C41.7465 37.012 41.0665 37.204 40.2745 37.204C39.3865 37.204 38.5585 36.968 37.7905 36.496L38.5825 34.972C38.8225 35.14 39.1065 35.288 39.4345 35.416C39.7625 35.536 40.0545 35.596 40.3105 35.596C40.4785 35.596 40.6345 35.556 40.7785 35.476C40.9225 35.396 40.9945 35.28 40.9945 35.128C40.9945 35.04 40.9705 34.964 40.9225 34.9C40.8825 34.828 40.8105 34.772 40.7065 34.732C40.6025 34.684 40.5025 34.648 40.4065 34.624C40.3185 34.6 40.1905 34.572 40.0225 34.54C39.8545 34.5 39.7225 34.468 39.6265 34.444C39.2105 34.332 38.8785 34.16 38.6305 33.928C38.3825 33.688 38.2585 33.32 38.2585 32.824C38.2585 32.344 38.3945 31.936 38.6665 31.6C38.9385 31.256 39.2705 31.012 39.6625 30.868C40.0625 30.716 40.4985 30.64 40.9705 30.64C41.7385 30.64 42.4145 30.772 42.9985 31.036ZM49.9429 35.428H46.7029L46.0789 37H43.5829L47.0629 27.952H49.6309L53.0389 37H50.5309L49.9429 35.428ZM49.3069 33.628L48.3469 30.748H48.3229L47.3509 33.628H49.3069ZM55.8379 30.844V31.54H55.8619C56.0539 31.244 56.3179 31.02 56.6539 30.868C56.9899 30.716 57.3459 30.64 57.7219 30.64C58.6179 30.64 59.3579 30.964 59.9419 31.612C60.5339 32.26 60.8299 33.036 60.8299 33.94C60.8299 34.844 60.5379 35.616 59.9539 36.256C59.3779 36.888 58.6419 37.204 57.7459 37.204C56.9299 37.204 56.2939 36.94 55.8379 36.412V40.072H53.6539V30.844H55.8379ZM58.1899 32.944C57.9419 32.672 57.6019 32.536 57.1699 32.536C56.7379 32.536 56.3939 32.672 56.1379 32.944C55.8899 33.208 55.7659 33.536 55.7659 33.928C55.7659 34.328 55.8899 34.66 56.1379 34.924C56.3939 35.18 56.7379 35.308 57.1699 35.308C57.6019 35.308 57.9419 35.18 58.1899 34.924C58.4459 34.66 58.5739 34.328 58.5739 33.928C58.5739 33.536 58.4459 33.208 58.1899 32.944ZM64.0175 30.844V31.54H64.0415C64.2335 31.244 64.4975 31.02 64.8335 30.868C65.1695 30.716 65.5255 30.64 65.9015 30.64C66.7975 30.64 67.5375 30.964 68.1215 31.612C68.7135 32.26 69.0095 33.036 69.0095 33.94C69.0095 34.844 68.7175 35.616 68.1335 36.256C67.5575 36.888 66.8215 37.204 65.9255 37.204C65.1095 37.204 64.4735 36.94 64.0175 36.412V40.072H61.8335V30.844H64.0175ZM66.3695 32.944C66.1215 32.672 65.7815 32.536 65.3495 32.536C64.9175 32.536 64.5735 32.672 64.3175 32.944C64.0695 33.208 63.9455 33.536 63.9455 33.928C63.9455 34.328 64.0695 34.66 64.3175 34.924C64.5735 35.18 64.9175 35.308 65.3495 35.308C65.7815 35.308 66.1215 35.18 66.3695 34.924C66.6255 34.66 66.7535 34.328 66.7535 33.928C66.7535 33.536 66.6255 33.208 66.3695 32.944Z" fill="#1F1F1F"/>
</g>
<defs>
<linearGradient id="paint0_linear_3570_96658" x1="34.9553" y1="24.4302" x2="34.9553" y2="5.34427" gradientUnits="userSpaceOnUse">
<stop stop-color="#20B038"/>
<stop offset="1" stop-color="#60D66A"/>
</linearGradient>
<clipPath id="clip0_3570_96658">
<rect width="73" height="43" fill="white"/>
</clipPath>
<clipPath id="clip1_3570_96658">
<rect width="19.912" height="20" fill="white" transform="translate(25 5)"/>
</clipPath>
</defs>
</svg>
