<?xml version="1.0" standalone="no"?>
<!DOCTYPE svg PUBLIC "-//W3C//DTD SVG 1.1//EN" "http://www.w3.org/Graphics/SVG/1.1/DTD/svg11.dtd" >
<svg xmlns="http://www.w3.org/2000/svg" xmlns:xlink="http://www.w3.org/1999/xlink" version="1.1">
<metadata>
Created by FontForge 20170731 at Sat Jul 28 03:05:52 2001
 By Aleksey,,,
Copyright (c) 1987, 1991, 1993 Adobe Systems Incorporated.  All Rights Reserved.Futura is a registered trademark of Fundicion Tipografica Neufville S. A.
</metadata>
<defs>
<font id="FuturaLT-HeavyOblique" horiz-adv-x="578" >
  <font-face 
    font-family="Futura LT Medium"
    font-weight="700"
    font-style="oblique"
    font-stretch="normal"
    units-per-em="1000"
    panose-1="2 0 8 4 4 0 0 9 0 3"
    ascent="800"
    descent="-200"
    x-height="491"
    cap-height="754"
    bbox="-147 -264 1205.48 1002"
    underline-thickness="50"
    underline-position="-175"
    slope="-9"
    unicode-range="U+0020-2122"
  />
<missing-glyph horiz-adv-x="500" 
d="M442 8v496h-384v-496h384zM50 512h400v-512h-400v512z" />
    <glyph glyph-name=".notdef" horiz-adv-x="500" 
d="M442 8v496h-384v-496h384zM50 512h400v-512h-400v512z" />
    <glyph glyph-name=".null" horiz-adv-x="0" 
 />
    <glyph glyph-name="nonmarkingreturn" horiz-adv-x="289" 
 />
    <glyph glyph-name="space" unicode=" " horiz-adv-x="289" 
 />
    <glyph glyph-name="exclam" unicode="!" horiz-adv-x="325" 
d="M210 754h142l-85 -537h-142zM187 158q37 0 59 -25.5t16 -62.5q-3 -18 -12.5 -34.5t-23.5 -29t-31.5 -19.5t-35.5 -7q-37 0 -59 26.5t-16 63.5t36 62.5t67 25.5z" />
    <glyph glyph-name="quotedbl" unicode="&#x22;" horiz-adv-x="488" 
d="M519 754l-70 -328h-84l34 328h120zM327 754l-70 -328h-84l34 328h120z" />
    <glyph glyph-name="numbersign" unicode="#" 
d="M278 286h102l46 124h-104zM432 726l-71 -203h101l71 203h105l-71 -203h80l-18 -113h-98l-44 -124h94l-18 -113h-118l-60 -173h-106l60 173h-101l-60 -173h-106l60 173h-91l18 113h113l44 124h-96l18 113h117l71 203h106z" />
    <glyph glyph-name="dollar" unicode="$" 
d="M267 -5q-77 9 -120.5 44t-69.5 104l102 86q7 -21 18 -40t26 -34t34.5 -24t44.5 -9q44 0 75 29.5t38 71.5q4 26 -5 44.5t-27 32t-41.5 25t-48.5 24.5q-24 13 -47 28.5t-39.5 37.5t-24 53t-0.5 74q13 84 67 141t139 72l14 93h73l-15 -94q50 -6 85 -26t61 -60l-82 -95
q-17 26 -42.5 43.5t-59.5 17.5q-17 0 -33 -6t-29.5 -16.5t-22.5 -25t-12 -31.5q-4 -23 6 -39t28 -29t42 -24.5t48 -24.5q25 -13 48 -29.5t39.5 -40.5t23.5 -56t0 -77q-7 -43 -25 -81.5t-46.5 -70t-65.5 -53t-82 -30.5l-16 -100h-73z" />
    <glyph glyph-name="percent" unicode="%" horiz-adv-x="772" 
d="M628 256q-19 0 -35 -9t-29 -23t-21 -31.5t-11 -34.5t0 -34.5t11 -31.5t21.5 -22.5t32.5 -8.5t35 8.5t28.5 22.5t20.5 31.5t11 34.5t0 34.5t-11 31.5t-21 23t-32 9zM640 337q38 0 68.5 -13.5t51 -37t29 -56.5t2.5 -72t-24.5 -71.5t-46.5 -56t-62.5 -37t-73.5 -13.5
t-69.5 13.5t-50.5 37t-28.5 56t-2.5 71.5t24.5 72t46.5 56.5t63 37t73 13.5zM739 746l-527 -777l-63 35l528 776zM294 693q-19 0 -35 -9t-28.5 -23t-21 -31.5t-11.5 -34.5t0 -34.5t11 -31.5t21.5 -22.5t32.5 -8.5t35 8.5t28.5 22.5t20.5 31.5t11 34.5t0.5 34.5t-10.5 31.5
t-21.5 23t-32.5 9zM307 774q38 0 68.5 -13.5t51 -37t28.5 -56.5t2 -72t-24.5 -71.5t-46.5 -56t-62.5 -37t-73.5 -13.5t-69.5 13.5t-50.5 37t-28.5 56t-2.5 71.5t25 72t47 56.5t63 37t73 13.5z" />
    <glyph glyph-name="ampersand" unicode="&#x26;" horiz-adv-x="702" 
d="M482 76q-54 -41 -110.5 -68.5t-120.5 -27.5q-48 0 -85.5 16.5t-62.5 46t-35.5 69.5t-2.5 88q10 63 46.5 112t93.5 84l50 31q-21 37 -32.5 75.5t-3.5 84.5q7 42 27 76.5t50 59t67 38t78 13.5t74 -13t55 -37.5t31.5 -59t2.5 -76.5q-5 -31 -19.5 -57.5t-35.5 -49t-46 -41
t-52 -34.5l84 -135l91 97l80 -87l-99 -109l103 -172h-179zM397 492l28 21q23 17 37 36t18 46q2 13 0.5 26.5t-7 24t-15.5 17t-25 6.5q-30 0 -49 -21.5t-24 -48.5q-5 -30 9 -56zM319 334q-17 -11 -34 -23.5t-31.5 -27.5t-25 -32t-13.5 -38q-3 -18 1 -36t14 -32.5t25 -23.5
t34 -9q34 0 64.5 21t57.5 44z" />
    <glyph glyph-name="quotesingle" unicode="'" horiz-adv-x="296" 
d="M327 754l-70 -328h-84l34 328h120z" />
    <glyph glyph-name="parenleft" unicode="(" horiz-adv-x="271" 
d="M384 774q-62 -103 -99 -220.5t-55 -229.5q-8 -54 -13 -112.5t-4.5 -117t7 -114.5t21.5 -105l-95 -59q-20 55 -29 119.5t-10.5 131.5t4 134t15.5 129q10 61 26 126.5t38.5 130.5t51.5 127.5t65 117.5z" />
    <glyph glyph-name="parenright" unicode=")" horiz-adv-x="271" 
d="M228 832q18 -55 27.5 -117.5t11 -127.5t-3 -130.5t-14.5 -126.5q-10 -62 -26 -129t-38.5 -134t-51.5 -131.5t-66 -119.5l-77 59q30 49 55 105t44 114.5t32.5 117t21.5 112.5q9 55 14 113.5t4.5 116t-7.5 113.5t-21 107z" />
    <glyph glyph-name="asterisk" unicode="*" horiz-adv-x="417" 
d="M371 754l-18 -101l86 52l25 -67l-89 -50l73 -50l-46 -67l-69 52l-14 -99h-86l19 99l-86 -52l-26 67l87 50l-72 50l46 67l71 -52l13 101h86z" />
    <glyph glyph-name="plus" unicode="+" 
d="M429 512l-31 -197h197l-19 -118h-197l-31 -197h-118l31 197h-197l19 118h197l31 197h118z" />
    <glyph glyph-name="comma" unicode="," horiz-adv-x="289" 
d="M285 142l-191 -301l-91 11l157 304z" />
    <glyph glyph-name="hyphenminus" unicode="-" horiz-adv-x="330" 
d="M347 378l-18 -115h-244l18 115h244z" />
    <glyph glyph-name="period" unicode="." horiz-adv-x="289" 
d="M170 158q37 0 59 -25.5t16 -62.5q-3 -18 -12.5 -34.5t-23.5 -29t-31.5 -19.5t-35.5 -7q-37 0 -59 26.5t-16 63.5t36 62.5t67 25.5z" />
    <glyph glyph-name="slash" unicode="/" horiz-adv-x="539" 
d="M631 813l-523 -975l-91 35l522 975z" />
    <glyph glyph-name="zero" unicode="0" 
d="M391 646q-26 0 -47.5 -14.5t-39.5 -38t-31.5 -53t-23.5 -59.5t-16.5 -57t-9.5 -46t-5 -46t-1.5 -57t4.5 -60t14.5 -53.5t27.5 -38.5t43 -15t48 15t40 38.5t31.5 53.5t23.5 60t16.5 57t9.5 46t5 46t1.5 57t-5 59.5t-14.5 53t-27.5 38t-43.5 14.5zM412 774q50 0 87 -18
t62 -49t39.5 -71.5t21 -84.5t5 -89.5t-7.5 -85.5t-19.5 -85t-34 -89t-48 -84.5t-62 -71t-77 -48.5t-92.5 -18t-86.5 18t-62 48.5t-40 71t-21 84.5t-5.5 89t8 85q9 61 34 130.5t66 129t99 99t134 39.5z" />
    <glyph glyph-name="one" unicode="1" 
d="M244 626l20 128h246l-119 -754h-147l99 626h-99z" />
    <glyph glyph-name="two" unicode="2" 
d="M556 128l-20 -128h-508l230 242q24 25 58 60t66 74t56 77.5t29 70.5q3 20 0 41.5t-12.5 39.5t-26 29.5t-39.5 11.5q-25 0 -45 -12t-34 -31t-23 -42t-11 -44h-156q12 54 37 101t61.5 81.5t84.5 54.5t106 20q52 0 93.5 -18.5t69.5 -51t39.5 -77t3.5 -96.5q-6 -42 -23 -78.5
t-40 -70t-52 -64.5t-59 -61l-132 -129h247z" />
    <glyph glyph-name="three" unicode="3" 
d="M147 557q13 49 37 89t58 68.5t77 44t94 15.5q49 0 86.5 -15t61.5 -43t33 -67t2 -88q-7 -44 -31 -87.5t-66 -69.5q24 -11 39 -31.5t23 -46t9 -53t-3 -53.5q-9 -56 -35 -100t-64.5 -75.5t-87 -48t-102.5 -16.5q-52 0 -93.5 18t-69.5 50t-41 75.5t-8 94.5h148
q-5 -45 18 -77.5t72 -32.5q25 0 45.5 10.5t36 28t25.5 39t13 43.5q4 22 0 44.5t-15 40t-29 27.5t-43 8l-27 -2l17 105h16q48 0 76 28t36 76q3 19 0 36t-12 30.5t-23.5 21.5t-35.5 8q-20 0 -36 -8.5t-28.5 -22t-20.5 -30.5t-12 -34h-140z" />
    <glyph glyph-name="four" unicode="4" 
d="M422 551h-2l-206 -300h161zM593 251l-19 -118h-80l-21 -133h-138l21 133h-332l11 66l426 569h134l-82 -517h80z" />
    <glyph glyph-name="five" unicode="5" 
d="M374 626l-44 -115l38 2q55 0 96.5 -21t68 -57t36 -83.5t1.5 -100.5q-10 -61 -38 -111t-70 -85.5t-95.5 -55t-113.5 -19.5q-136 0 -208 100l64 126q23 -42 62.5 -70t91.5 -28q31 0 57.5 12.5t47.5 33t35 47.5t19 56q5 31 -2 58t-24 47.5t-42 32.5t-56 12q-32 0 -67 -13.5
t-61 -35.5h-23l143 396h328l-20 -128h-224z" />
    <glyph glyph-name="six" unicode="6" 
d="M300 100q28 0 52 12.5t42.5 32.5t30.5 45t16 50t0 50.5t-16.5 45.5t-32.5 32.5t-48 12.5t-52 -12.5t-42.5 -32.5t-31 -45.5t-16.5 -50.5t0.5 -50t17 -45t32.5 -32.5t48 -12.5zM533 707l-190 -219l2 -2q14 5 29.5 7.5t31.5 2.5q52 0 90 -21t61.5 -55.5t32 -79.5t0.5 -94
q-9 -58 -36.5 -107t-68.5 -84t-93 -55t-110 -20q-56 0 -101.5 19t-75.5 52.5t-43 80.5t-4 104q6 34 18.5 67t30.5 65t39 62.5t44 57.5l247 297z" />
    <glyph glyph-name="seven" unicode="7" 
d="M142 626l20 128h539l-535 -774l-110 69l402 577h-316z" />
    <glyph glyph-name="eight" unicode="8" 
d="M394 664q-21 0 -38.5 -9.5t-31 -24.5t-22 -34t-11.5 -37q-3 -19 0 -38t11.5 -34t23 -24.5t35.5 -9.5t38.5 9.5t31 24.5t22.5 34t12 38q3 18 0 37t-12 34t-23.5 24.5t-35.5 9.5zM229 393q-43 23 -61.5 68.5t-10.5 97.5q7 48 30.5 88t58 68t77 43.5t89.5 15.5
q46 0 84 -15.5t63.5 -43.5t36 -68t3.5 -88q-8 -52 -41.5 -97.5t-84.5 -68.5q58 -23 80.5 -74.5t11.5 -117.5q-8 -51 -35 -92t-65 -69.5t-84.5 -44t-94.5 -15.5t-89.5 15.5t-71 44t-43 69.5t-5.5 92q11 66 48.5 117.5t103.5 74.5zM342 333q-23 0 -42.5 -10.5t-34.5 -27
t-25 -37t-13 -41.5t0 -41.5t13 -37t26 -26.5t39 -10t42.5 10t34.5 26.5t24.5 37t12.5 41.5t0 41.5t-12.5 37t-25.5 27t-39 10.5z" />
    <glyph glyph-name="nine" unicode="9" 
d="M397 654q-28 0 -52 -12.5t-42.5 -32.5t-31 -45.5t-16.5 -50.5q-4 -26 0 -51t16.5 -45t32.5 -32.5t48 -12.5t52 12.5t42.5 32.5t31 45t16.5 51q4 25 0 50.5t-16.5 45.5t-32.5 32.5t-48 12.5zM163 47l190 219l-2 2q-28 -11 -60 -11q-52 0 -90 21t-61.5 55.5t-32.5 79.5
t-1 94q9 58 37 107.5t69 84.5t93 55t110 20q56 0 101 -19t75 -52.5t43 -81t4 -104.5q-11 -68 -48.5 -132.5t-83.5 -119.5l-247 -297z" />
    <glyph glyph-name="colon" unicode=":" horiz-adv-x="289" 
d="M227 518q37 0 59 -25.5t16 -62.5q-3 -18 -12.5 -34.5t-23.5 -29t-31.5 -19.5t-35.5 -7q-37 0 -59 26.5t-16 63.5t36 62.5t67 25.5zM170 158q37 0 59 -25.5t16 -62.5q-3 -18 -12.5 -34.5t-23.5 -29t-31.5 -19.5t-35.5 -7q-37 0 -59 26.5t-16 63.5t36 62.5t67 25.5z" />
    <glyph glyph-name="semicolon" unicode=";" horiz-adv-x="289" 
d="M267 518q37 0 59 -25.5t16 -62.5q-3 -18 -12.5 -34.5t-23.5 -29t-31.5 -19.5t-35.5 -7q-37 0 -59 26.5t-16 63.5t36 62.5t67 25.5zM275 142l-191 -301l-91 11l157 304z" />
    <glyph glyph-name="less" unicode="&#x3c;" 
d="M83 316l541 182l-20 -126l-343 -115l-1 -2l307 -115l-20 -126l-483 182z" />
    <glyph glyph-name="equal" unicode="=" 
d="M64 197h512l-18 -118h-512zM102 433h512l-19 -118h-512z" />
    <glyph glyph-name="greater" unicode="&#x3e;" 
d="M576 196l-541 -182l20 126l343 115l1 2l-307 115l20 126l483 -182z" />
    <glyph glyph-name="question" unicode="?" horiz-adv-x="487" 
d="M245 158q37 0 59 -25.5t16 -62.5q-3 -18 -12.5 -34.5t-23.5 -29t-31.5 -19.5t-35.5 -7q-37 0 -59 26.5t-16 63.5t36 62.5t67 25.5zM220 456q16 -4 36 -4q25 0 49.5 7.5t44 21.5t33.5 35t18 48q3 15 1 30.5t-8.5 28.5t-18.5 21t-29 8t-30.5 -7t-23.5 -19t-16.5 -26.5
t-9.5 -29.5l-2 -12h-146q5 45 27.5 84.5t56 69t76 46t87.5 16.5q46 0 83 -16.5t61 -45t34 -68t3 -85.5q-6 -37 -23 -70.5t-42.5 -61t-58.5 -47t-70 -27.5l-23 -96h-140z" />
    <glyph glyph-name="at" unicode="@" horiz-adv-x="975" 
d="M719 570h71l-91 -260q-5 -13 -10 -28t-7 -28t1 -21.5t16 -8.5q17 0 38 16t40 43t34 62t21 73q10 63 -1.5 113.5t-41.5 85t-75.5 53t-102.5 18.5q-63 0 -120.5 -24t-103.5 -66t-77 -98.5t-41 -122.5q-11 -69 5 -126.5t52.5 -98.5t90.5 -63.5t118 -22.5q63 0 109.5 11.5
t77.5 31.5l66 -60q-29 -15 -58 -27.5t-62 -21.5t-72 -14.5t-88 -5.5q-81 0 -147 30t-110 83t-63 125.5t-5 158.5q13 85 54.5 157.5t101.5 125.5t134.5 83.5t154.5 30.5q66 0 122 -21t99 -67q44 -45 65 -103t10 -129q-10 -63 -35 -119t-61 -95q-44 -48 -88 -69t-80 -19
q-21 1 -32.5 17t-11.5 45q-29 -26 -65 -44t-81 -18q-33 0 -61 14.5t-47.5 40t-27.5 59.5t-2 73q7 46 28.5 89t53.5 76.5t72.5 54t87.5 20.5q38 0 68 -16t53 -56zM649 372q17 62 -7 91.5t-76 29.5q-30 0 -55.5 -12.5t-44 -33t-31 -47t-16.5 -54.5q-8 -45 10 -76.5t65 -31.5
q33 0 58.5 10.5t44.5 29t31.5 43t20.5 51.5z" />
    <glyph glyph-name="A" unicode="A" horiz-adv-x="676" 
d="M423 553h-2l-127 -274h179zM233 159l-87 -159h-155l417 774h114l163 -774h-157l-33 159h-262z" />
    <glyph glyph-name="B" unicode="B" horiz-adv-x="553" 
d="M271 440h18q27 0 47.5 4.5t35.5 15.5t24.5 30.5t14.5 48.5t0 47.5t-17 29.5t-31 15.5t-42 4.5h-19zM173 754h183q52 0 92.5 -11t66 -35.5t35 -63.5t0.5 -95q-7 -41 -28.5 -82t-60.5 -64q32 -6 53.5 -24.5t33 -45t14.5 -57.5t-2 -62q-9 -56 -34 -96t-61.5 -66.5t-82.5 -39
t-97 -12.5h-231zM220 118h31q30 0 57 3t48.5 14t37 32.5t21.5 58.5t-4.5 57.5t-31 30.5t-47.5 12t-55 2h-24z" />
    <glyph glyph-name="C" unicode="C" horiz-adv-x="601" 
d="M646 554q-25 38 -65.5 59t-88.5 21q-53 0 -97.5 -22.5t-79 -59t-56.5 -83t-30 -95.5q-8 -48 0.5 -93.5t31.5 -81t60.5 -57.5t88.5 -22q48 0 95.5 22.5t84.5 57.5l-28 -175q-45 -20 -88.5 -32.5t-89.5 -12.5q-80 0 -142.5 32t-103 85.5t-57 124.5t-4.5 149q13 80 51.5 153
t96.5 128.5t131.5 88.5t156.5 33q45 0 85.5 -11.5t75.5 -32.5z" />
    <glyph glyph-name="D" unicode="D" horiz-adv-x="646" 
d="M221 128h24q68 0 118.5 18t86 50.5t56.5 78.5t30 102q20 124 -33 186.5t-179 62.5h-24zM173 754h210q82 0 144.5 -29t102.5 -79.5t55.5 -119.5t2.5 -150q-13 -80 -50.5 -148.5t-94 -119t-128 -79.5t-152.5 -29h-209z" />
    <glyph glyph-name="E" unicode="E" horiz-adv-x="488" 
d="M300 626l-26 -166h234l-20 -128h-234l-33 -204h243l-20 -128h-390l119 754h390l-20 -128h-243z" />
    <glyph glyph-name="F" unicode="F" horiz-adv-x="463" 
d="M300 626l-26 -166h213l-20 -128h-213l-53 -332h-147l119 754h374l-20 -128h-227z" />
    <glyph glyph-name="G" unicode="G" horiz-adv-x="739" 
d="M784 401l-3 -19q-13 -80 -45 -152.5t-83.5 -128t-121 -88.5t-157.5 -33q-83 0 -144 32.5t-99.5 86.5t-52 125.5t-1.5 149.5q13 81 50.5 153.5t94 127t130 87t157.5 32.5q97 0 168 -46.5t101 -133.5l-141 -70q-14 51 -54 85.5t-99 34.5q-53 0 -97 -24.5t-76.5 -63.5
t-53.5 -87t-28 -95q-8 -47 -2 -94t26.5 -85t57 -61.5t89.5 -23.5q34 0 67.5 14t60.5 37.5t46 54.5t26 65h-160l19 120h325z" />
    <glyph glyph-name="H" unicode="H" horiz-adv-x="674" 
d="M545 457l47 297h147l-119 -754h-147l53 337h-272l-53 -337h-147l119 754h147l-47 -297h272z" />
    <glyph glyph-name="I" unicode="I" horiz-adv-x="254" 
d="M201 0h-147l119 754h147z" />
    <glyph glyph-name="J" unicode="J" horiz-adv-x="389" 
d="M380 256q-5 -26 -9.5 -50.5t-13 -48t-21 -46.5t-31.5 -46q-36 -43 -83.5 -64t-98.5 -21q-42 0 -78 21t-59 50l111 108q3 -17 17 -33t32 -16q27 0 43.5 20t26 47.5t14 56.5t7.5 47l74 473h147z" />
    <glyph glyph-name="K" unicode="K" horiz-adv-x="620" 
d="M555 754h181l-341 -348l238 -406h-189l-187 339h-2l-54 -339h-147l119 754h147l-50 -318h2z" />
    <glyph glyph-name="L" unicode="L" horiz-adv-x="402" 
d="M221 128h208l-20 -128h-355l119 754h147z" />
    <glyph glyph-name="M" unicode="M" horiz-adv-x="836" 
d="M691 468h-2l-247 -478h-51l-89 478h-2l-141 -468h-148l250 774h104l107 -497l257 497h106l-10 -774h-148z" />
    <glyph glyph-name="N" unicode="N" horiz-adv-x="759" 
d="M177 774h106l313 -527h2l80 507h147l-121 -769h-106l-314 527h-2l-81 -512h-147z" />
    <glyph glyph-name="O" unicode="O" horiz-adv-x="782" 
d="M673 384q7 46 -1 90t-31 78.5t-60.5 55.5t-89.5 21t-96.5 -21t-78.5 -55.5t-56 -78.5t-29 -90q-7 -44 -3 -89.5t24.5 -83.5t59 -62t99.5 -24t107 24t78 62t51 83.5t26 89.5zM824 378q-13 -83 -50.5 -155.5t-94.5 -126.5t-131 -85t-160 -31t-150.5 31t-104 85t-54 126.5
t-1.5 155.5q13 84 51 156.5t95.5 125.5t131.5 83.5t158 30.5t148 -30.5t104.5 -83.5t55.5 -125.5t2 -156.5z" />
    <glyph glyph-name="P" unicode="P" horiz-adv-x="528" 
d="M265 404h30q33 0 58.5 4.5t44.5 17t31.5 35.5t18.5 60q6 36 -1 58t-23.5 34t-41 15.5t-55.5 3.5h-26zM201 0h-147l119 754h200q59 0 105.5 -12.5t76 -40.5t41 -72.5t1.5 -108.5q-19 -121 -90.5 -179.5t-187.5 -58.5h-73z" />
    <glyph glyph-name="Q" unicode="Q" horiz-adv-x="782" 
d="M601 226q29 31 47 74t25 82q7 46 -2 91t-32.5 81t-61 58t-86.5 22q-54 0 -98.5 -23t-78.5 -60.5t-56 -85t-30 -96.5q-7 -47 0 -91.5t29.5 -79t60.5 -55.5t92 -21q20 0 43 7.5t40 17.5l-101 143l154 12zM625 -32l-42 63q-42 -26 -92.5 -38.5t-102.5 -12.5q-83 0 -146.5 32
t-104 86t-56.5 126.5t-3 153.5q12 79 51 151t97 126.5t131.5 86.5t156.5 32q82 0 145.5 -32t104 -86.5t56.5 -126.5t4 -151q-12 -77 -45.5 -146.5t-86.5 -126.5l83 -122z" />
    <glyph glyph-name="R" unicode="R" horiz-adv-x="558" 
d="M265 407h19q30 0 56.5 5t47 18.5t34 35.5t19.5 57t-1.5 56.5t-24 33.5t-41 16.5t-53.5 4.5h-20zM564 0h-178l-135 304h-2l-48 -304h-147l119 754h199q56 0 100.5 -13t73.5 -40.5t40.5 -70.5t1.5 -103q-6 -36 -21 -71t-39 -63.5t-56 -48.5t-71 -26z" />
    <glyph glyph-name="S" unicode="S" horiz-adv-x="526" 
d="M502 588q-17 29 -41.5 45.5t-61.5 16.5q-18 0 -35.5 -6.5t-32 -17.5t-25 -27t-13.5 -34q-5 -32 14 -51t50 -34t67.5 -31t65.5 -42t45 -66t6 -103q-9 -57 -33.5 -104t-62 -81.5t-86.5 -53.5t-107 -19q-78 0 -129 40.5t-80 106.5l110 93q4 -22 14 -42t25.5 -35t35 -24
t43.5 -9q22 0 41.5 9t34.5 24t25 34.5t14 41.5q4 29 -5 49t-25.5 33.5t-38.5 22.5t-43 18q-34 15 -62 32.5t-46.5 41.5t-26 56t-0.5 76q7 47 30.5 88t57.5 72t77 48.5t91 17.5q25 0 53 -6t54 -17t48.5 -26.5t36.5 -34.5z" />
    <glyph glyph-name="T" unicode="T" horiz-adv-x="451" 
d="M299 0h-147l99 626h-152l20 128h451l-20 -128h-152z" />
    <glyph glyph-name="U" unicode="U" horiz-adv-x="660" 
d="M169 754h147l-66 -422q-6 -35 -9 -74.5t5 -72.5t31 -55t70 -22t77 22t48.5 55t28 72.5t15.5 74.5l66 422h147l-71 -451q-11 -69 -35.5 -128t-65 -102.5t-97.5 -68t-133 -24.5t-125 24.5t-76 68t-33 102.5t5 128z" />
    <glyph glyph-name="V" unicode="V" horiz-adv-x="639" 
d="M364 246h2l248 508h158l-415 -774h-86l-166 774h158z" />
    <glyph glyph-name="W" unicode="W" horiz-adv-x="977" 
d="M330 240h2l233 524h87l73 -524h2l229 514h154l-376 -769h-108l-72 493h-2l-220 -493h-108l-119 769h154z" />
    <glyph glyph-name="X" unicode="X" horiz-adv-x="623" 
d="M149 754h174l83 -234l147 234h174l-265 -355l169 -399h-171l-108 276l-188 -276h-172l304 399z" />
    <glyph glyph-name="Y" unicode="Y" horiz-adv-x="587" 
d="M103 754h171l91 -262l185 262h172l-302 -408l-55 -346h-147l55 346z" />
    <glyph glyph-name="Z" unicode="Z" horiz-adv-x="575" 
d="M572 128l-20 -128h-547l431 626h-281l20 128h514l-430 -626h313z" />
    <glyph glyph-name="bracketleft" unicode="[" horiz-adv-x="288" 
d="M151 0h92l-14 -91h-198l148 936h198l-15 -91h-92z" />
    <glyph glyph-name="backslash" unicode="\" horiz-adv-x="539" 
d="M276 848l234 -848h-112l-234 848h112z" />
    <glyph glyph-name="bracketright" unicode="]" horiz-adv-x="288" 
d="M256 754h-92l15 91h198l-148 -936h-198l14 91h92z" />
    <glyph glyph-name="asciicircum" unicode="^" 
d="M345 754h124l128 -425h-129l-82 283l-172 -283h-129z" />
    <glyph glyph-name="underscore" unicode="_" horiz-adv-x="500" 
d="M480 -125h-500l8 50h500z" />
    <glyph glyph-name="grave" unicode="`" horiz-adv-x="380" 
d="M304 774l93 -168l-78 -44l-127 150z" />
    <glyph glyph-name="a" unicode="a" horiz-adv-x="565" 
d="M290 108q27 0 50.5 12.5t42 32t30.5 44t16 49.5t-0.5 49.5t-16.5 44t-31.5 31.5t-46.5 12t-50.5 -12t-41.5 -31.5t-30 -44t-16 -49.5t0 -49.5t16 -44t31.5 -32t46.5 -12.5zM514 0h-138l7 45h-2q-27 -29 -66 -45t-77 -16q-54 0 -92.5 22.5t-61.5 59.5t-30.5 84.5t0.5 97.5
q8 49 30.5 95.5t57 83t79.5 58.5t98 22q38 0 72.5 -16t54.5 -46l8 46h138z" />
    <glyph glyph-name="b" unicode="b" horiz-adv-x="565" 
d="M309 108q27 0 50.5 12.5t41.5 32t30 44t16 49.5t0 49.5t-16 44t-31.5 31.5t-46.5 12t-50.5 -12t-41.5 -31.5t-30 -44t-16 -49.5t0 -49.5t16 -44t31.5 -32t46.5 -12.5zM184 848h140l-63 -402q29 29 67.5 45t77.5 16q52 0 90 -22.5t61.5 -59t31.5 -83t0 -94.5
q-8 -50 -30.5 -97.5t-57.5 -84.5t-81 -59.5t-100 -22.5q-38 0 -71 16t-50 46h-2l-7 -46h-140z" />
    <glyph glyph-name="c" unicode="c" horiz-adv-x="421" 
d="M438 341q-19 23 -41 35.5t-54 12.5q-30 0 -55 -12.5t-44 -33.5t-32 -47t-17 -53q-5 -29 0 -54.5t19 -45t36 -30.5t52 -11q29 0 56 13t50 34l-22 -135q-31 -16 -62.5 -23t-63.5 -7q-54 0 -96.5 21t-69.5 56.5t-38 82.5t-2 100q9 55 35.5 103t66 83.5t89 56t105.5 20.5
q29 0 57.5 -7.5t51.5 -23.5z" />
    <glyph glyph-name="d" unicode="d" horiz-adv-x="565" 
d="M290 108q27 0 50.5 12.5t41.5 32t30 44t16 49.5t0 49.5t-16 44t-31.5 31.5t-46.5 12t-50.5 -12t-41.5 -31.5t-30 -44t-16 -49.5t0 -49.5t16 -44t31.5 -32t46.5 -12.5zM382 46h-2q-26 -30 -65 -46t-77 -16q-54 0 -92.5 22.5t-61.5 59.5t-30.5 84.5t0.5 97.5
q8 49 30.5 95.5t57 83t79.5 58.5t98 22q38 0 72 -16t53 -45h2l63 402h140l-134 -848h-140z" />
    <glyph glyph-name="e" unicode="e" horiz-adv-x="501" 
d="M403 310q0 19 -4 36.5t-13.5 31.5t-24.5 22.5t-35 8.5q-21 0 -38.5 -8.5t-31.5 -22t-24 -31.5t-16 -37h187zM198 223q-4 -23 -2.5 -46.5t9.5 -42.5t25 -31t44 -12q35 0 60.5 19t44.5 48l126 -21q-38 -74 -104 -113.5t-144 -39.5q-57 0 -99 19t-68.5 53.5t-36 81.5
t-0.5 103t31.5 104.5t58 84.5t83 56.5t107.5 20.5t101 -21t63.5 -57t29 -85t-2.5 -104l-3 -17h-323z" />
    <glyph glyph-name="f" unicode="f" horiz-adv-x="303" 
d="M195 0h-140l59 373h-47l19 118h47l23 144q7 45 23.5 86t43 71.5t64.5 49t89 18.5q36 0 65 -16l-20 -125q-13 7 -25.5 12t-28.5 5q-23 0 -37 -13.5t-21.5 -32t-10.5 -39.5t-6 -36l-19 -124h112l-19 -118h-112z" />
    <glyph glyph-name="g" unicode="g" horiz-adv-x="562" 
d="M290 108q27 0 50.5 12t41.5 31.5t30 44t16 49.5t0 49.5t-16 44t-31.5 32t-46.5 12.5t-50.5 -12.5t-41.5 -32t-30 -44t-16 -49.5t0 -49.5t16 -44t31.5 -31.5t46.5 -12zM517 30q-10 -60 -29.5 -113t-53 -93t-83 -63t-118.5 -23q-45 0 -86.5 13.5t-72 39.5t-46.5 64t-11 87
h148q-1 -39 21 -62.5t62 -23.5q37 0 60 14.5t36.5 38t19.5 52t11 56.5l5 32h-2q-28 -30 -67 -47.5t-78 -17.5q-54 0 -92 21.5t-60 57.5t-29 82.5t1 96.5q8 51 31 98.5t57.5 84.5t80.5 59.5t101 22.5q37 0 68.5 -17t48.5 -46h2l8 47h140z" />
    <glyph glyph-name="h" unicode="h" horiz-adv-x="540" 
d="M324 848l-63 -398h2q27 30 63 43.5t74 13.5q49 0 79.5 -16.5t45.5 -44.5t17.5 -65.5t-4.5 -80.5l-48 -300h-140l41 260q4 22 7 46t-0.5 43.5t-17 32.5t-43.5 13q-31 0 -50.5 -15.5t-31.5 -38.5t-17.5 -49.5t-9.5 -48.5l-38 -243h-140l134 848h140z" />
    <glyph glyph-name="i" unicode="i" horiz-adv-x="253" 
d="M251 780q35 0 55 -24.5t14 -58.5q-3 -17 -11.5 -32.5t-21.5 -26.5t-29.5 -17.5t-33.5 -6.5q-35 0 -55 24t-15 59q6 34 34 58.5t63 24.5zM197 0h-140l78 491h140z" />
    <glyph glyph-name="j" unicode="j" horiz-adv-x="253" 
d="M251 780q35 0 55 -24.5t14 -58.5q-3 -17 -11.5 -32.5t-21.5 -26.5t-29.5 -17.5t-33.5 -6.5q-35 0 -55 24t-15 59q6 34 34 58.5t63 24.5zM156 -262h-140l119 753h140z" />
    <glyph glyph-name="k" unicode="k" horiz-adv-x="526" 
d="M239 311h2l176 180h182l-241 -216l179 -275h-184l-128 209h-2l-33 -209h-140l134 848h140z" />
    <glyph glyph-name="l" unicode="l" horiz-adv-x="239" 
d="M190 0h-140l134 848h140z" />
    <glyph glyph-name="m" unicode="m" horiz-adv-x="802" 
d="M261 447h2q25 29 60 44.5t69 15.5q93 0 129 -77q29 36 70.5 56.5t84.5 20.5q47 0 74.5 -16.5t40.5 -44t14 -64t-5 -76.5l-48 -306h-140l41 258q3 18 6 41.5t0.5 45t-13.5 36t-37 14.5q-29 0 -47 -17t-28.5 -41t-16 -50.5t-8.5 -45.5l-38 -241h-140l39 249q3 18 7 43t2 48
t-13.5 39t-38.5 16q-29 0 -47 -17t-28.5 -41t-15.5 -50.5t-8 -45.5l-38 -241h-140l78 491h140z" />
    <glyph glyph-name="n" unicode="n" horiz-adv-x="540" 
d="M261 446h2q27 33 63 47t74 14q49 0 79.5 -16.5t45.5 -44.5t17.5 -65.5t-4.5 -80.5l-48 -300h-140l41 260q4 22 7 46t-0.5 43.5t-17 32.5t-43.5 13q-31 0 -50.5 -15.5t-31.5 -38.5t-17.5 -49.5t-9.5 -48.5l-38 -243h-140l78 491h140z" />
    <glyph glyph-name="o" unicode="o" horiz-adv-x="548" 
d="M335 383q-27 0 -50.5 -12t-41.5 -31.5t-30 -44.5t-16 -50t0 -49.5t16 -44t31.5 -31.5t46.5 -12t50.5 12t41.5 31.5t30 44t16 49.5t0 50t-16 44.5t-31.5 31.5t-46.5 12zM354 507q57 0 101.5 -19.5t73 -54t40 -83t2.5 -105.5t-35.5 -105t-66 -82.5t-90 -54t-108.5 -19.5
t-102 19.5t-72.5 54t-39.5 82.5t-2 105t35.5 105.5t66 83t90 54t107.5 19.5z" />
    <glyph glyph-name="p" unicode="p" horiz-adv-x="565" 
d="M309 108q27 0 50.5 12.5t41.5 32t30 44t16 49.5t0 49.5t-16 44t-31.5 31.5t-46.5 12t-50.5 -12t-41.5 -31.5t-30 -44t-16 -49.5t0 -49.5t16 -44t31.5 -32t46.5 -12.5zM261 446q29 29 67.5 45t77.5 16q52 0 90 -22.5t61.5 -59t31.5 -83t0 -94.5q-8 -50 -30.5 -97.5
t-57.5 -84.5t-81 -59.5t-100 -22.5q-38 0 -71 16t-50 46h-2l-48 -308h-140l119 753h140z" />
    <glyph glyph-name="q" unicode="q" horiz-adv-x="565" 
d="M474 -262h-140l48 308h-2q-26 -30 -65 -46t-77 -16q-54 0 -92.5 22.5t-61.5 59.5t-30.5 84.5t0.5 97.5q8 49 30.5 95.5t57 83t79.5 58.5t98 22q38 0 72 -16t53 -45h2l7 45h140zM290 108q27 0 50.5 12.5t41.5 32t30 44t16 49.5t0 49.5t-16 44t-31.5 31.5t-46.5 12
t-50.5 -12t-41.5 -31.5t-30 -44t-16 -49.5t0 -49.5t16 -44t31.5 -32t46.5 -12.5z" />
    <glyph glyph-name="r" unicode="r" horiz-adv-x="367" 
d="M260 440h2q26 32 59.5 49.5t72.5 17.5q15 0 29.5 -3.5t26.5 -8.5l-37 -130q-23 18 -55 18q-36 0 -60 -14.5t-38.5 -38t-22.5 -52.5t-12 -57l-35 -221h-140l78 491h140z" />
    <glyph glyph-name="s" unicode="s" horiz-adv-x="410" 
d="M361 375q-13 14 -30 24t-38 10q-17 0 -33.5 -12t-19.5 -30q-2 -14 5 -23t20.5 -16.5t30.5 -14t34 -14.5q18 -8 34.5 -19t28 -27.5t16.5 -39.5t0 -55q-6 -41 -26.5 -73t-50.5 -54.5t-66.5 -34.5t-75.5 -12q-50 0 -92 21.5t-68 60.5l78 83q17 -23 40.5 -40t54.5 -17
q23 0 41.5 14.5t22.5 38.5q3 16 -4 26.5t-19.5 18.5t-29 14.5t-33.5 14.5t-33 18t-27.5 25t-17 35.5t-0.5 50.5q6 34 22 63.5t40 50.5t54 33t65 12q19 0 40.5 -3t41.5 -9.5t37.5 -16t30.5 -22.5z" />
    <glyph glyph-name="t" unicode="t" horiz-adv-x="274" 
d="M207 0h-140l59 373h-48l19 118h48l26 166h140l-26 -166h86l-19 -118h-86z" />
    <glyph glyph-name="u" unicode="u" horiz-adv-x="535" 
d="M265 491l-42 -266q-3 -21 -4 -43t4 -39.5t19 -29t41 -11.5t44.5 11.5t28.5 29t17.5 39.5t9.5 43l42 266h140l-46 -289q-17 -108 -81 -163t-174 -55t-156 55t-29 163l46 289h140z" />
    <glyph glyph-name="v" unicode="v" horiz-adv-x="488" 
d="M285 214l145 277h153l-306 -501h-72l-145 501h154z" />
    <glyph glyph-name="w" unicode="w" horiz-adv-x="783" 
d="M270 208l167 299h67l73 -303l150 287h152l-308 -501h-71l-57 299l-165 -299h-72l-146 501h153z" />
    <glyph glyph-name="x" unicode="x" horiz-adv-x="549" 
d="M101 491h170l71 -127l98 127h172l-210 -224l165 -267h-172l-99 171l-140 -171h-174l252 267z" />
    <glyph glyph-name="y" unicode="y" horiz-adv-x="520" 
d="M60 491h159l73 -279l170 279h156l-476 -753h-154l215 337z" />
    <glyph glyph-name="z" unicode="z" horiz-adv-x="481" 
d="M484 118l-19 -118h-466l310 373h-212l19 118h443l-308 -373h233z" />
    <glyph glyph-name="braceleft" unicode="{" horiz-adv-x="389" 
d="M127 373q41 17 65.5 55.5t33.5 95.5l29 182q4 30 17 54.5t29 41.5t32.5 26.5t27.5 9.5h92l-15 -91h-40q-23 0 -30 -18.5t-11 -43.5l-28 -177q-7 -43 -21.5 -74t-31 -51.5t-30.5 -32t-20 -14.5q4 -3 15 -14t20.5 -31.5t15 -51.5t-1.5 -74l-28 -177q-4 -25 -3 -43.5
t24 -18.5h40l-14 -91h-92q-11 0 -24.5 9.5t-24 26.5t-15.5 41.5t0 54.5l29 182q8 57 -4 95.5t-47 55.5z" />
    <glyph glyph-name="bar" unicode="|" horiz-adv-x="538" 
d="M294 -214h-118l158 1000h118z" />
    <glyph glyph-name="braceright" unicode="}" horiz-adv-x="389" 
d="M369 300q-41 -17 -66 -55.5t-33 -95.5l-29 -182q-5 -30 -18 -54.5t-28.5 -41.5t-32 -26.5t-27.5 -9.5h-92l14 91h40q23 0 30 18.5t11 43.5l28 177q7 43 22 74t31 51.5t30.5 31.5t19.5 14q-4 3 -15 14.5t-20.5 32t-15 51.5t1.5 74l28 177q5 25 3.5 43.5t-24.5 18.5h-40
l15 91h92q11 0 24 -9.5t23.5 -26.5t15.5 -41.5t1 -54.5l-29 -182q-9 -57 3.5 -95.5t47.5 -55.5z" />
    <glyph glyph-name="asciitilde" unicode="~" 
d="M588 273q-15 -20 -33.5 -45t-41 -47t-47.5 -36.5t-52 -14.5q-32 0 -55.5 15t-44.5 29q-27 18 -48.5 35.5t-41.5 17.5q-8 0 -17.5 -8t-18.5 -19.5t-17.5 -25t-14.5 -24.5l-85 88q16 18 36 43t42 47.5t46.5 38.5t51.5 16q28 0 55 -15.5t49 -35.5q17 -17 41.5 -32t44.5 -15
q9 0 18.5 8.5t18.5 21t16.5 26l12.5 22.5z" />
    <glyph glyph-name="Euro" 
d="M542 330l-26 -66h-255q16 -63 61 -102q46 -42 116 -42q44 0 78 14q14 6 30.5 16.5t34.5 26.5l-26 -165q-73 -32 -143 -32q-129 0 -214 82q-83 80 -96 202h-92l26 66h64l2 20t3 21q1 15 6 30h-79l26 66h72q49 132 159 218q116 89 252 89q87 0 161 -44l-56 -145
q-46 49 -126 49q-78 0 -140 -49q-59 -42 -94 -118h311l-26 -66h-308q-2 -7 -3 -13.5t-3 -13.5q-2 -11 -2.5 -22t-1.5 -22h289z" />
    <glyph glyph-name="Euro" unicode="&#x20ac;" 
d="M542 330l-26 -66h-255q16 -63 61 -102q46 -42 116 -42q44 0 78 14q14 6 30.5 16.5t34.5 26.5l-26 -165q-73 -32 -143 -32q-129 0 -214 82q-83 80 -96 202h-92l26 66h64l2 20t3 21q1 15 6 30h-79l26 66h72q49 132 159 218q116 89 252 89q87 0 161 -44l-56 -145
q-46 49 -126 49q-78 0 -140 -49q-59 -42 -94 -118h311l-26 -66h-308q-2 -7 -3 -13.5t-3 -13.5q-2 -11 -2.5 -22t-1.5 -22h289z" />
    <glyph glyph-name="Zcaron" horiz-adv-x="575" 
d="M343 1002l101 -104l136 104l49 -65l-203 -155l-154 155zM572 128l-20 -128h-547l431 626h-281l20 128h514l-430 -626h313z" />
    <glyph glyph-name="Zcaron" unicode="&#x17d;" horiz-adv-x="575" 
d="M343 1002l101 -104l136 104l49 -65l-203 -155l-154 155zM572 128l-20 -128h-547l431 626h-281l20 128h514l-430 -626h313z" />
    <glyph glyph-name="zcaron" horiz-adv-x="481" 
d="M253 774l101 -104l136 104l49 -65l-203 -155l-154 155zM484 118l-19 -118h-466l310 373h-212l19 118h443l-308 -373h233z" />
    <glyph glyph-name="zcaron" unicode="&#x17e;" horiz-adv-x="481" 
d="M253 774l101 -104l136 104l49 -65l-203 -155l-154 155zM484 118l-19 -118h-466l310 373h-212l19 118h443l-308 -373h233z" />
    <glyph glyph-name="nonbreakingspace" unicode="&#xa0;" horiz-adv-x="289" 
 />
    <glyph glyph-name="exclamdown" unicode="&#xa1;" horiz-adv-x="325" 
d="M134 273h142l-85 -537h-142zM243 514q37 0 59 -25.5t16 -62.5q-3 -18 -12.5 -34.5t-23.5 -29t-31.5 -19.5t-35.5 -7q-37 0 -58.5 26.5t-16.5 63.5q6 37 36 62.5t67 25.5z" />
    <glyph glyph-name="cent" unicode="&#xa2;" 
d="M490 637q20 -4 41 -9t38 -16l-22 -141q-19 25 -39 37.5t-54 12.5q-30 0 -55 -12.5t-44 -32.5t-31.5 -46.5t-16.5 -53.5q-5 -27 0 -52.5t18 -44.5t34.5 -30.5t50.5 -11.5t57.5 13.5t47.5 36.5h2l-22 -141q-41 -20 -87 -25l-15 -93h-73l15 91q-49 4 -84.5 27.5t-57 59.5
t-29 81t0.5 92q8 49 29 93.5t53.5 79.5t75.5 58t94 30l14 84h73z" />
    <glyph glyph-name="sterling" unicode="&#xa3;" 
d="M13 19q12 25 29 51t38 46.5t46.5 34t55.5 14.5q16 30 20 59q8 44 -8 84h-131l10 66h93q-11 33 -16.5 74.5t-0.5 78.5q9 55 36 100.5t66 78t88 50.5t103 18q62 0 103 -19t64 -53t29.5 -81.5t0.5 -104.5l-150 -17l7 34q4 20 1 41t-13.5 38t-27 28t-38.5 11
q-26 0 -47.5 -11.5t-37 -29.5t-25.5 -41t-14 -46q-6 -38 1.5 -72t18.5 -67l3 -10h136l-10 -66h-112q0 -18 -2 -38t-7 -40l-8 -38l-8 -38l63 -27q37 -16 61 -16q25 0 39.5 19t24.5 40l100 -22q-12 -30 -28 -58.5t-37.5 -50t-49 -34.5t-63.5 -13q-29 0 -57.5 9t-57.5 20
q-27 11 -54 20t-53 9q-25 0 -44.5 -13.5t-30.5 -36.5z" />
    <glyph glyph-name="currency" unicode="&#xa4;" 
d="M312 146q33 0 64 12t56 33t42 49t22 60q5 34 -2.5 62.5t-25.5 48.5t-45.5 31.5t-61.5 11.5q-35 0 -65.5 -11.5t-55 -31.5t-41 -48.5t-21.5 -62.5q-5 -32 2.5 -60t25.5 -49t45 -33t61 -12zM376 550q48 0 81 -12.5t53 -31.5l71 57l62 -74l-68 -55q13 -25 18.5 -58t-1.5 -76
q-8 -43 -23.5 -76t-36.5 -58l52 -55l-86 -74l-53 57q-26 -19 -63 -31.5t-85 -12.5t-81 12.5t-53 31.5l-71 -57l-62 74l68 55q-12 25 -18 58t2 76q7 43 23 76t36 58l-52 55l86 74l53 -57q26 19 63 31.5t85 12.5z" />
    <glyph glyph-name="yen" unicode="&#xa5;" 
d="M546 754h171l-222 -305h134l-10 -66h-175l-27 -37l-6 -36h196l-10 -66h-196l-39 -244h-147l39 244h-196l10 66h196l6 36l-18 37h-172l10 66h134l-126 305h171l97 -262z" />
    <glyph glyph-name="brokenbar" unicode="&#xa6;" horiz-adv-x="538" 
d="M393 411h-118l40 250h118zM314 -89h-118l39 250h118z" />
    <glyph glyph-name="section" unicode="&#xa7;" horiz-adv-x="577" 
d="M465 684q2 30 -14.5 51.5t-49.5 21.5q-15 0 -27.5 -6.5t-22 -17t-16 -24t-8.5 -26.5q-3 -19 2 -33t15 -25t23.5 -20t26.5 -17l98 -60q25 -15 46 -30.5t35 -35t20 -45t1 -59.5q-8 -45 -33 -87.5t-63 -72.5q17 -24 21.5 -58t-0.5 -65q-7 -45 -29 -82.5t-55.5 -65.5
t-77 -43.5t-93.5 -15.5q-51 0 -92 16t-68 45.5t-37.5 72.5t0.5 97h138q-4 -21 -1 -42.5t13 -38t26.5 -27t40.5 -10.5q18 0 34.5 7.5t29 19.5t20.5 28t11 34q3 19 -2 33.5t-15.5 25.5t-24 20t-27.5 17l-121 72q-23 14 -41.5 29t-30 34t-15.5 43t1 55q8 49 34.5 89.5
t65.5 73.5q-12 23 -16 53t1 59q7 42 28 76.5t52 59t69.5 37.5t79.5 13q40 0 74 -12t57.5 -34.5t35 -55t6.5 -74.5h-125zM416 257q20 14 32.5 35t16.5 43q3 17 -1 29.5t-11.5 21.5t-18 16.5t-22.5 15.5l-127 87q-20 -13 -34 -33.5t-18 -42.5q-3 -19 1 -31.5t12 -22.5
t20 -17.5t24 -15.5z" />
    <glyph glyph-name="dieresis" unicode="&#xa8;" horiz-adv-x="400" 
d="M427 762q33 0 52.5 -23.5t14.5 -56.5q-3 -17 -11.5 -31.5t-21 -25t-28.5 -17t-32 -6.5q-33 0 -52.5 23.5t-14.5 56.5q3 16 11.5 31t21 25.5t28 17t32.5 6.5zM216 762q33 0 52.5 -23.5t14.5 -56.5q-3 -17 -11.5 -31.5t-21 -25t-28.5 -17t-32 -6.5q-33 0 -52.5 23.5
t-14.5 56.5q3 16 11.5 31t21 25.5t28 17t32.5 6.5z" />
    <glyph glyph-name="copyright" unicode="&#xa9;" horiz-adv-x="800" 
d="M587 459q-2 20 -11 34.5t-23.5 24t-32 14t-35.5 4.5q-31 0 -58 -13.5t-48.5 -35.5t-36 -50t-19.5 -57t0.5 -57t20 -50t37.5 -35.5t54 -13.5q18 0 37 4.5t36.5 14t31.5 24t22 34.5h88q-12 -35 -34 -65t-51 -52t-65.5 -34t-77.5 -12q-48 0 -86 19.5t-62.5 52.5t-34.5 77
t-2 93t31.5 93t59 77t79.5 52.5t92 19.5q41 0 73.5 -12.5t55 -34t34.5 -51.5t13 -65h-88zM509 688q-64 0 -123.5 -23.5t-108 -65t-82 -98.5t-43.5 -124q-11 -66 4.5 -123t50.5 -99t87 -65.5t116 -23.5t124 23.5t108.5 65.5t81.5 99t44 123q10 67 -5 124t-50.5 98.5t-87.5 65
t-116 23.5zM397 -20q-83 0 -149.5 31t-111.5 84.5t-64 126t-6 155.5t55 155.5t104 126t138.5 84.5t159.5 31q82 0 149 -31t112 -84.5t64 -126t6 -155.5t-55 -155.5t-104 -126t-139 -84.5t-159 -31z" />
    <glyph glyph-name="ordfeminine" unicode="&#xaa;" horiz-adv-x="339" 
d="M261 534q18 0 33 7.5t27 19.5t19.5 26.5t9.5 29.5t-1 30t-11 26.5t-20.5 19t-30.5 7.5t-33 -7.5t-27 -19t-19.5 -26.5t-9.5 -30t1 -29.5t11 -26.5t20.5 -19.5t30.5 -7.5zM406 470h-89l5 27h-2q-17 -18 -42 -27.5t-50 -9.5q-35 0 -60.5 13.5t-40.5 36t-20.5 50.5t-0.5 58
q4 29 18.5 57t37 50t51.5 35.5t64 13.5q25 0 47 -9.5t36 -27.5l4 27h89z" />
    <glyph glyph-name="guillemotleft" unicode="&#xab;" horiz-adv-x="514" 
d="M286 138l-96 -58l-121 240l197 243l77 -56l-153 -187zM486 138l-96 -58l-121 240l197 243l77 -56l-153 -187z" />
    <glyph glyph-name="logicalnot" unicode="&#xac;" 
d="M477 315h-394l19 118h512l-47 -291h-118z" />
    <glyph glyph-name="hyphen" unicode="&#xad;" horiz-adv-x="330" 
d="M347 378l-18 -115h-244l18 115h244z" />
    <glyph glyph-name="hyphen" unicode="&#x2010;" horiz-adv-x="330" 
d="M347 378l-18 -115h-244l18 115h244z" />
    <glyph glyph-name="registered" unicode="&#xae;" horiz-adv-x="800" 
d="M502 411q35 0 56.5 10.5t26.5 44.5q3 17 -5 26t-21.5 13.5t-30 5t-31.5 0.5h-95l-16 -100h116zM610 173h-94l-70 164h-72l-26 -164h-86l66 412h200q36 0 64.5 -4.5t47.5 -18t26.5 -38t1.5 -65.5q-9 -57 -42.5 -87.5t-89.5 -34.5zM509 688q-64 0 -123.5 -23.5t-108 -65
t-82 -98.5t-43.5 -124q-11 -66 4.5 -123t50.5 -99t87 -65.5t116 -23.5t124 23.5t108.5 65.5t81.5 99t44 123q10 67 -5 124t-50.5 98.5t-87.5 65t-116 23.5zM397 -20q-83 0 -149.5 31t-111.5 84.5t-64 126t-6 155.5t55 155.5t104 126t138.5 84.5t159.5 31q82 0 149 -31
t112 -84.5t64 -126t6 -155.5t-55 -155.5t-104 -126t-139 -84.5t-159 -31z" />
    <glyph glyph-name="macron" unicode="&#xaf;" horiz-adv-x="400" 
d="M510 754l-14 -88h-382l14 88h382z" />
    <glyph glyph-name="degree" unicode="&#xb0;" horiz-adv-x="400" 
d="M311 706q-17 0 -33 -6.5t-28.5 -17.5t-21.5 -26t-11 -32q-5 -35 15 -58.5t55 -23.5q34 0 61.5 23.5t32.5 58.5q5 34 -15 58t-55 24zM449 624q-5 -31 -21 -58.5t-40 -47.5t-53 -32t-60 -12t-56.5 12t-42.5 32t-24.5 47.5t-2.5 58.5q4 31 20.5 58t40 47.5t53 32.5t60.5 12
t56 -12t42.5 -32.5t25 -47.5t2.5 -58z" />
    <glyph glyph-name="plusminus" unicode="&#xb1;" 
d="M448 630l-27 -172h197l-19 -118h-197l-27 -172h-118l27 172h-197l19 118h197l27 172h118zM52 118h512l-19 -118h-512z" />
    <glyph glyph-name="twosuperior" unicode="&#xb2;" horiz-adv-x="346" 
d="M398 379l-12 -77h-330l148 145q15 15 36.5 36t41.5 44.5t36 46.5t19 42q5 32 -8 53t-44 21q-16 0 -29 -7.5t-22 -19t-14.5 -25t-6.5 -26.5h-101q7 33 23 61t39 48.5t54 32.5t69 12q33 0 60.5 -11t46 -30.5t26.5 -46t3 -57.5q-8 -51 -39.5 -90t-71.5 -75l-84 -77h160z" />
    <glyph glyph-name="threesuperior" unicode="&#xb3;" horiz-adv-x="346" 
d="M131 644q15 59 60 94.5t111 35.5q63 0 96.5 -34t23.5 -93q-4 -26 -19 -52.5t-43 -42.5q32 -14 41.5 -46.5t4.5 -63.5q-5 -33 -21.5 -60t-41.5 -45.5t-56.5 -28.5t-66.5 -10q-34 0 -61 11t-45.5 30t-27 45.5t-5.5 56.5h96q-3 -27 12 -46.5t47 -19.5q16 0 29.5 6.5
t23.5 16.5t16.5 23t8.5 26t-0.5 26.5t-10 24t-19.5 16.5t-28 5l-18 -1l10 63h11q30 0 48.5 17t23.5 46q4 23 -8 40t-39 17q-26 0 -42 -18t-20 -39h-91z" />
    <glyph glyph-name="acute" unicode="&#xb4;" horiz-adv-x="380" 
d="M414 712l-175 -150l-64 44l147 168z" />
    <glyph glyph-name="mu" unicode="&#xb5;" horiz-adv-x="535" 
d="M265 491l-42 -266q-3 -21 -4 -43t4 -39.5t19 -29t41 -11.5t44.5 11.5t28.5 29t17.5 39.5t9.5 43l42 266h140l-46 -289q-17 -108 -81 -163t-174 -55q-29 0 -45 9.5t-30 20.5l-43 -276h-140l119 753h140z" />
    <glyph glyph-name="paragraph" unicode="&#xb6;" horiz-adv-x="577" 
d="M663 660h-61l-129 -813h-104l129 813h-62l-129 -813h-104l69 436q-42 0 -76 14.5t-57 42t-33.5 67t-5.5 90.5q4 45 25.5 91t56 83t79 60t94.5 23h322z" />
    <glyph glyph-name="periodcentered" unicode="&#xb7;" horiz-adv-x="289" 
d="M200 345q37 0 58.5 -25.5t16.5 -62.5q-3 -18 -12.5 -34.5t-24 -29t-32 -19.5t-35.5 -7q-37 0 -58.5 26.5t-15.5 63.5q3 18 12.5 34t23.5 28t31.5 19t35.5 7z" />
    <glyph glyph-name="periodcentered" unicode="&#x22c5;" horiz-adv-x="289" 
d="M200 345q37 0 58.5 -25.5t16.5 -62.5q-3 -18 -12.5 -34.5t-24 -29t-32 -19.5t-35.5 -7q-37 0 -58.5 26.5t-15.5 63.5q3 18 12.5 34t23.5 28t31.5 19t35.5 7z" />
    <glyph glyph-name="periodcentered" unicode="&#x2219;" horiz-adv-x="289" 
d="M200 345q37 0 58.5 -25.5t16.5 -62.5q-3 -18 -12.5 -34.5t-24 -29t-32 -19.5t-35.5 -7q-37 0 -58.5 26.5t-15.5 63.5q3 18 12.5 34t23.5 28t31.5 19t35.5 7z" />
    <glyph glyph-name="cedilla" unicode="&#xb8;" horiz-adv-x="380" 
d="M274 -67l-138 -139l-68 38l122 148z" />
    <glyph glyph-name="onesuperior" unicode="&#xb9;" horiz-adv-x="346" 
d="M200 678l12 76h160l-71 -452h-96l59 376h-64z" />
    <glyph glyph-name="ordmasculine" unicode="&#xba;" horiz-adv-x="339" 
d="M281 700q-18 0 -33 -7t-26.5 -19t-19 -26.5t-9.5 -29.5t0.5 -30t10.5 -27t20.5 -19.5t30.5 -7.5t33 7.5t26.5 19.5t19 27t9.5 30t-0.5 29.5t-10.5 26.5t-20.5 19t-30.5 7zM293 774q37 0 66 -11.5t48 -32.5t26.5 -50t2.5 -63q-6 -35 -22.5 -63.5t-42 -49.5t-58.5 -32.5
t-70 -11.5q-38 0 -67 11.5t-47.5 32.5t-26.5 49.5t-2 63.5q5 34 22 63t42.5 50t58.5 32.5t70 11.5z" />
    <glyph glyph-name="guillemotright" unicode="&#xbb;" horiz-adv-x="514" 
d="M426 320l-95 187l95 56l121 -243l-197 -240l-78 58zM226 320l-95 187l95 56l121 -243l-197 -240l-78 58z" />
    <glyph glyph-name="onequarter" unicode="&#xbc;" horiz-adv-x="867" 
d="M737 331h-2l-131 -180h105zM851 151l-11 -71h-52l-13 -80h-90l13 80h-215l6 39l272 342h87l-49 -310h52zM147 678l12 76h160l-71 -452h-96l59 376h-64zM769 746l-527 -777l-63 35l528 776z" />
    <glyph glyph-name="onehalf" unicode="&#xbd;" horiz-adv-x="867" 
d="M839 77l-12 -77h-330l148 145q15 15 36.5 36t42 44.5t36 46.5t18.5 42q5 32 -8 53t-44 21q-16 0 -29 -7.5t-22 -19t-14.5 -25t-6.5 -26.5h-101q7 33 23 61t39 48.5t54 32.5t69 12q33 0 60.5 -11t46 -30.5t27 -46t3.5 -57.5q-8 -50 -40 -89.5t-72 -75.5l-84 -77h160z
M147 678l12 76h160l-71 -452h-96l59 376h-64zM723 746l-527 -777l-63 35l528 776z" />
    <glyph glyph-name="threequarters" unicode="&#xbe;" horiz-adv-x="867" 
d="M160 644q15 59 60 94.5t111 35.5q63 0 96.5 -34t23.5 -93q-4 -26 -19 -52.5t-43 -42.5q32 -14 41.5 -46.5t4.5 -63.5q-5 -33 -21.5 -60t-41.5 -45.5t-56.5 -28.5t-66.5 -10q-34 0 -61 11t-45.5 30t-27 45.5t-5.5 56.5h96q-3 -27 12 -46.5t47 -19.5q16 0 29.5 6.5
t23.5 16.5t16.5 23t8.5 26t-0.5 26.5t-10 24t-19.5 16.5t-28 5l-18 -1l10 63h11q30 0 48.5 17t23.5 46q4 23 -8 40t-39 17q-26 0 -42 -18t-20 -39h-91zM737 331h-2l-131 -180h105zM851 151l-11 -71h-52l-13 -80h-90l13 80h-215l6 39l272 342h87l-49 -310h52zM821 746
l-527 -777l-63 35l528 776z" />
    <glyph glyph-name="questiondown" unicode="&#xbf;" horiz-adv-x="487" 
d="M348 514q37 0 59 -25.5t16 -62.5q-3 -18 -12.5 -34.5t-23.5 -29t-31.5 -19.5t-35.5 -7q-37 0 -58.5 26.5t-16.5 63.5q6 37 36 62.5t67 25.5zM348 54q-16 4 -36 4q-25 0 -49.5 -7.5t-44.5 -21.5t-34 -35t-18 -48q-2 -15 0 -30.5t8.5 -28.5t18.5 -21t29 -8q34 0 54 26
t25 56l2 12h146q-5 -45 -27 -84.5t-55.5 -69t-76 -46t-87.5 -16.5q-46 0 -83 16.5t-61 45t-34 68t-3 85.5q6 37 23 70.5t42.5 61t58 47t70.5 27.5l23 96h140z" />
    <glyph glyph-name="Agrave" unicode="&#xc0;" horiz-adv-x="676" 
d="M463 1002l93 -168l-78 -44l-127 150zM423 553h-2l-127 -274h179zM233 159l-87 -159h-155l417 774h114l163 -774h-157l-33 159h-262z" />
    <glyph glyph-name="Aacute" unicode="&#xc1;" horiz-adv-x="676" 
d="M628 940l-175 -150l-64 44l147 168zM423 553h-2l-127 -274h179zM233 159l-87 -159h-155l417 774h114l163 -774h-157l-33 159h-262z" />
    <glyph glyph-name="Acircumflex" unicode="&#xc2;" horiz-adv-x="676" 
d="M497 1002l145 -154l-70 -66l-94 104l-126 -104l-50 66zM423 553h-2l-127 -274h179zM233 159l-87 -159h-155l417 774h114l163 -774h-157l-33 159h-262z" />
    <glyph glyph-name="Atilde" unicode="&#xc3;" horiz-adv-x="676" 
d="M280 832q5 22 16.5 46.5t28.5 45t38.5 34t47.5 13.5q18 0 37 -6.5t36 -14.5q19 -8 34.5 -15t27.5 -7q21 0 32 12.5t22 29.5h83q-8 -24 -21 -49t-31 -45.5t-41 -33.5t-51 -13q-16 0 -32 7t-33 15t-33 15t-30 7q-19 0 -30.5 -12.5t-18.5 -28.5h-82zM423 553h-2l-127 -274
h179zM233 159l-87 -159h-155l417 774h114l163 -774h-157l-33 159h-262z" />
    <glyph glyph-name="Adieresis" unicode="&#xc4;" horiz-adv-x="676" 
d="M601 990q33 0 52.5 -23.5t14.5 -56.5q-3 -17 -11.5 -31.5t-21 -25t-28.5 -17t-32 -6.5q-33 0 -52.5 23.5t-14.5 56.5q3 16 11.5 31t21 25.5t28 17t32.5 6.5zM390 990q33 0 52.5 -23.5t14.5 -56.5q-3 -17 -11.5 -31.5t-21 -25t-28.5 -17t-32 -6.5q-33 0 -52.5 23.5
t-14.5 56.5q3 16 11.5 31t21 25.5t28 17t32.5 6.5zM423 553h-2l-127 -274h179zM233 159l-87 -159h-155l417 774h114l163 -774h-157l-33 159h-262z" />
    <glyph glyph-name="Aring" unicode="&#xc5;" horiz-adv-x="676" 
d="M487 943q-17 0 -31 -12t-16 -29q-3 -17 7 -29.5t27 -12.5t31 12.5t17 29.5q2 17 -8 29t-27 12zM497 1002q21 0 38 -8t28 -21.5t16 -31.5t2 -39t-14 -39.5t-27 -32t-35 -21.5t-40 -8t-38 8t-28 21.5t-16 32t-2 39.5t14 39t26.5 31.5t35 21.5t40.5 8zM423 553h-2l-127 -274
h179zM233 159l-87 -159h-155l417 774h114l163 -774h-157l-33 159h-262z" />
    <glyph glyph-name="AE" unicode="&#xc6;" horiz-adv-x="921" 
d="M419 535h-2l-124 -256h178zM231 159l-84 -159h-156l412 754h372l26 -128h-250l35 -167h246l25 -128h-246l43 -203h250l25 -128h-403l-34 159h-261z" />
    <glyph glyph-name="Ccedilla" unicode="&#xc7;" horiz-adv-x="601" 
d="M385 -67l-138 -139l-68 38l122 148zM646 554q-25 38 -65.5 59t-88.5 21q-53 0 -97.5 -22.5t-79 -59t-56.5 -83t-30 -95.5q-8 -48 0.5 -93.5t31.5 -81t60.5 -57.5t88.5 -22q48 0 95.5 22.5t84.5 57.5l-28 -175q-45 -20 -88.5 -32.5t-89.5 -12.5q-80 0 -142.5 32t-103 85.5
t-57 124.5t-4.5 149q13 80 51.5 153t96.5 128.5t131.5 88.5t156.5 33q45 0 85.5 -11.5t75.5 -32.5z" />
    <glyph glyph-name="Egrave" unicode="&#xc8;" horiz-adv-x="488" 
d="M369 1002l93 -168l-78 -44l-127 150zM300 626l-26 -166h234l-20 -128h-234l-33 -204h243l-20 -128h-390l119 754h390l-20 -128h-243z" />
    <glyph glyph-name="Eacute" unicode="&#xc9;" horiz-adv-x="488" 
d="M534 940l-175 -150l-64 44l147 168zM300 626l-26 -166h234l-20 -128h-234l-33 -204h243l-20 -128h-390l119 754h390l-20 -128h-243z" />
    <glyph glyph-name="Ecircumflex" unicode="&#xca;" horiz-adv-x="488" 
d="M403 1002l145 -154l-70 -66l-94 104l-126 -104l-50 66zM300 626l-26 -166h234l-20 -128h-234l-33 -204h243l-20 -128h-390l119 754h390l-20 -128h-243z" />
    <glyph glyph-name="Edieresis" unicode="&#xcb;" horiz-adv-x="488" 
d="M507 990q33 0 52.5 -23.5t14.5 -56.5q-3 -17 -11.5 -31.5t-21 -25t-28.5 -17t-32 -6.5q-33 0 -52.5 23.5t-14.5 56.5q3 16 11.5 31t21 25.5t28 17t32.5 6.5zM296 990q33 0 52.5 -23.5t14.5 -56.5q-3 -17 -11.5 -31.5t-21 -25t-28.5 -17t-32 -6.5q-33 0 -52.5 23.5
t-14.5 56.5q3 16 11.5 31t21 25.5t28 17t32.5 6.5zM300 626l-26 -166h234l-20 -128h-234l-33 -204h243l-20 -128h-390l119 754h390l-20 -128h-243z" />
    <glyph glyph-name="Igrave" unicode="&#xcc;" horiz-adv-x="254" 
d="M262 1002l93 -168l-78 -44l-127 150zM201 0h-147l119 754h147z" />
    <glyph glyph-name="Iacute" unicode="&#xcd;" horiz-adv-x="254" 
d="M402 940l-175 -150l-64 44l147 168zM201 0h-147l119 754h147z" />
    <glyph glyph-name="Icircumflex" unicode="&#xce;" horiz-adv-x="254" 
d="M286 1002l145 -154l-70 -66l-94 104l-126 -104l-50 66zM201 0h-147l119 754h147z" />
    <glyph glyph-name="Idieresis" unicode="&#xcf;" horiz-adv-x="254" 
d="M390 990q33 0 52.5 -23.5t14.5 -56.5q-3 -17 -11.5 -31.5t-21 -25t-28.5 -17t-32 -6.5q-33 0 -52.5 23.5t-14.5 56.5q3 16 11.5 31t21 25.5t28 17t32.5 6.5zM179 990q33 0 52.5 -23.5t14.5 -56.5q-3 -17 -11.5 -31.5t-21 -25t-28.5 -17t-32 -6.5q-33 0 -52.5 23.5
t-14.5 56.5q3 16 11.5 31t21 25.5t28 17t32.5 6.5zM201 0h-147l119 754h147z" />
    <glyph glyph-name="Eth" unicode="&#xd0;" horiz-adv-x="646" 
d="M273 457h113l-19 -120h-113l-33 -209h24q68 0 118.5 18t86 50.5t56.5 78.5t30 102q20 124 -33 186.5t-179 62.5h-24zM107 337h-72l19 120h72l47 297h210q82 0 144.5 -29t102.5 -79.5t55.5 -119.5t2.5 -150q-13 -80 -50.5 -148.5t-94 -119t-128 -79.5t-152.5 -29h-209z
" />
    <glyph glyph-name="Ntilde" unicode="&#xd1;" horiz-adv-x="759" 
d="M322 832q5 22 16.5 46.5t28.5 45t38.5 34t47.5 13.5q18 0 37 -6.5t36 -14.5q19 -8 34.5 -15t27.5 -7q21 0 32 12.5t22 29.5h83q-8 -24 -21 -49t-31 -45.5t-41 -33.5t-51 -13q-16 0 -32 7t-33 15t-33 15t-30 7q-19 0 -30.5 -12.5t-18.5 -28.5h-82zM177 774h106l313 -527h2
l80 507h147l-121 -769h-106l-314 527h-2l-81 -512h-147z" />
    <glyph glyph-name="Ograve" unicode="&#xd2;" horiz-adv-x="782" 
d="M516 1002l93 -168l-78 -44l-127 150zM673 384q7 46 -1 90t-31 78.5t-60.5 55.5t-89.5 21t-96.5 -21t-78.5 -55.5t-56 -78.5t-29 -90q-7 -44 -3 -89.5t24.5 -83.5t59 -62t99.5 -24t107 24t78 62t51 83.5t26 89.5zM824 378q-13 -83 -50.5 -155.5t-94.5 -126.5t-131 -85
t-160 -31t-150.5 31t-104 85t-54 126.5t-1.5 155.5q13 84 51 156.5t95.5 125.5t131.5 83.5t158 30.5t148 -30.5t104.5 -83.5t55.5 -125.5t2 -156.5z" />
    <glyph glyph-name="Oacute" unicode="&#xd3;" horiz-adv-x="782" 
d="M681 940l-175 -150l-64 44l147 168zM673 384q7 46 -1 90t-31 78.5t-60.5 55.5t-89.5 21t-96.5 -21t-78.5 -55.5t-56 -78.5t-29 -90q-7 -44 -3 -89.5t24.5 -83.5t59 -62t99.5 -24t107 24t78 62t51 83.5t26 89.5zM824 378q-13 -83 -50.5 -155.5t-94.5 -126.5t-131 -85
t-160 -31t-150.5 31t-104 85t-54 126.5t-1.5 155.5q13 84 51 156.5t95.5 125.5t131.5 83.5t158 30.5t148 -30.5t104.5 -83.5t55.5 -125.5t2 -156.5z" />
    <glyph glyph-name="Ocircumflex" unicode="&#xd4;" horiz-adv-x="782" 
d="M550 1002l145 -154l-70 -66l-94 104l-126 -104l-50 66zM673 384q7 46 -1 90t-31 78.5t-60.5 55.5t-89.5 21t-96.5 -21t-78.5 -55.5t-56 -78.5t-29 -90q-7 -44 -3 -89.5t24.5 -83.5t59 -62t99.5 -24t107 24t78 62t51 83.5t26 89.5zM824 378q-13 -83 -50.5 -155.5
t-94.5 -126.5t-131 -85t-160 -31t-150.5 31t-104 85t-54 126.5t-1.5 155.5q13 84 51 156.5t95.5 125.5t131.5 83.5t158 30.5t148 -30.5t104.5 -83.5t55.5 -125.5t2 -156.5z" />
    <glyph glyph-name="Otilde" unicode="&#xd5;" horiz-adv-x="782" 
d="M333 832q5 22 16.5 46.5t28.5 45t38.5 34t47.5 13.5q18 0 37 -6.5t36 -14.5q19 -8 34.5 -15t27.5 -7q21 0 32 12.5t22 29.5h83q-8 -24 -21 -49t-31 -45.5t-41 -33.5t-51 -13q-16 0 -32 7t-33 15t-33 15t-30 7q-19 0 -30.5 -12.5t-18.5 -28.5h-82zM673 384q7 46 -1 90
t-31 78.5t-60.5 55.5t-89.5 21t-96.5 -21t-78.5 -55.5t-56 -78.5t-29 -90q-7 -44 -3 -89.5t24.5 -83.5t59 -62t99.5 -24t107 24t78 62t51 83.5t26 89.5zM824 378q-13 -83 -50.5 -155.5t-94.5 -126.5t-131 -85t-160 -31t-150.5 31t-104 85t-54 126.5t-1.5 155.5
q13 84 51 156.5t95.5 125.5t131.5 83.5t158 30.5t148 -30.5t104.5 -83.5t55.5 -125.5t2 -156.5z" />
    <glyph glyph-name="Odieresis" unicode="&#xd6;" horiz-adv-x="782" 
d="M654 990q33 0 52.5 -23.5t14.5 -56.5q-3 -17 -11.5 -31.5t-21 -25t-28.5 -17t-32 -6.5q-33 0 -52.5 23.5t-14.5 56.5q3 16 11.5 31t21 25.5t28 17t32.5 6.5zM443 990q33 0 52.5 -23.5t14.5 -56.5q-3 -17 -11.5 -31.5t-21 -25t-28.5 -17t-32 -6.5q-33 0 -52.5 23.5
t-14.5 56.5q3 16 11.5 31t21 25.5t28 17t32.5 6.5zM673 384q7 46 -1 90t-31 78.5t-60.5 55.5t-89.5 21t-96.5 -21t-78.5 -55.5t-56 -78.5t-29 -90q-7 -44 -3 -89.5t24.5 -83.5t59 -62t99.5 -24t107 24t78 62t51 83.5t26 89.5zM824 378q-13 -83 -50.5 -155.5t-94.5 -126.5
t-131 -85t-160 -31t-150.5 31t-104 85t-54 126.5t-1.5 155.5q13 84 51 156.5t95.5 125.5t131.5 83.5t158 30.5t148 -30.5t104.5 -83.5t55.5 -125.5t2 -156.5z" />
    <glyph glyph-name="multiply" unicode="&#xd7;" 
d="M198 512l146 -173l198 173l71 -84l-199 -172l144 -172l-97 -84l-145 173l-199 -173l-71 84l201 172l-146 172z" />
    <glyph glyph-name="Oslash" unicode="&#xd8;" horiz-adv-x="782" 
d="M111 132q-27 51 -35.5 113.5t2.5 132.5q13 84 51 156.5t95.5 125.5t131.5 83.5t158 30.5q69 0 123.5 -20t95.5 -58l100 90l67 -68l-109 -98q27 -50 35.5 -111.5t-2.5 -130.5q-13 -83 -50.5 -155.5t-94.5 -126.5t-131 -85t-160 -31q-69 0 -124.5 20.5t-94.5 56.5l-105 -95
l-63 71zM612 586q-23 20 -53 31.5t-68 11.5q-52 0 -96.5 -21t-78.5 -55.5t-56 -78.5t-29 -90q-5 -34 -4 -69.5t11 -67.5zM289 166q22 -20 52 -30.5t70 -10.5q61 0 107 24t78 62t51 83.5t26 89.5q5 31 3 61.5t-12 58.5z" />
    <glyph glyph-name="Ugrave" unicode="&#xd9;" horiz-adv-x="660" 
d="M430 1002l93 -168l-78 -44l-127 150zM169 754h147l-66 -422q-6 -35 -9 -74.5t5 -72.5t31 -55t70 -22t77 22t48.5 55t28 72.5t15.5 74.5l66 422h147l-71 -451q-11 -69 -35.5 -128t-65 -102.5t-97.5 -68t-133 -24.5t-125 24.5t-76 68t-33 102.5t5 128z" />
    <glyph glyph-name="Uacute" unicode="&#xda;" horiz-adv-x="660" 
d="M640 940l-175 -150l-64 44l147 168zM169 754h147l-66 -422q-6 -35 -9 -74.5t5 -72.5t31 -55t70 -22t77 22t48.5 55t28 72.5t15.5 74.5l66 422h147l-71 -451q-11 -69 -35.5 -128t-65 -102.5t-97.5 -68t-133 -24.5t-125 24.5t-76 68t-33 102.5t5 128z" />
    <glyph glyph-name="Ucircumflex" unicode="&#xdb;" horiz-adv-x="660" 
d="M489 1002l145 -154l-70 -66l-94 104l-126 -104l-50 66zM169 754h147l-66 -422q-6 -35 -9 -74.5t5 -72.5t31 -55t70 -22t77 22t48.5 55t28 72.5t15.5 74.5l66 422h147l-71 -451q-11 -69 -35.5 -128t-65 -102.5t-97.5 -68t-133 -24.5t-125 24.5t-76 68t-33 102.5t5 128z
" />
    <glyph glyph-name="Udieresis" unicode="&#xdc;" horiz-adv-x="660" 
d="M601 990q33 0 52.5 -23.5t14.5 -56.5q-3 -17 -11.5 -31.5t-21 -25t-28.5 -17t-32 -6.5q-33 0 -52.5 23.5t-14.5 56.5q3 16 11.5 31t21 25.5t28 17t32.5 6.5zM390 990q33 0 52.5 -23.5t14.5 -56.5q-3 -17 -11.5 -31.5t-21 -25t-28.5 -17t-32 -6.5q-33 0 -52.5 23.5
t-14.5 56.5q3 16 11.5 31t21 25.5t28 17t32.5 6.5zM169 754h147l-66 -422q-6 -35 -9 -74.5t5 -72.5t31 -55t70 -22t77 22t48.5 55t28 72.5t15.5 74.5l66 422h147l-71 -451q-11 -69 -35.5 -128t-65 -102.5t-97.5 -68t-133 -24.5t-125 24.5t-76 68t-33 102.5t5 128z" />
    <glyph glyph-name="Yacute" unicode="&#xdd;" horiz-adv-x="587" 
d="M619 940l-175 -150l-64 44l147 168zM103 754h171l91 -262l185 262h172l-302 -408l-55 -346h-147l55 346z" />
    <glyph glyph-name="Thorn" unicode="&#xde;" horiz-adv-x="528" 
d="M246 284h30q33 0 58.5 4.5t44.5 17t31.5 35.5t18.5 60q6 36 -1 58t-23.5 34t-41 15.5t-55.5 3.5h-26zM201 0h-147l119 754h147l-19 -120h53q59 0 105.5 -12.5t76 -40.5t41 -72.5t1.5 -108.5q-19 -121 -90.5 -179.5t-187.5 -58.5h-73z" />
    <glyph glyph-name="germandbls" unicode="&#xdf;" horiz-adv-x="561" 
d="M146 604q9 56 28 103t51 81t77 53t106 19q49 0 87 -15.5t62.5 -44t34 -69t2.5 -89.5q-8 -51 -32.5 -90.5t-69.5 -71.5q32 -15 52.5 -38.5t32 -53.5t13.5 -64.5t-4 -69.5q-10 -62 -37.5 -111.5t-69.5 -85t-95.5 -54.5t-114.5 -19h-20l20 122q33 -1 62 11t51.5 33
t37.5 49.5t20 60.5q10 66 -23 108t-100 43l19 118q51 -1 83 30.5t40 80.5q7 39 -11 68.5t-60 29.5q-35 0 -55.5 -21.5t-31.5 -51.5t-16 -63t-9 -56l-86 -546h-140z" />
    <glyph glyph-name="agrave" unicode="&#xe0;" horiz-adv-x="565" 
d="M357 774l93 -168l-78 -44l-127 150zM290 108q27 0 50.5 12.5t42 32t30.5 44t16 49.5t-0.5 49.5t-16.5 44t-31.5 31.5t-46.5 12t-50.5 -12t-41.5 -31.5t-30 -44t-16 -49.5t0 -49.5t16 -44t31.5 -32t46.5 -12.5zM514 0h-138l7 45h-2q-27 -29 -66 -45t-77 -16
q-54 0 -92.5 22.5t-61.5 59.5t-30.5 84.5t0.5 97.5q8 49 30.5 95.5t57 83t79.5 58.5t98 22q38 0 72.5 -16t54.5 -46l8 46h138z" />
    <glyph glyph-name="aacute" unicode="&#xe1;" horiz-adv-x="565" 
d="M547 712l-175 -150l-64 44l147 168zM290 108q27 0 50.5 12.5t42 32t30.5 44t16 49.5t-0.5 49.5t-16.5 44t-31.5 31.5t-46.5 12t-50.5 -12t-41.5 -31.5t-30 -44t-16 -49.5t0 -49.5t16 -44t31.5 -32t46.5 -12.5zM514 0h-138l7 45h-2q-27 -29 -66 -45t-77 -16
q-54 0 -92.5 22.5t-61.5 59.5t-30.5 84.5t0.5 97.5q8 49 30.5 95.5t57 83t79.5 58.5t98 22q38 0 72.5 -16t54.5 -46l8 46h138z" />
    <glyph glyph-name="acircumflex" unicode="&#xe2;" horiz-adv-x="565" 
d="M406 774l145 -154l-70 -66l-94 104l-126 -104l-50 66zM290 108q27 0 50.5 12.5t42 32t30.5 44t16 49.5t-0.5 49.5t-16.5 44t-31.5 31.5t-46.5 12t-50.5 -12t-41.5 -31.5t-30 -44t-16 -49.5t0 -49.5t16 -44t31.5 -32t46.5 -12.5zM514 0h-138l7 45h-2q-27 -29 -66 -45
t-77 -16q-54 0 -92.5 22.5t-61.5 59.5t-30.5 84.5t0.5 97.5q8 49 30.5 95.5t57 83t79.5 58.5t98 22q38 0 72.5 -16t54.5 -46l8 46h138z" />
    <glyph glyph-name="atilde" unicode="&#xe3;" horiz-adv-x="565" 
d="M189 604q5 22 16.5 46.5t28.5 45t38.5 34t47.5 13.5q18 0 37 -6.5t36 -14.5q19 -8 34.5 -15t27.5 -7q21 0 32 12.5t22 29.5h83q-8 -24 -21 -49t-31 -45.5t-41 -33.5t-51 -13q-16 0 -32 7t-33 15t-33 15t-30 7q-19 0 -30.5 -12.5t-18.5 -28.5h-82zM290 108q27 0 50.5 12.5
t42 32t30.5 44t16 49.5t-0.5 49.5t-16.5 44t-31.5 31.5t-46.5 12t-50.5 -12t-41.5 -31.5t-30 -44t-16 -49.5t0 -49.5t16 -44t31.5 -32t46.5 -12.5zM514 0h-138l7 45h-2q-27 -29 -66 -45t-77 -16q-54 0 -92.5 22.5t-61.5 59.5t-30.5 84.5t0.5 97.5q8 49 30.5 95.5t57 83
t79.5 58.5t98 22q38 0 72.5 -16t54.5 -46l8 46h138z" />
    <glyph glyph-name="adieresis" unicode="&#xe4;" horiz-adv-x="565" 
d="M510 762q33 0 52.5 -23.5t14.5 -56.5q-3 -17 -11.5 -31.5t-21 -25t-28.5 -17t-32 -6.5q-33 0 -52.5 23.5t-14.5 56.5q3 16 11.5 31t21 25.5t28 17t32.5 6.5zM299 762q33 0 52.5 -23.5t14.5 -56.5q-3 -17 -11.5 -31.5t-21 -25t-28.5 -17t-32 -6.5q-33 0 -52.5 23.5
t-14.5 56.5q3 16 11.5 31t21 25.5t28 17t32.5 6.5zM290 108q27 0 50.5 12.5t42 32t30.5 44t16 49.5t-0.5 49.5t-16.5 44t-31.5 31.5t-46.5 12t-50.5 -12t-41.5 -31.5t-30 -44t-16 -49.5t0 -49.5t16 -44t31.5 -32t46.5 -12.5zM514 0h-138l7 45h-2q-27 -29 -66 -45t-77 -16
q-54 0 -92.5 22.5t-61.5 59.5t-30.5 84.5t0.5 97.5q8 49 30.5 95.5t57 83t79.5 58.5t98 22q38 0 72.5 -16t54.5 -46l8 46h138z" />
    <glyph glyph-name="aring" unicode="&#xe5;" horiz-adv-x="565" 
d="M396 715q-17 0 -31 -12t-16 -29q-3 -17 7 -29.5t27 -12.5t31 12.5t17 29.5q2 17 -8 29t-27 12zM406 774q42 0 66 -29t18 -71q-3 -21 -14 -39.5t-27 -32t-35 -21.5t-40 -8t-38 8t-28 21.5t-16 32t-2 39.5t14 39t26.5 31.5t35 21.5t40.5 8zM290 108q27 0 50.5 12.5t42 32
t30.5 44t16 49.5t-0.5 49.5t-16.5 44t-31.5 31.5t-46.5 12t-50.5 -12t-41.5 -31.5t-30 -44t-16 -49.5t0 -49.5t16 -44t31.5 -32t46.5 -12.5zM514 0h-138l7 45h-2q-27 -29 -66 -45t-77 -16q-54 0 -92.5 22.5t-61.5 59.5t-30.5 84.5t0.5 97.5q8 49 30.5 95.5t57 83t79.5 58.5
t98 22q38 0 72.5 -16t54.5 -46l8 46h138z" />
    <glyph glyph-name="ae" unicode="&#xe6;" horiz-adv-x="792" 
d="M489 223q-4 -23 -2.5 -46.5t9.5 -42.5t25 -31t44 -12q35 0 60.5 19t44.5 48l126 -21q-38 -74 -104 -113.5t-144 -39.5q-53 0 -97 19t-65 62q-37 -40 -87.5 -60.5t-100.5 -20.5q-37 0 -69.5 9.5t-56 29.5t-34 50.5t-4.5 71.5q6 40 26.5 70t49.5 50.5t64.5 30.5t71.5 10
q29 0 57.5 -6.5t52.5 -20.5l3 16q8 54 -19 79.5t-78 25.5q-31 0 -62 -5.5t-61 -16.5l17 109q35 8 70 14t70 6q22 0 45 -4t43 -13t36 -23.5t25 -34.5q35 38 83 56.5t96 18.5q60 0 101 -21t63.5 -57t29 -85t-2.5 -104l-3 -17h-323zM256 217q-30 0 -56 -17.5t-31 -49.5
q-3 -17 2 -30t15.5 -21t25 -12t29.5 -4q14 0 29.5 4.5t29 13.5t23 21.5t12.5 28.5q3 17 -3.5 29.5t-18.5 20.5t-27 12t-30 4zM692 310q0 19 -4 36.5t-13.5 31.5t-24.5 22.5t-35 8.5q-21 0 -38.5 -8.5t-31.5 -22t-24 -31.5t-16 -37h187z" />
    <glyph glyph-name="ccedilla" unicode="&#xe7;" horiz-adv-x="421" 
d="M295 -67l-138 -139l-68 38l122 148zM438 341q-19 23 -41 35.5t-54 12.5q-30 0 -55 -12.5t-44 -33.5t-32 -47t-17 -53q-5 -29 0 -54.5t19 -45t36 -30.5t52 -11q29 0 56 13t50 34l-22 -135q-31 -16 -62.5 -23t-63.5 -7q-54 0 -96.5 21t-69.5 56.5t-38 82.5t-2 100
q9 55 35.5 103t66 83.5t89 56t105.5 20.5q29 0 57.5 -7.5t51.5 -23.5z" />
    <glyph glyph-name="egrave" unicode="&#xe8;" horiz-adv-x="501" 
d="M325 774l93 -168l-78 -44l-127 150zM403 310q0 19 -4 36.5t-13.5 31.5t-24.5 22.5t-35 8.5q-21 0 -38.5 -8.5t-31.5 -22t-24 -31.5t-16 -37h187zM198 223q-4 -23 -2.5 -46.5t9.5 -42.5t25 -31t44 -12q35 0 60.5 19t44.5 48l126 -21q-38 -74 -104 -113.5t-144 -39.5
q-57 0 -99 19t-68.5 53.5t-36 81.5t-0.5 103t31.5 104.5t58 84.5t83 56.5t107.5 20.5t101 -21t63.5 -57t29 -85t-2.5 -104l-3 -17h-323z" />
    <glyph glyph-name="eacute" unicode="&#xe9;" horiz-adv-x="501" 
d="M515 712l-175 -150l-64 44l147 168zM403 310q0 19 -4 36.5t-13.5 31.5t-24.5 22.5t-35 8.5q-21 0 -38.5 -8.5t-31.5 -22t-24 -31.5t-16 -37h187zM198 223q-4 -23 -2.5 -46.5t9.5 -42.5t25 -31t44 -12q35 0 60.5 19t44.5 48l126 -21q-38 -74 -104 -113.5t-144 -39.5
q-57 0 -99 19t-68.5 53.5t-36 81.5t-0.5 103t31.5 104.5t58 84.5t83 56.5t107.5 20.5t101 -21t63.5 -57t29 -85t-2.5 -104l-3 -17h-323z" />
    <glyph glyph-name="ecircumflex" unicode="&#xea;" horiz-adv-x="501" 
d="M374 774l145 -154l-70 -66l-94 104l-126 -104l-50 66zM403 310q0 19 -4 36.5t-13.5 31.5t-24.5 22.5t-35 8.5q-21 0 -38.5 -8.5t-31.5 -22t-24 -31.5t-16 -37h187zM198 223q-4 -23 -2.5 -46.5t9.5 -42.5t25 -31t44 -12q35 0 60.5 19t44.5 48l126 -21q-38 -74 -104 -113.5
t-144 -39.5q-57 0 -99 19t-68.5 53.5t-36 81.5t-0.5 103t31.5 104.5t58 84.5t83 56.5t107.5 20.5t101 -21t63.5 -57t29 -85t-2.5 -104l-3 -17h-323z" />
    <glyph glyph-name="edieresis" unicode="&#xeb;" horiz-adv-x="501" 
d="M478 762q33 0 52.5 -23.5t14.5 -56.5q-3 -17 -11.5 -31.5t-21 -25t-28.5 -17t-32 -6.5q-33 0 -52.5 23.5t-14.5 56.5q3 16 11.5 31t21 25.5t28 17t32.5 6.5zM267 762q33 0 52.5 -23.5t14.5 -56.5q-3 -17 -11.5 -31.5t-21 -25t-28.5 -17t-32 -6.5q-33 0 -52.5 23.5
t-14.5 56.5q3 16 11.5 31t21 25.5t28 17t32.5 6.5zM403 310q0 19 -4 36.5t-13.5 31.5t-24.5 22.5t-35 8.5q-21 0 -38.5 -8.5t-31.5 -22t-24 -31.5t-16 -37h187zM198 223q-4 -23 -2.5 -46.5t9.5 -42.5t25 -31t44 -12q35 0 60.5 19t44.5 48l126 -21q-38 -74 -104 -113.5
t-144 -39.5q-57 0 -99 19t-68.5 53.5t-36 81.5t-0.5 103t31.5 104.5t58 84.5t83 56.5t107.5 20.5t101 -21t63.5 -57t29 -85t-2.5 -104l-3 -17h-323z" />
    <glyph glyph-name="igrave" unicode="&#xec;" horiz-adv-x="253" 
d="M216 774l93 -168l-78 -44l-127 150zM197 0h-140l78 491h140z" />
    <glyph glyph-name="iacute" unicode="&#xed;" horiz-adv-x="253" 
d="M376 712l-175 -150l-64 44l147 168zM197 0h-140l78 491h140z" />
    <glyph glyph-name="icircumflex" unicode="&#xee;" horiz-adv-x="253" 
d="M250 774l145 -154l-70 -66l-94 104l-126 -104l-50 66zM197 0h-140l78 491h140z" />
    <glyph glyph-name="idieresis" unicode="&#xef;" horiz-adv-x="253" 
d="M354 762q33 0 52.5 -23.5t14.5 -56.5q-3 -17 -11.5 -31.5t-21 -25t-28.5 -17t-32 -6.5q-33 0 -52.5 23.5t-14.5 56.5q3 16 11.5 31t21 25.5t28 17t32.5 6.5zM143 762q33 0 52.5 -23.5t14.5 -56.5q-3 -17 -11.5 -31.5t-21 -25t-28.5 -17t-32 -6.5q-33 0 -52.5 23.5
t-14.5 56.5q3 16 11.5 31t21 25.5t28 17t32.5 6.5zM197 0h-140l78 491h140z" />
    <glyph glyph-name="eth" unicode="&#xf0;" horiz-adv-x="548" 
d="M335 383q-27 0 -50.5 -12t-41.5 -31.5t-30 -44.5t-16 -50t0 -49.5t16 -44t31.5 -31.5t46.5 -12t50.5 12t41.5 31.5t30 44t16 49.5t0 50t-16 44.5t-31.5 31.5t-46.5 12zM308 861q21 -18 45 -42t47 -50l132 76l50 -60l-132 -77q22 -30 49.5 -71.5t48.5 -96t30 -124
t-5 -155.5q-13 -82 -47.5 -135.5t-78.5 -85t-91 -44t-85 -12.5q-52 0 -96 17.5t-74 51.5t-43 82.5t-3 110.5q9 59 36 106.5t65 81t85 51.5t97 18q29 0 46 -5t31 -10q-13 39 -30.5 73.5t-51.5 78.5l-132 -77l-50 61l132 76q-23 26 -42.5 45.5t-43.5 40.5z" />
    <glyph glyph-name="ntilde" unicode="&#xf1;" horiz-adv-x="540" 
d="M176 604q5 22 16.5 46.5t28.5 45t38.5 34t47.5 13.5q18 0 37 -6.5t36 -14.5q19 -8 34.5 -15t27.5 -7q21 0 32 12.5t22 29.5h83q-8 -24 -21 -49t-31 -45.5t-41 -33.5t-51 -13q-16 0 -32 7t-33 15t-33 15t-30 7q-19 0 -30.5 -12.5t-18.5 -28.5h-82zM261 446h2q27 33 63 47
t74 14q49 0 79.5 -16.5t45.5 -44.5t17.5 -65.5t-4.5 -80.5l-48 -300h-140l41 260q4 22 7 46t-0.5 43.5t-17 32.5t-43.5 13q-31 0 -50.5 -15.5t-31.5 -38.5t-17.5 -49.5t-9.5 -48.5l-38 -243h-140l78 491h140z" />
    <glyph glyph-name="ograve" unicode="&#xf2;" horiz-adv-x="548" 
d="M348 774l93 -168l-78 -44l-127 150zM335 383q-27 0 -50.5 -12t-41.5 -31.5t-30 -44.5t-16 -50t0 -49.5t16 -44t31.5 -31.5t46.5 -12t50.5 12t41.5 31.5t30 44t16 49.5t0 50t-16 44.5t-31.5 31.5t-46.5 12zM354 507q57 0 101.5 -19.5t73 -54t40 -83t2.5 -105.5t-35.5 -105
t-66 -82.5t-90 -54t-108.5 -19.5t-102 19.5t-72.5 54t-39.5 82.5t-2 105t35.5 105.5t66 83t90 54t107.5 19.5z" />
    <glyph glyph-name="oacute" unicode="&#xf3;" horiz-adv-x="548" 
d="M538 712l-175 -150l-64 44l147 168zM335 383q-27 0 -50.5 -12t-41.5 -31.5t-30 -44.5t-16 -50t0 -49.5t16 -44t31.5 -31.5t46.5 -12t50.5 12t41.5 31.5t30 44t16 49.5t0 50t-16 44.5t-31.5 31.5t-46.5 12zM354 507q57 0 101.5 -19.5t73 -54t40 -83t2.5 -105.5t-35.5 -105
t-66 -82.5t-90 -54t-108.5 -19.5t-102 19.5t-72.5 54t-39.5 82.5t-2 105t35.5 105.5t66 83t90 54t107.5 19.5z" />
    <glyph glyph-name="ocircumflex" unicode="&#xf4;" horiz-adv-x="548" 
d="M397 774l145 -154l-70 -66l-94 104l-126 -104l-50 66zM335 383q-27 0 -50.5 -12t-41.5 -31.5t-30 -44.5t-16 -50t0 -49.5t16 -44t31.5 -31.5t46.5 -12t50.5 12t41.5 31.5t30 44t16 49.5t0 50t-16 44.5t-31.5 31.5t-46.5 12zM354 507q57 0 101.5 -19.5t73 -54t40 -83
t2.5 -105.5t-35.5 -105t-66 -82.5t-90 -54t-108.5 -19.5t-102 19.5t-72.5 54t-39.5 82.5t-2 105t35.5 105.5t66 83t90 54t107.5 19.5z" />
    <glyph glyph-name="otilde" unicode="&#xf5;" horiz-adv-x="548" 
d="M180 604q5 22 16.5 46.5t28.5 45t38.5 34t47.5 13.5q18 0 37 -6.5t36 -14.5q19 -8 34.5 -15t27.5 -7q21 0 32 12.5t22 29.5h83q-8 -24 -21 -49t-31 -45.5t-41 -33.5t-51 -13q-16 0 -32 7t-33 15t-33 15t-30 7q-19 0 -30.5 -12.5t-18.5 -28.5h-82zM335 383
q-27 0 -50.5 -12t-41.5 -31.5t-30 -44.5t-16 -50t0 -49.5t16 -44t31.5 -31.5t46.5 -12t50.5 12t41.5 31.5t30 44t16 49.5t0 50t-16 44.5t-31.5 31.5t-46.5 12zM354 507q57 0 101.5 -19.5t73 -54t40 -83t2.5 -105.5t-35.5 -105t-66 -82.5t-90 -54t-108.5 -19.5t-102 19.5
t-72.5 54t-39.5 82.5t-2 105t35.5 105.5t66 83t90 54t107.5 19.5z" />
    <glyph glyph-name="odieresis" unicode="&#xf6;" horiz-adv-x="548" 
d="M501 762q33 0 52.5 -23.5t14.5 -56.5q-3 -17 -11.5 -31.5t-21 -25t-28.5 -17t-32 -6.5q-33 0 -52.5 23.5t-14.5 56.5q3 16 11.5 31t21 25.5t28 17t32.5 6.5zM290 762q33 0 52.5 -23.5t14.5 -56.5q-3 -17 -11.5 -31.5t-21 -25t-28.5 -17t-32 -6.5q-33 0 -52.5 23.5
t-14.5 56.5q3 16 11.5 31t21 25.5t28 17t32.5 6.5zM335 383q-27 0 -50.5 -12t-41.5 -31.5t-30 -44.5t-16 -50t0 -49.5t16 -44t31.5 -31.5t46.5 -12t50.5 12t41.5 31.5t30 44t16 49.5t0 50t-16 44.5t-31.5 31.5t-46.5 12zM354 507q57 0 101.5 -19.5t73 -54t40 -83t2.5 -105.5
t-35.5 -105t-66 -82.5t-90 -54t-108.5 -19.5t-102 19.5t-72.5 54t-39.5 82.5t-2 105t35.5 105.5t66 83t90 54t107.5 19.5z" />
    <glyph glyph-name="divide" unicode="&#xf7;" 
d="M83 315h512l-19 -118h-512zM373 532q35 0 55 -24.5t15 -58.5q-3 -17 -11.5 -32.5t-21.5 -26.5t-29.5 -17.5t-33.5 -6.5q-35 0 -55 24t-15 59q3 17 11.5 32t21.5 26.5t29.5 18t33.5 6.5zM312 146q35 0 55 -24.5t15 -58.5q-3 -17 -11.5 -32.5t-21.5 -26.5t-29.5 -17.5
t-33.5 -6.5q-35 0 -55 24t-15 59q3 17 11.5 32t21.5 26.5t29.5 18t33.5 6.5z" />
    <glyph glyph-name="oslash" unicode="&#xf8;" horiz-adv-x="564" 
d="M80 82q-40 66 -25 163q9 57 35.5 105.5t66 83t90 54t107.5 19.5q50 0 89.5 -14.5t68.5 -40.5l86 74l47 -50l-92 -80q15 -32 20 -70t-2 -81q-9 -57 -35.5 -105t-66 -82.5t-90 -54t-108.5 -19.5q-45 0 -82 12t-63 34l-83 -71l-47 51zM233 128q23 -20 58 -20q27 0 50.5 12
t41.5 31.5t30 44t16 49.5q3 26 0 50zM403 353q-27 30 -68 30q-27 0 -50.5 -12t-41.5 -31.5t-30 -44.5t-16 -50q-6 -32 4 -64z" />
    <glyph glyph-name="ugrave" unicode="&#xf9;" horiz-adv-x="535" 
d="M342 774l93 -168l-78 -44l-127 150zM265 491l-42 -266q-3 -21 -4 -43t4 -39.5t19 -29t41 -11.5t44.5 11.5t28.5 29t17.5 39.5t9.5 43l42 266h140l-46 -289q-17 -108 -81 -163t-174 -55t-156 55t-29 163l46 289h140z" />
    <glyph glyph-name="uacute" unicode="&#xfa;" horiz-adv-x="535" 
d="M532 712l-175 -150l-64 44l147 168zM265 491l-42 -266q-3 -21 -4 -43t4 -39.5t19 -29t41 -11.5t44.5 11.5t28.5 29t17.5 39.5t9.5 43l42 266h140l-46 -289q-17 -108 -81 -163t-174 -55t-156 55t-29 163l46 289h140z" />
    <glyph glyph-name="ucircumflex" unicode="&#xfb;" horiz-adv-x="535" 
d="M391 774l145 -154l-70 -66l-94 104l-126 -104l-50 66zM265 491l-42 -266q-3 -21 -4 -43t4 -39.5t19 -29t41 -11.5t44.5 11.5t28.5 29t17.5 39.5t9.5 43l42 266h140l-46 -289q-17 -108 -81 -163t-174 -55t-156 55t-29 163l46 289h140z" />
    <glyph glyph-name="udieresis" unicode="&#xfc;" horiz-adv-x="535" 
d="M495 762q33 0 52.5 -23.5t14.5 -56.5q-3 -17 -11.5 -31.5t-21 -25t-28.5 -17t-32 -6.5q-33 0 -52.5 23.5t-14.5 56.5q3 16 11.5 31t21 25.5t28 17t32.5 6.5zM284 762q33 0 52.5 -23.5t14.5 -56.5q-3 -17 -11.5 -31.5t-21 -25t-28.5 -17t-32 -6.5q-33 0 -52.5 23.5
t-14.5 56.5q3 16 11.5 31t21 25.5t28 17t32.5 6.5zM265 491l-42 -266q-3 -21 -4 -43t4 -39.5t19 -29t41 -11.5t44.5 11.5t28.5 29t17.5 39.5t9.5 43l42 266h140l-46 -289q-17 -108 -81 -163t-174 -55t-156 55t-29 163l46 289h140z" />
    <glyph glyph-name="yacute" unicode="&#xfd;" horiz-adv-x="520" 
d="M539 712l-175 -150l-64 44l147 168zM60 491h159l73 -279l170 279h156l-476 -753h-154l215 337z" />
    <glyph glyph-name="thorn" unicode="&#xfe;" horiz-adv-x="565" 
d="M309 108q27 0 50.5 12.5t41.5 32t30 44t16 49.5t0 49.5t-16 44t-31.5 31.5t-46.5 12t-50.5 -12t-41.5 -31.5t-30 -44t-16 -49.5t0 -49.5t16 -44t31.5 -32t46.5 -12.5zM261 446q29 29 67.5 45t77.5 16q52 0 90 -22.5t61.5 -59t31.5 -83t0 -94.5q-8 -50 -30.5 -97.5
t-57.5 -84.5t-81 -59.5t-100 -22.5q-38 0 -71 16t-50 46h-2l-48 -308h-140l175 1110h140z" />
    <glyph glyph-name="ydieresis" unicode="&#xff;" horiz-adv-x="520" 
d="M495 762q33 0 52.5 -23.5t14.5 -56.5q-3 -17 -11.5 -31.5t-21 -25t-28.5 -17t-32 -6.5q-33 0 -52.5 23.5t-14.5 56.5q3 16 11.5 31t21 25.5t28 17t32.5 6.5zM284 762q33 0 52.5 -23.5t14.5 -56.5q-3 -17 -11.5 -31.5t-21 -25t-28.5 -17t-32 -6.5q-33 0 -52.5 23.5
t-14.5 56.5q3 16 11.5 31t21 25.5t28 17t32.5 6.5zM60 491h159l73 -279l170 279h156l-476 -753h-154l215 337z" />
    <glyph glyph-name="OE" unicode="&#x152;" horiz-adv-x="1039" 
d="M477 629q-50 0 -94 -22t-78.5 -58t-57.5 -81.5t-30 -92.5q-7 -46 1.5 -91t31.5 -80t60 -57t87 -22q51 0 95 22t78.5 57t57 80t29.5 91q7 47 -1 92.5t-31 81.5t-60 58t-88 22zM830 459h227l-21 -128h-227l-32 -203h238l-20 -128h-384l13 85q-53 -52 -115.5 -78.5
t-131.5 -26.5q-78 0 -139 34t-101 89.5t-56 126.5t-4 145q12 76 50 147.5t95 127.5t129 90t152 34q66 0 123 -27t89 -78h2l13 85h384l-20 -128h-238z" />
    <glyph glyph-name="oe" unicode="&#x153;" horiz-adv-x="873" 
d="M571 223q-4 -23 -2.5 -46.5t9.5 -42.5t25 -31t44 -12q35 0 60.5 19t44.5 48l126 -21q-38 -74 -104 -113.5t-144 -39.5q-57 0 -101 20t-67 65q-40 -45 -91 -65t-102 -20q-58 0 -102 19.5t-72.5 54t-39.5 82.5t-2 105t35.5 105.5t66 83t90 54t107.5 19.5q51 0 94 -20
t72 -62q38 43 87 62.5t101 19.5q60 0 101 -21t63.5 -57t29 -85t-2.5 -104l-3 -17h-323zM333 383q-27 0 -50.5 -12t-41.5 -31.5t-30 -44.5t-16 -50t0 -49.5t16 -44t31.5 -31.5t46.5 -12t50.5 12t41.5 31.5t30 44t16 49.5t0 50t-16 44.5t-31.5 31.5t-46.5 12zM771 310
q0 19 -4 36.5t-13.5 31.5t-24.5 22.5t-35 8.5q-21 0 -38.5 -8.5t-31.5 -22t-24 -31.5t-16 -37h187z" />
    <glyph glyph-name="Scaron" unicode="&#x160;" horiz-adv-x="526" 
d="M318 1002l101 -104l136 104l49 -65l-203 -155l-154 155zM502 588q-17 29 -41.5 45.5t-61.5 16.5q-18 0 -35.5 -6.5t-32 -17.5t-25 -27t-13.5 -34q-5 -32 14 -51t50 -34t67.5 -31t65.5 -42t45 -66t6 -103q-9 -57 -33.5 -104t-62 -81.5t-86.5 -53.5t-107 -19
q-78 0 -129 40.5t-80 106.5l110 93q4 -22 14 -42t25.5 -35t35 -24t43.5 -9q22 0 41.5 9t34.5 24t25 34.5t14 41.5q4 29 -5 49t-25.5 33.5t-38.5 22.5t-43 18q-34 15 -62 32.5t-46.5 41.5t-26 56t-0.5 76q7 47 30.5 88t57.5 72t77 48.5t91 17.5q25 0 53 -6t54 -17t48.5 -26.5
t36.5 -34.5z" />
    <glyph glyph-name="scaron" unicode="&#x161;" horiz-adv-x="410" 
d="M209 774l101 -104l136 104l49 -65l-203 -155l-154 155zM361 375q-13 14 -30 24t-38 10q-17 0 -33.5 -12t-19.5 -30q-2 -14 5 -23t20.5 -16.5t30.5 -14t34 -14.5q18 -8 34.5 -19t28 -27.5t16.5 -39.5t0 -55q-6 -41 -26.5 -73t-50.5 -54.5t-66.5 -34.5t-75.5 -12
q-50 0 -92 21.5t-68 60.5l78 83q17 -23 40.5 -40t54.5 -17q23 0 41.5 14.5t22.5 38.5q3 16 -4 26.5t-19.5 18.5t-29 14.5t-33.5 14.5t-33 18t-27.5 25t-17 35.5t-0.5 50.5q6 34 22 63.5t40 50.5t54 33t65 12q19 0 40.5 -3t41.5 -9.5t37.5 -16t30.5 -22.5z" />
    <glyph glyph-name="Ydieresis" unicode="&#x178;" horiz-adv-x="587" 
d="M557 990q33 0 52.5 -23.5t14.5 -56.5q-3 -17 -11.5 -31.5t-21 -25t-28.5 -17t-32 -6.5q-33 0 -52.5 23.5t-14.5 56.5q3 16 11.5 31t21 25.5t28 17t32.5 6.5zM346 990q33 0 52.5 -23.5t14.5 -56.5q-3 -17 -11.5 -31.5t-21 -25t-28.5 -17t-32 -6.5q-33 0 -52.5 23.5
t-14.5 56.5q3 16 11.5 31t21 25.5t28 17t32.5 6.5zM103 754h171l91 -262l185 262h172l-302 -408l-55 -346h-147l55 346z" />
    <glyph glyph-name="florin" unicode="&#x192;" 
d="M568 504l-22 -72h-108l-93 -291q-21 -65 -44.5 -121t-59 -97t-87.5 -65t-128 -24l-56 4l40 126l33 -2q32 0 58.5 10t47.5 39q9 13 18 32.5t17 41t15 42t12 35.5l85 270h-60l22 72h62l37 115q15 45 34.5 83.5t48 67t66 45t88.5 16.5q23 0 44.5 -5t39.5 -16l-39 -121
q-13 8 -26 12.5t-30 4.5q-22 0 -37.5 -12.5t-26.5 -31t-18.5 -39t-12.5 -36.5l-27 -83h107z" />
    <glyph glyph-name="circumflex" unicode="&#x2c6;" horiz-adv-x="400" 
d="M323 774l145 -154l-70 -66l-94 104l-126 -104l-50 66z" />
    <glyph glyph-name="tilde" unicode="&#x2dc;" horiz-adv-x="400" 
d="M106 604q5 22 16.5 46.5t28.5 45t38.5 34t47.5 13.5q18 0 37 -6.5t36 -14.5q19 -8 34.5 -15t27.5 -7q21 0 32 12.5t22 29.5h83q-8 -24 -21 -49t-31 -45.5t-41 -33.5t-51 -13q-16 0 -32 7t-33 15t-33 15t-30 7q-19 0 -30.5 -12.5t-18.5 -28.5h-82z" />
    <glyph glyph-name="endash" unicode="&#x2013;" horiz-adv-x="500" 
d="M560 378l-18 -115h-500l18 115h500z" />
    <glyph glyph-name="emdash" unicode="&#x2014;" horiz-adv-x="1000" 
d="M930 378l-18 -115h-740l18 115h740z" />
    <glyph glyph-name="quoteleft" unicode="&#x2018;" horiz-adv-x="296" 
d="M105 473l192 301l91 -11l-156 -304z" />
    <glyph glyph-name="quoteright" unicode="&#x2019;" horiz-adv-x="296" 
d="M387 759l-191 -300l-92 11l158 304z" />
    <glyph glyph-name="quotesinglbase" unicode="&#x201a;" horiz-adv-x="296" 
d="M289 142l-191 -301l-91 11l157 304z" />
    <glyph glyph-name="quotedblleft" unicode="&#x201c;" horiz-adv-x="488" 
d="M105 473l192 301l91 -11l-156 -304zM296 473l192 301l91 -11l-156 -304z" />
    <glyph glyph-name="quotedblright" unicode="&#x201d;" horiz-adv-x="488" 
d="M578 759l-191 -300l-92 11l158 304zM387 759l-191 -300l-92 11l158 304z" />
    <glyph glyph-name="quotedblbase" unicode="&#x201e;" horiz-adv-x="488" 
d="M480 142l-191 -301l-91 11l157 304zM289 142l-191 -301l-91 11l157 304z" />
    <glyph glyph-name="dagger" unicode="&#x2020;" horiz-adv-x="577" 
d="M488 848l-38 -240h162l-18 -116h-162l-93 -589h-131l93 589h-162l18 116h162l38 240h131z" />
    <glyph glyph-name="daggerdbl" unicode="&#x2021;" horiz-adv-x="577" 
d="M488 848l-33 -211h162l-18 -116h-162l-22 -133h162l-18 -116h-162l-58 -368h-131l58 368h-162l18 116h162l22 133h-162l18 116h162l33 211h131z" />
    <glyph glyph-name="bullet" unicode="&#x2022;" horiz-adv-x="577" 
d="M318 189q-39 0 -70.5 14.5t-53.5 40t-31 60t-3 73.5t26 73.5t49.5 60t66.5 40.5t76 15t71 -15t53.5 -40.5t31 -60t3.5 -73.5t-26.5 -73.5t-50.5 -60t-66.5 -40t-75.5 -14.5z" />
    <glyph glyph-name="ellipsis" unicode="&#x2026;" horiz-adv-x="1000" 
d="M858 158q37 0 59 -25.5t16 -62.5q-3 -18 -12.5 -34.5t-23.5 -29t-31.5 -19.5t-35.5 -7q-37 0 -59 26.5t-16 63.5t36 62.5t67 25.5zM525 158q37 0 59 -25.5t16 -62.5q-3 -18 -12.5 -34.5t-23.5 -29t-31.5 -19.5t-35.5 -7q-37 0 -59 26.5t-16 63.5t36 62.5t67 25.5z
M192 161q37 0 59 -25.5t17 -62.5q-3 -18 -12.5 -34.5t-24 -29t-32 -19.5t-35.5 -7q-37 0 -58.5 26.5t-15.5 63.5q3 18 12 34t23 28t31.5 19t35.5 7z" />
    <glyph glyph-name="perthousand" unicode="&#x2030;" horiz-adv-x="1200" 
d="M1040 256q-19 0 -35 -9t-29 -23t-21 -31.5t-11 -34.5t0 -34.5t11 -31.5t21.5 -22.5t32.5 -8.5t35 8.5t28.5 22.5t20.5 31.5t11 34.5t0 34.5t-11 31.5t-21 23t-32 9zM1052 337q38 0 68.5 -13.5t51 -37t29 -56.5t2.5 -72t-24.5 -71.5t-46.5 -56t-62.5 -37t-73.5 -13.5
t-69.5 13.5t-50.5 37t-28.5 56t-2.5 71.5t24.5 72t46.5 56.5t63 37t73 13.5zM645 256q-19 0 -35 -9t-29 -23t-21 -31.5t-11 -34.5t0 -34.5t11 -31.5t21.5 -22.5t32.5 -8.5t35 8.5t28.5 22.5t20.5 31.5t11 34.5t0 34.5t-11 31.5t-21 23t-32 9zM657 337q38 0 68.5 -13.5
t51 -37t29 -56.5t2.5 -72t-24.5 -71.5t-46.5 -56t-62.5 -37t-73.5 -13.5t-69.5 13.5t-50.5 37t-28.5 56t-2.5 71.5t24.5 72t46.5 56.5t63 37t73 13.5zM756 746l-527 -777l-63 35l528 776zM312 693q-19 0 -35 -9t-28.5 -23t-21 -31.5t-11.5 -34.5t0 -34.5t11 -31.5
t21.5 -22.5t32.5 -8.5t35 8.5t28.5 22.5t20.5 31.5t11 34.5t0.5 34.5t-10.5 31.5t-21.5 23t-32.5 9zM325 774q38 0 68.5 -13.5t51 -37t28.5 -56.5t2 -72t-24.5 -71.5t-46.5 -56t-62.5 -37t-73.5 -13.5t-69.5 13.5t-50.5 37t-28.5 56t-2.5 71.5t25 72t47 56.5t63 37t73 13.5z
" />
    <glyph glyph-name="guilsinglleft" unicode="&#x2039;" horiz-adv-x="314" 
d="M286 138l-96 -58l-121 240l197 243l77 -56l-153 -187z" />
    <glyph glyph-name="guilsinglright" unicode="&#x203a;" horiz-adv-x="314" 
d="M226 320l-95 187l95 56l121 -243l-197 -240l-78 58z" />
    <glyph glyph-name="trademark" unicode="&#x2122;" horiz-adv-x="1000" 
d="M1011 333h-86l53 335h-2l-175 -335h-83l-65 335h-2l-53 -335h-86l66 421h149l55 -275h2l145 275h148zM490 679h-127l-55 -346h-86l55 346h-127l11 75h340z" />
    <glyph glyph-name="fraction" horiz-adv-x="179" 
d="M443 746l-527 -777l-63 35l528 776z" />
    <glyph glyph-name="fi" horiz-adv-x="544" 
d="M541 780q35 0 55 -24.5t14 -58.5q-3 -17 -11.5 -32.5t-21.5 -26.5t-29.5 -17.5t-33.5 -6.5q-35 0 -55 24t-15 59q6 34 34 58.5t63 24.5zM487 0h-140l78 491h140zM195 0h-140l59 373h-47l19 118h47l23 144q7 45 23.5 86t43 71.5t64.5 49t89 18.5q36 0 65 -16l-20 -125
q-13 7 -25.5 12t-28.5 5q-23 0 -37 -13.5t-21.5 -32t-10.5 -39.5t-6 -36l-19 -124h112l-19 -118h-112z" />
    <glyph glyph-name="fl" horiz-adv-x="543" 
d="M195 0h-140l59 373h-47l19 118h47l23 144q7 45 23.5 86t43 71.5t64.5 49t89 18.5q36 0 65 -16l-20 -125q-13 7 -25.5 12t-28.5 5q-23 0 -37 -13.5t-21.5 -32t-10.5 -39.5t-6 -36l-19 -124h112l-19 -118h-112zM493 0h-140l134 848h140z" />
    <glyph glyph-name="breve" horiz-adv-x="400" 
d="M244 754q2 -30 16.5 -50.5t47.5 -20.5t54 20.5t32 50.5h98q-9 -35 -27.5 -63.5t-44.5 -49t-58 -32t-67 -11.5t-63.5 11.5t-48 32t-29.5 49t-8 63.5h98z" />
    <glyph glyph-name="dotaccent" horiz-adv-x="380" 
d="M311 762q33 0 52.5 -23.5t14.5 -56.5q-3 -17 -11.5 -31.5t-21 -25t-28.5 -17t-32 -6.5q-33 0 -52.5 23.5t-14.5 56.5q3 16 11.5 31t21 25.5t28 17t32.5 6.5z" />
    <glyph glyph-name="ring" horiz-adv-x="380" 
d="M303 715q-17 0 -31 -12t-16 -29q-3 -17 7 -29.5t27 -12.5t31 12.5t17 29.5q2 17 -8 29t-27 12zM313 774q42 0 66 -29t18 -71q-3 -21 -14 -39.5t-27 -32t-35 -21.5t-40 -8t-38 8t-28 21.5t-16 32t-2 39.5t14 39t26.5 31.5t35 21.5t40.5 8z" />
    <glyph glyph-name="hungarumlaut" horiz-adv-x="420" 
d="M529 712l-175 -150l-64 44l147 168zM340 712l-175 -150l-64 44l147 168z" />
    <glyph glyph-name="ogonek" horiz-adv-x="380" 
d="M240 -20v-2q-22 -13 -42.5 -33.5t-24.5 -46.5q-3 -19 7 -32.5t30 -13.5q14 0 26 4t24 12l-26 -75q-16 -10 -35.5 -14t-36.5 -4q-19 0 -36 6t-29 17t-17.5 27t-2.5 36q6 38 33.5 68.5t59.5 50.5h70z" />
    <glyph glyph-name="caron" horiz-adv-x="400" 
d="M204 774l101 -104l136 104l49 -65l-203 -155l-154 155z" />
    <glyph glyph-name="Lslash" horiz-adv-x="434" 
d="M74 378l80 50l51 326h147l-36 -230l118 73l-20 -126l-118 -72l-43 -271h208l-20 -128h-355l48 303l-80 -49z" />
    <glyph glyph-name="dotlessi" horiz-adv-x="253" 
d="M197 0h-140l78 491h140z" />
    <glyph glyph-name="lslash" horiz-adv-x="283" 
d="M131 374l-82 -50l17 106l82 50l58 368h140l-44 -279l81 49l-17 -106l-81 -49l-73 -463h-140z" />
    <glyph glyph-name="minus" 
d="M83 315h512l-19 -118h-512z" />
    </font>
</defs>
</svg>
