<?xml version="1.0" standalone="no"?>
<!DOCTYPE svg PUBLIC "-//W3C//DTD SVG 1.1//EN" "http://www.w3.org/Graphics/SVG/1.1/DTD/svg11.dtd" >
<svg xmlns="http://www.w3.org/2000/svg" xmlns:xlink="http://www.w3.org/1999/xlink" version="1.1">
<metadata>
Created by FontForge 20170731 at Fri Jul 27 19:53:14 2001
 By Aleksey,,,
Copyright (c) 1987, 1991, 1993 Adobe Systems Incorporated.  All Rights Reserved.Futura is a registered trademark of Fundicion Tipografica Neufville S. A.
</metadata>
<defs>
<font id="FuturaLT-BookOblique" horiz-adv-x="616" >
  <font-face 
    font-family="Futura LT Book"
    font-weight="400"
    font-style="oblique"
    font-stretch="normal"
    units-per-em="1000"
    panose-1="2 0 5 4 3 0 0 9 0 3"
    ascent="800"
    descent="-200"
    x-height="470"
    cap-height="754"
    bbox="-159 -293 1242 1006"
    underline-thickness="50"
    underline-position="-175"
    slope="-9"
    unicode-range="U+0020-2122"
  />
<missing-glyph horiz-adv-x="500" 
d="M442 8v496h-384v-496h384zM50 512h400v-512h-400v512z" />
    <glyph glyph-name=".notdef" horiz-adv-x="500" 
d="M442 8v496h-384v-496h384zM50 512h400v-512h-400v512z" />
    <glyph glyph-name=".null" horiz-adv-x="0" 
 />
    <glyph glyph-name="nonmarkingreturn" horiz-adv-x="308" 
 />
    <glyph glyph-name="space" unicode=" " horiz-adv-x="308" 
 />
    <glyph glyph-name="exclam" unicode="!" horiz-adv-x="338" 
d="M247 754h82l-95 -601h-82zM185 99q23 0 37 -16t10 -39t-23 -40t-42 -17t-37 17t-10 40t23 39t42 16z" />
    <glyph glyph-name="quotedbl" unicode="&#x22;" horiz-adv-x="457" 
d="M474 754l-70 -328h-58l34 328h94zM315 754l-70 -328h-58l34 328h94z" />
    <glyph glyph-name="numbersign" unicode="#" 
d="M285 301h123l56 171h-123zM432 754l-68 -204h124l67 204h79l-67 -204h92l-12 -78h-105l-56 -171h101l-13 -78h-115l-75 -223h-76l74 223h-123l-77 -223h-75l74 223h-102l13 78h115l56 171h-107l12 78h119l68 204h77z" />
    <glyph glyph-name="dollar" unicode="$" 
d="M349 374q-32 14 -61 31t-50 40.5t-31 54t-3 72.5q6 39 24.5 71.5t46.5 57t63 40t73 20.5l16 103h66l-16 -103q50 -7 87 -38t52 -76l-72 -43q-11 26 -30 48.5t-50 28.5l-39 -247q34 -16 65 -34.5t52.5 -43t31.5 -57.5t3 -78q-7 -42 -26.5 -79t-49 -67t-67 -51t-79.5 -29
l-17 -110h-66l16 104q-40 2 -73.5 17.5t-58 42t-38.5 61t-15 73.5l85 23q-1 -26 7 -50t22.5 -42.5t36 -30.5t47.5 -14zM398 682q-42 -8 -73 -39.5t-38 -73.5q-3 -21 2.5 -37t16.5 -29t26.5 -23t30.5 -17zM368 76q50 16 83.5 54.5t41.5 88.5q4 24 -1.5 43t-17.5 34t-29 27
t-35 21z" />
    <glyph glyph-name="percent" unicode="%" horiz-adv-x="797" 
d="M638 252q-21 0 -41 -8t-36.5 -21.5t-28 -32t-14.5 -39.5t2.5 -39t17.5 -31.5t29.5 -21.5t38.5 -8t41 8t36.5 21.5t28 31.5t14.5 39t-2.5 39.5t-17.5 32t-29.5 21.5t-38.5 8zM648 316q34 0 63 -12.5t48.5 -35t28 -52.5t2.5 -65t-24 -64.5t-44.5 -52t-59 -35t-66.5 -12.5
t-62.5 12.5t-48 34.5t-28.5 52t-3 65t24 65t44 52.5t58.5 35t67.5 12.5zM755 743l-556 -756l-39 26l558 754zM311 703q-21 0 -41 -8t-36.5 -21.5t-28 -32t-14.5 -39.5t2.5 -39t18 -31.5t30 -21.5t38.5 -8t41 8t36.5 21.5t27.5 31.5t14 39t-2.5 39.5t-17.5 32t-29.5 21.5
t-38.5 8zM321 767q34 0 63 -12.5t48.5 -35t28 -52.5t2.5 -65q-5 -35 -23.5 -64.5t-45 -52t-59 -35t-66.5 -12.5t-62.5 12.5t-48 34.5t-28 52t-3.5 65q6 35 24 65t44 52.5t58.5 35t67.5 12.5z" />
    <glyph glyph-name="ampersand" unicode="&#x26;" horiz-adv-x="695" 
d="M303 361q-24 -15 -48.5 -31t-45.5 -35.5t-36.5 -43t-19.5 -52.5q-5 -27 2 -51.5t22.5 -43t37.5 -30t49 -11.5q28 0 56.5 10t55.5 25.5t52.5 34t48.5 36.5l-134 216zM517 106q-29 -23 -60 -44t-63.5 -38t-67 -27t-69.5 -10q-43 0 -80.5 15.5t-63.5 42.5t-38 65t-5 83
q7 47 28.5 83t52 65t67.5 53t76 47l10 6q-10 18 -20.5 36.5t-18.5 38t-11.5 41t0.5 44.5q6 36 23 65.5t42.5 50.5t57.5 32.5t67 11.5q32 0 59.5 -11t46.5 -30.5t27.5 -46.5t3.5 -60q-5 -34 -21 -60.5t-38.5 -49t-49.5 -41.5t-54 -37l127 -203l101 99l53 -50l-114 -112
l102 -165h-106zM388 497q18 12 36.5 24.5t34.5 26.5t27.5 31t14.5 40q5 35 -16 56t-54 21q-17 0 -33 -6.5t-29 -17.5t-22 -26t-12 -33q-2 -14 0 -26.5t7 -24.5t11.5 -23t12.5 -22l14 -25z" />
    <glyph glyph-name="quotesingle" unicode="'" horiz-adv-x="289" 
d="M311 754l-70 -328h-58l34 328h94z" />
    <glyph glyph-name="parenleft" unicode="(" horiz-adv-x="287" 
d="M374 754q-60 -114 -98 -235t-58 -245t-20.5 -245t24.5 -235l-76 -34q-17 56 -24.5 120.5t-7.5 131.5t6.5 134t15.5 128q10 61 25 128t36 134t49 131.5t63 120.5z" />
    <glyph glyph-name="parenright" unicode=")" horiz-adv-x="287" 
d="M228 788q17 -56 24.5 -120.5t7 -131.5t-6.5 -134t-16 -128q-9 -61 -24 -128t-36 -134t-49 -131.5t-63 -120.5l-66 34q61 114 98.5 235t57.5 245t21 245t-25 235z" />
    <glyph glyph-name="asterisk" unicode="*" horiz-adv-x="592" 
d="M378 754h75l-28 -140l140 49l13 -72l-142 -38l69 -110l-68 -45l-59 118l-97 -118l-54 45l106 110l-130 38l35 72l124 -49z" />
    <glyph glyph-name="plus" unicode="+" 
d="M426 498l-32 -203h203l-13 -78h-203l-32 -203h-78l32 203h-203l13 78h203l32 203h78z" />
    <glyph glyph-name="comma" unicode="," horiz-adv-x="308" 
d="M238 84l-153 -256l-51 22l134 260z" />
    <glyph glyph-name="hyphenminus" unicode="-" horiz-adv-x="208" 
d="M251 278l-12 -74h-205l12 74h205z" />
    <glyph glyph-name="period" unicode="." horiz-adv-x="308" 
d="M170 99q23 0 37 -16t10 -39t-23 -40t-42 -17t-37 17t-10 40t23 39t42 16z" />
    <glyph glyph-name="slash" unicode="/" horiz-adv-x="570" 
d="M678 795l-620 -952l-60 30l619 952z" />
    <glyph glyph-name="zero" unicode="0" 
d="M417 689q-53 0 -94.5 -34.5t-71 -84t-47 -104t-23.5 -94.5q-4 -26 -5 -59.5t3 -67.5t13 -66.5t25.5 -57.5t41 -40.5t59.5 -15.5t64.5 15.5t54 40.5t44 57.5t34 66.5t24 67t14.5 60t6.5 61t-2 69t-12.5 68.5t-25.5 60t-42 42.5t-60.5 16zM429 767q48 0 83.5 -18t61 -48.5
t41 -70.5t22.5 -83.5t7 -87.5t-6 -83q-11 -70 -40 -139.5t-72.5 -125t-99.5 -90t-120 -34.5q-65 0 -109.5 34.5t-70 90t-32.5 125t4 139.5q6 39 19.5 83t34.5 87.5t49 83.5t62.5 70.5t76 48.5t89.5 18z" />
    <glyph glyph-name="one" unicode="1" 
d="M265 676l56 78h165l-119 -754h-84l107 676h-125z" />
    <glyph glyph-name="two" unicode="2" 
d="M541 78l-12 -78h-488l419 417q27 27 46 58t25 68q5 31 -3 58t-25 46.5t-42.5 30.5t-56.5 11q-34 0 -63.5 -12t-52.5 -32.5t-38.5 -49t-21.5 -61.5h-84q9 49 33 92t60 74t81 49t95 18q47 0 87.5 -16.5t68.5 -46t41 -70.5t5 -90q-8 -46 -27.5 -85.5t-54.5 -73.5l-310 -307
h318z" />
    <glyph glyph-name="three" unicode="3" 
d="M340 435q30 1 58 7t50.5 19.5t38 36.5t21.5 59q10 60 -20.5 96t-90.5 36q-57 0 -93 -33.5t-50 -87.5h-83q23 90 85 144.5t155 54.5q45 0 82 -15t61.5 -42t35 -65t3.5 -84q-4 -25 -14.5 -49.5t-26.5 -46.5t-36.5 -39.5t-45.5 -29.5q51 -25 69.5 -76t8.5 -109
q-8 -50 -32.5 -91t-61 -70.5t-82 -46t-93.5 -16.5q-46 0 -84 15t-64 42.5t-38 66t-5 85.5h82q-3 -29 5.5 -53t25 -41.5t40.5 -27t53 -9.5q31 0 60 12t52 32.5t38.5 48t20.5 58.5q11 72 -28.5 107.5t-108.5 33.5z" />
    <glyph glyph-name="four" unicode="4" 
d="M478 541h-2l-291 -341h239zM601 200l-13 -78h-93l-19 -122h-84l19 122h-386l575 674h2l-94 -596h93z" />
    <glyph glyph-name="five" unicode="5" 
d="M389 676l-74 -161l45 4q56 0 99 -20.5t70.5 -56t38.5 -83.5t2 -103q-9 -59 -38.5 -108t-73 -85t-97 -56t-111.5 -20q-75 0 -128.5 35.5t-81.5 99.5l75 48q18 -46 57 -75.5t93 -29.5q42 0 79 14.5t66.5 40.5t49 61.5t26.5 76.5q6 40 -3 73.5t-30.5 58t-54 38t-71.5 13.5
t-77 -13.5t-74 -34.5l166 361h300l-12 -78h-241z" />
    <glyph glyph-name="six" unicode="6" 
d="M314 65q37 0 71 14t62 38t46.5 56.5t24.5 69.5t-2.5 68.5t-29 55t-50.5 37t-66 13.5q-37 0 -71 -13.5t-61.5 -37t-46.5 -55t-25 -68.5t3 -69.5t29 -56.5t49.5 -38t66.5 -14zM540 720l-211 -234l2 -2q33 11 67 11q51 0 92.5 -20t69.5 -53.5t39.5 -79t3.5 -96.5
q-9 -54 -37 -101t-69 -82.5t-91.5 -55.5t-103.5 -20q-54 0 -98 20.5t-74 55.5t-43 82t-4 100q8 52 35 96.5t62 84.5l304 341z" />
    <glyph glyph-name="seven" unicode="7" 
d="M158 676l12 78h556l-627 -767l-60 39l531 650h-412z" />
    <glyph glyph-name="eight" unicode="8" 
d="M417 689q-27 0 -52.5 -10t-46 -28t-34.5 -41.5t-18 -50.5q-5 -27 1.5 -51t21.5 -42t37.5 -28.5t49.5 -10.5t52.5 10.5t46 28.5t34.5 42t19 51q4 27 -2.5 50.5t-21.5 41.5t-37.5 28t-49.5 10zM429 767q44 0 80 -16t60 -44t34.5 -66.5t3.5 -83.5q-8 -50 -39 -95t-79 -70
q50 -24 71 -73.5t11 -107.5q-8 -49 -32 -90t-59.5 -71t-80 -46.5t-93.5 -16.5t-88.5 16.5t-65.5 46.5t-37.5 71t-3.5 90q10 58 46.5 107.5t93.5 73.5q-40 25 -57 70t-9 95q7 45 29.5 83.5t55.5 66.5t74 44t85 16zM364 355q-31 0 -59.5 -11.5t-51 -31t-38 -46t-20.5 -56.5
t2.5 -56.5t24 -46t41 -31t55.5 -11.5t59.5 11.5t51.5 31t38 46t20 56.5t-2 56.5t-23.5 46t-41.5 31t-56 11.5z" />
    <glyph glyph-name="nine" unicode="9" 
d="M414 689q-37 0 -71 -14t-61.5 -38t-46.5 -56t-25 -68q-6 -37 3 -68.5t29 -55t50 -37t67 -13.5q36 0 70.5 13.5t62 37t46 55t24.5 68.5q6 36 -2.5 68t-29 56t-50.5 38t-66 14zM187 30l212 239l-2 2q-16 -5 -33 -7.5t-34 -2.5q-52 0 -93.5 19.5t-68.5 53.5t-38.5 79.5
t-3.5 96.5q8 54 36 100.5t69 81.5t91.5 55t103.5 20t97 -20t74 -55t43.5 -81.5t5.5 -100.5q-8 -51 -35.5 -95.5t-63.5 -85.5l-304 -342z" />
    <glyph glyph-name="colon" unicode=":" horiz-adv-x="308" 
d="M230 483q23 0 37.5 -16t10.5 -39t-23 -40t-42 -17t-37 17t-10 40t22.5 39t41.5 16zM170 99q23 0 37 -16t10 -39t-23 -40t-42 -17t-37 17t-10 40t23 39t42 16z" />
    <glyph glyph-name="semicolon" unicode=";" horiz-adv-x="308" 
d="M255 483q23 0 37.5 -16t10.5 -39t-23 -40t-42 -17t-37 17t-10 40t22.5 39t41.5 16zM240 84l-153 -256l-51 22l134 260z" />
    <glyph glyph-name="less" unicode="&#x3c;" 
d="M615 413l-392 -157l343 -157l-14 -85l-451 207l11 70l517 207z" />
    <glyph glyph-name="equal" unicode="=" 
d="M584 217l-12 -78h-484l12 78h484zM609 373l-12 -78h-484l12 78h484z" />
    <glyph glyph-name="greater" unicode="&#x3e;" 
d="M145 498l451 -207l-11 -70l-517 -207l14 85l393 157l-344 157z" />
    <glyph glyph-name="question" unicode="?" horiz-adv-x="488" 
d="M258 99q23 0 37 -16t10 -39t-23 -40t-42 -17t-37 17t-10 40t23 39t42 16zM458 328q-5 -36 -21.5 -67.5t-42 -55t-58 -37t-68.5 -13.5q-35 0 -63 12.5t-46.5 34.5t-26 51.5t-2.5 64.5q6 34 20.5 58.5t36 42.5t48.5 30.5t57 21.5q25 7 49 14.5t43.5 19.5t33.5 31t19 50
q7 46 -17.5 75t-69.5 29q-21 0 -40.5 -7.5t-34.5 -21t-25 -31.5t-13 -39q-2 -12 -2.5 -24t0.5 -24h-83l4 53q6 39 26 70.5t48.5 54t64 34.5t72.5 12q38 0 69 -14t51.5 -38t29 -57t2.5 -71q-6 -37 -25 -73t-50 -61q-30 -23 -68.5 -35.5t-73.5 -22.5q-34 -9 -59.5 -27
t-31.5 -56q-5 -34 15.5 -57t54.5 -23q21 0 37.5 8t28.5 21.5t19.5 30.5t10.5 36h81z" />
    <glyph glyph-name="at" unicode="@" horiz-adv-x="800" 
d="M632 566h71l-91 -255q-5 -12 -10 -27t-7 -28t1.5 -21.5t16.5 -8.5q17 0 39.5 16.5t43.5 43.5t38 61t25 70q14 66 2.5 117.5t-44 87.5t-82 54.5t-110.5 18.5q-67 0 -127 -24t-107.5 -66.5t-79.5 -101t-43 -126.5q-12 -72 4 -130.5t53 -100.5t92.5 -64.5t123.5 -22.5
q127 0 199 46l62 -51q-57 -27 -123 -47t-157 -20q-81 0 -147 29.5t-110 81.5t-63.5 123.5t-5.5 155.5q13 83 54 154.5t101 124t134 82t154 29.5q66 0 122.5 -20.5t99.5 -65.5q45 -45 66 -102t10 -127q-10 -62 -34.5 -116.5t-61.5 -93.5q-44 -48 -88 -68t-79 -18
q-21 1 -33 16.5t-12 44.5q-29 -26 -64.5 -43.5t-80.5 -17.5q-33 0 -61 14t-47.5 39t-28 58.5t-2.5 71.5q7 45 28 87.5t53 75.5t72.5 53t87.5 20q38 0 68 -15.5t54 -54.5zM316 346q-8 -51 14 -85.5t75 -34.5q33 0 59 13t45.5 33.5t32 46.5t20.5 53q17 60 -6 97.5t-75 37.5
q-30 0 -58 -14.5t-50.5 -37.5t-37.5 -51.5t-19 -57.5z" />
    <glyph glyph-name="A" unicode="A" horiz-adv-x="699" 
d="M446 594l-177 -302h255zM223 214l-125 -214h-92l473 790l214 -790h-93l-55 214h-322z" />
    <glyph glyph-name="B" unicode="B" horiz-adv-x="568" 
d="M227 422h32q36 0 68.5 3.5t58.5 16.5t44 38.5t25 69.5q7 43 -2 68t-30 38t-52.5 16.5t-70.5 3.5h-33zM195 754h124q51 0 95.5 -10t75 -34t44.5 -63t5 -97q-8 -46 -31.5 -83.5t-65.5 -63.5q65 -17 94 -71t18 -122q-9 -56 -36.5 -96t-68 -65.5t-91.5 -37t-107 -11.5h-175z
M172 78h84q35 0 70.5 5.5t65.5 20.5t51 42t28 70q7 44 -7.5 70.5t-42 40.5t-63.5 18.5t-70 4.5h-73z" />
    <glyph glyph-name="C" unicode="C" horiz-adv-x="717" 
d="M744 589q-38 47 -93 73.5t-121 26.5q-63 0 -122.5 -25.5t-107.5 -68.5t-80.5 -99.5t-42.5 -118.5t5 -118.5t49.5 -99.5t86.5 -68.5t115 -25.5q64 0 128 27.5t116 72.5l-16 -104q-55 -35 -116 -54.5t-121 -19.5q-80 0 -146.5 30.5t-112 83t-66 123t-7.5 150.5
q13 81 55 152.5t104 125t138.5 84.5t157.5 31q127 0 214 -74z" />
    <glyph glyph-name="D" unicode="D" horiz-adv-x="678" 
d="M233 78q34 0 66.5 3t63.5 11.5t61 24t60 39.5q54 44 86 101t43 120q10 65 -5 124t-57 102q-45 46 -100.5 59.5t-122.5 13.5h-61l-95 -598h61zM195 754h142q42 0 80.5 -3.5t73 -13.5t66 -28t60.5 -46q56 -56 74.5 -129t5.5 -158q-14 -83 -55 -154t-113 -127
q-39 -30 -76 -48.5t-75 -29t-78 -14t-84 -3.5h-140z" />
    <glyph glyph-name="E" unicode="E" horiz-adv-x="534" 
d="M195 754h391l-12 -78h-307l-35 -224h298l-13 -78h-298l-47 -296h307l-12 -78h-391z" />
    <glyph glyph-name="F" unicode="F" horiz-adv-x="478" 
d="M267 676l-35 -224h251l-13 -78h-251l-59 -374h-84l119 754h343l-12 -78h-259z" />
    <glyph glyph-name="G" unicode="G" horiz-adv-x="820" 
d="M837 379q-5 -38 -13 -73t-21.5 -68t-34 -64t-51.5 -61q-62 -60 -141 -93t-158 -33q-80 0 -145.5 31t-110 83.5t-64 123t-7.5 150.5q13 81 55.5 152.5t104 124.5t138 84t157.5 31q100 0 173 -42.5t121 -120.5l-70 -57q-37 67 -95 104.5t-142 37.5q-65 0 -125 -25.5
t-108.5 -68.5t-81.5 -100t-43 -121q-9 -60 5 -115t49 -98q35 -42 87 -69t112 -27q49 0 100 17t94 48.5t73.5 74.5t39.5 96h-224l12 78h314z" />
    <glyph glyph-name="H" unicode="H" horiz-adv-x="714" 
d="M621 448l48 306h84l-119 -754h-84l59 370h-386l-59 -370h-84l119 754h84l-48 -306h386z" />
    <glyph glyph-name="I" unicode="I" horiz-adv-x="239" 
d="M162 0h-84l119 754h84z" />
    <glyph glyph-name="J" unicode="J" horiz-adv-x="314" 
d="M261 157q-4 -23 -8 -45.5t-11.5 -44.5t-18.5 -43t-28 -40q-28 -31 -64.5 -46.5t-74.5 -15.5t-69.5 16t-55.5 40l57 65q17 -19 35 -31t47 -12q31 0 50 16t30.5 40t17.5 51.5t9 49.5l94 597h84z" />
    <glyph glyph-name="K" unicode="K" horiz-adv-x="611" 
d="M600 754h113l-409 -351l302 -403h-116l-254 346l-25 -21l-51 -325h-84l119 754h84l-51 -323z" />
    <glyph glyph-name="L" unicode="L" horiz-adv-x="375" 
d="M172 78h208l-12 -78h-292l119 754h84z" />
    <glyph glyph-name="M" unicode="M" horiz-adv-x="896" 
d="M300 797l174 -633l375 633l27 -797h-86l-16 510h-2l-329 -541l-156 541h-2l-178 -510h-86z" />
    <glyph glyph-name="N" unicode="N" horiz-adv-x="834" 
d="M205 786l491 -616l92 584h84l-124 -788l-491 615l-92 -581h-84z" />
    <glyph glyph-name="O" unicode="O" horiz-adv-x="862" 
d="M540 689q-65 0 -125 -24.5t-108.5 -67t-81.5 -99.5t-43 -121t5 -120.5t50 -99t87.5 -67.5t116.5 -25t124.5 25t109 67.5t82 99t43.5 120.5t-5 121t-50 99.5t-87.5 67t-117.5 24.5zM552 767q81 0 147.5 -30.5t112 -84t65.5 -124.5t7 -152t-55.5 -152t-104.5 -123.5
t-138 -83t-157 -30.5t-147.5 30.5t-111.5 83t-65 123.5t-7 152t55 152t104 124.5t138 84t157 30.5z" />
    <glyph glyph-name="P" unicode="P" horiz-adv-x="503" 
d="M225 408h56q35 0 67 6t58 21.5t44 41.5t24 67q7 46 -5.5 72.5t-38 39.5t-60.5 16.5t-72 3.5h-31zM160 0h-84l119 754h124q49 0 96.5 -6t84.5 -34q38 -29 52 -75t6 -97q-8 -46 -33 -89.5t-65 -72.5q-43 -32 -91 -41t-96 -9h-61z" />
    <glyph glyph-name="Q" unicode="Q" horiz-adv-x="862" 
d="M668 61q-53 -35 -117.5 -54.5t-121.5 -19.5q-81 0 -147.5 30.5t-111.5 83t-65 123.5t-7 152t55 152t104 124.5t138 84t157 30.5q82 0 148.5 -31t111.5 -84.5t64.5 -125t6.5 -152.5q-12 -79 -50 -144t-101 -122l95 -115h-107zM684 168q97 88 116 209q10 64 -5 121
t-50 99.5t-87.5 67t-117.5 24.5t-125 -24.5t-108.5 -67t-81.5 -99.5t-43 -121t5 -120.5t50 -99t87.5 -67.5t116.5 -25q42 0 90.5 15t86.5 41l-153 183h110z" />
    <glyph glyph-name="R" unicode="R" horiz-adv-x="542" 
d="M160 0h-84l119 754h109q54 0 102.5 -8.5t83 -31.5t51 -63.5t6.5 -104.5q-7 -44 -26 -80.5t-47.5 -63.5t-66 -43.5t-81.5 -20.5l186 -338h-103l-176 331h-21zM224 405h26q36 0 71 4.5t64 19t50 41t28 70.5q7 46 -4.5 73.5t-36 41t-58.5 17.5t-72 4h-25z" />
    <glyph glyph-name="S" unicode="S" horiz-adv-x="559" 
d="M514 607q-17 39 -43 60.5t-74 21.5q-25 0 -49 -8.5t-43.5 -24t-33 -37t-17.5 -47.5q-4 -24 4.5 -42.5t23.5 -32.5t34 -24t37 -19l46 -22q34 -16 64.5 -34.5t51.5 -43t30 -57t2 -77.5q-8 -50 -33.5 -92.5t-62.5 -73.5t-83 -49t-95 -18q-45 0 -82 14t-63.5 39.5t-41.5 61.5
t-17 80l85 23q0 -29 8.5 -54.5t25 -44.5t41 -30t54.5 -11t60 11t54.5 30.5t42 46.5t22.5 59q5 33 -3 56t-25 40t-40.5 29.5t-47.5 24.5l-42 20q-31 15 -58 32t-46 39t-27.5 51.5t-2.5 70.5q7 44 30 79.5t56 60.5t73 38.5t82 13.5q63 0 109.5 -30.5t67.5 -86.5z" />
    <glyph glyph-name="T" unicode="T" horiz-adv-x="470" 
d="M276 0h-84l107 676h-182l12 78h450l-12 -78h-184z" />
    <glyph glyph-name="U" unicode="U" horiz-adv-x="685" 
d="M206 305q-3 -21 -6.5 -43t-4 -44t3 -42.5t14.5 -38.5q19 -35 58.5 -53.5t81.5 -18.5q41 0 84 17.5t75 49.5q18 18 29 39t17.5 43.5t10.5 45.5t7 45l71 449h84l-74 -472q-5 -31 -11.5 -58.5t-17 -53.5t-27.5 -50t-43 -47q-46 -42 -103 -64t-114 -22q-54 0 -102.5 19.5
t-80.5 57.5q-21 24 -31.5 48.5t-14 51.5t-1 56.5t7.5 61.5l74 472h84z" />
    <glyph glyph-name="V" unicode="V" horiz-adv-x="624" 
d="M340 179l306 575h91l-432 -799l-180 799h91z" />
    <glyph glyph-name="W" unicode="W" horiz-adv-x="1091" 
d="M332 189l340 604l148 -604l287 565h91l-414 -793l-148 607l-340 -607l-164 793h91z" />
    <glyph glyph-name="X" unicode="X" horiz-adv-x="564" 
d="M151 754h96l109 -284l199 284h96l-261 -364l161 -390h-96l-124 310l-222 -310h-96l285 390z" />
    <glyph glyph-name="Y" unicode="Y" horiz-adv-x="593" 
d="M127 754h97l139 -336l245 336h97l-315 -430l-51 -324h-84l51 324z" />
    <glyph glyph-name="Z" unicode="Z" horiz-adv-x="586" 
d="M566 78l-12 -78h-540l518 676h-359l12 78h499l-519 -676h401z" />
    <glyph glyph-name="bracketleft" unicode="[" horiz-adv-x="315" 
d="M160 -166h108l-12 -74h-190l163 1028h190l-12 -74h-108z" />
    <glyph glyph-name="backslash" unicode="\" horiz-adv-x="570" 
d="M215 825l337 -825l-70 -30l-338 825z" />
    <glyph glyph-name="bracketright" unicode="]" horiz-adv-x="315" 
d="M242 714h-108l12 74h190l-163 -1028h-190l12 74h108z" />
    <glyph glyph-name="asciicircum" unicode="^" 
d="M391 754h72l138 -432h-89l-101 328l-207 -328h-87z" />
    <glyph glyph-name="underscore" unicode="_" horiz-adv-x="500" 
d="M480 -125h-500l8 50h500z" />
    <glyph glyph-name="grave" unicode="`" horiz-adv-x="358" 
d="M280 744l93 -164l-55 -28l-128 154z" />
    <glyph glyph-name="a" unicode="a" horiz-adv-x="577" 
d="M505 0h-80l10 65h-2q-74 -78 -174 -78q-52 0 -90.5 20.5t-62.5 54.5t-32.5 78.5t-0.5 93.5q8 50 30.5 95.5t57 79.5t79.5 54t98 20q48 0 87 -21t62 -59h2l10 67h80zM336 409q-35 0 -65.5 -14t-54 -37.5t-39.5 -54t-21 -63.5q-6 -35 -1 -67t21 -57t42 -40t64 -15
q39 0 70.5 14.5t55 39t38.5 56.5t21 68q6 35 0 66t-22.5 54t-44 36.5t-64.5 13.5z" />
    <glyph glyph-name="b" unicode="b" horiz-adv-x="577" 
d="M203 825h80l-67 -422h2q35 38 80 59t93 21q52 0 91 -20t63 -54t32.5 -79t0.5 -95q-8 -49 -31 -94t-57.5 -79t-79 -54.5t-96.5 -20.5q-49 0 -88 20t-62 58h-2l-10 -65h-80zM366 409q-35 0 -65.5 -14t-54 -37.5t-39.5 -54t-21 -63.5q-6 -35 -1 -67t21 -57t42 -40t64 -15
q39 0 70.5 14.5t55 39t38.5 56.5t21 68q6 35 0 66t-22.5 54t-44 36.5t-64.5 13.5z" />
    <glyph glyph-name="c" unicode="c" horiz-adv-x="476" 
d="M477 330h-2q-22 35 -53.5 57t-79.5 22q-36 0 -69 -14t-59 -38t-43 -55.5t-23 -66.5t1 -66.5t24.5 -55.5t45 -38t64.5 -14q51 0 90.5 21.5t74.5 59.5h2l-16 -107q-38 -23 -76.5 -35.5t-80.5 -12.5q-53 0 -96 19t-71 52t-40 78.5t-4 98.5q8 52 35 97.5t66.5 79t88 52.5
t100.5 19q38 0 74 -12t64 -35z" />
    <glyph glyph-name="d" unicode="d" horiz-adv-x="577" 
d="M435 65h-2q-35 -38 -80.5 -58t-93.5 -20q-52 0 -90.5 20.5t-62.5 54.5t-32.5 78.5t-0.5 93.5q8 50 30.5 95.5t57 79.5t79.5 54t98 20q48 0 87 -21t62 -59h2l67 422h80l-131 -825h-80zM336 409q-35 0 -65.5 -14t-54 -37.5t-39.5 -54t-21 -63.5q-6 -35 -1 -67t21 -57
t42 -40t64 -15q39 0 70.5 14.5t55 39t38.5 56.5t21 68q6 35 0 66t-22.5 54t-44 36.5t-64.5 13.5z" />
    <glyph glyph-name="e" unicode="e" horiz-adv-x="519" 
d="M446 286q0 25 -8.5 47.5t-24 39.5t-37.5 26.5t-48 9.5t-51.5 -9.5t-48 -26.5t-39 -39.5t-24.5 -47.5h281zM151 218q-5 -33 2 -61.5t23.5 -49.5t43 -33.5t60.5 -12.5q51 0 89.5 27.5t68.5 69.5l62 -39q-44 -63 -105 -97.5t-133 -34.5q-53 0 -92.5 19t-64 51.5t-34 76.5
t-1.5 95q8 52 30.5 98.5t57 81t80 54.5t100.5 20q57 0 96.5 -21.5t62.5 -58.5t28.5 -85t-5.5 -100h-369z" />
    <glyph glyph-name="f" unicode="f" horiz-adv-x="274" 
d="M163 0h-80l63 396h-44l11 74h44l30 187q5 29 12.5 62.5t27.5 59.5q25 32 60 45.5t71 13.5q14 0 27.5 -2.5t27.5 -7.5l-13 -81q-13 5 -25 8t-27 3q-24 0 -38.5 -8.5t-23.5 -25t-13.5 -40.5t-9.5 -55l-26 -159h119l-11 -74h-119z" />
    <glyph glyph-name="g" unicode="g" horiz-adv-x="580" 
d="M504 23q-5 -28 -10 -54.5t-13.5 -51.5t-22 -49t-34.5 -47q-40 -42 -91 -62.5t-104 -20.5q-49 0 -88.5 15t-66 43t-38 68t-4.5 90h80q-5 -33 2 -59t24 -44.5t43 -28.5t58 -10q46 0 78 16t53 43t33 62.5t18 75.5l9 56h-2q-34 -37 -80.5 -57.5t-94.5 -20.5q-51 0 -89.5 20
t-62.5 54t-32.5 78.5t-0.5 93.5t31 94.5t58 80t80 55t97 20.5q49 0 87 -21t61 -59h2l10 67h80zM331 409q-35 0 -65.5 -14t-54 -37.5t-39.5 -54t-21 -63.5q-6 -35 -1 -67t21 -57t42 -40t64 -15q39 0 70.5 14.5t55 39t38.5 56.5t21 68q6 35 0 66t-22.5 54t-44 36.5t-64.5 13.5
z" />
    <glyph glyph-name="h" unicode="h" horiz-adv-x="528" 
d="M287 825l-65 -410l1 -2q31 34 66 52t79 18q49 0 77.5 -16.5t42 -44.5t14.5 -65t-6 -78l-44 -279h-80l42 265q4 28 6 54.5t-4.5 46t-24.5 31.5t-53 12q-41 0 -67.5 -17.5t-42 -44.5t-24 -60t-13.5 -64l-35 -223h-80l131 825h80z" />
    <glyph glyph-name="i" unicode="i" horiz-adv-x="262" 
d="M243 704q23 0 37 -17t10 -40q-4 -24 -23.5 -40.5t-42.5 -16.5t-37.5 16.5t-10.5 40.5q4 23 24 40t43 17zM171 0h-80l74 470h80z" />
    <glyph glyph-name="j" unicode="j" horiz-adv-x="262" 
d="M243 704q23 0 37 -17t10 -40q-4 -24 -23.5 -40.5t-42.5 -16.5t-37.5 16.5t-10.5 40.5q4 23 24 40t43 17zM129 -264h-80l116 734h80z" />
    <glyph glyph-name="k" unicode="k" horiz-adv-x="470" 
d="M199 296l198 174h107l-232 -200l196 -270h-106l-155 214l-24 -21l-31 -193h-80l131 825h80z" />
    <glyph glyph-name="l" unicode="l" horiz-adv-x="227" 
d="M154 0h-80l131 825h80z" />
    <glyph glyph-name="m" unicode="m" horiz-adv-x="768" 
d="M222 419h2q24 29 55.5 46.5t67.5 17.5q42 0 73.5 -20.5t44.5 -57.5q27 39 68.5 58.5t84.5 19.5q45 0 71.5 -17t39 -44.5t13.5 -63t-5 -72.5l-45 -286h-80l43 273q4 23 6 47t-3.5 44t-20.5 32.5t-46 12.5q-35 0 -57.5 -15t-36.5 -38.5t-22 -51.5t-12 -55l-39 -249h-80
l42 267q3 22 5 47t-3 46t-19.5 35t-43.5 14q-35 0 -58.5 -16t-38 -40.5t-22.5 -53.5t-12 -56l-38 -243h-80l74 470h80z" />
    <glyph glyph-name="n" unicode="n" horiz-adv-x="528" 
d="M221 413h2q31 34 66 52t79 18q49 0 77.5 -16.5t42 -44.5t14.5 -65t-6 -78l-44 -279h-80l42 265q4 28 6 54.5t-4.5 46t-24.5 31.5t-53 12q-41 0 -67.5 -17.5t-42 -44.5t-24 -60t-13.5 -64l-35 -223h-80l74 470h80z" />
    <glyph glyph-name="o" unicode="o" horiz-adv-x="562" 
d="M346 409q-37 0 -70 -14t-59 -37.5t-43 -55t-23 -67.5t1.5 -67.5t26 -55.5t47 -37.5t65.5 -13.5t70 13.5t58.5 37.5t42.5 55.5t23 67.5t-1.5 67.5t-25.5 55t-46.5 37.5t-65.5 14zM279 -13q-51 0 -93 19t-70.5 52.5t-40.5 78.5t-4 97t34.5 97t65 79t86.5 53.5t100 19.5
t94 -19.5t70 -53.5t40 -79t4 -97t-34.5 -97t-65.5 -78.5t-87 -52.5t-99 -19z" />
    <glyph glyph-name="p" unicode="p" horiz-adv-x="577" 
d="M216 403h2q35 39 80 59.5t94 20.5q52 0 90.5 -20.5t62.5 -55t32.5 -79.5t0.5 -94q-8 -50 -30.5 -95t-57 -79t-79.5 -53.5t-98 -19.5q-48 0 -87 20.5t-62 58.5h-2l-52 -330h-80l116 734h80zM366 409q-35 0 -65.5 -14t-54 -37.5t-39.5 -54t-21 -63.5q-6 -35 -1 -67t21 -57
t42 -40t64 -15q39 0 70.5 14.5t55 39t38.5 56.5t21 68q6 35 0 66t-22.5 54t-44 36.5t-64.5 13.5z" />
    <glyph glyph-name="q" unicode="q" horiz-adv-x="577" 
d="M463 -264h-80l52 330h-2q-35 -38 -80 -58.5t-93 -20.5q-53 0 -91.5 19.5t-62.5 53.5t-32.5 78.5t-0.5 94.5q8 49 30.5 94.5t57 80t79.5 55t97 20.5q48 0 87.5 -20.5t62.5 -59.5h2l10 67h80zM336 409q-35 0 -65.5 -14t-54 -37.5t-39.5 -54t-21 -63.5q-6 -35 -1 -67t21 -57
t42 -40t64 -15q39 0 70.5 14.5t55 39t38.5 56.5t21 68q6 35 0 66t-22.5 54t-44 36.5t-64.5 13.5z" />
    <glyph glyph-name="r" unicode="r" horiz-adv-x="335" 
d="M218 419h2q26 28 50.5 46t63.5 18q20 0 36.5 -6t32.5 -16l-50 -73q-11 8 -19.5 14.5t-24.5 6.5q-33 0 -54.5 -18.5t-35 -45.5t-20 -57t-10.5 -53l-37 -235h-80l74 470h80z" />
    <glyph glyph-name="s" unicode="s" horiz-adv-x="399" 
d="M323 361q-5 19 -19.5 33.5t-36.5 14.5q-21 0 -42 -14.5t-24 -37.5q-3 -16 4.5 -27.5t21.5 -21t32 -17t38 -16.5q19 -9 37 -20t30.5 -26.5t18.5 -37t1 -51.5q-5 -33 -22 -61.5t-42 -48.5t-55.5 -31.5t-63.5 -11.5q-60 0 -98.5 31.5t-48.5 87.5l76 30q10 -33 27 -54t57 -21
q32 0 57 20t30 52q4 26 -9 42t-34.5 28t-47.5 22.5t-47 26t-33.5 38.5t-6.5 60q5 30 20 54.5t37 42t48.5 27t55.5 9.5q41 0 71 -25t41 -62z" />
    <glyph glyph-name="t" unicode="t" horiz-adv-x="240" 
d="M160 0h-80l63 396h-49l11 74h49l27 169h80l-27 -169h84l-11 -74h-84z" />
    <glyph glyph-name="u" unicode="u" horiz-adv-x="512" 
d="M183 208q-5 -30 -6 -56.5t6.5 -46.5t27 -32t55.5 -12t59 12t37 32t21 46.5t12 56.5l41 262h80l-42 -271q-8 -47 -23.5 -86t-42 -67t-64.5 -43.5t-90 -15.5t-85 15.5t-50.5 43.5t-21 67t4.5 86l42 271h80z" />
    <glyph glyph-name="v" unicode="v" horiz-adv-x="463" 
d="M256 154l190 316h90l-309 -501l-152 501h91z" />
    <glyph glyph-name="w" unicode="w" horiz-adv-x="760" 
d="M257 152l202 354l91 -354l190 318h91l-312 -503l-90 350l-200 -350l-152 503h91z" />
    <glyph glyph-name="x" unicode="x" horiz-adv-x="498" 
d="M104 470h98l98 -160l148 160h100l-206 -220l155 -250h-97l-119 191l-180 -191h-100l240 250z" />
    <glyph glyph-name="y" unicode="y" horiz-adv-x="498" 
d="M72 470h93l113 -337l205 337h91l-463 -734h-91l201 308z" />
    <glyph glyph-name="z" unicode="z" horiz-adv-x="519" 
d="M508 74l-12 -74h-486l402 396h-276l11 74h437l-400 -396h324z" />
    <glyph glyph-name="braceleft" unicode="{" horiz-adv-x="334" 
d="M99 306q27 8 44 21.5t28 33.5t17.5 46t11.5 59l29 187q5 30 18 55t29 43t32.5 27.5t27.5 9.5h73l-12 -74h-40q-27 0 -35 -20.5t-13 -55.5l-30 -189q-7 -44 -22 -75.5t-31.5 -52.5t-30.5 -32.5t-20 -14.5q4 -3 15 -14.5t20.5 -32.5t15 -53t-1.5 -76l-30 -188
q-6 -35 -4.5 -55.5t28.5 -20.5h40l-12 -74h-73q-11 0 -24 9.5t-23.5 27.5t-16 43t-0.5 55l30 186q5 33 7 59.5t-2.5 46.5t-17.5 33.5t-37 21.5z" />
    <glyph glyph-name="bar" unicode="|" horiz-adv-x="570" 
d="M290 -214h-78l158 1000h78z" />
    <glyph glyph-name="braceright" unicode="}" horiz-adv-x="334" 
d="M321 242q-27 -8 -44 -21.5t-27.5 -33.5t-17 -46.5t-11.5 -59.5l-30 -186q-5 -30 -17.5 -55t-28.5 -43t-32.5 -27.5t-27.5 -9.5h-73l12 74h40q27 0 34.5 20.5t13.5 55.5l30 188q7 44 22 76t31 53t30.5 32.5t19.5 14.5q-4 3 -14.5 14.5t-20.5 32.5t-15 52.5t2 75.5l30 189
q5 35 4 55.5t-28 20.5h-40l12 74h73q11 0 24 -9.5t23.5 -27.5t15.5 -43t0 -55l-29 -187q-5 -33 -7 -59t2.5 -46t17 -33.5t36.5 -21.5z" />
    <glyph glyph-name="asciitilde" unicode="~" 
d="M98 200q15 30 33.5 56.5t38.5 47t43 32t47 11.5q26 0 52 -14t50 -31q11 -8 22.5 -17.5t22.5 -17.5t22 -13.5t21 -5.5q21 0 44.5 28t42.5 69l63 -28q-15 -30 -32.5 -56.5t-38 -47t-43.5 -32t-48 -11.5q-26 0 -50.5 14.5t-44.5 29.5q-30 22 -53 38t-43 16q-21 0 -43 -27.5
t-42 -68.5z" />
    <glyph glyph-name="Euro" 
d="M544 333l-26 -54h-317q4 -95 51 -150q52 -64 151 -64q62 0 98 12q31 9 89 44l-14 -90q-82 -43 -182 -43q-139 0 -212 84q-65 76 -67 207h-72l25 54h49l2 20t3 21l4 21h-64l24 54h53q42 139 133 224q103 94 245 94q120 0 185 -64l-32 -75q-41 37 -71 48q-35 13 -99 13
q-104 0 -178 -73q-66 -63 -99 -167h372l-25 -54h-360l-3 -18q-2 -11 -3 -22l-2 -22h342z" />
    <glyph glyph-name="Euro" unicode="&#x20ac;" 
d="M544 333l-26 -54h-317q4 -95 51 -150q52 -64 151 -64q62 0 98 12q31 9 89 44l-14 -90q-82 -43 -182 -43q-139 0 -212 84q-65 76 -67 207h-72l25 54h49l2 20t3 21l4 21h-64l24 54h53q42 139 133 224q103 94 245 94q120 0 185 -64l-32 -75q-41 37 -71 48q-35 13 -99 13
q-104 0 -178 -73q-66 -63 -99 -167h372l-25 -54h-360l-3 -18q-2 -11 -3 -22l-2 -22h342z" />
    <glyph glyph-name="Zcaron" horiz-adv-x="586" 
d="M436 818l-137 133l65 45l86 -85l113 85l50 -45zM566 78l-12 -78h-540l518 676h-359l12 78h499l-519 -676h401z" />
    <glyph glyph-name="Zcaron" unicode="&#x17d;" horiz-adv-x="586" 
d="M436 818l-137 133l65 45l86 -85l113 85l50 -45zM566 78l-12 -78h-540l518 676h-359l12 78h499l-519 -676h401z" />
    <glyph glyph-name="zcaron" horiz-adv-x="519" 
d="M365 559l-137 133l65 45l86 -85l113 85l50 -45zM508 74l-12 -74h-486l402 396h-276l11 74h437l-400 -396h324z" />
    <glyph glyph-name="zcaron" unicode="&#x17e;" horiz-adv-x="519" 
d="M365 559l-137 133l65 45l86 -85l113 85l50 -45zM508 74l-12 -74h-486l402 396h-276l11 74h437l-400 -396h324z" />
    <glyph glyph-name="nonbreakingspace" unicode="&#xa0;" horiz-adv-x="308" 
 />
    <glyph glyph-name="exclamdown" unicode="&#xa1;" horiz-adv-x="338" 
d="M165 -284h-82l95 601h82zM245 483q23 0 37.5 -16t10.5 -39t-23 -40t-42 -17t-37 17t-10 40t22.5 39t41.5 16z" />
    <glyph glyph-name="cent" unicode="&#xa2;" 
d="M393 555q-30 -6 -56.5 -22t-46.5 -39.5t-34 -51.5t-18 -56q-5 -30 -0.5 -58t17 -51.5t34 -40t50.5 -22.5zM567 481h-2q-17 28 -44 49.5t-62 26.5l-54 -344q38 5 72 28t60 52h2l-17 -107q-29 -18 -62.5 -31.5t-66.5 -15.5l-18 -112h-66l18 113q-44 5 -78.5 26.5
t-57.5 54.5t-33 74t-3 85q7 46 29.5 88.5t55.5 76.5t75 56t90 28l16 106h66l-16 -104q65 -6 113 -44z" />
    <glyph glyph-name="sterling" unicode="&#xa3;" 
d="M123 268l11 64h100l-14 37q-8 23 -16 44.5t-13.5 43.5t-7.5 45.5t3 50.5q7 46 31 85.5t59 68t78 44.5t88 16q49 0 86.5 -17.5t61.5 -47.5t33.5 -71.5t2.5 -89.5l-86 -22q5 32 2.5 62.5t-14.5 54t-35.5 37.5t-60.5 14q-29 0 -55.5 -10.5t-48.5 -28.5t-37 -43t-20 -54
q-5 -30 0.5 -58t15.5 -55t21 -53.5t18 -52.5h142l-11 -64h-120q2 -11 2 -23q0 -11 -2 -22q-4 -27 -18.5 -56t-31.5 -52l5 -2q13 -5 31.5 -12t38 -14t38 -12t30.5 -5q17 0 31.5 7t27 17.5t23.5 24t21 26.5l61 -41q-14 -23 -32.5 -44t-40.5 -37t-47 -25.5t-52 -9.5
q-31 0 -60.5 9t-56.5 20q-29 11 -55 20t-51 9q-31 0 -55.5 -17.5t-43.5 -43.5l-58 44q30 39 71.5 67.5t89.5 29.5q17 20 29.5 43.5t17.5 49.5q2 12 2 24q0 13 -2 25h-127z" />
    <glyph glyph-name="currency" unicode="&#xa4;" 
d="M385 486q-41 -1 -78 -15t-67 -38.5t-50 -58.5t-25 -74q-5 -38 4.5 -71.5t31.5 -59t54 -40.5t71 -15t76 15t67 40.5t50.5 59t27.5 71.5q7 40 -2.5 74t-31.5 58.5t-55 38.5t-73 15zM187 534l35 -42q45 29 85 43.5t88 14.5t83.5 -14.5t71.5 -43.5l49 42l30 -36l-46 -40
q21 -43 28 -79t0 -79q-8 -43 -26 -79t-53 -79l34 -40l-42 -36l-35 42q-45 -29 -85 -43.5t-88 -14.5t-83.5 14.5t-71.5 43.5l-49 -42l-30 36l46 40q-20 43 -27.5 79t0.5 79q7 43 25 79t53 79l-34 40z" />
    <glyph glyph-name="yen" unicode="&#xa5;" 
d="M307 256h-237l10 64h237l-39 100h-182l10 64h145l-113 270h97l140 -334l244 334h97l-197 -270h145l-10 -64h-182l-71 -100h237l-10 -64h-237l-41 -256h-84z" />
    <glyph glyph-name="brokenbar" unicode="&#xa6;" horiz-adv-x="570" 
d="M389 411h-78l40 250h78zM310 -89h-78l39 250h78z" />
    <glyph glyph-name="section" unicode="&#xa7;" horiz-adv-x="592" 
d="M187 4q-8 -51 10 -83.5t73 -32.5q48 0 79.5 25.5t39.5 74.5q4 28 -2.5 46.5t-21 31t-34 21.5t-40.5 17q-25 11 -54 23.5t-49 31.5q-28 25 -37 58.5t-3 73.5q9 55 42.5 98.5t88.5 64.5q-39 21 -56.5 57t-9.5 84q6 39 26.5 71t50 54.5t65.5 34.5t74 12q39 0 77 -17.5
t56 -49.5q14 -26 17 -61.5t-2 -67.5h-80q6 57 -12.5 88t-68.5 31q-45 0 -79.5 -26.5t-42.5 -74.5q-5 -29 4.5 -48t28 -32t43 -22t50.5 -19q25 -10 49 -22.5t41 -33t25 -50t1 -73.5q-9 -56 -43.5 -95.5t-87.5 -64.5q42 -23 57.5 -59t7.5 -87q-6 -41 -25.5 -72.5t-48 -54
t-64.5 -34t-75 -11.5q-48 0 -79.5 13.5t-49 38.5t-22.5 61t0 80h81zM360 402q-23 0 -44.5 -8.5t-38.5 -23.5t-29 -35t-16 -43q-3 -23 2.5 -43t18 -35t31 -24t41.5 -9t44.5 9t39 24t29.5 35t15 43q4 23 -1.5 43t-18.5 35t-31.5 23.5t-41.5 8.5z" />
    <glyph glyph-name="dieresis" unicode="&#xa8;" horiz-adv-x="467" 
d="M444 705q23 0 36 -15.5t9 -38.5t-21.5 -38.5t-40.5 -15.5t-36.5 15.5t-9.5 38.5t22 38.5t41 15.5zM247 705q23 0 36 -15.5t9 -38.5t-21.5 -38.5t-40.5 -15.5t-36.5 15.5t-9.5 38.5t22 38.5t41 15.5z" />
    <glyph glyph-name="copyright" unicode="&#xa9;" horiz-adv-x="800" 
d="M610 457q-2 42 -31 65t-79 23q-41 0 -72.5 -14.5t-54 -38t-36.5 -52.5t-18 -58q-6 -35 0 -65t22.5 -52.5t43.5 -35.5t65 -13q50 0 85 24t52 67h61q-10 -35 -31 -63t-49 -47.5t-60.5 -30t-66.5 -10.5q-50 0 -87 17.5t-61 48t-33 71t-2 87.5q8 48 29.5 89.5t54.5 71.5
t75.5 47t93.5 17q69 0 113.5 -39t46.5 -109h-61zM407 47q67 0 131.5 25.5t117 70.5t89 105t47.5 129t-6.5 129t-55.5 105t-94.5 70.5t-123.5 25.5t-131.5 -25.5t-117 -70.5t-88.5 -105t-47 -129t6 -129t55.5 -105t94.5 -70.5t123 -25.5zM398 -13q-82 0 -149 30.5t-111.5 83
t-63.5 124t-6 152.5t54.5 152.5t102.5 124t137.5 83t158.5 30.5t149 -30.5t111.5 -83t64 -124t6.5 -152.5t-55 -152.5t-103 -124t-137.5 -83t-158.5 -30.5z" />
    <glyph glyph-name="ordfeminine" unicode="&#xaa;" horiz-adv-x="346" 
d="M402 477h-52l6 39h-2q-47 -47 -113 -47q-34 0 -59 12t-40.5 32.5t-21.5 47.5t-1 56q5 30 19 57.5t36 48t51 32.5t64 12q31 0 56.5 -12.5t40.5 -35.5h2l6 40h52zM289 723q-23 0 -43 -8.5t-35.5 -22.5t-26 -32.5t-13.5 -38.5q-3 -21 0.5 -40.5t14 -34.5t28 -24t41.5 -9
q25 0 45.5 8.5t35.5 23.5t25 34.5t13 40.5q7 43 -15 73t-70 30z" />
    <glyph glyph-name="guillemotleft" unicode="&#xab;" horiz-adv-x="500" 
d="M274 74l-60 -41l-135 207l202 213l46 -42l-162 -171zM444 74l-60 -41l-135 207l202 213l46 -42l-162 -171z" />
    <glyph glyph-name="logicalnot" unicode="&#xac;" 
d="M519 295h-406l12 78h484l-43 -270h-78z" />
    <glyph glyph-name="hyphen" unicode="&#xad;" horiz-adv-x="208" 
d="M251 278l-12 -74h-205l12 74h205z" />
    <glyph glyph-name="hyphen" unicode="&#x2010;" horiz-adv-x="208" 
d="M251 278l-12 -74h-205l12 74h205z" />
    <glyph glyph-name="registered" unicode="&#xae;" horiz-adv-x="800" 
d="M453 423q20 0 45 -0.5t48 4t40.5 16.5t21.5 38q3 16 -5.5 26.5t-22.5 16t-32.5 7.5t-35.5 2h-114l-17 -110h72zM612 166h-72l-97 197h-72l-31 -197h-60l68 427h186q29 0 55.5 -4.5t46 -17.5t29 -35t3.5 -56q-10 -63 -53 -89.5t-101 -27.5zM407 47q67 0 131.5 25.5
t117 70.5t89 105t47.5 129t-6.5 129t-55.5 105t-94.5 70.5t-123.5 25.5t-131.5 -25.5t-117 -70.5t-88.5 -105t-47 -129t6 -129t55.5 -105t94.5 -70.5t123 -25.5zM398 -13q-82 0 -149 30.5t-111.5 83t-63.5 124t-6 152.5t54.5 152.5t102.5 124t137.5 83t158.5 30.5t149 -30.5
t111.5 -83t64 -124t6.5 -152.5t-55 -152.5t-103 -124t-137.5 -83t-158.5 -30.5z" />
    <glyph glyph-name="macron" unicode="&#xaf;" horiz-adv-x="499" 
d="M529 682l-11 -68h-342l11 68h342z" />
    <glyph glyph-name="degree" unicode="&#xb0;" horiz-adv-x="400" 
d="M400 617q3 21 -2 39.5t-17 32.5t-29.5 22t-38.5 8t-41 -8t-35.5 -22t-26.5 -32.5t-14 -39.5q-7 -43 18 -72.5t68 -29.5q21 0 41 8t36 21.5t27 32.5t14 40zM448 617q-5 -31 -21 -58.5t-40 -47.5t-53 -32t-60 -12t-56.5 12t-42.5 32t-24.5 47.5t-2.5 58.5q4 31 20 58
t39.5 47.5t53 32.5t60.5 12t56.5 -12t42.5 -32.5t25 -47.5t3 -58z" />
    <glyph glyph-name="plusminus" unicode="&#xb1;" 
d="M78 78h484l-12 -78h-484zM426 498l-24 -153h203l-13 -78h-203l-24 -153h-78l24 153h-203l13 78h203l24 153h78z" />
    <glyph glyph-name="twosuperior" unicode="&#xb2;" horiz-adv-x="369" 
d="M400 359l-8 -52h-317l268 250q18 17 27.5 35t12.5 41q6 38 -16.5 60t-62.5 22q-45 0 -72.5 -24t-34.5 -64h-60q6 30 21.5 55.5t38.5 44t52 29.5t61 11q33 0 59.5 -10t44.5 -27.5t26 -42t3 -54.5q-4 -24 -15.5 -50t-31.5 -45l-193 -179h197z" />
    <glyph glyph-name="threesuperior" unicode="&#xb3;" horiz-adv-x="369" 
d="M265 571q39 0 68 18t35 52q5 36 -17.5 55t-51.5 19q-33 0 -55 -17.5t-30 -49.5h-60q14 54 53.5 86.5t100.5 32.5q30 0 54 -9t40 -25t23 -39t3 -51q-5 -30 -26 -57.5t-53 -41.5q34 -14 46 -45t7 -66q-11 -64 -59 -99t-115 -35q-30 0 -54.5 9t-41.5 25.5t-25 39.5t-4 51h60
q-5 -35 17 -54t59 -19q40 0 68.5 24t34.5 61q6 39 -17 62t-68 21z" />
    <glyph glyph-name="acute" unicode="&#xb4;" horiz-adv-x="358" 
d="M393 706l-178 -154l-45 28l145 164z" />
    <glyph glyph-name="mu" unicode="&#xb5;" horiz-adv-x="512" 
d="M183 208q-5 -30 -6 -56.5t6.5 -46.5t27 -32t55.5 -12t59 12t37 32t21 46.5t12 56.5l41 262h80l-42 -271q-8 -47 -23.5 -86t-42 -67t-64.5 -43.5t-90 -15.5q-26 0 -48.5 8t-50.5 39l-47 -298h-80l116 734h80z" />
    <glyph glyph-name="paragraph" unicode="&#xb6;" horiz-adv-x="592" 
d="M643 689h-58l-133 -842h-65l133 842h-81l-133 -842h-65l69 436q-42 0 -76 14.5t-57 42t-33.5 67t-5.5 90.5q4 45 25.5 91t56 83t79 60t94.5 23h260z" />
    <glyph glyph-name="periodcentered" unicode="&#xb7;" horiz-adv-x="308" 
d="M203 311q23 0 37 -16t11 -39q-4 -23 -23 -40t-42 -17t-37 17t-10 40q3 23 22 39t42 16z" />
    <glyph glyph-name="periodcentered" unicode="&#x22c5;" horiz-adv-x="308" 
d="M203 311q23 0 37 -16t11 -39q-4 -23 -23 -40t-42 -17t-37 17t-10 40q3 23 22 39t42 16z" />
    <glyph glyph-name="periodcentered" unicode="&#x2219;" horiz-adv-x="308" 
d="M203 311q23 0 37 -16t11 -39q-4 -23 -23 -40t-42 -17t-37 17t-10 40q3 23 22 39t42 16z" />
    <glyph glyph-name="cedilla" unicode="&#xb8;" horiz-adv-x="325" 
d="M102 -199l-51 28l119 148l70 -30z" />
    <glyph glyph-name="onesuperior" unicode="&#xb9;" horiz-adv-x="369" 
d="M226 707l37 52h112l-71 -452h-60l63 400h-81z" />
    <glyph glyph-name="ordmasculine" unicode="&#xba;" horiz-adv-x="337" 
d="M284 723q-24 0 -45.5 -8.5t-38 -22.5t-28 -33.5t-14.5 -40.5q-7 -44 18.5 -74.5t73.5 -30.5q24 0 45.5 8t38 22.5t28 33.5t14.5 41q7 43 -18.5 74t-73.5 31zM243 469q-33 0 -60.5 11.5t-46 31.5t-27 47t-3.5 58t21.5 58.5t41.5 47.5t56 32t65 12t61.5 -12t46 -32
t27 -47.5t3.5 -58.5t-22 -58t-42 -47t-56.5 -31.5t-64.5 -11.5z" />
    <glyph glyph-name="guillemotright" unicode="&#xbb;" horiz-adv-x="500" 
d="M411 240l-108 171l60 42l134 -213l-201 -207l-46 41zM241 240l-108 171l60 42l134 -213l-201 -207l-46 41z" />
    <glyph glyph-name="onequarter" unicode="&#xbc;" horiz-adv-x="924" 
d="M810 743l-559 -756l-40 24l558 756zM754 315h-2l-172 -190h144zM844 125l-8 -52h-60l-12 -73h-60l12 73h-245l368 405h-1h2l-56 -353h60zM212 707l37 52h112l-71 -452h-60l63 400h-81z" />
    <glyph glyph-name="onehalf" unicode="&#xbd;" horiz-adv-x="924" 
d="M765 743l-559 -756l-40 24l558 756zM832 52l-8 -52h-317l269 250q33 31 40 76q6 38 -16.5 60t-62.5 22q-45 0 -73 -24t-34 -64h-60q5 30 20.5 55.5t39 44t52.5 29.5t61 11q33 0 59.5 -10t44.5 -27.5t25.5 -42t3.5 -54.5q-4 -24 -15.5 -50t-31.5 -45l-194 -179h197z
M212 707l37 52h112l-71 -452h-60l63 400h-81z" />
    <glyph glyph-name="threequarters" unicode="&#xbe;" horiz-adv-x="924" 
d="M309 571q39 0 68 18t35 52q5 36 -17.5 55t-51.5 19q-33 0 -55 -17.5t-30 -49.5h-60q14 54 53.5 86.5t100.5 32.5q30 0 54 -9t40 -25t23 -39t3 -51q-5 -30 -26 -57.5t-53 -41.5q34 -14 46 -45t7 -66q-11 -64 -59 -99t-115 -35q-30 0 -54.5 9t-41.5 25.5t-25 39.5t-4 51h60
q-5 -35 17 -54t59 -19q40 0 68.5 24t34.5 61q6 39 -17 62t-68 21zM868 743l-559 -756l-40 24l558 756zM774 315h-2l-172 -190h144zM864 125l-8 -52h-60l-12 -73h-60l12 73h-245l368 405h-1h2l-56 -353h60z" />
    <glyph glyph-name="questiondown" unicode="&#xbf;" horiz-adv-x="488" 
d="M322 483q23 0 37.5 -16.5t10.5 -39.5t-23 -39.5t-42 -16.5t-37 16.5t-10 39.5t22.5 39.5t41.5 16.5zM105 146q4 36 21 67.5t42.5 55t58.5 37t69 13.5q35 0 62.5 -12.5t46 -34.5t26 -52t2.5 -64q-6 -34 -20.5 -58.5t-36 -42.5t-48.5 -30.5t-57 -21.5q-25 -8 -49 -15
t-43.5 -19t-33.5 -31t-19 -50q-7 -46 17.5 -75t69.5 -29q21 0 40.5 7.5t34.5 21t25 31.5t13 39q5 26 2 48h83l-4 -53q-6 -39 -26 -70.5t-48.5 -54t-64 -34.5t-72.5 -12q-38 0 -69 14t-51.5 38t-29 57t-2.5 71q6 37 25 73t50 61q30 23 69 35.5t74 22.5q33 9 58.5 27t31.5 56
q5 34 -15.5 57t-54.5 23q-21 0 -37.5 -8t-28.5 -21.5t-19.5 -30.5t-10.5 -36h-81z" />
    <glyph glyph-name="Agrave" unicode="&#xc0;" horiz-adv-x="699" 
d="M452 1003l93 -164l-55 -28l-128 154zM446 594l-177 -302h255zM223 214l-125 -214h-92l473 790l214 -790h-93l-55 214h-322z" />
    <glyph glyph-name="Aacute" unicode="&#xc1;" horiz-adv-x="699" 
d="M645 965l-178 -154l-45 28l145 164zM446 594l-177 -302h255zM223 214l-125 -214h-92l473 790l214 -790h-93l-55 214h-322z" />
    <glyph glyph-name="Acircumflex" unicode="&#xc2;" horiz-adv-x="699" 
d="M507 996l137 -133l-65 -45l-87 85l-112 -85l-50 45zM446 594l-177 -302h255zM223 214l-125 -214h-92l473 790l214 -790h-93l-55 214h-322z" />
    <glyph glyph-name="Atilde" unicode="&#xc3;" horiz-adv-x="699" 
d="M315 886q23 30 50 54.5t65 24.5q23 0 41.5 -7t35.5 -16q17 -8 32 -15.5t29 -7.5q21 0 36.5 15.5t26.5 32.5l41 -38q-19 -33 -50.5 -57t-68.5 -24q-18 0 -36 7t-35 16q-17 8 -34 15t-33 7q-21 0 -33.5 -14.5t-23.5 -31.5zM446 594l-177 -302h255zM223 214l-125 -214h-92
l473 790l214 -790h-93l-55 214h-322z" />
    <glyph glyph-name="Adieresis" unicode="&#xc4;" horiz-adv-x="699" 
d="M601 964q23 0 36 -15.5t9 -38.5t-21.5 -38.5t-40.5 -15.5t-36.5 15.5t-9.5 38.5t22 38.5t41 15.5zM404 964q23 0 36 -15.5t9 -38.5t-21.5 -38.5t-40.5 -15.5t-36.5 15.5t-9.5 38.5t22 38.5t41 15.5zM446 594l-177 -302h255zM223 214l-125 -214h-92l473 790l214 -790h-93
l-55 214h-322z" />
    <glyph glyph-name="Aring" unicode="&#xc5;" horiz-adv-x="699" 
d="M502 956q-20 0 -36 -13.5t-19 -33.5t8.5 -34t31.5 -14t36 14t19 34t-8.5 33.5t-31.5 13.5zM510 1006q40 0 64 -28.5t18 -68.5q-3 -20 -13.5 -38t-26 -31.5t-34.5 -21t-39 -7.5q-41 0 -65 28.5t-17 69.5q3 20 13.5 37.5t26 31t34.5 21t39 7.5zM446 594l-177 -302h255z
M223 214l-125 -214h-92l473 790l214 -790h-93l-55 214h-322z" />
    <glyph glyph-name="AE" unicode="&#xc6;" horiz-adv-x="1000" 
d="M445 587l-175 -297h252zM222 212l-123 -212h-93l455 754h331l22 -78h-305l58 -225h297l23 -78h-298l76 -295h306l21 -78h-393l-55 212h-322z" />
    <glyph glyph-name="Ccedilla" unicode="&#xc7;" horiz-adv-x="717" 
d="M298 -199l-51 28l119 148l70 -30zM744 589q-38 47 -93 73.5t-121 26.5q-63 0 -122.5 -25.5t-107.5 -68.5t-80.5 -99.5t-42.5 -118.5t5 -118.5t49.5 -99.5t86.5 -68.5t115 -25.5q64 0 128 27.5t116 72.5l-16 -104q-55 -35 -116 -54.5t-121 -19.5q-80 0 -146.5 30.5
t-112 83t-66 123t-7.5 150.5q13 81 55 152.5t104 125t138.5 84.5t157.5 31q127 0 214 -74z" />
    <glyph glyph-name="Egrave" unicode="&#xc8;" horiz-adv-x="534" 
d="M384 1003l93 -164l-55 -28l-128 154zM195 754h391l-12 -78h-307l-35 -224h298l-13 -78h-298l-47 -296h307l-12 -78h-391z" />
    <glyph glyph-name="Eacute" unicode="&#xc9;" horiz-adv-x="534" 
d="M562 965l-178 -154l-45 28l145 164zM195 754h391l-12 -78h-307l-35 -224h298l-13 -78h-298l-47 -296h307l-12 -78h-391z" />
    <glyph glyph-name="Ecircumflex" unicode="&#xca;" horiz-adv-x="534" 
d="M424 996l137 -133l-65 -45l-87 85l-112 -85l-50 45zM195 754h391l-12 -78h-307l-35 -224h298l-13 -78h-298l-47 -296h307l-12 -78h-391z" />
    <glyph glyph-name="Edieresis" unicode="&#xcb;" horiz-adv-x="534" 
d="M519 964q23 0 36 -15.5t9 -38.5t-21.5 -38.5t-40.5 -15.5t-36.5 15.5t-9.5 38.5t22 38.5t41 15.5zM322 964q23 0 36 -15.5t9 -38.5t-21.5 -38.5t-40.5 -15.5t-36.5 15.5t-9.5 38.5t22 38.5t41 15.5zM195 754h391l-12 -78h-307l-35 -224h298l-13 -78h-298l-47 -296h307
l-12 -78h-391z" />
    <glyph glyph-name="Igrave" unicode="&#xcc;" horiz-adv-x="239" 
d="M237 1003l93 -164l-55 -28l-128 154zM162 0h-84l119 754h84z" />
    <glyph glyph-name="Iacute" unicode="&#xcd;" horiz-adv-x="239" 
d="M400 965l-178 -154l-45 28l145 164zM162 0h-84l119 754h84z" />
    <glyph glyph-name="Icircumflex" unicode="&#xce;" horiz-adv-x="239" 
d="M277 996l137 -133l-65 -45l-87 85l-112 -85l-50 45zM162 0h-84l119 754h84z" />
    <glyph glyph-name="Idieresis" unicode="&#xcf;" horiz-adv-x="239" 
d="M371 964q23 0 36 -15.5t9 -38.5t-21.5 -38.5t-40.5 -15.5t-36.5 15.5t-9.5 38.5t22 38.5t41 15.5zM174 964q23 0 36 -15.5t9 -38.5t-21.5 -38.5t-40.5 -15.5t-36.5 15.5t-9.5 38.5t22 38.5t41 15.5zM162 0h-84l119 754h84z" />
    <glyph glyph-name="Eth" unicode="&#xd0;" horiz-adv-x="678" 
d="M233 78q34 0 66.5 3t63.5 11.5t61 24t60 39.5q54 44 86 101t43 120q10 65 -5 124t-57 102q-45 46 -100.5 59.5t-122.5 13.5h-61l-37 -234h134l-11 -72h-134l-47 -292h61zM135 370h-76l11 72h76l49 312h142q42 0 80.5 -3.5t73 -13.5t66 -28t60.5 -46q56 -56 74.5 -129
t5.5 -158q-14 -83 -55 -154t-113 -127q-39 -30 -76 -48.5t-75 -29t-78 -14t-84 -3.5h-140z" />
    <glyph glyph-name="Ntilde" unicode="&#xd1;" horiz-adv-x="834" 
d="M382 886q23 30 50 54.5t65 24.5q23 0 41.5 -7t35.5 -16q17 -8 32 -15.5t29 -7.5q21 0 36.5 15.5t26.5 32.5l41 -38q-19 -33 -50.5 -57t-68.5 -24q-18 0 -36 7t-35 16q-17 8 -34 15t-33 7q-21 0 -33.5 -14.5t-23.5 -31.5zM205 786l491 -616l92 584h84l-124 -788l-491 615
l-92 -581h-84z" />
    <glyph glyph-name="Ograve" unicode="&#xd2;" horiz-adv-x="862" 
d="M533 1003l93 -164l-55 -28l-128 154zM540 689q-65 0 -125 -24.5t-108.5 -67t-81.5 -99.5t-43 -121t5 -120.5t50 -99t87.5 -67.5t116.5 -25t124.5 25t109 67.5t82 99t43.5 120.5t-5 121t-50 99.5t-87.5 67t-117.5 24.5zM552 767q81 0 147.5 -30.5t112 -84t65.5 -124.5
t7 -152t-55.5 -152t-104.5 -123.5t-138 -83t-157 -30.5t-147.5 30.5t-111.5 83t-65 123.5t-7 152t55 152t104 124.5t138 84t157 30.5z" />
    <glyph glyph-name="Oacute" unicode="&#xd3;" horiz-adv-x="862" 
d="M726 965l-178 -154l-45 28l145 164zM540 689q-65 0 -125 -24.5t-108.5 -67t-81.5 -99.5t-43 -121t5 -120.5t50 -99t87.5 -67.5t116.5 -25t124.5 25t109 67.5t82 99t43.5 120.5t-5 121t-50 99.5t-87.5 67t-117.5 24.5zM552 767q81 0 147.5 -30.5t112 -84t65.5 -124.5
t7 -152t-55.5 -152t-104.5 -123.5t-138 -83t-157 -30.5t-147.5 30.5t-111.5 83t-65 123.5t-7 152t55 152t104 124.5t138 84t157 30.5z" />
    <glyph glyph-name="Ocircumflex" unicode="&#xd4;" horiz-adv-x="862" 
d="M588 996l137 -133l-65 -45l-87 85l-112 -85l-50 45zM540 689q-65 0 -125 -24.5t-108.5 -67t-81.5 -99.5t-43 -121t5 -120.5t50 -99t87.5 -67.5t116.5 -25t124.5 25t109 67.5t82 99t43.5 120.5t-5 121t-50 99.5t-87.5 67t-117.5 24.5zM552 767q81 0 147.5 -30.5t112 -84
t65.5 -124.5t7 -152t-55.5 -152t-104.5 -123.5t-138 -83t-157 -30.5t-147.5 30.5t-111.5 83t-65 123.5t-7 152t55 152t104 124.5t138 84t157 30.5z" />
    <glyph glyph-name="Otilde" unicode="&#xd5;" horiz-adv-x="862" 
d="M396 886q23 30 50 54.5t65 24.5q23 0 41.5 -7t35.5 -16q17 -8 32 -15.5t29 -7.5q21 0 36.5 15.5t26.5 32.5l41 -38q-19 -33 -50.5 -57t-68.5 -24q-18 0 -36 7t-35 16q-17 8 -34 15t-33 7q-21 0 -33.5 -14.5t-23.5 -31.5zM540 689q-65 0 -125 -24.5t-108.5 -67
t-81.5 -99.5t-43 -121t5 -120.5t50 -99t87.5 -67.5t116.5 -25t124.5 25t109 67.5t82 99t43.5 120.5t-5 121t-50 99.5t-87.5 67t-117.5 24.5zM552 767q81 0 147.5 -30.5t112 -84t65.5 -124.5t7 -152t-55.5 -152t-104.5 -123.5t-138 -83t-157 -30.5t-147.5 30.5t-111.5 83
t-65 123.5t-7 152t55 152t104 124.5t138 84t157 30.5z" />
    <glyph glyph-name="Odieresis" unicode="&#xd6;" horiz-adv-x="862" 
d="M683 964q23 0 36 -15.5t9 -38.5t-21.5 -38.5t-40.5 -15.5t-36.5 15.5t-9.5 38.5t22 38.5t41 15.5zM486 964q23 0 36 -15.5t9 -38.5t-21.5 -38.5t-40.5 -15.5t-36.5 15.5t-9.5 38.5t22 38.5t41 15.5zM540 689q-65 0 -125 -24.5t-108.5 -67t-81.5 -99.5t-43 -121t5 -120.5
t50 -99t87.5 -67.5t116.5 -25t124.5 25t109 67.5t82 99t43.5 120.5t-5 121t-50 99.5t-87.5 67t-117.5 24.5zM552 767q81 0 147.5 -30.5t112 -84t65.5 -124.5t7 -152t-55.5 -152t-104.5 -123.5t-138 -83t-157 -30.5t-147.5 30.5t-111.5 83t-65 123.5t-7 152t55 152t104 124.5
t138 84t157 30.5z" />
    <glyph glyph-name="multiply" unicode="&#xd7;" 
d="M200 498l157 -187l216 187l47 -55l-216 -187l157 -187l-65 -55l-156 187l-217 -187l-46 55l217 187l-158 187z" />
    <glyph glyph-name="Oslash" unicode="&#xd8;" horiz-adv-x="862" 
d="M151 126q-35 51 -50 114.5t-3 135.5q13 81 55 152t104 124.5t138 84t157 30.5q72 0 132 -24t105 -67l106 91l39 -45l-106 -91q37 -51 52 -116t4 -139q-13 -81 -55.5 -152t-104.5 -123.5t-138 -83t-157 -30.5q-73 0 -134 24.5t-106 68.5l-105 -90l-36 47zM256 138
q35 -35 81.5 -54t103.5 -19q64 0 124.5 25t109 67.5t82 99t43.5 120.5q8 56 -2 105.5t-36 91.5zM724 620q-34 32 -80.5 50.5t-103.5 18.5q-65 0 -125 -24.5t-108.5 -67t-81.5 -99.5t-43 -121q-9 -55 1 -104t35 -89z" />
    <glyph glyph-name="Ugrave" unicode="&#xd9;" horiz-adv-x="685" 
d="M445 1003l93 -164l-55 -28l-128 154zM206 305q-3 -21 -6.5 -43t-4 -44t3 -42.5t14.5 -38.5q19 -35 58.5 -53.5t81.5 -18.5q41 0 84 17.5t75 49.5q18 18 29 39t17.5 43.5t10.5 45.5t7 45l71 449h84l-74 -472q-5 -31 -11.5 -58.5t-17 -53.5t-27.5 -50t-43 -47
q-46 -42 -103 -64t-114 -22q-54 0 -102.5 19.5t-80.5 57.5q-21 24 -31.5 48.5t-14 51.5t-1 56.5t7.5 61.5l74 472h84z" />
    <glyph glyph-name="Uacute" unicode="&#xda;" horiz-adv-x="685" 
d="M638 965l-178 -154l-45 28l145 164zM206 305q-3 -21 -6.5 -43t-4 -44t3 -42.5t14.5 -38.5q19 -35 58.5 -53.5t81.5 -18.5q41 0 84 17.5t75 49.5q18 18 29 39t17.5 43.5t10.5 45.5t7 45l71 449h84l-74 -472q-5 -31 -11.5 -58.5t-17 -53.5t-27.5 -50t-43 -47
q-46 -42 -103 -64t-114 -22q-54 0 -102.5 19.5t-80.5 57.5q-21 24 -31.5 48.5t-14 51.5t-1 56.5t7.5 61.5l74 472h84z" />
    <glyph glyph-name="Ucircumflex" unicode="&#xdb;" horiz-adv-x="685" 
d="M500 996l137 -133l-65 -45l-87 85l-112 -85l-50 45zM206 305q-3 -21 -6.5 -43t-4 -44t3 -42.5t14.5 -38.5q19 -35 58.5 -53.5t81.5 -18.5q41 0 84 17.5t75 49.5q18 18 29 39t17.5 43.5t10.5 45.5t7 45l71 449h84l-74 -472q-5 -31 -11.5 -58.5t-17 -53.5t-27.5 -50
t-43 -47q-46 -42 -103 -64t-114 -22q-54 0 -102.5 19.5t-80.5 57.5q-21 24 -31.5 48.5t-14 51.5t-1 56.5t7.5 61.5l74 472h84z" />
    <glyph glyph-name="Udieresis" unicode="&#xdc;" horiz-adv-x="685" 
d="M594 964q23 0 36 -15.5t9 -38.5t-21.5 -38.5t-40.5 -15.5t-36.5 15.5t-9.5 38.5t22 38.5t41 15.5zM397 964q23 0 36 -15.5t9 -38.5t-21.5 -38.5t-40.5 -15.5t-36.5 15.5t-9.5 38.5t22 38.5t41 15.5zM206 305q-3 -21 -6.5 -43t-4 -44t3 -42.5t14.5 -38.5
q19 -35 58.5 -53.5t81.5 -18.5q41 0 84 17.5t75 49.5q18 18 29 39t17.5 43.5t10.5 45.5t7 45l71 449h84l-74 -472q-5 -31 -11.5 -58.5t-17 -53.5t-27.5 -50t-43 -47q-46 -42 -103 -64t-114 -22q-54 0 -102.5 19.5t-80.5 57.5q-21 24 -31.5 48.5t-14 51.5t-1 56.5t7.5 61.5
l74 472h84z" />
    <glyph glyph-name="Yacute" unicode="&#xdd;" horiz-adv-x="593" 
d="M612 965l-178 -154l-45 28l145 164zM127 754h97l139 -336l245 336h97l-315 -430l-51 -324h-84l51 324z" />
    <glyph glyph-name="Thorn" unicode="&#xde;" horiz-adv-x="503" 
d="M202 268h56q35 0 67 6t58.5 21.5t44.5 41.5t24 67q7 46 -6 72.5t-38.5 39.5t-60 16.5t-71.5 3.5h-31zM160 0h-84l119 754h84l-22 -140h40q49 0 96.5 -6t84.5 -34q38 -29 52 -75t6 -97q-8 -46 -33 -89.5t-65 -72.5q-44 -32 -91.5 -41t-95.5 -9h-61z" />
    <glyph glyph-name="germandbls" unicode="&#xdf;" horiz-adv-x="577" 
d="M135 396h-44l11 74h44l23 144q7 40 20 81t44 73q33 36 79.5 53t90.5 17q41 0 74 -14t55 -39t31.5 -59.5t3.5 -75.5q-8 -45 -35.5 -85.5t-71.5 -60.5q35 -13 61 -38t41.5 -57t21 -70t-0.5 -76q-9 -59 -40.5 -109t-77 -87t-101 -58t-112.5 -22l12 74q42 3 82 19t72 43
t54 63.5t29 79.5q7 42 -5.5 82t-41.5 66q-26 22 -59 31.5t-68 12.5l11 74q28 0 53 8t45 24t33.5 38.5t18.5 51.5q7 49 -21 79.5t-77 30.5q-32 0 -64 -14t-49 -46q-15 -26 -22 -62.5t-12 -64.5l-91 -577h-80z" />
    <glyph glyph-name="agrave" unicode="&#xe0;" horiz-adv-x="577" 
d="M350 744l93 -164l-55 -28l-128 154zM505 0h-80l10 65h-2q-74 -78 -174 -78q-52 0 -90.5 20.5t-62.5 54.5t-32.5 78.5t-0.5 93.5q8 50 30.5 95.5t57 79.5t79.5 54t98 20q48 0 87 -21t62 -59h2l10 67h80zM336 409q-35 0 -65.5 -14t-54 -37.5t-39.5 -54t-21 -63.5
q-6 -35 -1 -67t21 -57t42 -40t64 -15q39 0 70.5 14.5t55 39t38.5 56.5t21 68q6 35 0 66t-22.5 54t-44 36.5t-64.5 13.5z" />
    <glyph glyph-name="aacute" unicode="&#xe1;" horiz-adv-x="577" 
d="M543 706l-178 -154l-45 28l145 164zM505 0h-80l10 65h-2q-74 -78 -174 -78q-52 0 -90.5 20.5t-62.5 54.5t-32.5 78.5t-0.5 93.5q8 50 30.5 95.5t57 79.5t79.5 54t98 20q48 0 87 -21t62 -59h2l10 67h80zM336 409q-35 0 -65.5 -14t-54 -37.5t-39.5 -54t-21 -63.5
q-6 -35 -1 -67t21 -57t42 -40t64 -15q39 0 70.5 14.5t55 39t38.5 56.5t21 68q6 35 0 66t-22.5 54t-44 36.5t-64.5 13.5z" />
    <glyph glyph-name="acircumflex" unicode="&#xe2;" horiz-adv-x="577" 
d="M405 737l137 -133l-65 -45l-87 85l-112 -85l-50 45zM505 0h-80l10 65h-2q-74 -78 -174 -78q-52 0 -90.5 20.5t-62.5 54.5t-32.5 78.5t-0.5 93.5q8 50 30.5 95.5t57 79.5t79.5 54t98 20q48 0 87 -21t62 -59h2l10 67h80zM336 409q-35 0 -65.5 -14t-54 -37.5t-39.5 -54
t-21 -63.5q-6 -35 -1 -67t21 -57t42 -40t64 -15q39 0 70.5 14.5t55 39t38.5 56.5t21 68q6 35 0 66t-22.5 54t-44 36.5t-64.5 13.5z" />
    <glyph glyph-name="atilde" unicode="&#xe3;" horiz-adv-x="577" 
d="M213 627q23 30 50 54.5t65 24.5q23 0 41.5 -7t35.5 -16q17 -8 32 -15.5t29 -7.5q21 0 36.5 15.5t26.5 32.5l41 -38q-19 -33 -50.5 -57t-68.5 -24q-18 0 -36 7t-35 16q-17 8 -34 15t-33 7q-21 0 -33.5 -14.5t-23.5 -31.5zM505 0h-80l10 65h-2q-74 -78 -174 -78
q-52 0 -90.5 20.5t-62.5 54.5t-32.5 78.5t-0.5 93.5q8 50 30.5 95.5t57 79.5t79.5 54t98 20q48 0 87 -21t62 -59h2l10 67h80zM336 409q-35 0 -65.5 -14t-54 -37.5t-39.5 -54t-21 -63.5q-6 -35 -1 -67t21 -57t42 -40t64 -15q39 0 70.5 14.5t55 39t38.5 56.5t21 68q6 35 0 66
t-22.5 54t-44 36.5t-64.5 13.5z" />
    <glyph glyph-name="adieresis" unicode="&#xe4;" horiz-adv-x="577" 
d="M499 705q23 0 36 -15.5t9 -38.5t-21.5 -38.5t-40.5 -15.5t-36.5 15.5t-9.5 38.5t22 38.5t41 15.5zM302 705q23 0 36 -15.5t9 -38.5t-21.5 -38.5t-40.5 -15.5t-36.5 15.5t-9.5 38.5t22 38.5t41 15.5zM505 0h-80l10 65h-2q-74 -78 -174 -78q-52 0 -90.5 20.5t-62.5 54.5
t-32.5 78.5t-0.5 93.5q8 50 30.5 95.5t57 79.5t79.5 54t98 20q48 0 87 -21t62 -59h2l10 67h80zM336 409q-35 0 -65.5 -14t-54 -37.5t-39.5 -54t-21 -63.5q-6 -35 -1 -67t21 -57t42 -40t64 -15q39 0 70.5 14.5t55 39t38.5 56.5t21 68q6 35 0 66t-22.5 54t-44 36.5t-64.5 13.5
z" />
    <glyph glyph-name="aring" unicode="&#xe5;" horiz-adv-x="577" 
d="M400 697q-20 0 -36 -13.5t-19 -33.5t8.5 -34t31.5 -14t36 14t19 34t-8.5 33.5t-31.5 13.5zM408 747q40 0 64 -28.5t18 -68.5q-3 -20 -13.5 -38t-26 -31.5t-34.5 -21t-39 -7.5q-41 0 -65 28.5t-17 69.5q3 20 13.5 37.5t26 31t34.5 21t39 7.5zM505 0h-80l10 65h-2
q-74 -78 -174 -78q-52 0 -90.5 20.5t-62.5 54.5t-32.5 78.5t-0.5 93.5q8 50 30.5 95.5t57 79.5t79.5 54t98 20q48 0 87 -21t62 -59h2l10 67h80zM336 409q-35 0 -65.5 -14t-54 -37.5t-39.5 -54t-21 -63.5q-6 -35 -1 -67t21 -57t42 -40t64 -15q39 0 70.5 14.5t55 39t38.5 56.5
t21 68q6 35 0 66t-22.5 54t-44 36.5t-64.5 13.5z" />
    <glyph glyph-name="ae" unicode="&#xe6;" horiz-adv-x="843" 
d="M474 218q-5 -33 2 -61.5t23.5 -49.5t43 -33.5t60.5 -12.5q51 0 89.5 27.5t68.5 69.5l62 -39q-44 -63 -105 -97.5t-133 -34.5q-53 0 -97 23t-68 70q-38 -51 -85.5 -72t-105.5 -21q-35 0 -69.5 8.5t-61 26.5t-40 46.5t-7.5 69.5t28.5 70.5t53.5 48.5t67.5 28t71.5 9
q39 0 68.5 -9t58.5 -31q5 35 3 63.5t-14.5 49t-36.5 31.5t-62 11q-37 0 -74 -9t-75 -21l12 76q39 11 76.5 19.5t76.5 8.5q26 0 51.5 -5.5t47 -17.5t37.5 -30.5t23 -43.5q18 23 41 41t49 30.5t53.5 19t53.5 6.5q57 0 96.5 -21.5t62 -58.5t28.5 -85t-4 -100h-370zM263 223
q-19 0 -40.5 -4.5t-40.5 -14.5t-33 -26t-18 -38q-3 -23 6 -38t24.5 -24t36 -13t39.5 -4q20 0 43 4t43 13.5t35 25.5t19 40q3 23 -7.5 38t-28.5 24t-39 13t-39 4zM773 286q0 25 -8.5 47.5t-24 39.5t-37.5 26.5t-48 9.5t-51.5 -9.5t-48 -26.5t-39 -39.5t-24.5 -47.5h281z" />
    <glyph glyph-name="ccedilla" unicode="&#xe7;" horiz-adv-x="476" 
d="M178 -199l-51 28l119 148l70 -30zM477 330h-2q-22 35 -53.5 57t-79.5 22q-36 0 -69 -14t-59 -38t-43 -55.5t-23 -66.5t1 -66.5t24.5 -55.5t45 -38t64.5 -14q51 0 90.5 21.5t74.5 59.5h2l-16 -107q-38 -23 -76.5 -35.5t-80.5 -12.5q-53 0 -96 19t-71 52t-40 78.5t-4 98.5
q8 52 35 97.5t66.5 79t88 52.5t100.5 19q38 0 74 -12t64 -35z" />
    <glyph glyph-name="egrave" unicode="&#xe8;" horiz-adv-x="519" 
d="M321 744l93 -164l-55 -28l-128 154zM446 286q0 25 -8.5 47.5t-24 39.5t-37.5 26.5t-48 9.5t-51.5 -9.5t-48 -26.5t-39 -39.5t-24.5 -47.5h281zM151 218q-5 -33 2 -61.5t23.5 -49.5t43 -33.5t60.5 -12.5q51 0 89.5 27.5t68.5 69.5l62 -39q-44 -63 -105 -97.5t-133 -34.5
q-53 0 -92.5 19t-64 51.5t-34 76.5t-1.5 95q8 52 30.5 98.5t57 81t80 54.5t100.5 20q57 0 96.5 -21.5t62.5 -58.5t28.5 -85t-5.5 -100h-369z" />
    <glyph glyph-name="eacute" unicode="&#xe9;" horiz-adv-x="519" 
d="M514 706l-178 -154l-45 28l145 164zM446 286q0 25 -8.5 47.5t-24 39.5t-37.5 26.5t-48 9.5t-51.5 -9.5t-48 -26.5t-39 -39.5t-24.5 -47.5h281zM151 218q-5 -33 2 -61.5t23.5 -49.5t43 -33.5t60.5 -12.5q51 0 89.5 27.5t68.5 69.5l62 -39q-44 -63 -105 -97.5t-133 -34.5
q-53 0 -92.5 19t-64 51.5t-34 76.5t-1.5 95q8 52 30.5 98.5t57 81t80 54.5t100.5 20q57 0 96.5 -21.5t62.5 -58.5t28.5 -85t-5.5 -100h-369z" />
    <glyph glyph-name="ecircumflex" unicode="&#xea;" horiz-adv-x="519" 
d="M376 737l137 -133l-65 -45l-87 85l-112 -85l-50 45zM446 286q0 25 -8.5 47.5t-24 39.5t-37.5 26.5t-48 9.5t-51.5 -9.5t-48 -26.5t-39 -39.5t-24.5 -47.5h281zM151 218q-5 -33 2 -61.5t23.5 -49.5t43 -33.5t60.5 -12.5q51 0 89.5 27.5t68.5 69.5l62 -39
q-44 -63 -105 -97.5t-133 -34.5q-53 0 -92.5 19t-64 51.5t-34 76.5t-1.5 95q8 52 30.5 98.5t57 81t80 54.5t100.5 20q57 0 96.5 -21.5t62.5 -58.5t28.5 -85t-5.5 -100h-369z" />
    <glyph glyph-name="edieresis" unicode="&#xeb;" horiz-adv-x="519" 
d="M470 705q23 0 36 -15.5t9 -38.5t-21.5 -38.5t-40.5 -15.5t-36.5 15.5t-9.5 38.5t22 38.5t41 15.5zM273 705q23 0 36 -15.5t9 -38.5t-21.5 -38.5t-40.5 -15.5t-36.5 15.5t-9.5 38.5t22 38.5t41 15.5zM446 286q0 25 -8.5 47.5t-24 39.5t-37.5 26.5t-48 9.5t-51.5 -9.5
t-48 -26.5t-39 -39.5t-24.5 -47.5h281zM151 218q-5 -33 2 -61.5t23.5 -49.5t43 -33.5t60.5 -12.5q51 0 89.5 27.5t68.5 69.5l62 -39q-44 -63 -105 -97.5t-133 -34.5q-53 0 -92.5 19t-64 51.5t-34 76.5t-1.5 95q8 52 30.5 98.5t57 81t80 54.5t100.5 20q57 0 96.5 -21.5
t62.5 -58.5t28.5 -85t-5.5 -100h-369z" />
    <glyph glyph-name="igrave" unicode="&#xec;" horiz-adv-x="262" 
d="M207 744l93 -164l-55 -28l-128 154zM171 0h-80l74 470h80z" />
    <glyph glyph-name="iacute" unicode="&#xed;" horiz-adv-x="262" 
d="M370 706l-178 -154l-45 28l145 164zM171 0h-80l74 470h80z" />
    <glyph glyph-name="icircumflex" unicode="&#xee;" horiz-adv-x="262" 
d="M247 737l137 -133l-65 -45l-87 85l-112 -85l-50 45zM171 0h-80l74 470h80z" />
    <glyph glyph-name="idieresis" unicode="&#xef;" horiz-adv-x="262" 
d="M342 705q23 0 36 -15.5t9 -38.5t-21.5 -38.5t-40.5 -15.5t-36.5 15.5t-9.5 38.5t22 38.5t41 15.5zM145 705q23 0 36 -15.5t9 -38.5t-21.5 -38.5t-40.5 -15.5t-36.5 15.5t-9.5 38.5t22 38.5t41 15.5zM171 0h-80l74 470h80z" />
    <glyph glyph-name="eth" unicode="&#xf0;" horiz-adv-x="561" 
d="M152 236q-6 -39 2 -71t27.5 -55t47.5 -35.5t63 -12.5q37 0 69.5 14t58 38t42.5 55.5t23 66.5q6 34 -1 65.5t-25 55.5t-46 38.5t-65 14.5t-70 -13.5t-59 -37t-43.5 -55t-23.5 -68.5zM269 831l38.5 -28t29.5 -22.5t25.5 -21.5t27.5 -26l153 92l33 -41l-148 -90
q10 -12 27 -32.5t35.5 -49.5t36.5 -66t30 -81.5t16 -97t-5 -111.5q-11 -71 -42 -121.5t-72.5 -83t-87.5 -48t-87 -15.5q-52 0 -94 19.5t-70 53t-40 78.5t-4 96q7 47 31.5 91.5t61.5 79t84 55t101 20.5q33 0 58 -7.5t42 -17.5t28.5 -21t17.5 -18q-14 70 -49.5 129t-81.5 110
l-147 -89l-33 41l144 87q-11 11 -36 33.5t-75 56.5z" />
    <glyph glyph-name="ntilde" unicode="&#xf1;" horiz-adv-x="528" 
d="M188 627q23 30 50 54.5t65 24.5q23 0 41.5 -7t35.5 -16q17 -8 32 -15.5t29 -7.5q21 0 36.5 15.5t26.5 32.5l41 -38q-19 -33 -50.5 -57t-68.5 -24q-18 0 -36 7t-35 16q-17 8 -34 15t-33 7q-21 0 -33.5 -14.5t-23.5 -31.5zM221 413h2q31 34 66 52t79 18q49 0 77.5 -16.5
t42 -44.5t14.5 -65t-6 -78l-44 -279h-80l42 265q4 28 6 54.5t-4.5 46t-24.5 31.5t-53 12q-41 0 -67.5 -17.5t-42 -44.5t-24 -60t-13.5 -64l-35 -223h-80l74 470h80z" />
    <glyph glyph-name="ograve" unicode="&#xf2;" horiz-adv-x="562" 
d="M342 744l93 -164l-55 -28l-128 154zM346 409q-37 0 -70 -14t-59 -37.5t-43 -55t-23 -67.5t1.5 -67.5t26 -55.5t47 -37.5t65.5 -13.5t70 13.5t58.5 37.5t42.5 55.5t23 67.5t-1.5 67.5t-25.5 55t-46.5 37.5t-65.5 14zM279 -13q-51 0 -93 19t-70.5 52.5t-40.5 78.5t-4 97
t34.5 97t65 79t86.5 53.5t100 19.5t94 -19.5t70 -53.5t40 -79t4 -97t-34.5 -97t-65.5 -78.5t-87 -52.5t-99 -19z" />
    <glyph glyph-name="oacute" unicode="&#xf3;" horiz-adv-x="562" 
d="M535 706l-178 -154l-45 28l145 164zM346 409q-37 0 -70 -14t-59 -37.5t-43 -55t-23 -67.5t1.5 -67.5t26 -55.5t47 -37.5t65.5 -13.5t70 13.5t58.5 37.5t42.5 55.5t23 67.5t-1.5 67.5t-25.5 55t-46.5 37.5t-65.5 14zM279 -13q-51 0 -93 19t-70.5 52.5t-40.5 78.5t-4 97
t34.5 97t65 79t86.5 53.5t100 19.5t94 -19.5t70 -53.5t40 -79t4 -97t-34.5 -97t-65.5 -78.5t-87 -52.5t-99 -19z" />
    <glyph glyph-name="ocircumflex" unicode="&#xf4;" horiz-adv-x="562" 
d="M397 737l137 -133l-65 -45l-87 85l-112 -85l-50 45zM346 409q-37 0 -70 -14t-59 -37.5t-43 -55t-23 -67.5t1.5 -67.5t26 -55.5t47 -37.5t65.5 -13.5t70 13.5t58.5 37.5t42.5 55.5t23 67.5t-1.5 67.5t-25.5 55t-46.5 37.5t-65.5 14zM279 -13q-51 0 -93 19t-70.5 52.5
t-40.5 78.5t-4 97t34.5 97t65 79t86.5 53.5t100 19.5t94 -19.5t70 -53.5t40 -79t4 -97t-34.5 -97t-65.5 -78.5t-87 -52.5t-99 -19z" />
    <glyph glyph-name="otilde" unicode="&#xf5;" horiz-adv-x="562" 
d="M205 627q23 30 50 54.5t65 24.5q23 0 41.5 -7t35.5 -16q17 -8 32 -15.5t29 -7.5q21 0 36.5 15.5t26.5 32.5l41 -38q-19 -33 -50.5 -57t-68.5 -24q-18 0 -36 7t-35 16q-17 8 -34 15t-33 7q-21 0 -33.5 -14.5t-23.5 -31.5zM346 409q-37 0 -70 -14t-59 -37.5t-43 -55
t-23 -67.5t1.5 -67.5t26 -55.5t47 -37.5t65.5 -13.5t70 13.5t58.5 37.5t42.5 55.5t23 67.5t-1.5 67.5t-25.5 55t-46.5 37.5t-65.5 14zM279 -13q-51 0 -93 19t-70.5 52.5t-40.5 78.5t-4 97t34.5 97t65 79t86.5 53.5t100 19.5t94 -19.5t70 -53.5t40 -79t4 -97t-34.5 -97
t-65.5 -78.5t-87 -52.5t-99 -19z" />
    <glyph glyph-name="odieresis" unicode="&#xf6;" horiz-adv-x="562" 
d="M492 705q23 0 36 -15.5t9 -38.5t-21.5 -38.5t-40.5 -15.5t-36.5 15.5t-9.5 38.5t22 38.5t41 15.5zM295 705q23 0 36 -15.5t9 -38.5t-21.5 -38.5t-40.5 -15.5t-36.5 15.5t-9.5 38.5t22 38.5t41 15.5zM346 409q-37 0 -70 -14t-59 -37.5t-43 -55t-23 -67.5t1.5 -67.5
t26 -55.5t47 -37.5t65.5 -13.5t70 13.5t58.5 37.5t42.5 55.5t23 67.5t-1.5 67.5t-25.5 55t-46.5 37.5t-65.5 14zM279 -13q-51 0 -93 19t-70.5 52.5t-40.5 78.5t-4 97t34.5 97t65 79t86.5 53.5t100 19.5t94 -19.5t70 -53.5t40 -79t4 -97t-34.5 -97t-65.5 -78.5t-87 -52.5
t-99 -19z" />
    <glyph glyph-name="divide" unicode="&#xf7;" 
d="M388 502q23 0 37 -17t10 -40q-4 -24 -23.5 -40.5t-42.5 -16.5t-37.5 16.5t-10.5 40.5q4 23 24 40t43 17zM328 124q23 0 37.5 -17t10.5 -40q-4 -24 -23.5 -40.5t-42.5 -16.5t-37.5 16.5t-10.5 40.5q4 23 23.5 40t42.5 17zM113 295h484l-13 -78h-484z" />
    <glyph glyph-name="oslash" unicode="&#xf8;" horiz-adv-x="562" 
d="M101 79q-21 32 -29 71t-1 84q8 52 34.5 97t65 79t86.5 53.5t100 19.5q45 0 83 -14.5t65 -40.5l76 66l33 -38l-77 -67q20 -31 27.5 -70.5t0.5 -84.5q-8 -52 -34.5 -97t-65.5 -78.5t-87 -52.5t-99 -19q-44 0 -81 14t-65 39l-78 -68l-33 39zM196 94q36 -33 95 -33
q37 0 70 13.5t58.5 37.5t42.5 55.5t23 67.5q9 56 -13 98zM442 374q-17 17 -41.5 26t-54.5 9q-37 0 -70 -14t-59 -37.5t-43 -55t-23 -67.5q-5 -29 -1 -54.5t14 -46.5z" />
    <glyph glyph-name="ugrave" unicode="&#xf9;" horiz-adv-x="512" 
d="M317 744l93 -164l-55 -28l-128 154zM183 208q-5 -30 -6 -56.5t6.5 -46.5t27 -32t55.5 -12t59 12t37 32t21 46.5t12 56.5l41 262h80l-42 -271q-8 -47 -23.5 -86t-42 -67t-64.5 -43.5t-90 -15.5t-85 15.5t-50.5 43.5t-21 67t4.5 86l42 271h80z" />
    <glyph glyph-name="uacute" unicode="&#xfa;" horiz-adv-x="512" 
d="M510 706l-178 -154l-45 28l145 164zM183 208q-5 -30 -6 -56.5t6.5 -46.5t27 -32t55.5 -12t59 12t37 32t21 46.5t12 56.5l41 262h80l-42 -271q-8 -47 -23.5 -86t-42 -67t-64.5 -43.5t-90 -15.5t-85 15.5t-50.5 43.5t-21 67t4.5 86l42 271h80z" />
    <glyph glyph-name="ucircumflex" unicode="&#xfb;" horiz-adv-x="512" 
d="M372 737l137 -133l-65 -45l-87 85l-112 -85l-50 45zM183 208q-5 -30 -6 -56.5t6.5 -46.5t27 -32t55.5 -12t59 12t37 32t21 46.5t12 56.5l41 262h80l-42 -271q-8 -47 -23.5 -86t-42 -67t-64.5 -43.5t-90 -15.5t-85 15.5t-50.5 43.5t-21 67t4.5 86l42 271h80z" />
    <glyph glyph-name="udieresis" unicode="&#xfc;" horiz-adv-x="512" 
d="M467 705q23 0 36 -15.5t9 -38.5t-21.5 -38.5t-40.5 -15.5t-36.5 15.5t-9.5 38.5t22 38.5t41 15.5zM270 705q23 0 36 -15.5t9 -38.5t-21.5 -38.5t-40.5 -15.5t-36.5 15.5t-9.5 38.5t22 38.5t41 15.5zM183 208q-5 -30 -6 -56.5t6.5 -46.5t27 -32t55.5 -12t59 12t37 32
t21 46.5t12 56.5l41 262h80l-42 -271q-8 -47 -23.5 -86t-42 -67t-64.5 -43.5t-90 -15.5t-85 15.5t-50.5 43.5t-21 67t4.5 86l42 271h80z" />
    <glyph glyph-name="yacute" unicode="&#xfd;" horiz-adv-x="498" 
d="M523 706l-178 -154l-45 28l145 164zM72 470h93l113 -337l205 337h91l-463 -734h-91l201 308z" />
    <glyph glyph-name="thorn" unicode="&#xfe;" horiz-adv-x="577" 
d="M366 409q-35 0 -65.5 -14t-54 -37.5t-39.5 -54t-21 -63.5q-6 -35 -1 -67t21 -57t42 -40t64 -15q39 0 70.5 14.5t55 39t38.5 56.5t21 68q6 35 0 66t-22.5 54t-44 36.5t-64.5 13.5zM216 403h2q35 39 80 59.5t94 20.5q52 0 90.5 -20.5t62.5 -55t32.5 -79.5t0.5 -94
q-8 -50 -30.5 -95t-57 -79t-79.5 -53.5t-98 -19.5q-48 0 -87 20.5t-62 58.5h-2l-52 -330h-80l173 1089h80z" />
    <glyph glyph-name="ydieresis" unicode="&#xff;" horiz-adv-x="498" 
d="M465 705q23 0 36 -15.5t9 -38.5t-21.5 -38.5t-40.5 -15.5t-36.5 15.5t-9.5 38.5t22 38.5t41 15.5zM268 705q23 0 36 -15.5t9 -38.5t-21.5 -38.5t-40.5 -15.5t-36.5 15.5t-9.5 38.5t22 38.5t41 15.5zM72 470h93l113 -337l205 337h91l-463 -734h-91l201 308z" />
    <glyph glyph-name="OE" unicode="&#x152;" horiz-adv-x="1190" 
d="M540 689q-65 0 -125 -24.5t-108.5 -67t-81.5 -99.5t-43 -121t5 -120.5t50 -99t87.5 -67.5t116.5 -25t124.5 25t109 67.5t82 99t43.5 120.5t-5 121t-50 99.5t-87.5 67t-117.5 24.5zM752 145h-2q-30 -38 -67.5 -67.5t-79 -49.5t-85.5 -30.5t-89 -10.5q-81 0 -147.5 30.5
t-111.5 83t-65 123.5t-7 152t55 152t104 124.5t138 84t157 30.5q89 0 161 -42.5t110 -118.5h2l23 148h394l-12 -78h-310l-35 -224h301l-13 -78h-301l-47 -296h310l-12 -78h-394z" />
    <glyph glyph-name="oe" unicode="&#x153;" horiz-adv-x="940" 
d="M348 409q-37 0 -70 -14t-59 -37.5t-43 -55t-23 -67.5t1.5 -67.5t26 -55.5t47 -37.5t65.5 -13.5t70 13.5t58.5 37.5t42.5 55.5t23 67.5t-1.5 67.5t-25.5 55t-46.5 37.5t-65.5 14zM868 286q0 25 -8.5 47.5t-24 39.5t-37.5 26.5t-48 9.5t-51.5 -9.5t-48 -26.5t-39 -39.5
t-24.5 -47.5h281zM570 218q-5 -33 2 -61.5t23.5 -49.5t43 -33.5t60.5 -12.5q51 0 89.5 27.5t68.5 69.5l62 -39q-44 -63 -105 -97.5t-133 -34.5q-29 0 -56.5 7.5t-51 22t-41.5 35.5t-27 47q-20 -27 -46 -48t-56 -35t-61.5 -21.5t-62.5 -7.5q-51 0 -93 19t-70.5 52.5
t-40.5 78.5t-4 97t34.5 97t65 79t86.5 53.5t100 19.5q66 -2 118 -31t72 -83q37 55 93 83.5t117 30.5q57 0 97 -21.5t63 -58.5t29 -85t-5 -100h-371z" />
    <glyph glyph-name="Scaron" unicode="&#x160;" horiz-adv-x="559" 
d="M421 818l-137 133l65 45l86 -85l113 85l50 -45zM514 607q-17 39 -43 60.5t-74 21.5q-25 0 -49 -8.5t-43.5 -24t-33 -37t-17.5 -47.5q-4 -24 4.5 -42.5t23.5 -32.5t34 -24t37 -19l46 -22q34 -16 64.5 -34.5t51.5 -43t30 -57t2 -77.5q-8 -50 -33.5 -92.5t-62.5 -73.5
t-83 -49t-95 -18q-45 0 -82 14t-63.5 39.5t-41.5 61.5t-17 80l85 23q0 -29 8.5 -54.5t25 -44.5t41 -30t54.5 -11t60 11t54.5 30.5t42 46.5t22.5 59q5 33 -3 56t-25 40t-40.5 29.5t-47.5 24.5l-42 20q-31 15 -58 32t-46 39t-27.5 51.5t-2.5 70.5q7 44 30 79.5t56 60.5
t73 38.5t82 13.5q63 0 109.5 -30.5t67.5 -86.5z" />
    <glyph glyph-name="scaron" unicode="&#x161;" horiz-adv-x="399" 
d="M290 559l-137 133l65 45l86 -85l113 85l50 -45zM323 361q-5 19 -19.5 33.5t-36.5 14.5q-21 0 -42 -14.5t-24 -37.5q-3 -16 4.5 -27.5t21.5 -21t32 -17t38 -16.5q19 -9 37 -20t30.5 -26.5t18.5 -37t1 -51.5q-5 -33 -22 -61.5t-42 -48.5t-55.5 -31.5t-63.5 -11.5
q-60 0 -98.5 31.5t-48.5 87.5l76 30q10 -33 27 -54t57 -21q32 0 57 20t30 52q4 26 -9 42t-34.5 28t-47.5 22.5t-47 26t-33.5 38.5t-6.5 60q5 30 20 54.5t37 42t48.5 27t55.5 9.5q41 0 71 -25t41 -62z" />
    <glyph glyph-name="Ydieresis" unicode="&#x178;" horiz-adv-x="593" 
d="M560 964q23 0 36 -15.5t9 -38.5t-21.5 -38.5t-40.5 -15.5t-36.5 15.5t-9.5 38.5t22 38.5t41 15.5zM363 964q23 0 36 -15.5t9 -38.5t-21.5 -38.5t-40.5 -15.5t-36.5 15.5t-9.5 38.5t22 38.5t41 15.5zM127 754h97l139 -336l245 336h97l-315 -430l-51 -324h-84l51 324z" />
    <glyph glyph-name="florin" unicode="&#x192;" 
d="M642 750q-11 5 -22.5 8t-25.5 3q-21 0 -38.5 -6t-31.5 -26q-13 -20 -22.5 -45t-17.5 -46l-46 -136h120l-22 -68h-121l-108 -314q-7 -21 -15.5 -45t-18.5 -48t-22 -46.5t-27 -40.5q-37 -44 -88.5 -62t-102.5 -18l-50 4l28 75l34 -1q45 0 74 15.5t48.5 41t33 59.5t25.5 70
l106 310h-82l22 68h84l53 158q12 37 27.5 69.5t38 56.5t54 38t74.5 14q36 0 66 -13z" />
    <glyph glyph-name="circumflex" unicode="&#x2c6;" horiz-adv-x="470" 
d="M351 737l137 -133l-65 -45l-87 85l-112 -85l-50 45z" />
    <glyph glyph-name="tilde" unicode="&#x2dc;" horiz-adv-x="506" 
d="M177 627q23 30 50 54.5t65 24.5q23 0 41.5 -7t35.5 -16q17 -8 32 -15.5t29 -7.5q21 0 36.5 15.5t26.5 32.5l41 -38q-19 -33 -50.5 -57t-68.5 -24q-18 0 -36 7t-35 16q-17 8 -34 15t-33 7q-21 0 -33.5 -14.5t-23.5 -31.5z" />
    <glyph glyph-name="endash" unicode="&#x2013;" horiz-adv-x="500" 
d="M544 278l-12 -74h-500l12 74h500z" />
    <glyph glyph-name="emdash" unicode="&#x2014;" horiz-adv-x="1000" 
d="M914 278l-12 -74h-740l12 74h740z" />
    <glyph glyph-name="quoteleft" unicode="&#x2018;" horiz-adv-x="289" 
d="M142 512l154 255l51 -21l-135 -261z" />
    <glyph glyph-name="quoteright" unicode="&#x2019;" horiz-adv-x="289" 
d="M345 740l-154 -255l-51 21l135 261z" />
    <glyph glyph-name="quotesinglbase" unicode="&#x201a;" horiz-adv-x="289" 
d="M242 84l-154 -256l-51 22l135 260z" />
    <glyph glyph-name="quotedblleft" unicode="&#x201c;" horiz-adv-x="457" 
d="M142 512l154 255l51 -21l-135 -261zM310 512l154 255l51 -21l-135 -261z" />
    <glyph glyph-name="quotedblright" unicode="&#x201d;" horiz-adv-x="457" 
d="M514 740l-154 -255l-51 21l135 261zM346 740l-154 -255l-51 21l135 261z" />
    <glyph glyph-name="quotedblbase" unicode="&#x201e;" horiz-adv-x="464" 
d="M417 84l-154 -256l-51 22l135 260zM242 84l-154 -256l-51 22l135 260z" />
    <glyph glyph-name="dagger" unicode="&#x2020;" horiz-adv-x="592" 
d="M456 754l-29 -185h167l-12 -78h-167l-104 -654h-82l104 654h-167l12 78h167l29 185h82z" />
    <glyph glyph-name="daggerdbl" unicode="&#x2021;" horiz-adv-x="592" 
d="M456 754l-29 -185h167l-12 -78h-167l-58 -363h167l-12 -78h-167l-34 -213h-82l34 213h-167l12 78h167l58 363h-167l12 78h167l29 185h82z" />
    <glyph glyph-name="bullet" unicode="&#x2022;" horiz-adv-x="592" 
d="M326 189q-39 0 -70.5 14.5t-53.5 40t-31 60t-3 73.5t26 73.5t49.5 60t66.5 40.5t76 15t71 -15t53.5 -40.5t31 -60t3.5 -73.5t-26.5 -73.5t-50.5 -60t-66.5 -40t-75.5 -14.5z" />
    <glyph glyph-name="ellipsis" unicode="&#x2026;" horiz-adv-x="1000" 
d="M848 99q23 0 37 -16t10 -39t-23 -40t-42 -17t-37 17t-10 40t23 39t42 16zM516 99q23 0 37 -16t10 -39t-23 -40t-42 -17t-37 17t-10 40t23 39t42 16zM184 99q23 0 37 -16t10 -39t-23 -40t-42 -17t-37 17t-10 40t23 39t42 16z" />
    <glyph glyph-name="perthousand" unicode="&#x2030;" horiz-adv-x="1212" 
d="M1050 252q-21 0 -41 -8t-36.5 -21.5t-28 -32t-14.5 -39.5t2.5 -39t17.5 -31.5t29.5 -21.5t38.5 -8t41 8t36.5 21.5t28 31.5t14.5 39t-2.5 39.5t-17.5 32t-29.5 21.5t-38.5 8zM1060 316q34 0 63 -12.5t48.5 -35t28 -52.5t2.5 -65t-24 -64.5t-44.5 -52t-59 -35t-66.5 -12.5
t-62.5 12.5t-48 34.5t-28.5 52t-3 65t24 65t44 52.5t58.5 35t67.5 12.5zM640 252q-21 0 -41 -8t-36.5 -21.5t-28 -32t-14.5 -39.5t2.5 -39t17.5 -31.5t29.5 -21.5t38.5 -8t41 8t36.5 21.5t28 31.5t14.5 39t-2.5 39.5t-17.5 32t-29.5 21.5t-38.5 8zM650 316q34 0 63 -12.5
t48.5 -35t28 -52.5t2.5 -65t-24 -64.5t-44.5 -52t-59 -35t-66.5 -12.5t-62.5 12.5t-48 34.5t-28.5 52t-3 65t24 65t44 52.5t58.5 35t67.5 12.5zM757 743l-556 -756l-39 26l558 754zM313 703q-21 0 -41 -8t-36.5 -21.5t-28 -32t-14.5 -39.5t2.5 -39t18 -31.5t30 -21.5
t38.5 -8t41 8t36.5 21.5t27.5 31.5t14 39t-2.5 39.5t-17.5 32t-29.5 21.5t-38.5 8zM323 767q34 0 63 -12.5t48.5 -35t28 -52.5t2.5 -65q-5 -35 -23.5 -64.5t-45 -52t-59 -35t-66.5 -12.5t-62.5 12.5t-48 34.5t-28 52t-3.5 65q6 35 24 65t44 52.5t58.5 35t67.5 12.5z" />
    <glyph glyph-name="guilsinglleft" unicode="&#x2039;" horiz-adv-x="330" 
d="M274 74l-60 -41l-135 207l202 213l46 -42l-162 -171z" />
    <glyph glyph-name="guilsinglright" unicode="&#x203a;" horiz-adv-x="330" 
d="M241 240l-108 171l60 42l134 -213l-201 -207l-46 41z" />
    <glyph glyph-name="trademark" unicode="&#x2122;" horiz-adv-x="940" 
d="M487 694h-140l-57 -361h-60l57 361h-141l9 60h341zM958 333h-60l57 361h-2l-201 -361h-39l-83 361h-2l-57 -361h-60l66 421h101l73 -303l173 303h100z" />
    <glyph glyph-name="fraction" horiz-adv-x="161" 
d="M440 743l-559 -756l-40 24l558 756z" />
    <glyph glyph-name="fi" horiz-adv-x="519" 
d="M500 704q23 0 37 -17t10 -40q-4 -24 -23.5 -40.5t-42.5 -16.5t-37.5 16.5t-10.5 40.5q4 23 24 40t43 17zM428 0h-80l74 470h80zM151 0h-80l63 396h-44l11 74h44l30 187q5 29 12.5 62.5t27.5 59.5q25 32 60 45.5t71 13.5q14 0 27.5 -2.5t27.5 -7.5l-13 -81q-13 5 -25 8
t-27 3q-24 0 -38.5 -8.5t-23.5 -25t-13.5 -40.5t-9.5 -55l-26 -159h119l-11 -74h-119z" />
    <glyph glyph-name="fl" horiz-adv-x="501" 
d="M151 0h-80l63 396h-44l11 74h44l30 187q5 29 12.5 62.5t27.5 59.5q25 32 60 45.5t71 13.5q14 0 27.5 -2.5t27.5 -7.5l-13 -81q-13 5 -25 8t-27 3q-24 0 -38.5 -8.5t-23.5 -25t-13.5 -40.5t-9.5 -55l-26 -159h119l-11 -74h-119zM428 0h-80l131 825h80z" />
    <glyph glyph-name="breve" horiz-adv-x="485" 
d="M261 716q8 -34 28 -51t57 -17t62 17t43 51h69q-9 -31 -27.5 -56t-43.5 -43t-54 -27.5t-60 -9.5q-30 0 -56.5 9.5t-46 27.5t-30.5 43t-10 56h69z" />
    <glyph glyph-name="dotaccent" horiz-adv-x="358" 
d="M292 716q23 0 36.5 -15.5t9.5 -38.5t-22 -38.5t-41 -15.5t-36 15.5t-9 38.5t21.5 38.5t40.5 15.5z" />
    <glyph glyph-name="ring" horiz-adv-x="350" 
d="M286 697q-20 0 -36 -13.5t-19 -33.5t8.5 -34t31.5 -14t36 14t19 34t-8.5 33.5t-31.5 13.5zM294 747q40 0 64 -28.5t18 -68.5q-3 -20 -13.5 -38t-26 -31.5t-34.5 -21t-39 -7.5q-41 0 -65 28.5t-17 69.5q3 20 13.5 37.5t26 31t34.5 21t39 7.5z" />
    <glyph glyph-name="hungarumlaut" horiz-adv-x="467" 
d="M377 583l-38 11l85 162l74 -14zM220 583l-38 11l85 162l74 -14z" />
    <glyph glyph-name="ogonek" horiz-adv-x="337" 
d="M225 0v-2q-13 -8 -29 -18.5t-30 -23.5t-24.5 -27.5t-12.5 -30.5q-4 -24 11.5 -34.5t36.5 -10.5q16 0 32 5t31 13l-21 -66q-32 -15 -65 -15q-21 0 -39.5 6t-32 18t-20 29.5t-3.5 39.5q7 39 37.5 68.5t64.5 48.5h64z" />
    <glyph glyph-name="caron" horiz-adv-x="470" 
d="M325 559l-137 133l65 45l86 -85l113 85l50 -45z" />
    <glyph glyph-name="Lslash" horiz-adv-x="375" 
d="M127 319l-84 -49l12 80l84 49l56 355h84l-47 -300l143 84l-12 -80l-144 -84l-47 -296h208l-12 -78h-292z" />
    <glyph glyph-name="dotlessi" horiz-adv-x="262" 
d="M171 0h-80l74 470h80z" />
    <glyph glyph-name="lslash" horiz-adv-x="258" 
d="M148 370l-82 -49l11 71l82 49l61 384h80l-53 -330l82 49l-11 -71l-82 -49l-67 -424h-80z" />
    <glyph glyph-name="minus" 
d="M113 295h484l-13 -78h-484z" />
    </font>
</defs>
</svg>
